<svg width="373" height="424" viewBox="0 0 373 424" fill="none" xmlns="http://www.w3.org/2000/svg">
<path d="M57.2502 130.704C56.101 133.316 54.8341 136.137 53.724 138.892C52.6139 141.648 51.4647 144.482 50.459 147.303C48.3957 152.802 46.7413 158.446 45.5093 164.189L45.1306 166.279L45 167.063C45 167.285 45 167.572 44.9216 167.833C44.8719 169.105 44.8981 170.378 45 171.647C45.2481 174.402 45.6921 177.354 46.306 180.305C47.403 186.222 48.8004 192.321 50.224 198.328L43.5242 200.94C40.401 195.247 37.7413 189.312 35.5706 183.192C34.427 180.006 33.502 176.747 32.8019 173.436C32.4097 171.604 32.1651 169.743 32.0706 167.872V166.292C32.0706 165.73 32.0706 165.104 32.162 164.738L32.4232 162.126C32.8134 158.762 33.4109 155.425 34.2124 152.135C34.9438 148.87 35.8841 145.696 36.8244 142.562C37.7647 139.428 38.9401 136.345 40.1808 133.316C40.7946 131.801 41.4868 130.299 42.0876 128.797C42.6883 127.295 43.3936 125.858 44.2294 124.252L57.2502 130.704Z" fill="#E4897B"/>
<path d="M49.8714 196.565L54.9648 201.541L43.8507 206.765C43.8507 206.765 41.1604 202.05 43.028 197.793L49.8714 196.565Z" fill="#E4897B"/>
<path d="M59.0787 208.946L49.6885 212.786L43.8638 206.713L54.9648 201.541L59.0787 208.946Z" fill="#E4897B"/>
<path opacity="0.4" d="M249.298 203.591C230.819 201.517 213.37 194.01 199.157 182.02C184.944 170.03 174.606 154.095 169.448 136.23C164.29 118.365 164.544 99.3715 170.179 81.651C175.814 63.9306 186.576 48.2787 201.106 36.674C215.635 25.0693 233.278 18.0328 251.806 16.4541C270.334 14.8754 288.914 18.8253 305.197 27.8045C321.48 36.7838 334.735 50.3892 343.287 66.9008C351.839 83.4123 355.303 102.089 353.242 120.569C351.873 132.847 348.097 144.735 342.132 155.554C336.166 166.372 328.127 175.909 318.473 183.619C308.82 191.329 297.742 197.062 285.873 200.489C274.003 203.916 261.575 204.97 249.298 203.591Z" fill="#FAFAFA"/>
<path opacity="0.4" d="M317.706 36.0578L174.699 150.32C174.098 149.014 173.511 147.708 172.962 146.402C169.377 137.874 167.083 128.859 166.158 119.655L289.679 20.9604C299.82 24.3432 309.302 29.4506 317.706 36.0578Z" fill="#FAFAFA"/>
<path opacity="0.4" d="M350.709 86.1166L216.256 193.535C203.483 186.877 192.414 177.367 183.906 165.743L330.714 48.4385C340.177 59.3004 347.018 72.1914 350.709 86.1166Z" fill="#FAFAFA"/>
<path d="M153.934 74.206L152.693 73.788C154.842 67.4474 157.542 61.3075 160.764 55.4388L161.9 56.0656C158.721 61.8687 156.055 67.9386 153.934 74.206ZM169.788 43.7239L168.731 42.9534C179.463 28.4409 193.51 16.7047 209.7 8.72314L210.287 9.89854C194.282 17.7977 180.396 29.4085 169.788 43.7631V43.7239ZM312.913 11.6878C308.645 9.39866 304.23 7.39607 299.696 5.69322L300.166 4.46558C304.745 6.20837 309.203 8.25013 313.514 10.5777L312.913 11.6878Z" fill="#FF6262"/>
<path opacity="0.3" d="M153.934 74.206L152.693 73.788C154.842 67.4474 157.542 61.3075 160.764 55.4388L161.9 56.0656C158.721 61.8687 156.055 67.9386 153.934 74.206ZM169.788 43.7239L168.731 42.9534C179.463 28.4409 193.51 16.7047 209.7 8.72314L210.287 9.89854C194.282 17.7977 180.396 29.4085 169.788 43.7631V43.7239ZM312.913 11.6878C308.645 9.39866 304.23 7.39607 299.696 5.69322L300.166 4.46558C304.745 6.20837 309.203 8.25013 313.514 10.5777L312.913 11.6878Z" fill="black"/>
<path d="M356.99 62.1124C344.897 37.0311 323.616 17.5652 297.559 7.75028C271.501 -2.06469 242.666 -1.476 217.031 9.39432C191.396 20.2646 170.928 40.5828 159.868 66.1368C148.809 91.6908 148.007 120.521 157.629 146.65C148.905 149.706 140.286 152.984 131.718 156.366C119.364 161.268 107.122 166.388 94.9936 171.725C82.874 177.093 70.8065 182.565 58.8566 188.285C52.8621 191.093 46.9459 194.058 40.9775 196.931C37.8726 198.265 35.0595 200.195 32.6974 202.612C31.4192 203.95 30.2935 205.426 29.341 207.013C28.1788 208.89 27.2987 210.927 26.729 213.06C25.7463 216.903 26.1713 220.971 27.9271 224.528C29.6829 228.085 32.6536 230.897 36.302 232.454C38.328 233.304 40.4656 233.858 42.6492 234.1C44.4934 234.308 46.3554 234.308 48.1997 234.1C51.5512 233.693 54.7903 232.632 57.7335 230.978C63.6496 227.987 69.605 225.101 75.482 222.032C87.236 216.038 98.99 209.782 110.6 203.435C122.211 197.087 133.834 190.44 145.17 183.623C153.006 178.882 160.921 174.037 168.678 168.969C183.575 192.486 206.948 209.37 233.954 216.123C260.96 222.876 289.529 218.981 313.742 205.243C337.954 191.506 355.953 168.981 364.009 142.334C372.066 115.688 369.562 86.963 357.016 62.1124H356.99ZM297.62 186.875C282.442 194.366 265.384 197.189 248.602 194.986C231.82 192.784 216.069 185.655 203.339 174.5C190.608 163.346 181.472 148.667 177.084 132.32C172.695 115.973 173.253 98.6918 178.686 82.6618C184.119 66.6317 194.183 52.5725 207.606 42.2619C221.028 31.9513 237.207 25.8523 254.096 24.7362C270.985 23.62 287.825 27.5368 302.488 35.9913C317.151 44.4457 328.978 57.0582 336.473 72.2339C341.451 82.3122 344.394 93.2724 345.135 104.488C345.877 115.704 344.401 126.957 340.793 137.602C337.185 148.248 331.515 158.079 324.107 166.533C316.7 174.987 307.699 181.899 297.62 186.875Z" fill="#FF6262"/>
<path opacity="0.3" d="M356.99 62.1124C344.897 37.0311 323.616 17.5652 297.559 7.75028C271.501 -2.06469 242.666 -1.476 217.031 9.39432C191.396 20.2646 170.928 40.5828 159.868 66.1368C148.809 91.6908 148.007 120.521 157.629 146.65C148.905 149.706 140.286 152.984 131.718 156.366C119.364 161.268 107.122 166.388 94.9936 171.725C82.874 177.093 70.8065 182.565 58.8566 188.285C52.8621 191.093 46.9459 194.058 40.9775 196.931C37.8726 198.265 35.0595 200.195 32.6974 202.612C31.4192 203.95 30.2935 205.426 29.341 207.013C28.1788 208.89 27.2987 210.927 26.729 213.06C25.7463 216.903 26.1713 220.971 27.9271 224.528C29.6829 228.085 32.6536 230.897 36.302 232.454C38.328 233.304 40.4656 233.858 42.6492 234.1C44.4934 234.308 46.3554 234.308 48.1997 234.1C51.5512 233.693 54.7903 232.632 57.7335 230.978C63.6496 227.987 69.605 225.101 75.482 222.032C87.236 216.038 98.99 209.782 110.6 203.435C122.211 197.087 133.834 190.44 145.17 183.623C153.006 178.882 160.921 174.037 168.678 168.969C183.575 192.486 206.948 209.37 233.954 216.123C260.96 222.876 289.529 218.981 313.742 205.243C337.954 191.506 355.953 168.981 364.009 142.334C372.066 115.688 369.562 86.963 357.016 62.1124H356.99ZM297.62 186.875C282.442 194.366 265.384 197.189 248.602 194.986C231.82 192.784 216.069 185.655 203.339 174.5C190.608 163.346 181.472 148.667 177.084 132.32C172.695 115.973 173.253 98.6918 178.686 82.6618C184.119 66.6317 194.183 52.5725 207.606 42.2619C221.028 31.9513 237.207 25.8523 254.096 24.7362C270.985 23.62 287.825 27.5368 302.488 35.9913C317.151 44.4457 328.978 57.0582 336.473 72.2339C341.451 82.3122 344.394 93.2724 345.135 104.488C345.877 115.704 344.401 126.957 340.793 137.602C337.185 148.248 331.515 158.079 324.107 166.533C316.7 174.987 307.699 181.899 297.62 186.875Z" fill="black"/>
<path d="M93.3481 84.0664C93.3481 84.8369 93.753 85.4638 94.2623 85.4638C94.7717 85.4638 95.1765 84.8369 95.1765 84.0664C95.1765 83.2958 94.7717 82.6689 94.2623 82.6689C93.753 82.6689 93.3481 83.3481 93.3481 84.0664Z" fill="#263238"/>
<path d="M93.7139 85.4636C94.6383 87.8289 95.8818 90.0567 97.4098 92.0851C96.8815 92.463 96.277 92.7208 95.6385 92.8403C95 92.9599 94.3431 92.9384 93.7139 92.7772V85.4636Z" fill="#DE5753"/>
<path d="M90.6447 79.7695C90.5719 79.7695 90.5 79.7531 90.4344 79.7214C90.3688 79.6898 90.3112 79.6437 90.266 79.5866C90.1979 79.487 90.1708 79.3649 90.1902 79.2458C90.2097 79.1267 90.2742 79.0196 90.3704 78.9467C90.9456 78.5105 91.6177 78.2198 92.3294 78.0992C93.0412 77.9787 93.7715 78.032 94.4582 78.2545C94.5199 78.2713 94.5773 78.3009 94.6269 78.3413C94.6764 78.3817 94.717 78.432 94.7458 78.489C94.7747 78.5461 94.7913 78.6085 94.7946 78.6723C94.7978 78.7362 94.7876 78.8 94.7647 78.8597C94.7417 78.9193 94.7065 78.9735 94.6613 79.0187C94.6162 79.0639 94.562 79.0992 94.5023 79.1221C94.4427 79.1451 94.3789 79.1553 94.315 79.1521C94.2512 79.1489 94.1888 79.1323 94.1317 79.1034C93.5862 78.9361 93.0086 78.9022 92.4472 79.0045C91.8859 79.1067 91.3573 79.3422 90.9059 79.6911C90.8285 79.7425 90.7376 79.7697 90.6447 79.7695Z" fill="#263238"/>
<path d="M66.9668 89.8779C68.2728 96.8911 69.7094 109.755 64.7988 114.444C64.7988 114.444 66.7187 121.561 79.7656 121.561C94.1316 121.561 86.609 114.444 86.609 114.444C78.773 112.563 78.9951 106.765 80.3533 101.305L66.9668 89.8779Z" fill="#E4897B"/>
<path d="M58.9351 118.14C60.4892 115.724 57.8772 109.86 57.8772 109.86C57.8772 109.86 80.9673 104.048 90.4097 112.968C92.3687 114.809 90.2007 117.526 90.2007 117.526L58.9351 118.14Z" fill="#FF6262"/>
<path opacity="0.1" d="M58.9351 118.14C60.4892 115.724 57.8772 109.86 57.8772 109.86C57.8772 109.86 80.9673 104.048 90.4097 112.968C92.3687 114.809 90.2007 117.526 90.2007 117.526L58.9351 118.14Z" fill="black"/>
<path d="M20.7345 384.603C19.5199 384.603 17.574 382.579 16.9993 381.821C16.9746 381.785 16.9614 381.741 16.9614 381.697C16.9614 381.653 16.9746 381.61 16.9993 381.573C17.0204 381.537 17.0509 381.506 17.0877 381.486C17.1245 381.465 17.1661 381.455 17.2083 381.456C17.3519 381.456 20.5516 381.743 21.4267 382.879C21.5218 382.999 21.5898 383.138 21.6258 383.287C21.6619 383.436 21.6653 383.591 21.6356 383.741C21.6243 383.936 21.5528 384.122 21.4312 384.274C21.3095 384.426 21.1437 384.536 20.9565 384.59L20.7345 384.603ZM17.7046 381.991C18.658 383.088 20.186 384.329 20.839 384.172C20.839 384.172 21.1002 384.107 21.1785 383.689C21.1957 383.602 21.1929 383.512 21.1703 383.426C21.1476 383.34 21.1058 383.26 21.0479 383.193C20.0804 382.46 18.9163 382.032 17.7046 381.965V381.991Z" fill="#FF6262"/>
<path d="M17.8481 381.965C17.6137 381.989 17.3774 381.989 17.1429 381.965C17.1016 381.962 17.0622 381.946 17.0297 381.921C16.9971 381.895 16.9729 381.861 16.9601 381.821C16.9417 381.785 16.9321 381.745 16.9321 381.704C16.9321 381.663 16.9417 381.623 16.9601 381.586C17.0515 381.508 18.9713 379.51 20.421 379.51C20.5944 379.506 20.7668 379.539 20.9266 379.606C21.0864 379.674 21.2301 379.774 21.3482 379.901C21.4782 380.01 21.5672 380.16 21.6005 380.326C21.6337 380.493 21.6092 380.665 21.5311 380.816C21.1523 381.547 19.1541 381.965 17.8481 381.965ZM17.6784 381.508C18.9844 381.508 20.8781 381.103 21.1915 380.528C21.1915 380.528 21.2829 380.359 21.074 380.15C20.998 380.067 20.9048 380.002 20.801 379.959C20.6973 379.916 20.5854 379.897 20.4732 379.901C19.4026 380.147 18.4296 380.706 17.6784 381.508Z" fill="#FF6262"/>
<path d="M106.917 414.249C105.927 414.242 104.94 414.151 103.966 413.975C103.917 413.966 103.874 413.94 103.843 413.901C103.812 413.863 103.795 413.815 103.796 413.766C103.789 413.721 103.795 413.675 103.813 413.633C103.832 413.591 103.862 413.556 103.9 413.531C104.044 413.453 107.387 411.533 108.994 411.977C109.143 412.01 109.283 412.074 109.407 412.164C109.53 412.254 109.634 412.368 109.712 412.499C109.814 412.644 109.869 412.818 109.869 412.995C109.869 413.173 109.814 413.346 109.712 413.492C109.333 414.079 108.145 414.249 106.917 414.249ZM104.71 413.635C106.486 413.897 108.916 413.883 109.36 413.257C109.425 413.178 109.477 413.035 109.36 412.76C109.26 412.598 109.1 412.481 108.916 412.434C107.897 412.173 105.873 413.035 104.71 413.635Z" fill="#FF6262"/>
<path d="M104.018 413.988C103.975 414 103.93 414 103.888 413.988C103.851 413.965 103.823 413.931 103.807 413.891C103.79 413.851 103.787 413.808 103.796 413.766C103.885 412.406 104.406 411.111 105.285 410.07C105.463 409.916 105.671 409.803 105.897 409.738C106.122 409.673 106.359 409.657 106.591 409.691C107.218 409.691 107.401 410.07 107.44 410.318C107.61 411.402 105.324 413.478 104.162 414.001L104.018 413.988ZM106.356 410.07C106.069 410.068 105.79 410.17 105.572 410.357C104.834 411.182 104.376 412.22 104.266 413.322C105.442 412.603 107.009 410.984 106.878 410.331C106.878 410.331 106.878 410.109 106.434 410.07H106.356Z" fill="#FF6262"/>
<path d="M93.4656 413.753H103.065L104.018 391.538H94.419L93.4656 413.753Z" fill="#E4897B"/>
<path d="M7.98804 375.618L16.0069 380.868L33.7162 365.914L25.6843 360.651L7.98804 375.618Z" fill="#E4897B"/>
<path d="M17.3258 380.371L8.99356 373.541C8.84635 373.42 8.66171 373.354 8.47116 373.354C8.28061 373.354 8.09597 373.42 7.94876 373.541L1.0792 378.935C0.913234 379.067 0.779206 379.235 0.687083 379.426C0.594961 379.617 0.547119 379.826 0.547119 380.038C0.547119 380.251 0.594961 380.46 0.687083 380.651C0.779206 380.842 0.913234 381.01 1.0792 381.142C4.03076 383.48 5.5849 384.472 9.25476 387.476C11.5141 389.318 17.0908 394.959 20.2382 397.506C23.3857 400.053 26.2719 397.31 25.2271 395.991C20.5386 390.049 18.6971 384.969 18.1617 381.821C18.0691 381.252 17.7719 380.737 17.3258 380.371Z" fill="#263238"/>
<path d="M102.999 412.643H92.5514C92.3609 412.644 92.1762 412.709 92.0269 412.827C91.8777 412.945 91.7726 413.111 91.7287 413.296L89.835 421.824C89.7874 422.031 89.7874 422.246 89.8352 422.452C89.8829 422.659 89.977 422.852 90.1104 423.017C90.2438 423.182 90.413 423.314 90.6051 423.404C90.7972 423.494 91.0073 423.539 91.2193 423.535C94.9937 423.47 100.453 423.248 105.207 423.248C110.757 423.248 115.563 423.548 122.067 423.548C125.985 423.548 127.108 419.565 125.45 419.212C117.953 417.567 111.815 417.397 105.337 413.387C104.642 412.927 103.833 412.67 102.999 412.643Z" fill="#263238"/>
<path d="M45.8881 117.304C37.5689 121.222 32.8281 147.473 32.8281 147.473L53.1625 155.583C56.139 148.315 58.545 140.826 60.3586 133.185C63.1534 121.091 54.4032 113.255 45.8881 117.304Z" fill="#263238"/>
<path d="M56.6755 132.101C51.6474 137.194 49.3489 147.172 48.3433 153.663L53.2146 155.609C56.1065 148.547 58.4639 141.279 60.267 133.864C59.8361 131.095 58.7651 129.985 56.6755 132.101Z" fill="#203048"/>
<path d="M101.367 117.121C101.367 117.121 111.58 128.666 101.942 200.052H50.6288C50.2762 192.216 55.2259 153.754 47.625 116.638C53.2957 115.538 59.0328 114.814 64.7989 114.47C72.0626 114.039 79.3454 114.039 86.6091 114.47C91.5895 114.971 96.5235 115.858 101.367 117.121Z" fill="#263238"/>
<path d="M106.055 144.835L97.4097 129.933C95.7407 136.886 95.0593 144.039 95.3854 151.182C95.6205 156.301 100.309 175.264 104.527 178.033C105.647 167.003 106.157 155.92 106.055 144.835Z" fill="#203048"/>
<path d="M107.257 127.321C108.563 133.668 109.869 140.172 111.266 146.545C112.664 152.919 114.113 159.318 115.798 165.495C116.229 167.023 116.634 168.591 117.104 170.053L117.457 171.177L117.627 171.738V171.673C117.535 171.555 117.431 171.542 117.509 171.673C118.046 172.259 118.732 172.688 119.494 172.914C120.729 173.373 122 173.727 123.295 173.971C129.469 174.95 135.721 175.357 141.97 175.186L143.211 182.291C141.461 182.852 139.829 183.257 138.105 183.662C136.381 184.067 134.683 184.406 132.946 184.668C129.352 185.266 125.708 185.511 122.067 185.399C120.043 185.344 118.03 185.082 116.059 184.615C113.554 184.067 111.2 182.975 109.164 181.416C107.834 180.342 106.736 179.009 105.938 177.498C105.729 177.106 105.546 176.662 105.376 176.283L105.141 175.669L104.658 174.363C103.992 172.705 103.443 171.072 102.843 169.44C100.635 162.91 98.794 156.314 97.1746 149.732C95.5551 143.15 94.1577 136.581 92.9954 129.829L107.257 127.321Z" fill="#E4897B"/>
<path d="M88.555 124.121C85.8516 132.885 96.8089 159.018 96.8089 159.018L118.632 153.532C118.632 153.532 117.796 139.95 112.82 129.176C105.324 112.929 91.7939 113.608 88.555 124.121Z" fill="#263238"/>
<path d="M141.788 175.186L152.654 174.912L147.43 186.222C147.43 186.222 143.002 186.809 139.372 180.841L135.545 176.27L139.946 175.395C140.552 175.267 141.169 175.197 141.788 175.186Z" fill="#E4897B"/>
<path d="M159.51 177.014L153.294 186.391L147.43 186.222L152.654 174.912L159.51 177.014Z" fill="#E4897B"/>
<path d="M104.018 391.538L103.522 402.991H93.9229L94.4191 391.538H104.018Z" fill="#CE6F64"/>
<path d="M25.6841 360.651L33.716 365.914L24.574 373.619L16.5552 368.369L25.6841 360.651Z" fill="#CE6F64"/>
<path d="M67.5676 82.4076C68.1422 91.9023 67.9985 97.505 72.7916 102.376C80.0007 109.729 91.7416 105.38 94.0141 95.8464C96.0645 87.3052 94.7846 73.2004 85.4859 69.413C83.4341 68.5848 81.2056 68.2915 79.0094 68.5606C76.8133 68.8296 74.7214 69.6522 72.9303 70.9512C71.1391 72.2502 69.7074 73.9829 68.7694 75.9868C67.8313 77.9907 67.4178 80.2001 67.5676 82.4076Z" fill="#E4897B"/>
<path d="M56.3883 80.7361C58.7521 89.3949 64.3157 99.3727 71.5118 100.013C80.4448 100.796 84.4803 91.5628 85.6557 82.029C91.0103 78.3592 88.2024 74.3236 93.5701 73.8143C100.466 73.1613 98.2586 60.5453 89.1819 58.521C89.1819 58.521 92.2249 64.2021 85.8386 61.3289C79.7651 58.4425 73.0176 57.2728 66.3269 57.9464C66.3269 57.9464 74.4764 62.0211 66.5098 63.8364C58.5432 65.6518 56.1663 70.5623 59.8361 73.527C59.8361 73.54 54.8341 75.0419 56.3883 80.7361Z" fill="#263238"/>
<path d="M80.2098 83.988C80.3853 86.3481 81.3357 88.5841 82.9133 90.3482C85.0029 92.6599 87.1839 91.2233 87.5496 88.4154C87.8891 85.8948 87.1969 81.6503 84.6372 80.3704C82.0774 79.0905 80.0401 81.1409 80.2098 83.988Z" fill="#E4897B"/>
<path d="M83.7359 200.052C83.7359 200.052 93.0869 267.768 85.721 294.907C74.0454 337.874 29.4063 374.142 29.4063 374.142L14.2698 364.216C14.2698 364.216 52.2874 333.591 56.9368 297.61C61.116 265.313 50.6288 226.25 50.6288 200.039L83.7359 200.052Z" fill="#FF6262"/>
<path opacity="0.1" d="M83.7359 200.052C83.7359 200.052 93.0869 267.768 85.721 294.907C74.0454 337.874 29.4063 374.142 29.4063 374.142L14.2698 364.216C14.2698 364.216 52.2874 333.591 56.9368 297.61C61.116 265.313 50.6288 226.25 50.6288 200.039L83.7359 200.052Z" fill="black"/>
<path d="M87.6017 238.762C85.1123 235.91 82.3718 233.288 79.4131 230.926C81.0064 252.906 82.3124 285.465 80.8627 308.594C82.8119 304.16 84.4356 299.59 85.7211 294.92C89.3126 281.664 88.9338 258.77 87.6017 238.762Z" fill="#FF6262"/>
<path opacity="0.3" d="M87.6017 238.762C85.1123 235.91 82.3718 233.288 79.4131 230.926C81.0064 252.906 82.3124 285.465 80.8627 308.594C82.8119 304.16 84.4356 299.59 85.7211 294.92C89.3126 281.664 88.9338 258.77 87.6017 238.762Z" fill="black"/>
<path d="M35.5053 370.759C35.5706 370.759 29.6414 374.677 29.6414 374.677L13.1074 363.838L18.3314 359.515L35.5053 370.759Z" fill="#FF6262"/>
<path opacity="0.3" d="M35.5053 370.759C35.5706 370.759 29.6414 374.677 29.6414 374.677L13.1074 363.838L18.3314 359.515L35.5053 370.759Z" fill="black"/>
<path d="M101.942 200.052C101.942 200.052 116.386 261.304 117.405 290.571C118.554 323.378 107.1 400.771 107.1 400.771H90.8405C90.8405 400.771 88.8423 322.777 88.124 292.896C87.3274 260.311 68.2075 200.052 68.2075 200.052H101.942Z" fill="#FF6262"/>
<path opacity="0.1" d="M101.942 200.052C101.942 200.052 116.386 261.304 117.405 290.571C118.554 323.378 107.1 400.771 107.1 400.771H90.8405C90.8405 400.771 88.8423 322.777 88.124 292.896C87.3274 260.311 68.2075 200.052 68.2075 200.052H101.942Z" fill="black"/>
<path d="M110.222 394.307C110.3 394.307 109.307 401.046 109.307 401.046H89.5345L88.999 395.025L110.222 394.307Z" fill="#FF6262"/>
<path opacity="0.3" d="M110.222 394.307C110.3 394.307 109.307 401.046 109.307 401.046H89.5345L88.999 395.025L110.222 394.307Z" fill="black"/>
<path d="M351.936 141.191C353.046 142.235 353.921 143.124 354.835 144.116C355.749 145.109 356.611 146.075 357.447 147.081C359.145 149.079 360.738 151.182 362.279 153.297C365.357 157.541 368.095 162.022 370.468 166.697L370.951 167.65C371.187 168.112 371.384 168.592 371.539 169.087C371.854 170.042 372.048 171.034 372.114 172.038C372.199 173.809 371.955 175.58 371.395 177.262C370.441 180.056 369.024 182.67 367.203 184.994C363.921 189.208 360.051 192.929 355.71 196.043L352.458 192.308C353.986 190.518 355.58 188.598 357.003 186.679C358.452 184.819 359.761 182.854 360.921 180.802C362.005 179.011 362.807 177.064 363.298 175.029C363.467 174.301 363.498 173.548 363.39 172.809C363.343 172.56 363.264 172.319 363.154 172.091C363.106 171.99 363.049 171.894 362.985 171.803L362.567 171.098C360.048 166.991 357.315 163.02 354.378 159.2C352.929 157.281 351.374 155.439 349.807 153.624C349.037 152.71 348.24 151.822 347.443 150.933C346.647 150.045 345.785 149.157 345.093 148.465L351.936 141.191Z" fill="#E4897B"/>
<path d="M353.712 191.211L343.956 189.617L349.063 198.158C349.063 198.158 355.345 197.936 357.134 194.24L353.712 191.211Z" fill="#E4897B"/>
<path d="M336.747 193.561L341.397 200.496L349.063 198.158L343.956 189.617L336.747 193.561Z" fill="#E4897B"/>
<path d="M353.242 414.132C352.579 414.189 351.917 414.008 351.374 413.623C351.211 413.468 351.09 413.274 351.024 413.058C350.957 412.843 350.948 412.615 350.996 412.395C351.005 412.255 351.053 412.12 351.133 412.005C351.214 411.89 351.324 411.799 351.453 411.742C352.589 411.233 355.567 413.139 355.906 413.361C355.945 413.385 355.975 413.421 355.991 413.464C356.008 413.506 356.01 413.553 355.998 413.596C355.993 413.641 355.974 413.683 355.943 413.716C355.912 413.749 355.872 413.771 355.828 413.779C354.982 413.994 354.114 414.112 353.242 414.132ZM351.936 412.108C351.841 412.093 351.744 412.093 351.649 412.108C351.591 412.134 351.542 412.177 351.508 412.23C351.473 412.283 351.454 412.345 351.453 412.408C351.418 412.554 351.422 412.706 351.463 412.85C351.504 412.994 351.581 413.125 351.688 413.231C352.184 413.675 353.464 413.74 355.175 413.4C354.195 412.753 353.093 412.313 351.936 412.108Z" fill="#FF6262"/>
<path d="M355.854 413.766H355.737C354.809 413.23 353.02 411.154 353.242 410.018C353.284 409.838 353.383 409.678 353.525 409.56C353.666 409.442 353.842 409.374 354.026 409.365C354.202 409.339 354.382 409.354 354.552 409.408C354.721 409.463 354.876 409.555 355.005 409.678C356.076 410.618 356.089 413.439 356.089 413.596C356.087 413.636 356.075 413.674 356.054 413.708C356.034 413.742 356.005 413.771 355.972 413.792L355.854 413.766ZM354.182 409.848H354.078C353.791 409.848 353.725 410.004 353.699 410.122C353.569 410.788 354.679 412.381 355.606 413.126C355.629 412.03 355.314 410.954 354.705 410.044C354.627 409.971 354.534 409.915 354.432 409.882C354.331 409.848 354.223 409.836 354.117 409.848H354.182Z" fill="#FF6262"/>
<path d="M308.733 414.132C307.9 414.211 307.064 413.999 306.37 413.531C306.213 413.392 306.092 413.218 306.017 413.022C305.942 412.827 305.915 412.616 305.939 412.408C305.947 412.281 305.987 412.158 306.056 412.051C306.124 411.944 306.219 411.855 306.33 411.794C307.545 411.115 311.437 413.1 311.881 413.348C311.922 413.375 311.954 413.412 311.975 413.456C311.996 413.499 312.004 413.548 311.998 413.596C311.991 413.642 311.969 413.684 311.936 413.717C311.904 413.75 311.861 413.772 311.816 413.779C310.802 413.995 309.77 414.113 308.733 414.132ZM306.996 412.108C306.847 412.098 306.698 412.129 306.566 412.199C306.519 412.221 306.479 412.256 306.451 412.3C306.423 412.344 306.409 412.395 306.409 412.447C306.389 412.583 306.402 412.722 306.448 412.852C306.493 412.981 306.569 413.098 306.67 413.192C307.271 413.727 308.877 413.818 311.045 413.453C309.781 412.779 308.412 412.325 306.996 412.108Z" fill="#FF6262"/>
<path d="M311.776 413.766H311.672C310.51 413.244 308.198 411.154 308.381 410.018C308.381 409.757 308.616 409.43 309.256 409.365C309.49 409.34 309.726 409.363 309.951 409.432C310.175 409.502 310.383 409.617 310.562 409.77C311.79 410.788 312.025 413.427 312.025 413.544C312.03 413.584 312.024 413.624 312.008 413.661C311.992 413.698 311.966 413.73 311.933 413.753C311.884 413.774 311.829 413.779 311.776 413.766ZM309.439 409.848H309.295C308.877 409.848 308.851 410.057 308.838 410.109C308.733 410.775 310.301 412.434 311.45 413.152C311.337 412.036 310.88 410.982 310.144 410.135C309.946 409.967 309.699 409.866 309.439 409.848Z" fill="#FF6262"/>
<path d="M327.213 111.166C326.835 117.069 325.816 129.058 330.348 132.375C330.348 132.375 329.525 138.422 318.829 139.832C307.075 141.36 312.443 134.726 312.443 134.726C318.672 132.349 317.876 127.608 316.178 123.272L327.213 111.166Z" fill="#E4897B"/>
<path d="M302.883 100.731C302.818 100.731 302.754 100.717 302.695 100.69C302.637 100.663 302.585 100.623 302.543 100.574C302.17 100.131 301.697 99.7821 301.164 99.5552C300.631 99.3284 300.052 99.23 299.474 99.2681C299.413 99.2793 299.35 99.2779 299.29 99.264C299.229 99.2501 299.172 99.224 299.122 99.1873C299.072 99.1507 299.03 99.1042 298.998 99.0507C298.967 98.9972 298.946 98.9379 298.938 98.8763C298.924 98.7535 298.958 98.6298 299.034 98.532C299.109 98.4342 299.221 98.3702 299.343 98.3539C300.081 98.2916 300.822 98.4087 301.504 98.6953C302.187 98.9818 302.79 99.4293 303.261 99.9995C303.318 100.068 303.354 100.15 303.366 100.238C303.377 100.326 303.364 100.415 303.327 100.496C303.29 100.576 303.232 100.645 303.157 100.693C303.083 100.742 302.997 100.768 302.909 100.77L302.883 100.731Z" fill="#263238"/>
<path d="M300.845 106.516C300.382 108.39 299.666 110.191 298.717 111.871C299.153 112.106 299.635 112.241 300.129 112.268C300.623 112.295 301.118 112.213 301.577 112.028L300.845 106.516Z" fill="#DE5753"/>
<path d="M301.368 105.08C301.472 105.864 301.146 106.543 300.636 106.621C300.127 106.699 299.618 106.099 299.526 105.315C299.435 104.531 299.748 103.852 300.258 103.787C300.767 103.722 301.276 104.244 301.368 105.08Z" fill="#263238"/>
<path d="M300.493 103.8L298.547 103.5C298.547 103.5 299.696 104.845 300.493 103.8Z" fill="#263238"/>
<path d="M322.538 413.557H312.743L312.09 390.898H321.885L322.538 413.557Z" fill="#E4897B"/>
<path d="M367.007 413.557H357.212L354.065 390.898H363.86L367.007 413.557Z" fill="#E4897B"/>
<path d="M356.611 412.46H367.608C367.796 412.458 367.977 412.525 368.119 412.648C368.261 412.77 368.353 412.94 368.379 413.126L369.685 421.837C369.709 422.057 369.686 422.279 369.618 422.489C369.55 422.699 369.438 422.893 369.29 423.057C369.142 423.221 368.961 423.352 368.759 423.441C368.557 423.53 368.338 423.575 368.117 423.574C364.291 423.509 362.436 423.287 357.604 423.287C354.626 423.287 350.277 423.587 346.177 423.587C342.076 423.587 341.854 419.525 343.565 419.16C351.231 417.514 352.445 415.242 355.018 413.061C355.467 412.688 356.028 412.477 356.611 412.46Z" fill="#263238"/>
<path d="M312.416 412.46H323.4C323.589 412.458 323.772 412.524 323.916 412.646C324.06 412.769 324.155 412.939 324.183 413.126L325.489 421.837C325.513 422.057 325.491 422.279 325.423 422.489C325.355 422.699 325.243 422.893 325.095 423.057C324.947 423.221 324.766 423.352 324.564 423.441C324.362 423.53 324.143 423.575 323.922 423.574C320.096 423.509 318.241 423.287 313.409 423.287C310.431 423.287 304.267 423.587 300.166 423.587C296.065 423.587 295.843 419.525 297.554 419.16C305.22 417.514 308.237 415.242 310.823 413.061C311.272 412.688 311.833 412.477 312.416 412.46Z" fill="#263238"/>
<path d="M312.09 390.898L312.429 402.587H322.224L321.885 390.898H312.09Z" fill="#CE6F64"/>
<path d="M363.86 390.898H354.065L355.697 402.587H365.479L363.86 390.898Z" fill="#CE6F64"/>
<path d="M327.344 98.9416C328.01 108.632 328.493 112.72 324.288 118.297C317.954 126.668 305.912 125.375 302.36 116.076C299.16 107.705 298.612 93.2736 307.519 88.2063C309.478 87.0833 311.692 86.4796 313.95 86.4524C316.209 86.4251 318.436 86.9753 320.422 88.0507C322.408 89.1261 324.086 90.691 325.298 92.5971C326.509 94.5031 327.213 96.687 327.344 98.9416Z" fill="#E4897B"/>
<path d="M332.986 107.94C338.419 110.97 342.454 103.5 342.454 103.5C342.454 103.5 332.712 104.557 333.587 98.7588C334.736 91.0664 329.225 81.7155 315.407 82.917C314.637 82.9823 313.905 83.0737 313.187 83.1913C311.74 82.5056 310.105 82.3286 308.545 82.6889C306.985 83.0492 305.593 83.9257 304.593 85.1764C300.675 85.5029 295.386 90.1784 298.978 96.3557C299.23 95.6459 299.62 94.9933 300.127 94.4359C300.427 98.0535 303.588 103.8 307.532 104.179C308.381 109.128 305.09 114.862 306.226 120.034C307.911 127.491 320.488 129.176 320.488 129.176C320.054 128.244 319.892 127.209 320.022 126.19C320.151 125.171 320.566 124.209 321.219 123.416C329.76 127.334 335.389 123.507 335.389 123.507C329.564 121.34 331.327 117.474 331.327 117.474C333.338 118.367 335.617 118.445 337.685 117.693C339.753 116.94 341.449 115.415 342.415 113.438C340.48 113.53 338.56 113.06 336.887 112.084C335.214 111.108 333.859 109.669 332.986 107.94Z" fill="#263238"/>
<path d="M310.941 105.667C310.964 106.597 310.802 107.523 310.466 108.39C310.13 109.258 309.625 110.05 308.982 110.722C307.258 112.511 305.142 111.257 304.567 108.972C304.058 106.908 304.345 103.5 306.592 102.559C307.086 102.365 307.621 102.297 308.148 102.362C308.675 102.428 309.178 102.624 309.61 102.932C310.042 103.241 310.39 103.653 310.623 104.131C310.855 104.609 310.964 105.137 310.941 105.667Z" fill="#E4897B"/>
<path d="M319.077 195.951C319.077 195.951 321.559 260.415 327.462 298.263C332.216 328.85 353.334 400.314 353.334 400.314H366.681C366.681 400.314 355.671 331.292 353.255 301.058C347.143 224.54 363.011 208.11 348.031 192.177L319.077 195.951Z" fill="#263238"/>
<path d="M330.23 216.338C330.23 216.338 324.197 215.293 320.67 226.786C321.976 248.557 324.21 277.446 327.462 298.263C328.18 302.9 329.277 308.489 330.622 314.614C328.075 277.838 330.23 216.338 330.23 216.338Z" fill="#161F33"/>
<path d="M308.668 197.309C308.668 197.309 297.672 268.63 298.312 298.472C298.978 329.516 310.353 400.34 310.353 400.34H323.583C323.583 400.34 321.493 331.357 322.655 300.875C323.961 267.638 337.531 193.561 337.531 193.561L308.668 197.309Z" fill="#263238"/>
<path d="M368.614 400.941H350.865L349.481 394.986L368.483 395.116L368.614 400.941Z" fill="#FF6262"/>
<path opacity="0.2" d="M368.614 400.941H350.865L349.481 394.986L368.483 395.116L368.614 400.941Z" fill="black"/>
<path d="M347.365 132.388C352.471 132.884 360.229 147.394 360.229 147.394L347.339 157.281C347.339 157.281 336.669 147.917 337.936 142.653C339.255 137.181 342.467 131.931 347.365 132.388Z" fill="#FF6262"/>
<path opacity="0.1" d="M347.365 132.388C352.471 132.884 360.229 147.394 360.229 147.394L347.339 157.281C347.339 157.281 336.669 147.917 337.936 142.653C339.255 137.181 342.467 131.931 347.365 132.388Z" fill="black"/>
<path d="M343.512 138.631C342.211 138.28 340.863 138.13 339.516 138.187C338.83 139.615 338.301 141.112 337.936 142.653C336.63 147.877 347.339 157.281 347.339 157.281L348.292 156.549L343.512 138.631Z" fill="#FF6262"/>
<path opacity="0.3" d="M343.512 138.631C342.211 138.28 340.863 138.13 339.516 138.187C338.83 139.615 338.301 141.112 337.936 142.653C336.63 147.877 347.339 157.281 347.339 157.281L348.292 156.549L343.512 138.631Z" fill="black"/>
<path d="M304.293 152.566C300.571 161.982 296.653 171.555 293.532 180.998C293.323 181.598 293.153 182.173 292.97 182.761L292.526 184.21C292.405 184.637 292.405 185.089 292.526 185.516C293.263 187.149 294.433 188.549 295.909 189.565C299.813 192.367 304.068 194.645 308.564 196.343L307.388 201.149C301.858 200.42 296.509 198.675 291.612 196.004C288.598 194.394 286.144 191.907 284.573 188.873C283.67 186.933 283.357 184.772 283.671 182.656C283.701 182.397 283.745 182.14 283.802 181.886L283.933 181.337L284.155 180.345C284.311 179.679 284.468 179.039 284.638 178.386C285.944 173.162 287.616 168.199 289.379 163.275C291.142 158.352 292.983 153.493 295.06 148.648L304.293 152.566Z" fill="#E4897B"/>
<path d="M296.366 139.349C296.366 139.349 291.951 141.583 308.668 197.31L348.083 192.164C345.314 176.205 344.008 166.318 347.365 132.388C341.713 131.984 336.039 131.984 330.387 132.388C324.37 132.738 318.385 133.524 312.482 134.739C304.92 136.424 296.366 139.349 296.366 139.349Z" fill="#FF6262"/>
<path opacity="0.1" d="M296.366 139.349C296.366 139.349 291.951 141.583 308.668 197.31L348.083 192.164C345.314 176.205 344.008 166.318 347.365 132.388C341.713 131.984 336.039 131.984 330.387 132.388C324.37 132.738 318.385 133.524 312.482 134.739C304.92 136.424 296.366 139.349 296.366 139.349Z" fill="black"/>
<path d="M348.371 189.774L350.63 193.052C350.8 193.313 350.512 193.627 350.068 193.692L308.733 199.099C308.381 199.099 308.054 199.007 308.002 198.785L307.192 195.298C307.127 195.063 307.414 194.815 307.806 194.763L347.718 189.539C347.837 189.52 347.96 189.531 348.074 189.572C348.189 189.613 348.29 189.683 348.371 189.774Z" fill="#FF6262"/>
<path opacity="0.2" d="M348.371 189.774L350.63 193.052C350.8 193.313 350.512 193.627 350.068 193.692L308.733 199.099C308.381 199.099 308.054 199.007 308.002 198.785L307.192 195.298C307.127 195.063 307.414 194.815 307.806 194.763L347.718 189.539C347.837 189.52 347.96 189.531 348.074 189.572C348.189 189.613 348.29 189.683 348.371 189.774Z" fill="black"/>
<path d="M343.591 194.933L344.662 194.789C344.871 194.789 345.014 194.632 344.988 194.502L343.891 189.983C343.85 189.906 343.783 189.845 343.702 189.812C343.621 189.779 343.531 189.774 343.447 189.8L342.376 189.931C342.154 189.931 342.01 190.087 342.05 190.231L343.147 194.737C343.173 194.88 343.382 194.959 343.591 194.933Z" fill="#263238"/>
<path d="M317.68 198.276L318.751 198.132C318.96 198.132 319.116 197.976 319.077 197.845L317.98 193.326C317.937 193.25 317.871 193.19 317.791 193.154C317.711 193.119 317.621 193.111 317.536 193.13L316.465 193.274C316.256 193.274 316.099 193.431 316.139 193.561L317.236 198.08C317.262 198.276 317.471 198.354 317.68 198.276Z" fill="#263238"/>
<path d="M298.207 158.26C299.291 163.301 300.819 169.688 303.052 177.772L303.536 157.281L298.207 158.26Z" fill="#FF6262"/>
<path opacity="0.3" d="M298.207 158.26C299.291 163.301 300.819 169.688 303.052 177.772L303.536 157.281L298.207 158.26Z" fill="black"/>
<path d="M296.366 139.349C291.468 141.321 287.224 158.077 287.224 158.077L304.071 166.279C304.071 166.279 312.207 145.788 308.564 141.792C304.92 137.795 302.008 137.09 296.366 139.349Z" fill="#FF6262"/>
<path opacity="0.1" d="M296.366 139.349C291.468 141.321 287.224 158.077 287.224 158.077L304.071 166.279C304.071 166.279 312.207 145.788 308.564 141.792C304.92 137.795 302.008 137.09 296.366 139.349Z" fill="black"/>
<path d="M325.842 400.941H308.094L306.709 394.986L326.469 395.116L325.842 400.941Z" fill="#FF6262"/>
<path opacity="0.2" d="M325.842 400.941H308.094L306.709 394.986L326.469 395.116L325.842 400.941Z" fill="black"/>
<path d="M308.838 194.724L307.414 194.136C307.065 193.994 306.683 193.946 306.309 193.999C305.935 194.052 305.581 194.202 305.284 194.436C304.987 194.669 304.757 194.977 304.618 195.328C304.478 195.679 304.434 196.061 304.489 196.434L305.521 203.239C305.57 203.579 305.695 203.904 305.885 204.191C306.076 204.478 306.328 204.718 306.623 204.896C306.918 205.073 307.248 205.183 307.591 205.217C307.933 205.251 308.279 205.209 308.603 205.093C309.121 204.905 309.606 204.636 310.04 204.296C310.512 203.905 310.886 203.408 311.131 202.845C311.376 202.282 311.485 201.67 311.45 201.058L311.306 198.237C311.282 197.474 311.035 196.736 310.596 196.112C310.158 195.488 309.547 195.005 308.838 194.724Z" fill="#E4897B"/>
</svg>
