<svg width="166" height="180" viewBox="0 0 166 180" fill="none" xmlns="http://www.w3.org/2000/svg">
<path d="M65.997 173.146C65.989 173.146 65.981 173.146 65.973 173.146C65.661 173.132 65.4183 172.868 65.4317 172.556C65.753 164.684 65.8917 154.448 65.793 145.847C65.7903 145.534 66.0397 145.278 66.353 145.274H66.3597C66.669 145.274 66.921 145.523 66.925 145.834C67.0237 154.454 66.885 164.711 66.5623 172.603C66.549 172.907 66.2983 173.146 65.997 173.146Z" fill="black"/>
<path d="M95.3239 173.146C95.0479 173.146 94.8052 172.943 94.7652 172.66C93.4786 163.811 92.6292 154.796 92.2412 145.864C92.2279 145.552 92.4692 145.288 92.7812 145.275C93.0919 145.259 93.3586 145.503 93.3719 145.815C93.7572 154.708 94.6039 163.686 95.8852 172.498C95.9292 172.807 95.7159 173.095 95.4066 173.139C95.3786 173.143 95.3506 173.146 95.3239 173.146Z" fill="black"/>
<path d="M61.9599 171.723C59.9453 171.934 57.7986 172.195 56.4226 173.871C55.7333 174.71 55.4786 175.857 55.9093 176.854C56.5746 178.402 58.3159 178.606 59.8346 178.637C62.1346 178.683 64.2666 178.677 66.5146 178.186C67.8946 177.885 68.6986 177.077 68.8426 173.898C68.8946 172.754 67.9999 171.786 66.8559 171.742C65.1933 171.678 62.9453 171.621 61.9599 171.723Z" fill="#3D67FF"/>
<path d="M63.6161 172.233C62.9001 172.233 62.3574 172.252 62.0188 172.287C60.1921 172.479 58.1214 172.695 56.8601 174.231C56.2668 174.952 56.1014 175.872 56.4281 176.631C56.9521 177.847 58.3801 178.043 59.8454 178.072C62.0348 178.116 64.1841 178.116 66.3934 177.633C67.3734 177.42 68.1348 177.008 68.2774 173.873C68.2961 173.473 68.1561 173.089 67.8841 172.793C67.6094 172.496 67.2374 172.323 66.8334 172.308C65.5521 172.259 64.4628 172.233 63.6161 172.233ZM61.3721 179.223C60.8561 179.223 60.3401 179.213 59.8228 179.204C58.0668 179.168 56.1681 178.888 55.3894 177.079C54.8948 175.929 55.1228 174.563 55.9854 173.512C57.5414 171.619 59.9588 171.364 61.9014 171.161C62.9148 171.055 65.1668 171.111 66.8774 171.177C67.5841 171.204 68.2374 171.505 68.7161 172.027C69.1948 172.547 69.4401 173.221 69.4081 173.925C69.2668 177.024 68.5161 178.329 66.6348 178.74C64.8388 179.132 63.1068 179.223 61.3721 179.223Z" fill="black"/>
<path d="M98.1602 171.723C100.175 171.934 102.322 172.195 103.698 173.871C104.387 174.71 104.642 175.857 104.212 176.854C103.546 178.402 101.804 178.606 100.286 178.637C97.9855 178.683 95.8535 178.677 93.6055 178.186C92.2255 177.885 91.4215 177.077 91.2775 173.898C91.2255 172.754 92.1202 171.786 93.2642 171.742C94.9269 171.678 97.1749 171.621 98.1602 171.723Z" fill="#3D67FF"/>
<path d="M96.5043 172.234C95.6576 172.234 94.5683 172.259 93.2856 172.308C92.8829 172.323 92.5096 172.496 92.2363 172.794C91.9643 173.09 91.8243 173.474 91.8429 173.874C91.9856 177.008 92.7469 177.42 93.7269 177.634C95.9363 178.116 98.0843 178.116 100.275 178.072C101.74 178.043 103.168 177.847 103.692 176.631C104.019 175.872 103.854 174.952 103.26 174.231C101.999 172.695 99.9283 172.479 98.1016 172.287C97.7629 172.251 97.2203 172.234 96.5043 172.234ZM98.7483 179.222C97.0136 179.222 95.2816 179.131 93.4856 178.74C91.6043 178.33 90.8523 177.024 90.7123 173.924C90.6803 173.222 90.9256 172.547 91.4029 172.027C91.8829 171.506 92.5363 171.204 93.2429 171.176C94.9536 171.111 97.2056 171.055 98.2189 171.162C100.162 171.364 102.579 171.618 104.135 173.512C104.998 174.563 105.226 175.93 104.731 177.079C103.952 178.888 102.052 179.168 100.298 179.203C99.7789 179.214 99.2643 179.222 98.7483 179.222Z" fill="black"/>
<path d="M38.2568 43.5809C27.4262 58.9275 18.8688 76.6328 18.6542 95.4142C18.4395 114.197 26.3448 129.368 41.9728 139.789C55.9075 149.08 68.8755 149.841 78.3395 150.18C89.9595 150.596 102.903 147.556 113.717 139.8C123.217 132.985 133.319 120.402 134.338 102.704C135.138 88.8048 130.917 72.1795 120.842 59.0329C112.878 48.6395 99.6928 36.9515 91.7208 28.9449C80.8528 18.0315 78.0702 0.563526 78.0702 0.563526C78.0702 0.563526 49.2928 27.9435 38.2568 43.5809Z" fill="#FF5233"/>
<path d="M38.7194 43.9082C32.8141 52.2762 28.1981 60.5242 24.9994 68.4229C21.2634 77.6469 19.3194 86.7309 19.2194 95.4215C19.1141 104.69 21.0167 113.119 24.8741 120.475C28.7434 127.854 34.6021 134.194 42.2874 139.318C56.5594 148.834 70.2061 149.323 78.3594 149.615C91.0794 150.071 103.514 146.422 113.386 139.34C119.118 135.23 132.578 123.427 133.773 102.671C134.639 87.6255 129.637 71.4402 120.393 59.3762C114.547 51.7482 106.022 43.5602 98.5007 36.3349C95.8874 33.8242 93.4181 31.4522 91.3194 29.3455C81.9781 19.9629 78.5154 5.64819 77.7087 1.69485C73.0994 6.12819 48.6021 29.9029 38.7194 43.9082ZM80.4821 150.784C79.7621 150.784 79.0421 150.771 78.3194 150.746C70.0461 150.45 56.1981 149.954 41.6594 140.259C33.8154 135.028 27.8301 128.55 23.8714 121C19.9261 113.476 17.9807 104.866 18.0887 95.4082C18.1887 86.5762 20.1621 77.3535 23.9501 67.9975C27.1821 60.0189 31.8394 51.6935 37.7941 43.2548C48.7354 27.7508 77.3927 0.428188 77.6807 0.154855C77.8327 0.00952185 78.0527 -0.0384798 78.2514 0.0281869C78.4501 0.0961869 78.5967 0.268185 78.6287 0.476185C78.6567 0.648185 81.5127 17.8922 92.1221 28.5469C94.2114 30.6455 96.6754 33.0122 99.2847 35.5189C106.835 42.7709 115.393 50.9922 121.291 58.6882C130.695 70.9615 135.785 87.4269 134.903 102.736C133.679 123.979 119.91 136.054 114.046 140.259C104.533 147.083 92.6887 150.784 80.4821 150.784Z" fill="black"/>
<path d="M34.5522 67.2061C34.2242 67.2061 33.8909 67.1341 33.5749 66.9834C32.4482 66.4421 31.9722 65.0914 32.5135 63.9634C37.6375 53.2741 44.2629 43.3927 52.2029 34.5914C53.0402 33.6647 54.4722 33.5914 55.4002 34.4274C56.3282 35.2647 56.4015 36.6967 55.5642 37.6247C47.9135 46.1034 41.5322 55.6234 36.5949 65.9207C36.2055 66.7327 35.3962 67.2061 34.5522 67.2061Z" fill="white"/>
<path d="M58.4732 33.0059C57.8879 33.0059 57.3025 32.7805 56.8599 32.3299C55.9825 31.4392 55.9945 30.0059 56.8852 29.1299L58.6665 27.3765C59.5572 26.4992 60.9905 26.5099 61.8679 27.4019C62.7439 28.2925 62.7332 29.7259 61.8425 30.6019L60.0612 32.3552C59.6199 32.7899 59.0465 33.0059 58.4732 33.0059Z" fill="white"/>
<path d="M82.0521 143.558C53.9627 145.685 38.7948 135.366 30.7534 130.034C33.8934 133.634 37.6347 136.896 41.9734 139.789C55.9081 149.08 68.8761 149.841 78.3401 150.18C89.9601 150.596 102.904 147.556 113.716 139.8C121.844 133.97 130.405 123.917 133.351 110.053C124.693 131.288 111.455 141.332 82.0521 143.558Z" fill="black"/>
<path d="M34.5687 133.189C36.894 135.392 39.4767 137.444 42.2873 139.318C56.5593 148.834 70.206 149.322 78.3607 149.614C91.0793 150.069 103.515 146.421 113.387 139.34C117.297 136.536 125.809 129.373 130.533 117.442C126.557 124.889 121.774 130.37 115.798 134.402C107.635 139.912 96.926 143 82.0953 144.122C58.0353 145.946 43.3967 138.704 34.5687 133.189ZM80.482 150.785C79.762 150.785 79.042 150.772 78.3207 150.745C70.046 150.449 56.198 149.953 41.6593 140.26C37.3153 137.362 33.502 134.048 30.3273 130.406C30.1407 130.193 30.142 129.874 30.3287 129.661C30.5153 129.448 30.83 129.406 31.066 129.562L31.362 129.758C39.4327 135.113 54.454 145.08 82.01 142.994C96.6367 141.886 107.171 138.858 115.165 133.465C122.723 128.365 128.335 120.857 132.827 109.84C132.938 109.569 133.235 109.426 133.517 109.513C133.798 109.598 133.966 109.885 133.905 110.172C131.381 122.052 124.142 133.018 114.047 140.26C104.533 147.084 92.6887 150.785 80.482 150.785Z" fill="black"/>
<path d="M66.8857 126.93H70.0044L68.6684 120.781H68.4897L66.8857 126.93ZM74.639 135.367C72.9164 135.367 71.9844 135.09 71.847 134.535L70.8657 130.703H66.143L65.2817 134.386C65.163 135.001 64.2124 135.307 62.4297 135.307C61.479 135.307 60.7764 135.253 60.3204 135.143C59.8644 135.035 59.6377 134.951 59.6377 134.891L64.895 114.779C64.895 114.622 66.251 114.542 68.9657 114.542C71.6777 114.542 73.035 114.622 73.035 114.779L78.1737 134.921C78.1737 135.059 77.719 135.169 76.807 135.247C75.8964 135.327 75.1737 135.367 74.639 135.367Z" fill="black"/>
<path d="M87.535 118.255V123.246H92.555C92.9123 123.246 93.1683 123.534 93.3283 124.107C93.407 124.404 93.447 124.691 93.447 124.968C93.447 125.246 93.407 125.534 93.3283 125.83C93.1683 126.404 92.9123 126.691 92.555 126.691H87.535V131.771C87.535 132.128 87.2483 132.386 86.6736 132.544C86.3963 132.623 86.1096 132.663 85.8123 132.663L84.951 132.544C84.3763 132.386 84.0883 132.128 84.0883 131.771V126.691H79.039C78.683 126.691 78.4243 126.404 78.267 125.83C78.187 125.534 78.147 125.246 78.147 124.968C78.147 124.691 78.187 124.404 78.267 124.107C78.4243 123.534 78.683 123.246 79.039 123.246H84.0883V118.255C84.0883 117.899 84.3763 117.642 84.951 117.483C85.227 117.404 85.515 117.364 85.8123 117.364L86.6736 117.483C87.2483 117.642 87.535 117.899 87.535 118.255Z" fill="black"/>
<path d="M91.8037 80.1024C91.8037 77.529 93.109 76.2477 94.721 76.2477C96.3317 76.2477 97.637 77.529 97.637 80.1024C97.637 82.6757 96.3317 83.957 94.721 83.957C93.109 83.957 91.8037 82.6757 91.8037 80.1024Z" fill="black"/>
<path d="M55.4463 80.1024C55.4463 77.529 56.7516 76.2477 58.3636 76.2477C59.9743 76.2477 61.2796 77.529 61.2796 80.1024C61.2796 82.6757 59.9743 83.957 58.3636 83.957C56.7516 83.957 55.4463 82.6757 55.4463 80.1024Z" fill="black"/>
<path d="M58.0349 92.3122C58.0349 95.1895 55.7029 97.5215 52.8255 97.5215C49.9482 97.5215 47.6162 95.1895 47.6162 92.3122C47.6162 89.4348 49.9482 87.1028 52.8255 87.1028C55.7029 87.1028 58.0349 89.4348 58.0349 92.3122Z" fill="white"/>
<path d="M105.467 92.3122C105.467 95.1895 103.135 97.5215 100.258 97.5215C97.3803 97.5215 95.0483 95.1895 95.0483 92.3122C95.0483 89.4348 97.3803 87.1028 100.258 87.1028C103.135 87.1028 105.467 89.4348 105.467 92.3122Z" fill="white"/>
<path d="M76.7593 98.582C74.8726 98.582 72.9139 97.958 71.1286 96.7394C68.7286 95.0994 66.8086 92.5114 65.4246 89.0487C65.3073 88.758 65.4486 88.4287 65.7393 88.3127C66.0299 88.1967 66.3593 88.338 66.4739 88.6287C67.7753 91.8794 69.5553 94.294 71.7673 95.8047C74.3819 97.5914 77.3899 97.946 79.8126 96.754C81.4993 95.9247 83.1486 94.3394 84.2219 92.514C85.3086 90.6674 86.1033 88.6714 86.5819 86.582C86.6526 86.278 86.9553 86.0874 87.2606 86.1567C87.5646 86.2274 87.7553 86.5314 87.6859 86.8354C87.1793 89.0367 86.3433 91.1407 85.1966 93.0874C83.9979 95.126 82.2179 96.8327 80.3126 97.7687C79.2046 98.314 77.9979 98.582 76.7593 98.582Z" fill="black"/>
<path d="M14.8737 100.909C13.1684 100.909 11.4631 100.795 9.76706 100.565C7.48306 100.256 4.22172 99.5665 2.29239 97.1638C0.663056 95.1372 -0.0542777 91.4358 2.01506 87.7385C3.68839 84.7452 6.61106 82.6932 8.97106 81.2385C12.5057 79.0598 16.2911 77.2758 20.2204 75.9358C20.5164 75.8345 20.8377 75.9932 20.9391 76.2892C21.0404 76.5852 20.8817 76.9065 20.5857 77.0078C16.7364 78.3198 13.0284 80.0678 9.56439 82.2025C7.32172 83.5838 4.54972 85.5252 3.00172 88.2905C1.45906 91.0505 1.52972 94.4078 3.17372 96.4545C4.85106 98.5425 7.82706 99.1598 9.91906 99.4438C13.4617 99.9225 17.0471 99.8865 20.5777 99.3345C20.8844 99.2865 21.1764 99.4972 21.2244 99.8052C21.2724 100.115 21.0617 100.404 20.7524 100.452C18.8044 100.757 16.8391 100.909 14.8737 100.909Z" fill="black"/>
<path d="M129.704 100.444C129.505 100.444 129.313 100.34 129.209 100.154C129.057 99.8817 129.155 99.5363 129.428 99.3843C138.892 94.1017 148.804 89.4057 158.887 85.4257C159.179 85.311 159.507 85.4537 159.621 85.7443C159.736 86.035 159.593 86.3643 159.303 86.479C149.265 90.4403 139.4 95.115 129.979 100.372C129.892 100.422 129.797 100.444 129.704 100.444Z" fill="black"/>
<path d="M25.7545 76.188C25.7545 78.9987 23.4758 81.2773 20.6651 81.2773C17.8545 81.2773 15.5771 78.9987 15.5771 76.188C15.5771 73.3773 17.8545 71.0987 20.6651 71.0987C23.4758 71.0987 25.7545 73.3773 25.7545 76.188Z" fill="#3D67FF"/>
<path d="M20.6654 71.6654C18.1707 71.6654 16.1427 73.6948 16.1427 76.1881C16.1427 78.6828 18.1707 80.7121 20.6654 80.7121C23.1601 80.7121 25.1881 78.6828 25.1881 76.1881C25.1881 73.6948 23.1601 71.6654 20.6654 71.6654ZM20.6654 81.8428C17.5467 81.8428 15.0107 79.3068 15.0107 76.1881C15.0107 73.0708 17.5467 70.5334 20.6654 70.5334C23.7841 70.5334 26.3201 73.0708 26.3201 76.1881C26.3201 79.3068 23.7841 81.8428 20.6654 81.8428Z" fill="black"/>
<path d="M164.467 85.9527C164.467 88.7633 162.188 91.042 159.378 91.042C156.567 91.042 154.29 88.7633 154.29 85.9527C154.29 83.142 156.567 80.8633 159.378 80.8633C162.188 80.8633 164.467 83.142 164.467 85.9527Z" fill="#3D67FF"/>
<path d="M159.378 81.4288C156.884 81.4288 154.855 83.4581 154.855 85.9514C154.855 88.4461 156.884 90.4754 159.378 90.4754C161.872 90.4754 163.9 88.4461 163.9 85.9514C163.9 83.4581 161.872 81.4288 159.378 81.4288ZM159.378 91.6074C156.259 91.6074 153.723 89.0701 153.723 85.9514C153.723 82.8341 156.259 80.2968 159.378 80.2968C162.496 80.2968 165.032 82.8341 165.032 85.9514C165.032 89.0701 162.496 91.6074 159.378 91.6074Z" fill="black"/>
</svg>
