<svg width="160" height="180" viewBox="0 0 160 180" fill="none" xmlns="http://www.w3.org/2000/svg">
<path d="M23.9054 155.205C23.7094 155.205 23.5201 155.104 23.4148 154.922C23.2588 154.652 23.3508 154.306 23.6214 154.149C31.7494 149.452 43.9521 143.182 52.6374 139.242C52.9214 139.113 53.2574 139.238 53.3854 139.524C53.5148 139.808 53.3894 140.144 53.1041 140.273C44.4481 144.2 32.2868 150.448 24.1881 155.129C24.0988 155.181 24.0014 155.205 23.9054 155.205Z" fill="black"/>
<path d="M97.149 173.681C97.0557 173.681 96.961 173.658 96.8744 173.609C96.601 173.457 96.5037 173.113 96.6557 172.839C101.992 163.277 105.346 152.117 107.216 137.717C107.256 137.407 107.538 137.186 107.85 137.229C108.16 137.269 108.378 137.553 108.338 137.862C106.45 152.41 103.052 163.699 97.6437 173.39C97.5397 173.577 97.3477 173.681 97.149 173.681Z" fill="black"/>
<path d="M38.373 47.3674C29.141 63.7247 22.4063 82.2007 24.081 100.91C25.7557 119.618 35.1477 133.917 51.7437 142.714C66.541 150.557 79.5197 150.01 88.9703 149.395C100.573 148.642 113.146 144.315 123.124 135.511C131.892 127.777 140.677 114.242 139.912 96.53C139.31 82.622 133.438 66.5047 122.093 54.4367C113.124 44.898 98.8317 34.594 90.0943 27.4314C78.185 17.6647 73.6597 0.566029 73.6597 0.566029C73.6597 0.566029 47.7797 30.6994 38.373 47.3674Z" fill="#FF5233"/>
<path d="M73.4135 1.72739C69.2735 6.60072 47.2908 32.718 38.8655 47.646C33.8322 56.5647 30.0682 65.2354 27.6802 73.4154C24.8908 82.9687 23.8695 92.202 24.6442 100.859C25.4708 110.091 28.2108 118.286 32.7882 125.217C37.3802 132.17 43.8468 137.889 52.0082 142.214C67.1642 150.247 80.7908 149.361 88.9335 148.831C101.63 148.006 113.639 143.125 122.75 135.087C128.039 130.421 140.244 117.325 139.346 96.554C138.695 81.4981 132.091 65.898 121.68 54.8247C115.098 47.8234 105.794 40.534 97.5842 34.102C94.7308 31.866 92.0362 29.7541 89.7362 27.8687C79.4975 19.4741 74.6135 5.57938 73.4135 1.72739ZM80.8495 150.29C72.8788 150.29 62.5975 149.107 51.4775 143.214C43.1468 138.798 36.5415 132.953 31.8442 125.841C27.1615 118.751 24.3602 110.381 23.5175 100.961C22.7295 92.1621 23.7642 82.7874 26.5935 73.098C29.0055 64.8354 32.8028 56.0847 37.8802 47.0901C47.2068 30.5647 72.9708 0.499381 73.2308 0.198048C73.3668 0.0380477 73.5802 -0.0326196 73.7855 0.014047C73.9908 0.062047 74.1535 0.218047 74.2068 0.420714C74.2522 0.590047 78.8268 17.4594 90.4535 26.994C92.7442 28.8714 95.4335 30.9794 98.2828 33.2114C106.523 39.6674 115.863 46.9861 122.504 54.0501C133.096 65.3141 139.815 81.186 140.476 96.506C141.395 117.763 128.91 131.162 123.499 135.937C114.202 144.139 101.952 149.119 89.0068 149.961C86.6948 150.111 83.9468 150.29 80.8495 150.29Z" fill="black"/>
<path d="M46.6469 54.9922C46.3069 54.9922 45.9615 54.9149 45.6362 54.7522C44.5175 54.1935 44.0655 52.8335 44.6242 51.7162C48.2815 44.4042 52.4695 38.7522 56.9042 32.7682C58.0029 31.2855 59.1389 29.7522 60.2922 28.1602C61.0269 27.1482 62.4415 26.9215 63.4535 27.6549C64.4655 28.3882 64.6922 29.8042 63.9575 30.8162C62.7909 32.4269 61.6469 33.9709 60.5415 35.4629C56.0402 41.5375 52.1535 46.7829 48.6735 53.7402C48.2762 54.5335 47.4762 54.9922 46.6469 54.9922Z" fill="white"/>
<path d="M66.2384 25.7842C65.8984 25.7842 65.5544 25.7082 65.2291 25.5455C64.1104 24.9868 63.6571 23.6268 64.2157 22.5082C64.4397 22.0615 64.7291 21.7242 64.9611 21.4535C65.0144 21.3908 65.0904 21.3015 65.1277 21.2535C65.7077 20.1842 67.0357 19.7602 68.1304 20.3082C69.2477 20.8682 69.7011 22.2282 69.1411 23.3455C68.9184 23.7922 68.6291 24.1295 68.3971 24.3988C68.3451 24.4615 68.2677 24.5508 68.2304 24.5988C67.8237 25.3508 67.0451 25.7842 66.2384 25.7842Z" fill="white"/>
<path d="M131.944 120.762C125.88 128.715 113.968 142.018 87.6213 144.136C81.6467 144.616 63.4973 145.411 49.8907 138.639C45.036 136.223 36.7773 132.686 28.688 118.952C33.2507 128.987 40.98 137.01 51.744 142.714C66.5413 150.558 79.52 150.011 88.9707 149.396C100.573 148.642 113.145 144.315 123.124 135.512C131.531 128.095 139.949 115.342 139.952 98.6884C138.749 106.527 136.807 114.383 131.944 120.762Z" fill="black"/>
<path d="M37.2139 130.907C41.2379 135.343 46.1805 139.125 52.0085 142.214C67.1645 150.247 80.7912 149.361 88.9339 148.831C101.63 148.006 113.639 143.125 122.75 135.087C126.738 131.569 134.945 122.982 138.106 109.702C136.855 113.671 135.073 117.591 132.394 121.105C125.422 130.25 113.199 142.647 87.6659 144.699C84.6579 144.942 78.5659 145.259 71.5699 144.67C62.9219 143.943 55.5432 142.083 49.6379 139.145C49.3912 139.022 49.1352 138.897 48.8712 138.767C45.9259 137.318 41.7699 135.274 37.2139 130.907ZM80.8499 150.29C72.8792 150.29 62.5979 149.107 51.4779 143.214C40.6552 137.478 32.8139 129.394 28.1725 119.186C28.0485 118.913 28.1605 118.589 28.4272 118.45C28.6939 118.311 29.0232 118.406 29.1752 118.665C36.7672 131.553 44.3512 135.282 49.3712 137.751C49.6365 137.882 49.8939 138.009 50.1419 138.131C54.5365 140.319 66.9805 145.227 87.5752 143.573C112.657 141.555 124.653 129.391 131.494 120.418C136.514 113.833 138.305 105.695 139.393 98.602C139.438 98.31 139.698 98.1007 139.995 98.1234C140.29 98.146 140.518 98.3927 140.518 98.6887C140.515 118.757 128.615 131.422 123.498 135.937C114.202 144.138 101.953 149.119 89.0072 149.961C86.6952 150.111 83.9459 150.29 80.8499 150.29Z" fill="black"/>
<path d="M72.5976 121.25H75.7163L74.3803 115.1H74.2016L72.5976 121.25ZM80.3509 129.686C78.6283 129.686 77.6963 129.41 77.5589 128.855L76.5776 125.023H71.8549L70.9936 128.706C70.8749 129.32 69.9243 129.627 68.1416 129.627C67.1909 129.627 66.4883 129.572 66.0323 129.463C65.5763 129.355 65.3496 129.271 65.3496 129.211L70.6069 109.099C70.6069 108.942 71.9629 108.862 74.6776 108.862C77.3896 108.862 78.7469 108.942 78.7469 109.099L83.8856 129.24C83.8856 129.379 83.4309 129.488 82.5189 129.567C81.6083 129.647 80.8856 129.686 80.3509 129.686Z" fill="black"/>
<path d="M97.5423 123.982H85.8077C85.4517 123.982 85.1943 123.696 85.0357 123.121C84.957 122.824 84.917 122.537 84.917 122.26C84.917 121.982 84.957 121.694 85.0357 121.398C85.1943 120.824 85.4517 120.537 85.8077 120.537H97.5423C97.8983 120.537 98.1557 120.824 98.3143 121.398C98.393 121.694 98.433 121.982 98.433 122.26C98.433 122.537 98.393 122.824 98.3143 123.121C98.1557 123.696 97.8983 123.982 97.5423 123.982Z" fill="black"/>
<path d="M89.7871 76.5877C89.7871 74.0144 91.0924 72.733 92.7044 72.733C94.3151 72.733 95.6204 74.0144 95.6204 76.5877C95.6204 79.161 94.3151 80.4424 92.7044 80.4424C91.0924 80.4424 89.7871 79.161 89.7871 76.5877Z" fill="black"/>
<path d="M101.515 171.742C103.529 171.953 105.676 172.214 107.052 173.89C107.741 174.729 107.996 175.875 107.565 176.873C106.899 178.422 105.159 178.625 103.64 178.655C101.34 178.702 99.208 178.695 96.96 178.205C95.58 177.905 94.776 177.095 94.632 173.917C94.58 172.773 95.4747 171.805 96.6187 171.761C98.2814 171.697 100.529 171.639 101.515 171.742Z" fill="#3D67FF"/>
<path d="M99.8609 172.251C99.0143 172.251 97.9236 172.275 96.6409 172.325C96.2383 172.341 95.8649 172.513 95.5916 172.811C95.3183 173.107 95.1783 173.491 95.1969 173.891C95.3396 177.026 96.1009 177.438 97.0809 177.651C99.2916 178.134 101.44 178.135 103.629 178.09C105.094 178.061 106.522 177.865 107.046 176.649C107.373 175.89 107.208 174.97 106.614 174.249C105.354 172.713 103.284 172.495 101.456 172.305C101.118 172.269 100.576 172.251 99.8609 172.251ZM102.104 179.239C100.369 179.239 98.6369 179.149 96.8396 178.758C94.9596 178.347 94.2076 177.042 94.0663 173.942C94.0343 173.239 94.2796 172.565 94.7583 172.045C95.2383 171.523 95.8903 171.222 96.5983 171.194C98.3089 171.129 100.562 171.073 101.574 171.179C103.517 171.382 105.934 171.635 107.489 173.53C108.352 174.581 108.581 175.947 108.086 177.097C107.308 178.906 105.408 179.186 103.652 179.222C103.134 179.231 102.618 179.239 102.104 179.239Z" fill="black"/>
<path d="M22.6023 151.125C21.2317 149.634 19.7423 148.066 17.5757 147.962C16.4903 147.909 15.4197 148.388 14.8743 149.329C14.029 150.788 14.905 152.306 15.785 153.542C17.1197 155.417 18.397 157.124 20.1317 158.636C21.1957 159.564 22.325 159.726 24.9623 157.948C25.9117 157.306 26.1557 156.01 25.5077 155.065C24.5677 153.693 23.273 151.854 22.6023 151.125Z" fill="#3D67FF"/>
<path d="M17.4108 148.523C16.5335 148.523 15.7575 148.933 15.3642 149.611C14.7002 150.758 15.3962 152.021 16.2455 153.214C17.5162 154.998 18.7975 156.722 20.5028 158.209C21.2602 158.867 22.0455 159.233 24.6455 157.478C24.9775 157.254 25.2015 156.913 25.2775 156.517C25.3535 156.119 25.2695 155.718 25.0415 155.385C23.7028 153.431 22.6882 152.054 22.1855 151.507C20.9428 150.155 19.5335 148.623 17.5482 148.526C17.5028 148.525 17.4562 148.523 17.4108 148.523ZM21.7455 159.885C21.0202 159.885 20.3855 159.607 19.7602 159.062C17.9615 157.494 16.6362 155.711 15.3242 153.87C14.3055 152.441 13.3975 150.749 14.3855 149.045C15.0122 147.962 16.2455 147.333 17.6028 147.395C20.0522 147.515 21.6975 149.305 23.0188 150.742C23.7082 151.491 25.0068 153.333 25.9748 154.745C26.3748 155.329 26.5215 156.033 26.3895 156.729C26.2575 157.422 25.8628 158.022 25.2788 158.415C23.8162 159.403 22.7015 159.885 21.7455 159.885Z" fill="black"/>
<path d="M6.67747 118.126C6.5748 118.126 6.4708 118.098 6.37747 118.039C6.11214 117.873 6.03214 117.525 6.1988 117.259C11.4495 108.895 17.9255 101.407 25.4441 95.006C25.6828 94.8033 26.0401 94.8326 26.2428 95.07C26.4455 95.3086 26.4161 95.6646 26.1788 95.8673C18.7455 102.195 12.3468 109.594 7.15747 117.861C7.04947 118.033 6.86547 118.126 6.67747 118.126Z" fill="black"/>
<path d="M154.212 96.0029C154.012 96.0029 153.819 95.8976 153.716 95.7096C151.584 91.8376 146.456 86.7736 141.788 83.9309C139.18 82.3429 136.787 81.1709 134.474 80.3496C134.179 80.2456 134.026 79.9216 134.13 79.6269C134.234 79.3323 134.558 79.1789 134.852 79.2829C137.24 80.1309 139.702 81.3349 142.378 82.9643C147.192 85.8976 152.492 91.1416 154.707 95.1643C154.858 95.4376 154.759 95.7816 154.484 95.9323C154.398 95.9803 154.304 96.0029 154.212 96.0029Z" fill="black"/>
<path d="M159.301 95.437C159.301 98.2477 157.022 100.526 154.212 100.526C151.401 100.526 149.124 98.2477 149.124 95.437C149.124 92.6264 151.401 90.3477 154.212 90.3477C157.022 90.3477 159.301 92.6264 159.301 95.437Z" fill="#3D67FF"/>
<path d="M154.212 90.9145C151.717 90.9145 149.689 92.9438 149.689 95.4371C149.689 97.9318 151.717 99.9611 154.212 99.9611C156.706 99.9611 158.734 97.9318 158.734 95.4371C158.734 92.9438 156.706 90.9145 154.212 90.9145ZM154.212 101.092C151.093 101.092 148.557 98.5558 148.557 95.4371C148.557 92.3198 151.093 89.7825 154.212 89.7825C157.33 89.7825 159.866 92.3198 159.866 95.4371C159.866 98.5558 157.33 101.092 154.212 101.092Z" fill="black"/>
<path d="M10.7437 117.56C10.7437 120.371 8.46507 122.649 5.65441 122.649C2.84374 122.649 0.566406 120.371 0.566406 117.56C0.566406 114.749 2.84374 112.471 5.65441 112.471C8.46507 112.471 10.7437 114.749 10.7437 117.56Z" fill="#3D67FF"/>
<path d="M5.65467 113.038C3.16133 113.038 1.132 115.067 1.132 117.56C1.132 120.055 3.16133 122.084 5.65467 122.084C8.14933 122.084 10.1773 120.055 10.1773 117.56C10.1773 115.067 8.14933 113.038 5.65467 113.038ZM5.65467 123.215C2.536 123.215 0 120.679 0 117.56C0 114.443 2.536 111.906 5.65467 111.906C8.77333 111.906 11.3093 114.443 11.3093 117.56C11.3093 120.679 8.77333 123.215 5.65467 123.215Z" fill="black"/>
<path d="M78.278 98.123C77.9873 98.123 77.0927 97.8057 72.5407 94.9084C70.9007 93.863 66.8327 91.2164 64.5167 89.211C64.2807 89.007 64.2553 88.6497 64.4607 88.4124C64.6647 88.1777 65.022 88.151 65.258 88.3564C68.67 91.311 76.5607 96.1697 78.1313 96.919C79.2847 95.8217 84.726 89.959 87.3193 86.827C87.518 86.5857 87.8753 86.5524 88.1153 86.7524C88.3567 86.951 88.39 87.3084 88.19 87.5484C86.934 89.067 84.794 91.4804 82.4647 94.0057C78.7727 98.0124 78.5647 98.063 78.3807 98.1084C78.354 98.115 78.3233 98.123 78.278 98.123Z" fill="black"/>
<path d="M112.987 92.608C112.987 95.4854 110.655 97.8174 107.777 97.8174C104.9 97.8174 102.568 95.4854 102.568 92.608C102.568 89.7307 104.9 87.3987 107.777 87.3987C110.655 87.3987 112.987 89.7307 112.987 92.608Z" fill="white"/>
<path d="M55.0993 92.608C55.0993 95.4854 52.7673 97.8174 49.89 97.8174C47.0127 97.8174 44.6807 95.4854 44.6807 92.608C44.6807 89.7307 47.0127 87.3987 49.89 87.3987C52.7673 87.3987 55.0993 89.7307 55.0993 92.608Z" fill="white"/>
<path d="M49.4518 83.0791C49.4198 83.0791 49.3878 83.0764 49.3545 83.0711C49.0465 83.0178 48.8398 82.7244 48.8932 82.4164C49.3238 79.9391 49.8105 77.1298 51.3785 74.8511C52.8998 72.6404 55.9092 70.8978 58.7158 71.8431C61.0492 72.6298 62.3825 74.8804 63.5492 77.1178L65.0532 80.0044C65.1972 80.2818 65.0905 80.6244 64.8132 80.7684C64.5358 80.9124 64.1945 80.8058 64.0492 80.5284L62.5451 77.6404C61.4851 75.6071 60.2892 73.5684 58.3545 72.9164C56.0785 72.1484 53.5918 73.6311 52.3105 75.4938C50.8838 77.5671 50.4185 80.2458 50.0092 82.6098C49.9612 82.8844 49.7225 83.0791 49.4518 83.0791Z" fill="black"/>
</svg>
