<svg width="153" height="185" viewBox="0 0 153 185" fill="none" xmlns="http://www.w3.org/2000/svg">
<path d="M57.4317 177.533C57.3971 177.533 57.3624 177.531 57.3277 177.524C57.0211 177.467 56.8171 177.172 56.8744 176.864C57.8984 171.352 59.1157 161.104 60.0944 152.869C60.5557 148.987 60.9544 145.633 61.2677 143.295C61.3104 142.984 61.5944 142.768 61.9051 142.809C62.2144 142.851 62.4317 143.135 62.3904 143.445C62.0771 145.776 61.6784 149.125 61.2184 153.003C60.2384 161.253 59.0184 171.523 57.9877 177.071C57.9371 177.343 57.6997 177.533 57.4317 177.533Z" fill="black"/>
<path d="M107.046 177.533C106.735 177.533 106.482 177.283 106.48 176.972C106.452 173.057 104.94 163.153 103.724 155.195C102.915 149.896 102.216 145.319 102.083 143.409C102.062 143.097 102.296 142.827 102.608 142.805C102.924 142.784 103.19 143.019 103.212 143.331C103.342 145.193 104.038 149.749 104.843 155.024C106.064 163.019 107.583 172.968 107.611 176.963C107.614 177.276 107.363 177.531 107.05 177.533H107.046Z" fill="black"/>
<path d="M110.955 176.713C112.97 176.923 115.116 177.185 116.492 178.861C117.182 179.699 117.436 180.846 117.006 181.843C116.34 183.393 114.599 183.595 113.08 183.626C110.78 183.673 108.648 183.666 106.4 183.175C105.02 182.875 104.216 182.066 104.072 178.887C104.02 177.743 104.915 176.775 106.059 176.731C107.722 176.667 109.97 176.61 110.955 176.713Z" fill="#3D67FF"/>
<path d="M109.297 177.222C108.451 177.222 107.363 177.246 106.081 177.295C105.677 177.311 105.305 177.483 105.032 177.782C104.759 178.078 104.619 178.462 104.637 178.862C104.78 181.997 105.541 182.409 106.521 182.622C108.731 183.105 110.88 183.106 113.069 183.061C114.535 183.031 115.964 182.835 116.487 181.619C116.813 180.861 116.648 179.941 116.055 179.219C114.795 177.683 112.723 177.467 110.896 177.275C110.557 177.239 110.013 177.222 109.297 177.222ZM111.543 184.21C109.808 184.21 108.076 184.119 106.28 183.729C104.4 183.318 103.648 182.013 103.507 178.914C103.475 178.21 103.72 177.535 104.199 177.015C104.677 176.494 105.331 176.193 106.037 176.165C107.748 176.099 110 176.043 111.013 176.15C112.956 176.354 115.373 176.606 116.929 178.501C117.792 179.551 118.021 180.918 117.527 182.067C116.748 183.877 114.848 184.157 113.092 184.193C112.575 184.202 112.059 184.21 111.543 184.21Z" fill="black"/>
<path d="M53.9507 176.713C51.936 176.923 49.7893 177.185 48.4133 178.861C47.724 179.699 47.4693 180.846 47.9 181.843C48.5667 183.393 50.3067 183.595 51.8253 183.626C54.1253 183.673 56.2573 183.666 58.5053 183.175C59.8853 182.875 60.6893 182.066 60.8333 178.887C60.8853 177.743 59.9907 176.775 58.8467 176.731C57.184 176.667 54.936 176.61 53.9507 176.713Z" fill="#3D67FF"/>
<path d="M55.6082 177.222C54.8922 177.222 54.3495 177.239 54.0095 177.275C52.1828 177.467 50.1122 177.683 48.8508 179.219C48.2575 179.941 48.0922 180.861 48.4188 181.619C48.9428 182.835 50.3708 183.031 51.8362 183.061C54.0268 183.106 56.1748 183.105 58.3842 182.622C59.3655 182.409 60.1255 181.997 60.2682 178.862C60.2868 178.462 60.1468 178.078 59.8748 177.782C59.6002 177.485 59.2282 177.311 58.8242 177.295C57.5442 177.247 56.4548 177.222 55.6082 177.222ZM53.3628 184.21C52.8468 184.21 52.3322 184.202 51.8135 184.193C50.0575 184.157 48.1588 183.877 47.3802 182.067C46.8855 180.918 47.1135 179.551 47.9762 178.501C49.5322 176.606 51.9495 176.354 53.8922 176.15C54.9055 176.045 57.1575 176.099 58.8682 176.165C59.5748 176.193 60.2282 176.494 60.7082 177.015C61.1855 177.535 61.4308 178.21 61.3988 178.914C61.2575 182.013 60.5068 183.318 58.6255 183.729C56.8295 184.119 55.0975 184.21 53.3628 184.21Z" fill="black"/>
<path d="M18.0504 85.1035C16.2064 85.1035 14.253 84.8542 13.2357 83.3395C12.497 82.2395 12.557 80.8728 12.6824 79.5675C13.2464 73.6795 13.9744 67.7262 14.8464 61.8742C14.893 61.5648 15.1837 61.3515 15.4904 61.3982C15.7997 61.4448 16.0117 61.7328 15.9664 62.0408C15.097 67.8742 14.3704 73.8062 13.809 79.6755C13.6997 80.8222 13.645 81.9182 14.1757 82.7088C14.9477 83.8555 16.633 83.9928 18.345 83.9702L29.037 83.8235H29.045C29.3544 83.8235 29.6064 84.0715 29.6104 84.3808C29.6144 84.6942 29.365 84.9502 29.053 84.9555L18.361 85.1008C18.2584 85.1022 18.1544 85.1035 18.0504 85.1035Z" fill="black"/>
<path d="M26.377 58.7843C25.7157 59.3896 24.1824 59.7856 23.3797 58.5896C22.697 57.5749 22.773 56.4603 23.1557 55.6029C23.5397 54.7469 24.513 54.1896 25.421 54.4283C26.081 54.6016 26.4037 55.1309 26.6664 55.8923C27.0397 56.9723 27.2184 58.0136 26.377 58.7843ZM29.1437 53.7883C28.4197 52.1829 26.9664 51.2896 25.217 51.2269C23.7997 51.1763 22.657 51.7203 21.8664 52.3389C20.3064 53.5576 19.6184 55.0643 19.4184 57.6029C17.4624 55.9549 16.301 53.4029 16.3424 50.8456C16.3597 49.7963 16.565 48.7296 16.3077 47.7136C15.989 46.4589 14.625 45.2869 13.349 46.2936C12.9064 46.6416 12.629 47.1549 12.501 47.7029C12.0197 49.7616 11.873 51.8989 12.0677 54.0043C11.3864 52.3776 10.705 50.7523 10.0237 49.1256C9.75437 48.4816 9.41437 47.7656 8.6477 47.6736C8.2077 47.6216 7.77303 47.8149 7.46503 48.1336C6.86237 48.7589 6.76903 49.6296 6.7317 50.4576C6.6317 52.7283 6.85037 55.0136 7.37837 57.2229C6.31437 56.2843 5.93837 54.7896 5.05837 53.6749C4.1277 52.4949 1.93437 51.9763 1.3797 53.5163C1.26903 53.8229 1.25837 54.1576 1.31037 54.4776C1.70103 56.8589 3.95837 58.5136 4.39703 60.8509C4.57037 61.7749 4.44103 62.7269 4.5077 63.6656C4.66637 65.9323 6.05303 68.0749 8.05703 69.1483C11.6317 71.0629 17.121 69.2669 20.0357 66.8429C21.1904 65.8843 21.841 64.6483 22.0517 63.2563C22.1597 62.5429 22.8344 62.0589 23.5424 62.1936C24.6157 62.3976 25.7197 62.4149 26.7557 62.0443C28.3984 61.4589 29.3264 59.9189 29.641 58.6696C30.065 56.9776 29.8624 55.3776 29.1437 53.7883Z" fill="#3D67FF"/>
<path d="M24.9974 54.9396C24.4668 54.9396 23.9121 55.2982 23.6721 55.8329C23.4974 56.2262 23.1614 57.2502 23.8494 58.2742C24.0548 58.5782 24.3228 58.7475 24.6721 58.7889C25.1708 58.8475 25.7161 58.6209 25.9948 58.3662C26.5094 57.8956 26.5468 57.2742 26.1321 56.0769C25.8548 55.2729 25.6001 55.0595 25.2774 54.9755C25.1868 54.9515 25.0921 54.9396 24.9974 54.9396ZM24.8361 59.9302C24.7374 59.9302 24.6374 59.9235 24.5374 59.9129C23.8614 59.8315 23.2988 59.4835 22.9094 58.9049C22.2041 57.8529 22.1054 56.5649 22.6401 55.3715C23.1561 54.2182 24.4134 53.5782 25.5654 53.8809C26.5401 54.1369 26.9401 54.9475 27.2014 55.7062C27.4441 56.4089 28.0134 58.0529 26.7601 59.2009C26.3441 59.5822 25.6121 59.9302 24.8361 59.9302ZM2.81342 53.1262C2.73742 53.1262 2.66409 53.1316 2.59342 53.1422C2.25209 53.1982 2.02942 53.3822 1.91209 53.7075C1.84275 53.8995 1.82809 54.1342 1.86942 54.3862C2.04809 55.4755 2.67609 56.4196 3.34142 57.4169C4.01742 58.4329 4.71609 59.4835 4.95342 60.7462C5.06942 61.3622 5.06275 61.9742 5.05609 62.5649C5.05209 62.9329 5.04809 63.2809 5.07209 63.6249C5.21742 65.6955 6.49342 67.6675 8.32409 68.6475C10.8561 70.0035 15.9148 69.5329 19.6748 66.4075C20.6828 65.5689 21.2948 64.4795 21.4921 63.1702C21.5681 62.6702 21.8361 62.2342 22.2481 61.9422C22.6588 61.6515 23.1561 61.5435 23.6494 61.6369C24.7748 61.8515 25.7281 61.8102 26.5668 61.5115C28.0054 60.9969 28.8148 59.6342 29.0921 58.5302C29.4708 57.0236 29.3188 55.5489 28.6294 54.0209C28.0054 52.6395 26.7868 51.8489 25.1974 51.7916C23.8414 51.7409 22.8281 52.3036 22.2148 52.7836C20.7961 53.8915 20.1708 55.2556 19.9828 57.6462C19.9668 57.8569 19.8321 58.0422 19.6374 58.1235C19.4414 58.2049 19.2161 58.1715 19.0534 58.0342C16.9574 56.2675 15.7321 53.5769 15.7761 50.8342C15.7814 50.5169 15.8041 50.1995 15.8241 49.8929C15.8734 49.1689 15.9201 48.4862 15.7588 47.8515C15.6068 47.2502 15.1454 46.6942 14.6628 46.5302C14.3334 46.4182 14.0174 46.4862 13.6988 46.7369C13.3041 47.0489 13.1294 47.5035 13.0521 47.8315C12.5828 49.8369 12.4414 51.8969 12.6321 53.9515C12.6574 54.2302 12.4761 54.4849 12.2054 54.5529C11.9334 54.6195 11.6548 54.4796 11.5468 54.2222L9.50275 49.3436C9.21742 48.6622 8.98542 48.2836 8.58009 48.2356C8.34142 48.2062 8.07609 48.3155 7.87209 48.5249C7.40009 49.0155 7.32942 49.7609 7.29742 50.4822C7.19875 52.7036 7.41209 54.9275 7.92942 57.0915C7.98675 57.3315 7.88275 57.5809 7.67075 57.7075C7.45875 57.8342 7.19075 57.8102 7.00542 57.6475C6.30675 57.0315 5.88809 56.2355 5.48275 55.4649C5.20942 54.9422 4.94942 54.4489 4.61475 54.0249C4.19875 53.4969 3.43342 53.1262 2.81342 53.1262ZM11.5788 70.5049C10.2108 70.5049 8.90542 70.2435 7.78942 69.6462C5.62409 68.4862 4.11475 66.1542 3.94275 63.7035C3.91609 63.3142 3.92009 62.9262 3.92409 62.5529C3.93075 61.9915 3.93742 61.4622 3.84142 60.9542C3.64675 59.9195 3.04142 59.0089 2.39875 58.0449C1.69742 56.9902 0.970753 55.8995 0.75342 54.5689C0.680087 54.1262 0.713419 53.6969 0.846753 53.3236C1.10542 52.6089 1.66142 52.1475 2.41209 52.0249C3.47342 51.8529 4.77342 52.3982 5.50275 53.3236C5.83475 53.7449 6.09609 54.2049 6.33875 54.6609C6.16142 53.2596 6.10409 51.8462 6.16675 50.4329C6.20675 49.5355 6.31209 48.5142 7.05742 47.7395C7.50542 47.2769 8.12542 47.0409 8.71475 47.1116C9.85075 47.2476 10.3028 48.3262 10.5468 48.9062L11.4494 51.0609C11.5148 49.8889 11.6814 48.7222 11.9508 47.5729C12.1201 46.8515 12.4828 46.2556 12.9988 45.8476C13.6148 45.3622 14.3361 45.2249 15.0268 45.4596C15.8734 45.7462 16.6094 46.5969 16.8561 47.5729C17.0614 48.3822 17.0068 49.1889 16.9534 49.9689C16.9321 50.2756 16.9134 50.5649 16.9081 50.8529C16.8748 52.8889 17.6401 54.8929 18.9908 56.3995C19.3214 54.3569 20.0921 53.0049 21.5174 51.8915C22.2788 51.2969 23.5441 50.6009 25.2374 50.6609C27.2494 50.7329 28.8614 51.7876 29.6601 53.5542C30.4601 55.3249 30.6321 57.0422 30.1894 58.8062C29.8414 60.1942 28.8068 61.9129 26.9468 62.5769C25.9148 62.9449 24.7668 63.0022 23.4374 62.7489C23.2494 62.7129 23.0601 62.7542 22.9028 62.8662C22.7441 62.9782 22.6401 63.1462 22.6121 63.3395C22.3708 64.9315 21.6268 66.2569 20.3988 67.2782C18.1654 69.1342 14.7094 70.5049 11.5788 70.5049Z" fill="black"/>
<path d="M26.7959 56.8799C26.5612 56.8799 26.3412 56.7319 26.2612 56.4972C26.1599 56.2012 26.3172 55.8799 26.6119 55.7785C27.5226 55.4665 28.1639 55.1905 29.0532 54.8065L29.1772 54.7532C29.4666 54.6292 29.7972 54.7612 29.9212 55.0492C30.0452 55.3359 29.9132 55.6679 29.6252 55.7919L29.5012 55.8465C28.6226 56.2239 27.9306 56.5239 26.9799 56.8492C26.9186 56.8705 26.8572 56.8799 26.7959 56.8799Z" fill="black"/>
<path d="M43.1103 44.1219C32.2797 59.4685 23.7223 77.1739 23.5077 95.9552C23.293 114.738 31.1983 129.909 46.8263 140.329C60.761 149.621 73.729 150.382 83.193 150.721C94.813 151.137 107.757 148.097 118.57 140.341C128.07 133.526 138.173 120.943 139.192 103.245C139.992 89.3459 135.77 72.7192 125.696 59.5739C117.732 49.1805 104.546 37.4925 96.5743 29.4859C85.7063 18.5712 82.9237 1.10454 82.9237 1.10454C82.9237 1.10454 54.1463 28.4832 43.1103 44.1219Z" fill="#FF5233"/>
<path d="M82.5623 2.23587C77.9529 6.66787 53.4556 30.4439 43.5729 44.4479C37.6676 52.8159 33.0516 61.0639 29.8529 68.9639C26.1169 78.1879 24.1729 87.2719 24.0729 95.9625C23.9676 105.231 25.8703 113.66 29.7276 121.016C33.5969 128.395 39.4556 134.735 47.1409 139.859C61.4129 149.375 75.0596 149.864 83.2129 150.156C95.9316 150.612 108.369 146.961 118.241 139.881C123.972 135.769 137.432 123.967 138.626 103.212C139.493 88.1652 134.49 71.9812 125.246 59.9172C119.4 52.2892 110.874 44.0999 103.353 36.8745C100.74 34.3639 98.2716 31.9932 96.1729 29.8865C86.8316 20.5039 83.3689 6.1892 82.5623 2.23587ZM85.3343 151.325C84.6143 151.325 83.8943 151.312 83.1729 151.287C74.8996 150.991 61.0516 150.495 46.5129 140.8C38.6689 135.569 32.6836 129.091 28.7249 121.541C24.7796 114.017 22.8342 105.407 22.9422 95.9492C23.0422 87.1172 25.0156 77.8945 28.8036 68.5385C32.0356 60.5599 36.6929 52.2345 42.6476 43.7959C53.5889 28.2919 82.2463 0.969204 82.5343 0.695871C82.6863 0.550537 82.9062 0.502536 83.1049 0.569203C83.3036 0.637203 83.4503 0.809201 83.4823 1.01587C83.5103 1.1892 86.3663 18.4332 96.9756 29.0879C99.0649 31.1852 101.529 33.5519 104.137 36.0585C111.688 43.3119 120.246 51.5319 126.145 59.2292C135.549 71.5012 140.638 87.9679 139.757 103.277C138.533 124.519 124.764 136.595 118.9 140.8C109.386 147.624 97.5409 151.325 85.3343 151.325Z" fill="black"/>
<path d="M50.0454 51.0898C49.6267 51.0898 49.2027 50.9738 48.8241 50.7298C47.7721 50.0538 47.4681 48.6538 48.1441 47.6018C53.7547 38.8778 64.0614 27.9138 68.7281 23.3352C69.6201 22.4592 71.0534 22.4725 71.9294 23.3658C72.8041 24.2578 72.7907 25.6912 71.8987 26.5658C66.6214 31.7445 56.9534 42.2712 51.9507 50.0498C51.5187 50.7232 50.7894 51.0898 50.0454 51.0898Z" fill="white"/>
<path d="M75.8984 22.0732C75.3277 22.0732 74.7571 21.8586 74.3171 21.4279C73.4224 20.5546 73.4064 19.1212 74.2797 18.2279C74.9517 17.5399 75.5304 16.9132 75.5357 16.9066C76.3837 15.9879 77.8157 15.9292 78.7344 16.7759C79.6531 17.6239 79.7117 19.0559 78.8651 19.9746C78.8397 20.0026 78.2384 20.6546 77.5171 21.3919C77.0744 21.8452 76.4864 22.0732 75.8984 22.0732Z" fill="white"/>
<path d="M84.4127 145.178C74.194 145.407 47.6887 146.41 28.3594 119.527C32.234 127.721 38.4074 134.715 46.8274 140.329C60.7607 149.621 73.7287 150.382 83.194 150.721C94.814 151.137 107.757 148.097 118.57 140.341C124.003 136.443 129.631 130.655 133.646 123.106C120.321 141.858 96.9527 144.897 84.4127 145.178Z" fill="black"/>
<path d="M32.4487 125.549C36.1581 131.021 41.0781 135.816 47.1407 139.859C61.4127 149.375 75.0594 149.863 83.2141 150.155C95.9314 150.612 108.369 146.961 118.241 139.88C121.239 137.728 125.099 134.427 128.69 129.759C123.387 134.919 116.767 138.889 108.919 141.604C101.553 144.152 93.3114 145.545 84.4247 145.744L83.9781 145.755C78.5581 145.879 69.4861 146.087 59.1941 142.927C48.8674 139.756 39.8981 133.924 32.4487 125.549ZM85.3341 151.325C84.6141 151.325 83.8954 151.312 83.1727 151.287C74.8994 150.989 61.0514 150.495 46.5127 140.8C38.0621 135.164 31.7821 128.088 27.8474 119.769C27.7234 119.504 27.8194 119.188 28.0714 119.04C28.3247 118.892 28.6474 118.959 28.8181 119.197C36.9127 130.453 47.2434 138.073 59.5261 141.845C69.6421 144.951 78.6007 144.745 83.9527 144.623L84.4007 144.612C93.1687 144.416 101.293 143.044 108.55 140.533C119.122 136.877 127.411 130.904 133.185 122.779C133.358 122.535 133.69 122.468 133.943 122.625C134.197 122.781 134.286 123.108 134.146 123.372C129.531 132.048 123.309 137.637 118.901 140.8C109.386 147.624 97.5407 151.324 85.3341 151.325Z" fill="black"/>
<path d="M63.04 124.318H66.1587L64.8227 118.169H64.644L63.04 124.318ZM70.7933 132.754C69.0707 132.754 68.1387 132.478 68.0013 131.923L67.02 128.091H62.2973L61.436 131.774C61.3173 132.389 60.3667 132.695 58.584 132.695C57.6333 132.695 56.9307 132.641 56.4747 132.531C56.0187 132.423 55.792 132.339 55.792 132.279L61.0493 112.167C61.0493 112.01 62.4053 111.93 65.12 111.93C67.832 111.93 69.1893 112.01 69.1893 112.167L74.328 132.309C74.328 132.447 73.8733 132.557 72.9613 132.635C72.0507 132.715 71.328 132.754 70.7933 132.754Z" fill="black"/>
<path d="M81.5678 124.11V127.971H82.1024C82.9531 127.971 83.5771 127.814 83.9744 127.497C84.3704 127.179 84.5678 126.675 84.5678 125.982C84.5678 125.289 84.3838 124.803 84.0184 124.526C83.6518 124.249 83.0424 124.11 82.1918 124.11H81.5678ZM81.5678 116.713V120.605H81.7158C83.6171 120.605 84.5678 119.971 84.5678 118.703C84.5678 118.01 84.3838 117.505 84.0184 117.189C83.6518 116.871 83.0424 116.713 82.1918 116.713H81.5678ZM90.1224 117.278C90.1224 119.338 89.2318 120.902 87.4491 121.971C88.4198 122.327 89.2318 122.942 89.8851 123.813C90.5384 124.685 90.8651 125.918 90.8651 127.511C90.8651 129.106 90.2758 130.369 89.0984 131.299C87.9198 132.23 86.2318 132.695 84.0331 132.695H77.0224C76.6851 132.695 76.4078 132.582 76.1904 132.354C75.9731 132.126 75.8638 131.825 75.8638 131.447V112.435C75.8638 112.218 75.8984 112.074 75.9678 112.005C76.0371 111.935 76.1798 111.901 76.3984 111.901H83.1718C87.8064 111.901 90.1224 113.693 90.1224 117.278Z" fill="black"/>
<path d="M101.088 115.643V120.633H106.108C106.466 120.633 106.722 120.92 106.882 121.495C106.96 121.792 107 122.079 107 122.356C107 122.633 106.96 122.92 106.882 123.217C106.722 123.792 106.466 124.079 106.108 124.079H101.088V129.159C101.088 129.516 100.802 129.773 100.227 129.932C99.9495 130.011 99.6629 130.051 99.3655 130.051L98.5029 129.932C97.9282 129.773 97.6415 129.516 97.6415 129.159V124.079H92.5922C92.2362 124.079 91.9775 123.792 91.8189 123.217C91.7402 122.92 91.7002 122.633 91.7002 122.356C91.7002 122.079 91.7402 121.792 91.8189 121.495C91.9775 120.92 92.2362 120.633 92.5922 120.633H97.6415V115.643C97.6415 115.287 97.9282 115.029 98.5029 114.871C98.7802 114.791 99.0682 114.751 99.3655 114.751L100.227 114.871C100.802 115.029 101.088 115.287 101.088 115.643Z" fill="black"/>
<path d="M56.0166 75.4686C56.0166 72.8952 57.3233 71.6139 58.9339 71.6139C60.5446 71.6139 61.8499 72.8952 61.8499 75.4686C61.8499 78.0419 60.5446 79.3232 58.9339 79.3232C57.3233 79.3232 56.0166 78.0419 56.0166 75.4686Z" fill="black"/>
<path d="M141.768 101.44C141.585 101.44 141.405 101.352 141.296 101.188C141.124 100.928 141.193 100.578 141.453 100.403C143.763 98.8631 146.151 97.2698 148.22 95.3831C149.073 94.6044 150.02 93.6498 150.584 92.4658C151.139 91.3018 151.205 90.0364 150.764 89.0818C150.068 87.5751 148.276 86.8551 146.613 86.3484C143.564 85.4191 140.411 84.7844 137.239 84.4591C136.928 84.4284 136.703 84.1498 136.733 83.8391C136.765 83.5284 137.04 83.3031 137.353 83.3338C140.597 83.6658 143.824 84.3164 146.943 85.2658C148.844 85.8458 150.908 86.6951 151.791 88.6071C152.381 89.8831 152.313 91.4671 151.607 92.9524C150.955 94.3204 149.861 95.4164 148.983 96.2191C146.849 98.1644 144.425 99.7818 142.081 101.346C141.985 101.41 141.876 101.44 141.768 101.44Z" fill="black"/>
<path d="M137.18 99.2828C135.43 99.3495 133.846 100.283 132.347 101.189C130.675 102.201 128.96 103.249 127.774 104.803C126.882 105.969 126.495 107.953 127.772 108.679C129.458 107.639 131.143 106.597 132.828 105.557C130.846 106.327 129.208 107.944 128.416 109.919C128.211 110.432 128.072 111.057 128.396 111.505C128.967 112.299 130.211 111.764 130.992 111.177C132.294 110.201 133.596 109.225 134.898 108.249C133.791 109.035 132.892 110.109 132.315 111.337C131.999 112.011 131.776 112.779 131.984 113.493C132.191 114.208 132.967 114.791 133.674 114.56C134.411 114.319 134.663 113.435 135.076 112.779C136.487 110.537 140.023 110.844 141.896 108.972C145.086 105.783 141.36 99.1228 137.18 99.2828Z" fill="#3D67FF"/>
<path d="M134.916 108.942C134.028 109.646 133.31 110.55 132.828 111.577C132.49 112.294 132.393 112.869 132.528 113.334C132.602 113.589 132.802 113.834 133.04 113.961C133.153 114.02 133.324 114.08 133.498 114.022C133.829 113.914 134.038 113.513 134.28 113.048C134.378 112.86 134.48 112.664 134.598 112.477C135.473 111.088 136.998 110.578 138.474 110.086C139.637 109.698 140.736 109.332 141.497 108.572C142.672 107.397 142.86 105.52 142 103.552C141.016 101.3 139.053 99.7838 137.202 99.8478C135.554 99.9104 134.006 100.848 132.641 101.673C131.029 102.649 129.362 103.657 128.224 105.146C127.693 105.84 127.418 106.792 127.554 107.461C127.598 107.678 127.681 107.854 127.808 107.992L130.134 106.556C130.869 105.906 131.714 105.382 132.625 105.029C132.897 104.922 133.205 105.044 133.336 105.305C133.466 105.566 133.376 105.885 133.126 106.038L130.806 107.47C129.996 108.206 129.346 109.12 128.942 110.128C128.748 110.612 128.717 110.984 128.856 111.174C128.921 111.268 129.001 111.314 129.118 111.332C129.48 111.388 130.096 111.142 130.653 110.725L134.225 108.045C134.338 107.957 134.453 107.87 134.57 107.786C134.822 107.608 135.173 107.665 135.354 107.914C135.537 108.165 135.485 108.516 135.237 108.701L134.916 108.942ZM133.352 115.176C133.069 115.176 132.782 115.104 132.512 114.961C132.001 114.692 131.601 114.202 131.441 113.65C131.245 112.978 131.325 112.229 131.684 111.366L131.333 111.63C130.938 111.926 129.918 112.601 128.948 112.45C128.53 112.388 128.181 112.174 127.937 111.837C127.553 111.304 127.538 110.588 127.892 109.706C127.974 109.501 128.065 109.3 128.165 109.101L128.07 109.16C127.894 109.269 127.673 109.273 127.493 109.17C126.941 108.857 126.578 108.344 126.445 107.686C126.245 106.705 126.598 105.408 127.324 104.458C128.593 102.8 130.432 101.686 132.054 100.705C133.465 99.8531 135.218 98.7918 137.16 98.7171C139.465 98.6224 141.872 100.43 143.037 103.098C144.09 105.51 143.813 107.854 142.297 109.372C141.348 110.321 140.069 110.748 138.832 111.16C137.486 111.609 136.214 112.033 135.556 113.08C135.462 113.228 135.376 113.394 135.284 113.57C134.973 114.169 134.62 114.846 133.85 115.098C133.689 115.15 133.521 115.176 133.352 115.176Z" fill="black"/>
<path d="M118.852 87.0622C118.852 89.9395 116.52 92.2715 113.643 92.2715C110.766 92.2715 108.434 89.9395 108.434 87.0622C108.434 84.1848 110.766 81.8528 113.643 81.8528C116.52 81.8528 118.852 84.1848 118.852 87.0622Z" fill="white"/>
<path d="M54.2624 87.0622C54.2624 89.9395 51.9304 92.2715 49.0531 92.2715C46.1758 92.2715 43.8438 89.9395 43.8438 87.0622C43.8438 84.1848 46.1758 81.8528 49.0531 81.8528C51.9304 81.8528 54.2624 84.1848 54.2624 87.0622Z" fill="white"/>
<path d="M75.208 93.376C72.6453 93.376 70.052 92.8653 67.628 91.8213C67.3413 91.6973 67.2093 91.3653 67.332 91.0773C67.456 90.7906 67.788 90.6573 68.076 90.7813C73.8493 93.2666 80.6373 92.5466 85.3706 88.9453C87.1093 87.6213 88.792 86.028 90.664 83.9293C90.8706 83.6973 91.2293 83.676 91.4626 83.884C91.696 84.092 91.716 84.4506 91.508 84.6826C89.5866 86.8373 87.8546 88.4773 86.056 89.8453C82.9973 92.1733 79.1386 93.376 75.208 93.376Z" fill="black"/>
<path d="M100.912 79.1094C100.863 79.1094 100.814 79.1027 100.764 79.0894C95.3522 77.62 89.8149 76.3414 84.3069 75.2907C84.0776 75.248 83.9002 75.068 83.8562 74.8387C83.8136 74.6107 83.9162 74.3787 84.1136 74.2547L97.8762 65.6627C98.1416 65.496 98.4909 65.5774 98.6562 65.8427C98.8216 66.108 98.7402 66.456 98.4762 66.6214L85.9322 74.4534C91.0016 75.456 96.0829 76.6454 101.06 77.9974C101.362 78.0787 101.54 78.3907 101.458 78.692C101.39 78.944 101.162 79.1094 100.912 79.1094Z" fill="black"/>
</svg>
