<svg width="139" height="185" viewBox="0 0 139 185" fill="none" xmlns="http://www.w3.org/2000/svg">
<path d="M11.5821 127.367C11.3755 127.367 11.1755 127.254 11.0768 127.057C10.9355 126.778 11.0475 126.438 11.3261 126.297C18.0715 122.89 24.1901 118.019 29.0208 112.209C29.2208 111.969 29.5781 111.935 29.8168 112.135C30.0581 112.335 30.0901 112.691 29.8915 112.933C24.9621 118.861 18.7195 123.831 11.8368 127.306C11.7555 127.349 11.6675 127.367 11.5821 127.367Z" fill="black"/>
<path d="M12.0533 130.133C10.6173 130.967 8.77332 130.405 7.33998 129.568C5.25865 128.351 3.53732 126.617 1.84132 124.903C1.27732 124.332 0.666652 123.601 0.869318 122.825C1.03065 122.213 1.67598 121.831 2.30532 121.776C2.93465 121.723 3.55465 121.928 4.15198 122.136C6.51465 122.957 18.7693 126.239 12.0533 130.133Z" fill="#3D67FF"/>
<path d="M2.51634 122.333C2.46167 122.333 2.407 122.336 2.35367 122.34C1.96167 122.373 1.51367 122.6 1.41634 122.968C1.28834 123.459 1.791 124.047 2.24434 124.505C3.891 126.171 5.595 127.892 7.62567 129.079C8.391 129.527 10.3297 130.479 11.7697 129.644C12.591 129.167 13.5537 128.437 13.471 127.671C13.251 125.644 6.963 123.635 4.89767 122.975C4.51234 122.852 4.19367 122.749 3.96567 122.669C3.42034 122.48 2.959 122.333 2.51634 122.333ZM10.4457 131.113C9.119 131.113 7.84167 130.516 7.055 130.056C4.895 128.795 3.13767 127.019 1.439 125.3C1.01234 124.869 0.0136713 123.859 0.321671 122.681C0.564338 121.76 1.46834 121.28 2.25767 121.212C3.027 121.148 3.75367 121.399 4.33767 121.601C4.559 121.677 4.86834 121.777 5.24167 121.896C9.94434 123.399 14.3323 125.124 14.595 127.548C14.715 128.649 13.955 129.684 12.3363 130.623C11.727 130.976 11.0803 131.113 10.4457 131.113Z" fill="black"/>
<path d="M41.0376 44.4695C30.2083 59.8162 21.6496 77.5215 21.4349 96.3029C21.2203 115.086 29.1256 130.256 44.7536 140.678C58.6883 149.968 71.6563 150.73 81.1203 151.068C92.7403 151.484 105.684 148.444 116.498 140.688C125.998 133.874 136.1 121.291 137.119 103.592C137.919 89.6935 133.698 73.0682 123.623 59.9202C115.659 49.5282 102.474 37.8402 94.5016 29.8335C83.6336 18.9189 80.8509 1.4522 80.8509 1.4522C80.8509 1.4522 52.0736 28.8309 41.0376 44.4695Z" fill="#FF5233"/>
<path d="M80.4895 2.58351C75.8802 7.01551 51.3828 30.7915 41.5002 44.7955C35.5948 53.1635 30.9788 61.4115 27.7802 69.3102C24.0442 78.5355 22.1002 87.6195 22.0002 96.3102C21.8948 105.578 23.7975 114.008 27.6548 121.364C31.5242 128.742 37.3828 135.082 45.0682 140.206C59.3402 149.722 72.9868 150.212 81.1402 150.502C93.8588 150.96 106.295 147.309 116.168 140.228C121.899 136.117 135.359 124.314 136.554 103.56C137.42 88.5129 132.419 72.3288 123.173 60.2648C117.327 52.6355 108.801 44.4462 101.28 37.2222C98.6668 34.7115 96.1988 32.3408 94.1002 30.2328C84.7588 20.8515 81.2962 6.53685 80.4895 2.58351ZM83.2628 151.673C82.5428 151.673 81.8228 151.66 81.1002 151.634C72.8268 151.338 58.9788 150.842 44.4402 141.148C36.5962 135.917 30.6108 129.437 26.6522 121.889C22.7068 114.365 20.7615 105.754 20.8695 96.2969C20.9695 87.4649 22.9428 78.2422 26.7308 68.8862C29.9628 60.9075 34.6202 52.5822 40.5748 44.1435C51.5162 28.6395 80.1735 1.31685 80.4615 1.04218C80.6135 0.898181 80.8335 0.848845 81.0322 0.916845C81.2308 0.984845 81.3775 1.15684 81.4095 1.36351C81.4375 1.53684 84.2935 18.7808 94.9028 29.4355C96.9922 31.5328 99.4562 33.8995 102.064 36.4048C109.615 43.6582 118.174 51.8795 124.072 59.5768C133.476 71.8488 138.566 88.3155 137.684 103.625C136.46 124.866 122.691 136.942 116.827 141.148C107.314 147.972 95.4682 151.672 83.2628 151.673Z" fill="black"/>
<path d="M34.7062 79.2354C34.5582 79.2354 34.4088 79.2207 34.2582 79.19C33.0328 78.9447 32.2382 77.7514 32.4848 76.526C34.6182 65.898 42.9915 51.3314 49.5248 43.9327C50.3528 42.9954 51.7822 42.906 52.7195 43.734C53.6568 44.5607 53.7462 45.9914 52.9182 46.9287C46.7462 53.918 38.8462 67.838 36.9235 77.4167C36.7062 78.4927 35.7622 79.2354 34.7062 79.2354Z" fill="white"/>
<path d="M55.0184 41.8301C54.6224 41.8301 54.2211 41.7261 53.8571 41.5074C52.7851 40.8647 52.4371 39.4741 53.0798 38.4021C53.8078 37.1887 54.5664 36.4701 54.7118 36.3381C55.6358 35.4967 57.0664 35.5634 57.9078 36.4874C58.7504 37.4114 58.6824 38.8434 57.7584 39.6847C57.7584 39.6847 57.3544 40.0767 56.9624 40.7301C56.5371 41.4381 55.7878 41.8301 55.0184 41.8301Z" fill="white"/>
<path d="M108.627 140.79C96.8151 146.161 86.6898 146.438 73.4751 145.749C53.9085 144.73 37.5725 133.969 27.8071 122.822C31.7018 129.755 37.3631 135.747 44.7538 140.677C58.6885 149.967 71.6565 150.729 81.1205 151.067C92.7405 151.483 105.684 148.443 116.498 140.687C125.716 134.074 129.967 126.802 133.97 118.225C128.75 127.503 124.442 133.599 108.627 140.79Z" fill="black"/>
<path d="M31.5178 127.511C35.0764 132.315 39.6138 136.569 45.0671 140.205C59.3391 149.723 72.9871 150.211 81.1404 150.503C93.8591 150.959 106.295 147.309 116.167 140.228C121.084 136.7 124.575 133.041 127.47 128.829C123.575 133.179 118.204 137.057 108.862 141.305C97.4898 146.475 87.6418 147.055 73.4458 146.315C64.2591 145.836 55.2591 143.235 46.6951 138.581C41.1844 135.587 36.0218 131.815 31.5178 127.511ZM83.2631 151.672C82.5418 151.672 81.8231 151.66 81.1004 151.633C72.8271 151.337 58.9791 150.841 44.4404 141.148C37.0258 136.204 31.2631 130.132 27.3138 123.1C27.1711 122.848 27.2431 122.528 27.4804 122.361C27.7164 122.193 28.0418 122.232 28.2324 122.449C33.4964 128.457 40.0671 133.692 47.2351 137.587C55.6498 142.159 64.4884 144.715 73.5044 145.184C87.5204 145.915 97.2337 145.349 108.392 140.276C124.086 133.14 128.338 127.08 133.476 117.948C133.624 117.683 133.956 117.584 134.227 117.723C134.498 117.861 134.61 118.189 134.482 118.465C130.926 126.085 126.634 134.113 116.827 141.148C107.314 147.971 95.4684 151.672 83.2631 151.672Z" fill="black"/>
<path d="M61.3466 122.166H64.4653L63.1293 116.017H62.9506L61.3466 122.166ZM69.1 130.604C67.3773 130.604 66.4453 130.326 66.308 129.772L65.328 125.938H60.604L59.7426 129.622C59.624 130.237 58.6733 130.544 56.8906 130.544C55.94 130.544 55.236 130.489 54.7813 130.38C54.3253 130.272 54.0986 130.188 54.0986 130.128L59.356 110.016C59.356 109.858 60.7133 109.778 63.4253 109.778C66.1386 109.778 67.496 109.858 67.496 110.016L72.6346 130.157C72.6346 130.296 72.18 130.405 71.2693 130.484C70.3573 130.564 69.6346 130.604 69.1 130.604Z" fill="black"/>
<path d="M79.8744 121.958V125.819H80.4091C81.2597 125.819 81.8837 125.662 82.2811 125.344C82.6771 125.027 82.8744 124.523 82.8744 123.83C82.8744 123.136 82.6917 122.651 82.3251 122.374C81.9584 122.096 81.3504 121.958 80.4984 121.958H79.8744ZM79.8744 114.56V118.452H80.0224C81.9237 118.452 82.8744 117.819 82.8744 116.551C82.8744 115.858 82.6917 115.352 82.3251 115.036C81.9584 114.72 81.3504 114.56 80.4984 114.56H79.8744ZM88.4304 115.126C88.4304 117.186 87.5384 118.75 85.7571 119.819C86.7264 120.175 87.5384 120.79 88.1917 121.66C88.8464 122.532 89.1731 123.766 89.1731 125.359C89.1731 126.954 88.5837 128.216 87.4051 129.147C86.2264 130.078 84.5384 130.543 82.3397 130.543H75.3291C74.9917 130.543 74.7144 130.43 74.4971 130.202C74.2797 129.974 74.1704 129.672 74.1704 129.295V110.283C74.1704 110.066 74.2051 109.922 74.2744 109.852C74.3437 109.783 74.4877 109.748 74.7051 109.748H81.4784C86.1131 109.748 88.4304 111.54 88.4304 115.126Z" fill="black"/>
<path d="M103.655 124.899H91.9205C91.5645 124.899 91.3071 124.613 91.1485 124.038C91.0685 123.741 91.0298 123.454 91.0298 123.177C91.0298 122.899 91.0685 122.611 91.1485 122.315C91.3071 121.741 91.5645 121.454 91.9205 121.454H103.655C104.011 121.454 104.268 121.741 104.427 122.315C104.506 122.611 104.547 122.899 104.547 123.177C104.547 123.454 104.506 123.741 104.427 124.038C104.268 124.613 104.011 124.899 103.655 124.899Z" fill="black"/>
<path d="M94.584 71.0096C94.584 68.4363 95.8893 67.1549 97.5013 67.1549C99.112 67.1549 100.417 68.4363 100.417 71.0096C100.417 73.5829 99.112 74.8643 97.5013 74.8643C95.8893 74.8643 94.584 73.5829 94.584 71.0096Z" fill="black"/>
<path d="M58.2266 71.0096C58.2266 68.4363 59.5319 67.1549 61.1439 67.1549C62.7546 67.1549 64.0599 68.4363 64.0599 71.0096C64.0599 73.5829 62.7546 74.8643 61.1439 74.8643C59.5319 74.8643 58.2266 73.5829 58.2266 71.0096Z" fill="black"/>
<path d="M107.844 85.693C107.844 88.5703 105.512 90.9023 102.635 90.9023C99.7578 90.9023 97.4258 88.5703 97.4258 85.693C97.4258 82.8157 99.7578 80.4837 102.635 80.4837C105.512 80.4837 107.844 82.8157 107.844 85.693Z" fill="white"/>
<path d="M61.2185 85.693C61.2185 88.5703 58.8865 90.9023 56.0091 90.9023C53.1318 90.9023 50.7998 88.5703 50.7998 85.693C50.7998 82.8157 53.1318 80.4837 56.0091 80.4837C58.8865 80.4837 61.2185 82.8157 61.2185 85.693Z" fill="white"/>
<path d="M72.2609 81.6806C70.5129 87.0392 76.5369 93.0646 82.6582 90.1326C87.3062 87.9059 88.0036 81.7526 84.3956 77.8472C81.0622 74.2392 73.6502 77.4206 72.2609 81.6806Z" fill="#A62D11"/>
<path d="M72.7987 81.8563C72.0427 84.175 72.8667 86.8256 74.8987 88.6056C77.0307 90.475 79.84 90.855 82.4133 89.623C84.3227 88.7083 85.5947 87.0483 85.996 84.9496C86.4467 82.5963 85.6933 80.0856 83.98 78.2323C82.4307 76.555 80.1347 76.755 78.9053 77.0243C76.0787 77.6416 73.5107 79.675 72.7987 81.8563ZM79.356 91.4736C77.4893 91.4736 75.6733 90.791 74.152 89.4576C71.78 87.3776 70.8253 84.2563 71.7227 81.5056C72.564 78.9256 75.4187 76.6283 78.6627 75.919C81.1587 75.3736 83.4 75.9363 84.8107 77.463C86.7667 79.5803 87.6253 82.459 87.108 85.163C86.644 87.587 85.1107 89.5856 82.9013 90.643C81.7413 91.2003 80.5387 91.4736 79.356 91.4736Z" fill="black"/>
<path d="M126.88 74.166C126.794 74.166 126.704 74.146 126.622 74.1033C126.344 73.9607 126.235 73.6193 126.378 73.342C131.01 64.3313 131.795 53.61 132.488 44.1514C132.511 43.8394 132.778 43.606 133.095 43.6287C133.407 43.6514 133.64 43.922 133.618 44.234C132.916 53.8007 132.122 64.6433 127.384 73.8593C127.283 74.054 127.086 74.166 126.88 74.166Z" fill="black"/>
<path d="M110.415 160.142C110.267 160.142 110.115 160.12 109.96 160.067C109.524 159.918 109.18 159.546 108.964 158.995C108.531 157.891 108.716 156.69 108.866 155.724L111.187 140.703C111.234 140.394 111.524 140.184 111.832 140.231C112.14 140.279 112.352 140.567 112.304 140.876L109.984 155.896C109.85 156.771 109.696 157.762 110.018 158.582C110.104 158.804 110.222 158.96 110.328 158.996C110.502 159.055 110.836 158.888 110.996 158.807C113.704 157.443 116.162 155.66 118.299 153.511C118.52 153.288 118.879 153.288 119.099 153.508C119.322 153.728 119.323 154.087 119.102 154.308C116.878 156.544 114.323 158.399 111.507 159.818C111.264 159.94 110.864 160.142 110.415 160.142Z" fill="black"/>
<path d="M62.9309 178.777C62.9256 178.777 62.9203 178.777 62.9149 178.777C62.6029 178.769 62.3563 178.508 62.3656 178.196C62.6683 166.963 62.2176 155.601 61.0243 144.428C60.9909 144.117 61.2163 143.839 61.5269 143.805C61.8349 143.771 62.1163 143.997 62.1496 144.308C63.3483 155.531 63.8016 166.943 63.4963 178.227C63.4883 178.533 63.2363 178.777 62.9309 178.777Z" fill="black"/>
<path d="M60.1435 176.848C58.1289 177.059 55.9822 177.32 54.6062 178.996C53.9169 179.835 53.6622 180.982 54.0929 181.979C54.7582 183.528 56.4995 183.731 58.0182 183.762C60.3182 183.808 62.4502 183.802 64.6982 183.311C66.0782 183.01 66.8822 182.202 67.0262 179.023C67.0782 177.879 66.1835 176.911 65.0395 176.867C63.3769 176.803 61.1289 176.746 60.1435 176.848Z" fill="#3D67FF"/>
<path d="M61.7984 177.358C61.0824 177.358 60.541 177.376 60.2024 177.411C58.3757 177.603 56.305 177.819 55.0437 179.355C54.4504 180.076 54.285 180.996 54.6117 181.755C55.1357 182.971 56.5637 183.167 58.029 183.196C60.2197 183.242 62.3677 183.24 64.577 182.758C65.557 182.544 66.3184 182.132 66.461 178.998C66.4797 178.598 66.3397 178.214 66.0677 177.918C65.793 177.62 65.421 177.448 65.017 177.432C63.7344 177.383 62.645 177.358 61.7984 177.358ZM59.5557 184.346C59.0397 184.346 58.5237 184.338 58.0064 184.328C56.2504 184.292 54.3517 184.012 53.573 182.203C53.0784 181.054 53.3064 179.687 54.169 178.636C55.725 176.743 58.1424 176.49 60.085 176.286C61.097 176.179 63.349 176.235 65.061 176.302C65.7677 176.328 66.421 176.631 66.901 177.152C67.3784 177.672 67.6237 178.346 67.5917 179.05C67.4517 182.15 66.6997 183.454 64.8184 183.864C63.0224 184.256 61.2904 184.346 59.5557 184.346Z" fill="black"/>
<path d="M116.512 157.216C116.131 159.205 115.759 161.335 116.963 163.137C117.567 164.041 118.589 164.616 119.669 164.495C121.345 164.304 122.044 162.697 122.513 161.253C123.224 159.065 123.835 157.023 124.017 154.729C124.128 153.321 123.588 152.317 120.588 151.257C119.508 150.876 118.321 151.452 117.948 152.536C117.405 154.108 116.699 156.243 116.512 157.216Z" fill="#3D67FF"/>
<path d="M119.903 151.706C119.68 151.706 119.459 151.756 119.251 151.856C118.887 152.032 118.613 152.339 118.483 152.72C117.699 154.992 117.209 156.584 117.068 157.323C116.721 159.127 116.329 161.171 117.433 162.823C117.953 163.6 118.783 164.027 119.607 163.932C120.923 163.783 121.523 162.472 121.975 161.079C122.652 158.996 123.273 156.94 123.452 154.684C123.532 153.684 123.357 152.836 120.4 151.792C120.237 151.735 120.069 151.706 119.903 151.706ZM119.381 165.076C118.26 165.076 117.177 164.476 116.493 163.452C115.131 161.415 115.588 159.027 115.956 157.11C116.148 156.111 116.853 153.971 117.412 152.351C117.644 151.683 118.121 151.146 118.759 150.838C119.396 150.53 120.112 150.49 120.776 150.724C123.703 151.758 124.733 152.855 124.581 154.774C124.392 157.154 123.749 159.279 123.052 161.428C122.509 163.099 121.691 164.835 119.733 165.056C119.616 165.07 119.499 165.076 119.381 165.076Z" fill="black"/>
<path d="M137.921 44.771C137.921 47.5817 135.642 49.8604 132.832 49.8604C130.021 49.8604 127.744 47.5817 127.744 44.771C127.744 41.9604 130.021 39.6817 132.832 39.6817C135.642 39.6817 137.921 41.9604 137.921 44.771Z" fill="#3D67FF"/>
<path d="M132.832 40.2484C130.339 40.2484 128.309 42.2778 128.309 44.7711C128.309 47.2658 130.339 49.2951 132.832 49.2951C135.325 49.2951 137.355 47.2658 137.355 44.7711C137.355 42.2778 135.325 40.2484 132.832 40.2484ZM132.832 50.4258C129.713 50.4258 127.177 47.8898 127.177 44.7711C127.177 41.6538 129.713 39.1164 132.832 39.1164C135.951 39.1164 138.487 41.6538 138.487 44.7711C138.487 47.8898 135.951 50.4258 132.832 50.4258Z" fill="black"/>
</svg>
