<svg width="151" height="177" viewBox="0 0 151 177" fill="none" xmlns="http://www.w3.org/2000/svg">
<path d="M19.2053 104.629C16.7959 104.629 14.3866 104.464 12.0013 104.134C10.4399 103.92 8.85193 103.56 7.81193 102.394C6.81593 101.28 6.61593 99.7729 6.4946 98.3249C6.1266 93.9182 6.05593 89.4449 6.28393 85.0289C6.29993 84.7169 6.56793 84.4796 6.8786 84.4929C7.1906 84.5089 7.4306 84.7756 7.41327 85.0876C7.18927 89.4529 7.2586 93.8742 7.6226 98.2316C7.7266 99.4876 7.89327 100.786 8.65593 101.64C9.49193 102.577 10.9013 102.841 12.1559 103.014C15.9999 103.544 19.9079 103.638 23.7706 103.294C24.0879 103.266 24.3573 103.497 24.3853 103.808C24.4133 104.12 24.1826 104.394 23.8719 104.422C22.3213 104.56 20.7626 104.629 19.2053 104.629Z" fill="black"/>
<path d="M14.496 81.321C13.836 80.2143 12.7694 79.4663 11.5334 79.0077C10.2 76.873 9.11472 74.5823 8.31072 72.197C8.06272 71.4637 7.82805 70.6957 7.30938 70.121C6.79205 69.5463 5.89338 69.2277 5.22538 69.6183C4.94272 69.7837 4.73605 70.053 4.57738 70.3383C3.88138 71.5903 4.03872 73.1463 4.45738 74.517C4.90005 75.965 5.62005 77.325 6.55338 78.517C5.91605 78.597 5.30938 78.7277 4.76272 78.8997C3.57205 79.2757 2.41472 79.869 1.59472 80.8117C0.774716 81.753 0.340049 83.0863 0.684049 84.2877C1.10805 85.769 2.55738 86.709 3.98672 87.2863C5.86938 88.045 7.90938 88.409 9.93738 88.3503C11.0574 88.317 12.2094 88.1437 13.1627 87.5543C15.1667 86.317 15.7027 83.3437 14.496 81.321Z" fill="#3D67FF"/>
<path d="M5.88317 70.0125C5.75117 70.0125 5.62317 70.0419 5.51117 70.1072C5.3565 70.1979 5.2085 70.3685 5.07117 70.6139C4.42317 71.7805 4.67383 73.2899 4.99783 74.3512C5.41783 75.7232 6.09117 77.0072 6.99917 78.1685C7.1245 78.3285 7.15517 78.5432 7.0765 78.7325C6.99917 78.9205 6.82717 79.0525 6.6245 79.0779C6.01917 79.1552 5.44983 79.2765 4.93383 79.4392C3.65783 79.8419 2.67783 80.4285 2.02183 81.1832C1.26183 82.0565 0.9565 83.1872 1.22717 84.1312C1.61117 85.4685 3.05517 86.2992 4.19917 86.7605C6.0005 87.4872 7.9845 87.8419 9.9205 87.7845C11.2045 87.7472 12.1405 87.5205 12.8658 87.0725C14.5498 86.0325 15.0952 83.4299 14.0098 81.6112C13.4618 80.6912 12.5618 79.9939 11.3365 79.5379C11.2192 79.4952 11.1205 79.4139 11.0538 79.3072C9.69383 77.1325 8.59117 74.8005 7.77383 72.3779L7.72583 72.2352C7.5045 71.5752 7.29517 70.9512 6.88983 70.4992C6.64183 70.2245 6.24183 70.0125 5.88317 70.0125ZM9.51517 88.9219C7.5605 88.9219 5.58583 88.5405 3.77517 87.8112C1.8005 87.0139 0.543167 85.8499 0.139167 84.4432C-0.2355 83.1339 0.159167 81.5992 1.1685 80.4392C1.96317 79.5272 3.11517 78.8272 4.5925 78.3605C4.89917 78.2632 5.22183 78.1792 5.55783 78.1099C4.83783 77.0445 4.28717 75.8952 3.91517 74.6819C3.35117 72.8325 3.40717 71.2792 4.08317 70.0645C4.32183 69.6325 4.60183 69.3272 4.93917 69.1299C5.8925 68.5725 7.0885 69.0299 7.72983 69.7419C8.29383 70.3685 8.56183 71.1685 8.79917 71.8765L8.84717 72.0165C9.61517 74.2965 10.6472 76.4925 11.9138 78.5485C13.2952 79.0979 14.3272 79.9325 14.9818 81.0312C16.3898 83.3925 15.6792 86.6659 13.4605 88.0365C12.5592 88.5925 11.4445 88.8712 9.95383 88.9152C9.80717 88.9205 9.6605 88.9219 9.51517 88.9219Z" fill="black"/>
<path d="M73.0282 171.103C72.7602 171.103 72.5216 170.911 72.4722 170.637L67.3989 142.555C67.3429 142.247 67.5469 141.953 67.8549 141.897C68.1629 141.841 68.4562 142.047 68.5122 142.353L73.5856 170.436C73.6416 170.744 73.4362 171.039 73.1296 171.093C73.0949 171.1 73.0616 171.103 73.0282 171.103Z" fill="black"/>
<path d="M102.843 171.425C102.634 171.425 102.432 171.307 102.334 171.107C99.7032 165.723 97.5685 160.126 95.5045 154.714C93.9778 150.707 92.3978 146.565 90.6245 142.527C90.4992 142.241 90.6285 141.907 90.9152 141.782C91.2018 141.657 91.5352 141.786 91.6605 142.073C93.4458 146.135 95.0298 150.291 96.5632 154.311C98.6165 159.701 100.742 165.273 103.351 170.61C103.488 170.891 103.372 171.23 103.091 171.367C103.011 171.406 102.926 171.425 102.843 171.425Z" fill="black"/>
<path d="M69.118 169.422C67.1034 169.632 64.9567 169.894 63.5807 171.57C62.8914 172.408 62.6367 173.555 63.066 174.552C63.7327 176.102 65.474 176.304 66.9927 176.335C69.2927 176.382 71.4234 176.375 73.6727 175.884C75.0527 175.583 75.8567 174.775 76.0007 171.596C76.0527 170.452 75.158 169.484 74.014 169.44C72.3514 169.376 70.1034 169.319 69.118 169.422Z" fill="#3D67FF"/>
<path d="M69.1774 169.984C67.3494 170.176 65.2788 170.392 64.0188 171.928C63.4254 172.65 63.2601 173.57 63.5868 174.328C64.1094 175.544 65.5388 175.74 67.0041 175.77C69.1921 175.814 71.3414 175.814 73.5521 175.331C74.5321 175.118 75.2934 174.706 75.4361 171.571C75.4548 171.171 75.3148 170.787 75.0414 170.491C74.7681 170.194 74.3961 170.02 73.9921 170.006C71.6254 169.915 69.9161 169.907 69.1774 169.984ZM68.5308 176.919C68.0148 176.919 67.4988 176.911 66.9814 176.9C65.2254 176.866 63.3254 176.586 62.5468 174.776C62.0521 173.627 62.2814 172.26 63.1441 171.21C64.6988 169.316 67.1161 169.063 69.0588 168.859C70.0721 168.752 72.3241 168.808 74.0361 168.875C74.7428 168.902 75.3961 169.203 75.8748 169.724C76.3534 170.244 76.5988 170.919 76.5668 171.623C76.4254 174.722 75.6734 176.027 73.7934 176.438C71.9961 176.828 70.2641 176.919 68.5308 176.919Z" fill="black"/>
<path d="M106.116 169.422C108.131 169.632 110.278 169.894 111.654 171.57C112.343 172.408 112.598 173.555 112.168 174.552C111.502 176.102 109.76 176.304 108.242 176.335C105.942 176.382 103.811 176.375 101.562 175.884C100.182 175.583 99.3776 174.775 99.2336 171.596C99.1816 170.452 100.076 169.484 101.22 169.44C102.883 169.376 105.131 169.319 106.116 169.422Z" fill="#3D67FF"/>
<path d="M104.462 169.932C103.615 169.932 102.526 169.957 101.243 170.007C100.839 170.021 100.467 170.193 100.192 170.492C99.9203 170.788 99.7803 171.172 99.799 171.572C99.9416 174.707 100.702 175.119 101.683 175.332C103.892 175.815 106.04 175.815 108.231 175.771C109.696 175.741 111.124 175.545 111.648 174.329C111.975 173.571 111.81 172.651 111.216 171.929C109.956 170.393 107.884 170.177 106.058 169.985C105.719 169.949 105.176 169.932 104.462 169.932ZM106.704 176.92C104.97 176.92 103.238 176.829 101.442 176.439C99.5603 176.028 98.8083 174.723 98.6683 171.624C98.6363 170.92 98.8816 170.245 99.359 169.725C99.839 169.204 100.492 168.903 101.199 168.875C102.91 168.809 105.162 168.753 106.175 168.86C108.118 169.064 110.535 169.317 112.091 171.211C112.954 172.261 113.182 173.628 112.687 174.777C111.908 176.587 110.008 176.867 108.254 176.901C107.736 176.912 107.22 176.92 106.704 176.92Z" fill="black"/>
<path d="M39.7007 43.5818C28.8713 58.9285 20.3127 76.6338 20.098 95.4152C19.8833 114.198 27.79 129.368 43.4167 139.79C57.3513 149.08 70.3193 149.842 79.7833 150.18C91.4033 150.596 104.347 147.556 115.161 139.8C124.661 132.986 134.763 120.403 135.782 102.704C136.582 88.8058 132.361 72.1805 122.286 59.0338C114.322 48.6405 101.137 36.9525 93.1647 28.9458C82.2967 18.0325 79.514 0.564503 79.514 0.564503C79.514 0.564503 50.7367 27.9445 39.7007 43.5818Z" fill="#FF5233"/>
<path d="M79.1531 1.69583C74.5437 6.12783 50.0464 29.9038 40.1637 43.9092C34.2584 52.2758 29.6424 60.5238 26.4437 68.4238C22.7077 77.6478 20.7637 86.7318 20.6637 95.4225C20.5584 104.69 22.4611 113.12 26.3184 120.476C30.1877 127.854 36.0464 134.194 43.7317 139.318C58.0037 148.834 71.6504 149.324 79.8051 149.616C92.5224 150.07 104.96 146.421 114.832 139.341C120.562 135.229 134.022 123.426 135.217 102.672C136.084 87.6265 131.082 71.4412 121.837 59.3772C115.992 51.7492 107.466 43.5598 99.9451 36.3358C97.3317 33.8252 94.8624 31.4532 92.7651 29.3465C83.4224 19.9638 79.9597 5.64916 79.1531 1.69583ZM81.9264 150.785C81.2064 150.785 80.4864 150.772 79.7637 150.746C71.4904 150.45 57.6424 149.954 43.1037 140.26C35.2597 135.029 29.2744 128.55 25.3157 121.001C21.3704 113.477 19.4251 104.866 19.5331 95.4092C19.6331 86.5772 21.6064 77.3545 25.3944 67.9985C28.6264 60.0198 33.2837 51.6945 39.2384 43.2558C50.1797 27.7518 78.8371 0.429165 79.1251 0.155832C79.2771 0.0104984 79.4971 -0.0375032 79.6957 0.0291634C79.8944 0.0971634 80.0411 0.269162 80.0731 0.475829C80.1011 0.649162 82.9571 17.8932 93.5664 28.5478C95.6557 30.6465 98.1211 33.0132 100.73 35.5198C108.28 42.7718 116.837 50.9932 122.736 58.6892C132.14 70.9625 137.229 87.4278 136.348 102.737C135.124 123.978 121.354 136.054 115.49 140.26C105.977 147.084 94.1331 150.785 81.9264 150.785Z" fill="black"/>
<path d="M40.1395 63.0273C39.7769 63.0273 39.4089 62.9393 39.0675 62.7553C37.9675 62.1633 37.5555 60.79 38.1489 59.69C43.8462 49.1193 50.7729 39.2033 58.7369 30.2167C59.5675 29.2807 60.9982 29.194 61.9329 30.0233C62.8675 30.8527 62.9542 32.2833 62.1249 33.218C54.3915 41.9447 47.6662 51.574 42.1342 61.8367C41.7249 62.5967 40.9449 63.0273 40.1395 63.0273Z" fill="white"/>
<path d="M66.4839 27.5615C65.9039 27.5615 65.3252 27.3402 64.8825 26.8975C63.9985 26.0135 63.9999 24.5802 64.8839 23.6975L66.0719 22.5109C66.9559 21.6269 68.3892 21.6269 69.2719 22.5109C70.1559 23.3949 70.1559 24.8282 69.2719 25.7122L68.0839 26.8989C67.6412 27.3415 67.0625 27.5615 66.4839 27.5615Z" fill="white"/>
<path d="M77.9056 144.793C66.6616 144.32 40.1416 142.453 25.7056 120.516C29.6069 128.053 35.5269 134.528 43.4176 139.789C57.3522 149.08 70.3202 149.841 79.7842 150.181C91.4042 150.597 104.348 147.556 115.16 139.8C120.674 135.845 126.386 129.945 130.412 122.233C116.263 142.3 91.9189 145.384 77.9056 144.793Z" fill="black"/>
<path d="M32.2882 129.27C35.4749 133.002 39.2989 136.364 43.7309 139.318C58.0029 148.836 71.6509 149.324 79.8042 149.616C92.5215 150.07 104.959 146.422 114.831 139.341C117.874 137.158 121.78 133.808 125.398 129.066C119.716 134.74 112.646 139.008 104.287 141.797C93.4642 145.408 83.0962 145.58 77.8815 145.358C69.9002 145.022 47.9015 144.096 32.2882 129.27ZM81.9255 150.785C81.2055 150.785 80.4855 150.773 79.7642 150.746C71.4895 150.45 57.6415 149.954 43.1042 140.261C35.1855 134.981 29.1615 128.425 25.2029 120.776C25.0642 120.509 25.1589 120.18 25.4189 120.028C25.6789 119.876 26.0122 119.954 26.1775 120.205C40.9615 142.67 68.7855 143.844 77.9295 144.228C83.0669 144.444 93.2775 144.277 103.928 140.724C114.995 137.03 123.75 130.7 129.95 121.908C130.12 121.664 130.451 121.594 130.706 121.75C130.96 121.905 131.051 122.232 130.914 122.496C126.291 131.35 119.975 137.044 115.491 140.261C105.976 147.085 94.1322 150.785 81.9255 150.785Z" fill="black"/>
<path d="M68.122 126.767V130.629H68.6566C69.5073 130.629 70.1313 130.471 70.5286 130.154C70.9246 129.837 71.122 129.333 71.122 128.639C71.122 127.946 70.9393 127.461 70.5726 127.183C70.206 126.906 69.5966 126.767 68.746 126.767H68.122ZM68.122 119.37V123.262H68.27C70.1713 123.262 71.122 122.629 71.122 121.361C71.122 120.667 70.9393 120.162 70.5726 119.846C70.206 119.529 69.5966 119.37 68.746 119.37H68.122ZM76.678 119.935C76.678 121.995 75.786 123.559 74.0033 124.629C74.974 124.985 75.786 125.599 76.4393 126.47C77.094 127.342 77.4206 128.575 77.4206 130.169C77.4206 131.763 76.83 133.026 75.6526 133.957C74.474 134.887 72.786 135.353 70.5873 135.353H63.5766C63.2393 135.353 62.962 135.239 62.7446 135.011C62.5273 134.783 62.418 134.481 62.418 134.105V115.093C62.418 114.875 62.4526 114.731 62.522 114.662C62.5913 114.593 62.734 114.558 62.9526 114.558H69.726C74.3606 114.558 76.678 116.35 76.678 119.935Z" fill="black"/>
<path d="M87.6424 118.301V123.292H92.6624C93.0197 123.292 93.2757 123.58 93.4357 124.153C93.5144 124.45 93.5544 124.737 93.5544 125.014C93.5544 125.292 93.5144 125.58 93.4357 125.876C93.2757 126.45 93.0197 126.738 92.6624 126.738H87.6424V131.817C87.6424 132.174 87.3557 132.432 86.7811 132.59C86.5037 132.669 86.2171 132.709 85.9197 132.709L85.0584 132.59C84.4824 132.432 84.1957 132.174 84.1957 131.817V126.738H79.1464C78.7904 126.738 78.5317 126.45 78.3731 125.876C78.2944 125.58 78.2544 125.292 78.2544 125.014C78.2544 124.737 78.2944 124.45 78.3731 124.153C78.5317 123.58 78.7904 123.292 79.1464 123.292H84.1957V118.301C84.1957 117.945 84.4824 117.688 85.0584 117.529C85.3344 117.45 85.6224 117.41 85.9197 117.41L86.7811 117.529C87.3557 117.688 87.6424 117.945 87.6424 118.301Z" fill="black"/>
<path d="M93.2476 87.9988C93.2476 85.4255 94.5529 84.1442 96.1649 84.1442C97.7756 84.1442 99.0809 85.4255 99.0809 87.9988C99.0809 90.5722 97.7756 91.8535 96.1649 91.8535C94.5529 91.8535 93.2476 90.5722 93.2476 87.9988Z" fill="black"/>
<path d="M56.8901 87.9988C56.8901 85.4255 58.1955 84.1442 59.8075 84.1442C61.4181 84.1442 62.7235 85.4255 62.7235 87.9988C62.7235 90.5722 61.4181 91.8535 59.8075 91.8535C58.1955 91.8535 56.8901 90.5722 56.8901 87.9988Z" fill="black"/>
<path d="M59.4792 97.0631C59.4792 99.9405 57.1472 102.272 54.2699 102.272C51.3925 102.272 49.0605 99.9405 49.0605 97.0631C49.0605 94.1858 51.3925 91.8538 54.2699 91.8538C57.1472 91.8538 59.4792 94.1858 59.4792 97.0631Z" fill="white"/>
<path d="M106.911 97.0631C106.911 99.9405 104.579 102.272 101.702 102.272C98.8242 102.272 96.4922 99.9405 96.4922 97.0631C96.4922 94.1858 98.8242 91.8538 101.702 91.8538C104.579 91.8538 106.911 94.1858 106.911 97.0631Z" fill="white"/>
<path d="M88.0309 96.3799C87.5323 94.9305 85.559 94.8092 84.0336 94.9572C82.203 95.1332 81.1696 95.0252 79.339 95.2025C77.3003 95.1612 75.2616 95.1199 73.2243 95.0772C71.9083 95.0505 70.5603 95.0279 69.315 95.4519C68.0683 95.8759 67.475 97.1305 68.0776 98.6985C68.519 99.8452 69.9616 101.028 71.4696 101.841C73.375 102.871 76.5576 103.761 79.827 103.403C83.0976 103.045 86.3083 101.472 87.7269 98.5039C88.0443 97.8412 88.2696 97.0745 88.0309 96.3799Z" fill="#A62D11"/>
<path d="M72.2752 95.6302C71.3245 95.6302 70.3738 95.6888 69.4978 95.9875C69.0592 96.1368 68.7338 96.4128 68.5578 96.7888C68.3405 97.2542 68.3565 97.8448 68.6072 98.4942C68.9538 99.3955 70.1538 100.487 71.7392 101.343C73.5072 102.298 76.5445 103.193 79.7658 102.839C83.2418 102.459 86.0272 100.747 87.2165 98.2595C87.5552 97.5528 87.6458 96.9982 87.4965 96.5635C87.0992 95.4062 85.1898 95.4128 84.0885 95.5195C83.1525 95.6102 82.4138 95.6275 81.7005 95.6448C80.9738 95.6622 80.2885 95.6782 79.3938 95.7648C79.3712 95.7675 79.3498 95.7688 79.3272 95.7675L73.2125 95.6422C72.9018 95.6368 72.5885 95.6302 72.2752 95.6302ZM78.3218 104.049C75.4418 104.049 72.8285 103.217 71.2005 102.338C69.3605 101.345 67.9965 100.061 67.5512 98.9008C67.1872 97.9568 67.1818 97.0608 67.5338 96.3088C67.8378 95.6582 68.4058 95.1635 69.1325 94.9155C70.4885 94.4555 71.9485 94.4848 73.2365 94.5115L79.3178 94.6355C80.2378 94.5475 80.9672 94.5302 81.6725 94.5142C82.3992 94.4955 83.0845 94.4795 83.9792 94.3928C87.1538 94.0862 88.2258 95.2035 88.5672 96.1955C88.8178 96.9248 88.7098 97.7608 88.2378 98.7475C86.8778 101.591 83.7578 103.542 79.8898 103.965C79.3605 104.022 78.8378 104.049 78.3218 104.049Z" fill="black"/>
<path d="M131.138 116.302C130.855 116.302 130.611 116.091 130.576 115.803C130.539 115.492 130.762 115.211 131.071 115.174C132.058 115.056 133.055 114.951 134.022 114.848C136.391 114.598 138.842 114.339 141.226 113.884C142.667 113.61 145.378 112.947 147.344 111.596C149.002 110.458 149.85 108.532 149.506 106.691C149.106 104.547 146.995 102.634 145.204 101.762C141.543 99.9818 137.502 99.5111 135.878 99.5111C135.564 99.5111 135.311 99.2578 135.311 98.9458C135.311 98.6324 135.564 98.3791 135.878 98.3791C137.592 98.3791 141.852 98.8738 145.699 100.744C147.806 101.768 150.144 103.94 150.619 106.483C151.044 108.764 150.011 111.138 147.984 112.528C145.848 113.996 142.966 114.704 141.438 114.996C139.008 115.459 136.534 115.722 134.14 115.974C133.179 116.076 132.184 116.18 131.206 116.298C131.183 116.3 131.16 116.302 131.138 116.302Z" fill="black"/>
<path d="M129.478 116.102C129.023 116.781 128.643 117.519 128.447 118.313C128.043 119.947 128.47 121.722 129.391 123.131C130.314 124.539 131.695 125.605 133.2 126.358C134.391 126.954 135.712 127.375 137.04 127.265C138.367 127.154 139.695 126.435 140.274 125.235C140.852 124.035 140.472 122.379 139.296 121.754C138.444 121.302 137.41 121.437 136.471 121.215C132.938 120.378 134.31 117.633 134.123 115.234C133.988 113.498 130.68 114.306 129.478 116.102Z" fill="#3D67FF"/>
<path d="M132.831 114.834C131.933 114.834 130.587 115.463 129.949 116.417C129.467 117.134 129.157 117.798 128.995 118.449C128.654 119.833 128.979 121.467 129.865 122.821C130.651 124.023 131.893 125.071 133.454 125.853C134.771 126.511 135.929 126.789 136.994 126.701C138.225 126.599 139.313 125.927 139.765 124.99C140.235 124.013 139.886 122.709 139.031 122.254C138.602 122.026 138.071 121.978 137.51 121.927C137.129 121.894 136.735 121.858 136.342 121.765C133.197 121.021 133.371 118.775 133.511 116.971C133.555 116.405 133.601 115.818 133.559 115.278C133.545 115.09 133.478 114.95 133.199 114.877C133.089 114.849 132.966 114.834 132.831 114.834ZM136.603 127.849C135.469 127.849 134.267 127.525 132.947 126.865C131.207 125.994 129.814 124.81 128.918 123.441C127.847 121.805 127.475 119.887 127.898 118.177C128.09 117.398 128.453 116.615 129.007 115.787C129.955 114.373 132.09 113.418 133.486 113.782C134.194 113.967 134.631 114.481 134.687 115.19C134.737 115.818 134.687 116.449 134.639 117.059C134.495 118.917 134.401 120.143 136.602 120.665C136.917 120.738 137.254 120.769 137.61 120.801C138.259 120.859 138.931 120.919 139.562 121.254C140.967 122.002 141.527 123.937 140.783 125.481C140.162 126.773 138.71 127.694 137.087 127.829C136.927 127.842 136.766 127.849 136.603 127.849Z" fill="black"/>
<path d="M8.98058 86.9551C8.26191 86.9551 7.54191 86.8257 6.86991 86.5631C6.08325 86.2577 5.57125 85.8097 5.34991 85.2351C5.04991 84.4577 5.35125 83.4911 6.08325 82.8844C6.67658 82.3924 7.40325 82.1937 8.10058 82.0524C9.29525 81.8111 10.5166 81.6964 11.7366 81.7151C12.0499 81.7191 12.2992 81.9764 12.2952 82.2884C12.2899 82.6004 12.0232 82.8417 11.7206 82.8457C10.5859 82.8284 9.44058 82.9364 8.32458 83.1617C7.77258 83.2737 7.20591 83.4231 6.80591 83.7551C6.50725 84.0031 6.26458 84.4631 6.40591 84.8271C6.53391 85.1591 6.95258 85.3804 7.28058 85.5084C8.54858 86.0031 10.0206 85.9124 11.2206 85.2684C11.4952 85.1204 11.8379 85.2244 11.9859 85.4991C12.1339 85.7751 12.0312 86.1177 11.7566 86.2657C10.9046 86.7231 9.94325 86.9551 8.98058 86.9551Z" fill="black"/>
</svg>
