<svg width="149" height="180" viewBox="0 0 149 180" fill="none" xmlns="http://www.w3.org/2000/svg">
<path d="M35.668 43.5828C24.8386 58.9295 16.28 76.6348 16.0653 95.4161C15.8506 114.199 23.756 129.369 39.384 139.791C53.3186 149.081 66.2866 149.843 75.7506 150.181C87.3706 150.597 100.315 147.557 111.128 139.801C120.628 132.987 130.731 120.404 131.749 102.705C132.549 88.8068 128.328 72.1815 118.253 59.0335C110.289 48.6415 97.104 36.9535 89.132 28.9468C78.264 18.0321 75.4813 0.565479 75.4813 0.565479C75.4813 0.565479 46.704 27.9441 35.668 43.5828Z" fill="#FF5233"/>
<path d="M36.1305 43.9092C30.2252 52.2772 25.6092 60.5252 22.4105 68.4238C18.6745 77.6478 16.7305 86.7318 16.6305 95.4225C16.5252 104.69 18.4279 113.12 22.2852 120.476C26.1545 127.854 32.0132 134.194 39.6985 139.318C53.9705 148.836 67.6172 149.324 75.7719 149.616C88.4879 150.072 100.927 146.421 110.797 139.341C116.529 135.229 129.989 123.426 131.184 102.672C132.051 87.6265 127.048 71.4412 117.804 59.3785C111.959 51.7492 103.433 43.5598 95.9119 36.3358C93.2985 33.8252 90.8292 31.4532 88.7319 29.3465C79.3892 19.9638 75.9279 5.6505 75.1199 1.69583C70.5105 6.12916 46.0132 29.9038 36.1305 43.9092ZM77.8932 150.785C77.1732 150.785 76.4532 150.772 75.7305 150.746C67.4572 150.45 53.6092 149.954 39.0705 140.26C31.2265 135.029 25.2412 128.55 21.2825 121.001C17.3372 113.477 15.3919 104.866 15.4999 95.4105C15.5999 86.5772 17.5719 77.3545 21.3612 67.9985C24.5919 60.0198 29.2505 51.6945 35.2052 43.2558C46.1465 27.7518 74.8039 0.430498 75.0919 0.155832C75.2439 0.0104984 75.4639 -0.0375032 75.6625 0.0291634C75.8625 0.0971634 76.0079 0.269162 76.0399 0.475829C76.0679 0.649162 78.9239 17.8932 89.5332 28.5478C91.6225 30.6465 94.0865 33.0132 96.6959 35.5198C104.247 42.7718 112.804 50.9932 118.703 58.6892C128.107 70.9625 133.196 87.4278 132.315 102.737C131.091 123.978 117.321 136.054 111.457 140.26C101.944 147.084 90.0985 150.785 77.8932 150.785Z" fill="black"/>
<path d="M36.8389 62.4102C36.4709 62.4102 36.0989 62.3208 35.7536 62.1315C34.6576 61.5302 34.2549 60.1555 34.8563 59.0582C39.7736 50.0822 45.7216 41.6582 52.5349 34.0195C53.3669 33.0862 54.7976 33.0048 55.7309 33.8368C56.6629 34.6688 56.7456 36.0995 55.9136 37.0328C49.3283 44.4155 43.5789 52.5582 38.8256 61.2342C38.4149 61.9848 37.6389 62.4102 36.8389 62.4102Z" fill="white"/>
<path d="M58.5846 32.9551C58.0379 32.9551 57.4899 32.7577 57.0552 32.3604C56.1339 31.5151 56.0726 30.0831 56.9166 29.1617L58.6192 27.3057C59.4646 26.3844 60.8966 26.3231 61.8179 27.1671C62.7392 28.0111 62.8006 29.4431 61.9552 30.3644L60.2539 32.2217C59.8072 32.7084 59.1966 32.9551 58.5846 32.9551Z" fill="white"/>
<path d="M122.891 120.019C121.343 122.888 119.605 127.12 117.595 129.627C111.017 137.832 103.077 140.801 96.1306 142.479C85.9506 144.937 75.2413 145.46 65.0413 143.603C54.9466 141.764 44.4906 138.232 36.1613 132.097C31.868 128.936 28.62 124.903 25.824 120.395C23.796 117.124 21.3946 114.276 18.3413 112.285C21.7 123.412 28.7533 132.701 39.3853 139.789C53.3186 149.081 66.2866 149.843 75.7506 150.181C87.3706 150.597 100.315 147.557 111.128 139.801C118.093 134.804 126.443 123.227 130.237 112.285C126.697 113.729 124.279 117.445 122.891 120.019Z" fill="black"/>
<path d="M19.4041 113.746C22.9228 124.084 29.7428 132.681 39.6988 139.318C53.9708 148.836 67.6175 149.324 75.7708 149.616C88.4881 150.072 100.925 146.422 110.797 139.341C117.668 134.413 125.411 123.468 129.219 113.433C127.115 114.709 125.157 117.008 123.388 120.288C122.931 121.137 122.456 122.104 121.955 123.128C120.796 125.494 119.484 128.176 118.037 129.981C111.173 138.542 102.796 141.45 96.2641 143.029C85.7095 145.577 74.8775 145.968 64.9401 144.158C53.1668 142.016 43.3721 138.11 35.8255 132.553C31.8988 129.661 28.5681 125.893 25.3441 120.693C23.5081 117.733 21.5535 115.445 19.4041 113.746ZM77.8935 150.785C77.1735 150.785 76.4535 150.773 75.7308 150.746C67.4575 150.45 53.6095 149.954 39.0708 140.26C28.3735 133.128 21.2175 123.77 17.7988 112.449C17.7308 112.221 17.8108 111.974 18.0015 111.832C18.1921 111.689 18.4508 111.681 18.6495 111.81C21.4935 113.664 23.9975 116.374 26.3055 120.097C29.4508 125.169 32.6895 128.838 36.4961 131.642C43.7988 137.02 53.7041 140.962 65.1428 143.046C74.9255 144.826 85.5961 144.44 95.9988 141.928C102.355 140.393 110.504 137.568 117.153 129.273C118.523 127.565 119.805 124.944 120.939 122.63C121.445 121.596 121.924 120.618 122.392 119.75C124.631 115.601 127.199 112.913 130.024 111.761C130.229 111.677 130.465 111.721 130.627 111.874C130.788 112.028 130.844 112.261 130.772 112.47C127.104 123.046 118.8 134.994 111.457 140.26C101.944 147.084 90.0988 150.785 77.8935 150.785Z" fill="black"/>
<path d="M64.4691 121.072V124.933H65.0038C65.8545 124.933 66.4785 124.776 66.8758 124.459C67.2718 124.143 67.4691 123.637 67.4691 122.944C67.4691 122.251 67.2865 121.765 66.9198 121.488C66.5531 121.211 65.9438 121.072 65.0931 121.072H64.4691ZM64.4691 113.675V117.567H64.6171C66.5185 117.567 67.4691 116.933 67.4691 115.665C67.4691 114.972 67.2865 114.468 66.9198 114.151C66.5531 113.833 65.9438 113.675 65.0931 113.675H64.4691ZM73.0238 114.239C73.0238 116.3 72.1331 117.864 70.3505 118.933C71.3211 119.289 72.1331 119.904 72.7865 120.775C73.4411 121.647 73.7665 122.88 73.7665 124.473C73.7665 126.068 73.1771 127.331 71.9998 128.261C70.8211 129.192 69.1331 129.657 66.9345 129.657H59.9238C59.5865 129.657 59.3091 129.544 59.0918 129.316C58.8745 129.088 58.7651 128.787 58.7651 128.409V109.397C58.7651 109.18 58.7998 109.036 58.8691 108.967C58.9385 108.897 59.0811 108.863 59.2998 108.863H66.0731C70.7078 108.863 73.0238 110.655 73.0238 114.239Z" fill="black"/>
<path d="M88.2489 124.013H76.5142C76.1582 124.013 75.9009 123.726 75.7422 123.151C75.6635 122.854 75.6235 122.567 75.6235 122.29C75.6235 122.013 75.6635 121.726 75.7422 121.429C75.9009 120.854 76.1582 120.567 76.5142 120.567H88.2489C88.6049 120.567 88.8622 120.854 89.0209 121.429C89.0995 121.726 89.1395 122.013 89.1395 122.29C89.1395 122.567 89.0995 122.854 89.0209 123.151C88.8622 123.726 88.6049 124.013 88.2489 124.013Z" fill="black"/>
<path d="M89.2148 82.2987C89.2148 79.7253 90.5215 78.444 92.1322 78.444C93.7428 78.444 95.0482 79.7253 95.0482 82.2987C95.0482 84.872 93.7428 86.1533 92.1322 86.1533C90.5215 86.1533 89.2148 84.872 89.2148 82.2987Z" fill="black"/>
<path d="M52.8574 82.2987C52.8574 79.7253 54.1628 78.444 55.7748 78.444C57.3854 78.444 58.6908 79.7253 58.6908 82.2987C58.6908 84.872 57.3854 86.1533 55.7748 86.1533C54.1628 86.1533 52.8574 84.872 52.8574 82.2987Z" fill="black"/>
<path d="M52.0139 92.5319C52.0139 95.4092 49.6819 97.7412 46.8045 97.7412C43.9272 97.7412 41.5952 95.4092 41.5952 92.5319C41.5952 89.6545 43.9272 87.3225 46.8045 87.3225C49.6819 87.3225 52.0139 89.6545 52.0139 92.5319Z" fill="white"/>
<path d="M106.311 92.5319C106.311 95.4092 103.979 97.7412 101.101 97.7412C98.2241 97.7412 95.8921 95.4092 95.8921 92.5319C95.8921 89.6545 98.2241 87.3225 101.101 87.3225C103.979 87.3225 106.311 89.6545 106.311 92.5319Z" fill="white"/>
<path d="M17.3518 116.336C17.2945 116.336 17.2372 116.327 17.1798 116.309C17.0305 116.261 16.8625 116.209 16.6798 116.152C14.3678 115.429 9.55851 113.927 5.55984 110.536C1.99051 107.508 -1.22416 102.584 0.461176 97.8426C1.39451 95.2199 3.58784 92.9893 6.98251 91.2133C10.9212 89.1519 15.3505 88.1399 19.7945 88.2906C20.1065 88.3013 20.3518 88.5639 20.3412 88.8759C20.3305 89.1879 20.0718 89.4386 19.7558 89.4226C15.5065 89.2773 11.2732 90.2439 7.50784 92.2146C4.37451 93.8546 2.36251 95.8759 1.52784 98.2213C0.0345093 102.42 3.00918 106.889 6.29184 109.673C10.1145 112.915 14.7758 114.371 17.0172 115.072C17.2038 115.129 17.3732 115.183 17.5238 115.231C17.8225 115.327 17.9865 115.645 17.8905 115.943C17.8132 116.183 17.5918 116.336 17.3518 116.336Z" fill="black"/>
<path d="M14.823 114.792C13.539 115.538 12.4444 116.756 12.2124 118.224C11.9084 120.144 13.171 122.052 14.8417 123.046C16.5124 124.041 18.5137 124.296 20.455 124.412C19.779 125.269 18.0444 123.841 17.459 125.394C17.203 126.073 17.395 126.908 18.011 127.288C18.783 127.762 20.263 128.136 21.5177 128.206C22.5044 128.262 23.5657 128.438 24.3324 127.816C25.6177 126.77 25.5337 124.796 25.1457 123.185C24.3484 119.873 22.7444 116.758 20.5124 114.184C19.135 112.596 16.3177 113.922 14.823 114.792Z" fill="#3D67FF"/>
<path d="M18.5878 125.191C18.2425 125.191 18.1038 125.29 17.9878 125.595C17.8358 125.999 17.9131 126.563 18.3091 126.806C18.9731 127.217 20.3665 127.575 21.5505 127.642C21.6798 127.65 21.8118 127.659 21.9438 127.669C22.7345 127.725 23.4825 127.778 23.9758 127.377C25.1385 126.431 24.8638 124.429 24.5958 123.318C23.8185 120.093 22.2598 117.062 20.0851 114.555C18.9971 113.299 16.4998 114.471 15.1078 115.281C13.8278 116.026 12.9531 117.159 12.7718 118.313C12.4891 120.097 13.7958 121.766 15.1318 122.561C16.7185 123.506 18.6438 123.738 20.4878 123.847C20.6985 123.861 20.8838 123.989 20.9705 124.181C21.0571 124.373 21.0291 124.598 20.8985 124.763C20.4131 125.379 19.6558 125.294 19.1025 125.231C18.8918 125.207 18.7238 125.191 18.5878 125.191ZM22.7425 128.838C22.4438 128.838 22.1478 128.817 21.8638 128.797C21.7371 128.789 21.6118 128.779 21.4865 128.773C20.0958 128.694 18.5451 128.282 17.7145 127.77C16.9025 127.27 16.5638 126.163 16.9291 125.195C17.0251 124.941 17.1478 124.739 17.2851 124.583C16.3358 124.37 15.4105 124.045 14.5518 123.534C12.8451 122.515 11.2865 120.453 11.6531 118.135C11.8918 116.629 12.9438 115.231 14.5385 114.303C17.5065 112.575 19.7198 112.407 20.9411 113.814C23.2318 116.458 24.8771 119.653 25.6958 123.053C26.0985 124.726 26.2518 126.986 24.6891 128.255C24.1051 128.73 23.4185 128.838 22.7425 128.838Z" fill="black"/>
<path d="M130.937 116.336C130.697 116.336 130.476 116.183 130.398 115.943C130.304 115.645 130.466 115.327 130.765 115.231C130.916 115.183 131.085 115.129 131.272 115.072C133.513 114.371 138.174 112.915 141.997 109.673C145.28 106.889 148.254 102.42 146.761 98.2213C145.926 95.8759 143.916 93.8546 140.781 92.2159C137.017 90.2439 132.784 89.2773 128.533 89.4226C128.22 89.4399 127.958 89.1879 127.948 88.8759C127.937 88.5639 128.182 88.3013 128.494 88.2906C132.937 88.1413 137.368 89.1506 141.306 91.2133C144.701 92.9893 146.894 95.2199 147.828 97.8426C149.513 102.584 146.3 107.508 142.729 110.536C138.732 113.927 133.921 115.429 131.609 116.152C131.426 116.209 131.258 116.261 131.109 116.309C131.052 116.327 130.994 116.336 130.937 116.336Z" fill="black"/>
<path d="M133.465 114.792C134.749 115.538 135.844 116.756 136.076 118.224C136.38 120.144 135.117 122.052 133.447 123.046C131.776 124.041 129.775 124.296 127.833 124.412C128.509 125.269 130.244 123.841 130.829 125.394C131.085 126.073 130.893 126.908 130.276 127.288C129.505 127.762 128.025 128.136 126.769 128.206C125.784 128.262 124.723 128.438 123.956 127.816C122.671 126.77 122.755 124.796 123.143 123.185C123.94 119.873 125.544 116.758 127.776 114.184C129.153 112.596 131.971 113.922 133.465 114.792Z" fill="#3D67FF"/>
<path d="M129.578 114.004C129.031 114.004 128.547 114.159 128.203 114.555C126.03 117.063 124.47 120.092 123.692 123.318C123.424 124.428 123.15 126.432 124.314 127.376C124.807 127.778 125.554 127.724 126.344 127.668C126.476 127.659 126.608 127.65 126.738 127.642C127.922 127.576 129.315 127.216 129.979 126.807C130.375 126.563 130.452 126 130.3 125.595C130.14 125.17 129.932 125.146 129.186 125.231C128.634 125.294 127.876 125.38 127.39 124.763C127.259 124.598 127.231 124.374 127.318 124.18C127.404 123.988 127.59 123.86 127.8 123.848C129.644 123.738 131.571 123.506 133.158 122.56C134.492 121.766 135.8 120.098 135.518 118.312C135.335 117.159 134.462 116.027 133.18 115.282C132.228 114.727 130.759 114.004 129.578 114.004ZM125.547 128.839C124.87 128.839 124.183 128.73 123.6 128.255C122.036 126.986 122.19 124.726 122.592 123.052C123.411 119.652 125.056 116.458 127.348 113.814C128.568 112.407 130.782 112.576 133.75 114.303C135.344 115.231 136.396 116.628 136.635 118.135C137.002 120.452 135.444 122.516 133.736 123.534C132.878 124.044 131.952 124.37 131.003 124.583C131.142 124.74 131.263 124.94 131.359 125.196C131.723 126.163 131.386 127.27 130.574 127.77C129.743 128.282 128.192 128.694 126.802 128.772C126.676 128.779 126.551 128.788 126.424 128.796C126.14 128.818 125.844 128.839 125.547 128.839Z" fill="black"/>
<path d="M58.5219 174.925C58.5152 174.925 58.5099 174.925 58.5032 174.925C58.1899 174.914 57.9459 174.653 57.9565 174.339C58.2659 165.093 58.1472 155.719 57.6045 146.482C57.5859 146.17 57.8245 145.902 58.1365 145.885C58.4405 145.859 58.7152 146.103 58.7339 146.415C59.2792 155.687 59.3979 165.095 59.0872 174.378C59.0765 174.683 58.8259 174.925 58.5219 174.925Z" fill="black"/>
<path d="M58.5219 174.925C58.5152 174.925 58.5099 174.925 58.5032 174.925C58.1899 174.914 57.9459 174.653 57.9565 174.339C58.2659 165.093 58.1472 155.719 57.6045 146.482C57.5859 146.17 57.8245 145.902 58.1365 145.885C58.4405 145.859 58.7152 146.103 58.7339 146.415C59.2792 155.687 59.3979 165.095 59.0872 174.378C59.0765 174.683 58.8259 174.925 58.5219 174.925Z" fill="black"/>
<path d="M93.1056 174.925C92.8016 174.925 92.551 174.683 92.5403 174.378C92.2296 165.095 92.3483 155.687 92.8936 146.415C92.9123 146.103 93.179 145.859 93.491 145.885C93.803 145.902 94.0416 146.17 94.023 146.482C93.4803 155.719 93.3616 165.093 93.671 174.339C93.6816 174.653 93.4376 174.914 93.1243 174.925C93.1176 174.925 93.1123 174.925 93.1056 174.925Z" fill="black"/>
<path d="M67.9229 88.7182C66.9842 88.8875 65.9562 89.1275 65.3336 90.2395C64.4962 91.7342 64.7962 94.0995 65.4416 95.8089C67.1522 100.336 70.7482 102.42 74.1029 102.301C76.3109 102.224 78.5562 101.294 80.3029 99.1769C82.0496 97.0609 83.2282 93.6542 83.0709 90.2009C83.0362 89.4369 82.9176 88.6222 82.5509 88.1182C82.2269 87.6742 81.7776 87.5049 81.3482 87.4702C77.3922 87.1622 72.4762 87.8982 67.9229 88.7182Z" fill="#A62D11"/>
<path d="M79.4014 87.9654C75.8374 87.9654 71.7067 88.6121 68.0227 89.2761C67.1094 89.4401 66.3147 89.6467 65.8267 90.5174C65.092 91.8281 65.3707 94.0187 65.9707 95.6094C67.7347 100.275 71.3094 101.839 74.0827 101.736C75.668 101.68 77.9587 101.128 79.8667 98.8174C81.6374 96.6707 82.6494 93.3787 82.5054 90.2267C82.4667 89.3707 82.328 88.7734 82.0934 88.4521C81.908 88.1987 81.6507 88.0627 81.304 88.0347C80.6934 87.9867 80.056 87.9654 79.4014 87.9654ZM73.84 102.872C70.7254 102.872 66.8294 101.081 64.912 96.0094C64.2694 94.3081 63.8654 91.7041 64.84 89.9641C65.6267 88.5574 67.0014 88.3094 67.8227 88.1614C72.2547 87.3641 77.3347 86.5921 81.392 86.9067C82.068 86.9601 82.6267 87.2627 83.0067 87.7841C83.3854 88.3027 83.5854 89.0627 83.636 90.1747C83.792 93.5961 82.6814 97.1841 80.7387 99.5374C78.564 102.173 75.94 102.803 74.1227 102.867C74.0294 102.871 73.9347 102.872 73.84 102.872Z" fill="black"/>
<path d="M54.812 171.739C52.7973 171.95 50.6506 172.211 49.2746 173.887C48.5853 174.726 48.3306 175.872 48.7613 176.87C49.428 178.419 51.168 178.622 52.6866 178.652C54.9866 178.699 57.1186 178.692 59.3666 178.202C60.7466 177.9 61.5506 177.092 61.6946 173.914C61.7466 172.77 60.852 171.802 59.708 171.758C58.0453 171.694 55.7973 171.636 54.812 171.739Z" fill="#3D67FF"/>
<path d="M56.4668 172.248C55.7508 172.248 55.2095 172.267 54.8708 172.302C53.0441 172.494 50.9735 172.71 49.7121 174.246C49.1188 174.968 48.9535 175.887 49.2801 176.646C49.8041 177.863 51.2321 178.058 52.6975 178.087C54.8868 178.132 57.0348 178.131 59.2455 177.65C60.2255 177.435 60.9868 177.023 61.1295 173.888C61.1481 173.488 61.0081 173.104 60.7361 172.808C60.4615 172.511 60.0895 172.338 59.6855 172.323C58.4028 172.274 57.3135 172.248 56.4668 172.248ZM54.2241 179.236C53.7081 179.236 53.1921 179.228 52.6748 179.219C50.9188 179.183 49.0201 178.903 48.2415 177.094C47.7468 175.944 47.9748 174.578 48.8375 173.527C50.3935 171.632 52.8108 171.38 54.7535 171.176C55.7655 171.07 58.0175 171.126 59.7295 171.192C60.4361 171.219 61.0895 171.52 61.5681 172.042C62.0468 172.562 62.2921 173.236 62.2601 173.94C62.1188 177.039 61.3681 178.344 59.4868 178.755C57.6895 179.147 55.9575 179.236 54.2241 179.236Z" fill="black"/>
<path d="M96.8155 171.739C98.8302 171.95 100.977 172.211 102.353 173.887C103.042 174.726 103.297 175.872 102.867 176.87C102.201 178.419 100.459 178.622 98.9408 178.652C96.6408 178.699 94.5102 178.692 92.2608 178.202C90.8808 177.9 90.0768 177.092 89.9328 173.914C89.8808 172.77 90.7755 171.802 91.9195 171.758C93.5822 171.694 95.8302 171.636 96.8155 171.739Z" fill="#3D67FF"/>
<path d="M95.1612 172.249C94.3145 172.249 93.2239 172.273 91.9412 172.323C91.5385 172.339 91.1652 172.512 90.8919 172.809C90.6199 173.105 90.4785 173.489 90.4972 173.889C90.6399 177.023 91.4012 177.436 92.3812 177.649C94.5932 178.131 96.7399 178.133 98.9292 178.088C100.395 178.059 101.823 177.863 102.347 176.647C102.673 175.888 102.508 174.968 101.915 174.247C100.655 172.711 98.5839 172.493 96.7559 172.303C96.4185 172.267 95.8759 172.249 95.1612 172.249ZM97.4039 179.237C95.6692 179.237 93.9372 179.147 92.1399 178.756C90.2599 178.345 89.5079 177.04 89.3665 173.94C89.3345 173.236 89.5812 172.563 90.0585 172.043C90.5385 171.521 91.1905 171.22 91.8985 171.192C93.6092 171.127 95.8612 171.071 96.8745 171.177C98.8172 171.38 101.233 171.633 102.791 173.528C103.652 174.579 103.881 175.945 103.387 177.095C102.608 178.904 100.708 179.184 98.9519 179.219C98.4345 179.229 97.9185 179.237 97.4039 179.237Z" fill="black"/>
</svg>
