<svg width="156" height="183" viewBox="0 0 156 183" fill="none" xmlns="http://www.w3.org/2000/svg">
<path d="M149.126 116.248C148.942 116.248 148.76 116.159 148.652 115.992C142.24 106.217 132.728 98.456 121.866 94.1374C121.575 94.0227 121.432 93.6934 121.548 93.4027C121.663 93.112 121.991 92.9694 122.283 93.0867C133.36 97.4894 143.06 105.404 149.598 115.372C149.77 115.633 149.696 115.984 149.435 116.155C149.34 116.217 149.232 116.248 149.126 116.248Z" fill="black"/>
<path d="M154.95 117.993C154.95 120.803 152.671 123.082 149.86 123.082C147.05 123.082 144.772 120.803 144.772 117.993C144.772 115.182 147.05 112.903 149.86 112.903C152.671 112.903 154.95 115.182 154.95 117.993Z" fill="#3D67FF"/>
<path d="M149.861 113.469C147.366 113.469 145.338 115.498 145.338 117.992C145.338 120.486 147.366 122.516 149.861 122.516C152.355 122.516 154.383 120.486 154.383 117.992C154.383 115.498 152.355 113.469 149.861 113.469ZM149.861 123.646C146.742 123.646 144.206 121.11 144.206 117.992C144.206 114.874 146.742 112.337 149.861 112.337C152.979 112.337 155.515 114.874 155.515 117.992C155.515 121.11 152.979 123.646 149.861 123.646Z" fill="black"/>
<path d="M24.5012 86.8877C24.3318 86.8877 24.1652 86.8117 24.0532 86.669C14.1838 73.945 8.67449 58.069 8.54249 41.9664C8.54115 41.6544 8.79182 41.3984 9.10382 41.3957H9.10915C9.41982 41.3957 9.67182 41.6464 9.67449 41.957C9.80515 57.813 15.2292 73.4464 24.9478 85.9744C25.1398 86.2224 25.0945 86.577 24.8478 86.769C24.7438 86.849 24.6225 86.8877 24.5012 86.8877Z" fill="black"/>
<path d="M2.85411 29.2878C4.19411 28.0265 6.04078 27.4598 7.85011 27.1251C9.33278 26.8518 10.8808 26.7118 12.3341 27.1145C14.5421 27.7265 16.3114 29.6305 16.8741 31.8505C17.4368 34.0718 16.8208 36.5318 15.3674 38.3038C15.9808 37.3065 16.5954 36.3091 17.2088 35.3105C17.7888 34.3691 18.4074 33.3891 19.3661 32.8385C20.3248 32.2878 21.7288 32.3438 22.3514 33.2571C22.9301 34.1051 22.6021 35.2998 21.9661 36.1065C18.7394 40.1998 17.9368 44.9971 7.59678 44.8878C0.799442 44.8171 -1.61789 33.4945 2.85411 29.2878Z" fill="#3D67FF"/>
<path d="M3.24189 29.7001C1.07122 31.7414 0.509889 36.0347 1.93522 39.6867C3.07522 42.6067 5.14189 44.2974 7.60322 44.3227C15.7366 44.4161 17.6526 41.4827 19.8806 38.0961C20.3886 37.3267 20.9126 36.5307 21.5219 35.7561C21.9992 35.1507 22.3166 34.2107 21.8846 33.5761C21.4419 32.9281 20.3499 32.9254 19.6472 33.3294C18.7899 33.8214 18.2059 34.7707 17.6912 35.6081L16.9179 36.8641C16.6286 37.5067 16.2566 38.1134 15.8059 38.6627C15.6166 38.8934 15.2819 38.9374 15.0392 38.7641C14.7966 38.5921 14.7299 38.2614 14.8859 38.0081L15.9206 36.3254C16.5246 34.9507 16.6832 33.4014 16.3259 31.9894C15.7992 29.9121 14.1739 28.2121 12.1832 27.6601C10.7286 27.2561 9.15789 27.4601 7.95256 27.6827C6.58322 27.9347 4.60322 28.4201 3.24189 29.7001ZM7.94456 45.4561C7.82722 45.4561 7.70989 45.4561 7.59122 45.4547C4.68722 45.4241 2.17922 43.4214 0.881889 40.0974C-0.942111 35.4254 0.297889 30.9161 2.46589 28.8761H2.46722C4.04589 27.3907 6.23656 26.8481 7.74722 26.5694C9.07256 26.3254 10.8086 26.1041 12.4859 26.5694C14.8606 27.2281 16.7992 29.2467 17.4232 31.7121C17.5832 32.3427 17.6552 32.9947 17.6432 33.6507C18.0366 33.1507 18.5032 32.6814 19.0846 32.3481C20.2352 31.6867 21.9912 31.7241 22.8192 32.9387C23.5766 34.0494 23.1592 35.5067 22.4112 36.4561C21.8312 37.1934 21.3206 37.9681 20.8259 38.7187C18.5472 42.1827 16.3912 45.4561 7.94456 45.4561Z" fill="black"/>
<path d="M60.5534 177.135C60.5174 177.135 60.4814 177.131 60.4454 177.124C60.1374 177.064 59.9374 176.768 59.9974 176.46C61.5014 168.721 62.3294 159.972 63.1294 151.511C63.2988 149.716 63.4681 147.927 63.6428 146.153C63.6734 145.841 63.9508 145.615 64.2614 145.645C64.5721 145.676 64.8001 145.953 64.7694 146.264C64.5948 148.036 64.4254 149.824 64.2561 151.617C63.4534 160.105 62.6228 168.884 61.1081 176.676C61.0561 176.947 60.8188 177.135 60.5534 177.135Z" fill="black"/>
<path d="M109.059 169.78C108.783 169.78 108.541 169.578 108.501 169.296C107.862 164.902 107.201 160.358 105.613 156.152C103.973 151.814 101.325 147.836 97.9539 144.65C97.7259 144.435 97.7166 144.076 97.9313 143.85C98.1446 143.623 98.5033 143.612 98.7313 143.827C102.226 147.13 104.971 151.254 106.671 155.752C108.303 160.072 108.973 164.679 109.621 169.132C109.665 169.442 109.451 169.73 109.142 169.774C109.114 169.778 109.086 169.78 109.059 169.78Z" fill="black"/>
<path d="M37.7876 43.5809C26.9569 58.9275 18.3996 76.6328 18.1849 95.4142C17.9703 114.197 25.8756 129.368 41.5036 139.789C55.4383 149.08 68.4063 149.841 77.8703 150.18C89.4903 150.596 102.434 147.556 113.248 139.8C122.748 132.985 132.85 120.402 133.869 102.704C134.669 88.8048 130.448 72.1795 120.373 59.0329C112.409 48.6395 99.2236 36.9515 91.2516 28.9449C80.3836 18.0315 77.6009 0.563526 77.6009 0.563526C77.6009 0.563526 48.8236 27.9435 37.7876 43.5809Z" fill="#FF5233"/>
<path d="M77.2395 1.69485C72.6302 6.12685 48.1328 29.9029 38.2502 43.9082C32.3448 52.2749 27.7288 60.5229 24.5302 68.4229C20.7942 77.6469 18.8502 86.7308 18.7502 95.4215C18.6448 104.69 20.5475 113.119 24.4048 120.475C28.2742 127.854 34.1328 134.194 41.8182 139.318C56.0902 148.834 69.7368 149.323 77.8915 149.615C90.6048 150.071 103.046 146.42 112.917 139.34C118.649 135.228 132.109 123.426 133.304 102.671C134.17 87.6255 129.169 71.4402 119.923 59.3762C114.078 51.7482 105.553 43.5588 98.0315 36.3348C95.4182 33.8242 92.9488 31.4522 90.8502 29.3455C81.5088 19.9629 78.0462 5.64819 77.2395 1.69485ZM80.0115 150.784C79.2928 150.784 78.5715 150.771 77.8502 150.746C69.5768 150.45 55.7288 149.954 41.1902 140.259C33.3462 135.028 27.3608 128.55 23.4022 121C19.4568 113.476 17.5115 104.866 17.6195 95.4082C17.7195 86.5762 19.6928 77.3535 23.4808 67.9975C26.7128 60.0189 31.3702 51.6935 37.3248 43.2548C48.2662 27.7508 76.9235 0.428188 77.2115 0.154855C77.3635 0.00952185 77.5835 -0.0384798 77.7822 0.0281869C77.9822 0.0961869 78.1275 0.268186 78.1595 0.474852C78.1875 0.648186 81.0435 17.8922 91.6528 28.5469C93.7422 30.6455 96.2062 33.0122 98.8155 35.5188C106.366 42.7708 114.924 50.9922 120.822 58.6882C130.226 70.9602 135.316 87.4268 134.434 102.736C133.21 123.978 119.441 136.054 113.577 140.259C104.064 147.083 92.2195 150.784 80.0115 150.784Z" fill="black"/>
<path d="M78.1541 144.794C46.8314 144.279 29.8261 128.678 28.5381 127.91C32.0048 132.362 36.3288 136.338 41.5048 139.789C55.4381 149.081 68.4061 149.842 77.8714 150.181C89.4914 150.597 102.434 147.555 113.247 139.799C122.747 132.986 132.85 120.403 133.869 102.703C127.947 126.461 107.363 145.274 78.1541 144.794Z" fill="black"/>
<path d="M32.2631 131.356C35.0431 134.267 38.2418 136.934 41.8178 139.318C56.0898 148.834 69.7364 149.323 77.8911 149.615C90.6044 150.07 103.046 146.42 112.918 139.34C118.048 135.659 129.372 125.815 132.547 108.903C128.99 118.522 122.932 127.024 115.096 133.279C104.908 141.412 92.1258 145.591 78.1444 145.359C60.9018 145.076 45.1311 140.25 32.2631 131.356ZM80.0124 150.784C79.2924 150.784 78.5724 150.771 77.8511 150.746C69.5764 150.45 55.7284 149.954 41.1898 140.259C36.0111 136.806 31.6044 132.768 28.0911 128.258C27.9244 128.043 27.9338 127.739 28.1138 127.535C28.2938 127.331 28.5938 127.284 28.8271 127.424C28.9738 127.511 29.2018 127.688 29.6164 128.011C42.8564 138.316 59.6431 143.923 78.1631 144.228C91.8884 144.452 104.411 140.362 114.391 132.395C123.643 125.01 130.366 114.416 133.32 102.567C133.391 102.283 133.666 102.1 133.954 102.144C134.243 102.187 134.451 102.444 134.434 102.735C133.211 123.978 119.44 136.054 113.578 140.259C104.063 147.083 92.2191 150.784 80.0124 150.784Z" fill="black"/>
<path d="M68.4349 119.979C67.4843 119.979 66.6869 120.415 66.0429 121.285C65.4003 122.157 65.0776 123.38 65.0776 124.955C65.0776 126.529 65.3856 127.737 65.9989 128.579C66.6123 129.421 67.4203 129.841 68.4203 129.841C69.4203 129.841 70.2323 129.416 70.8563 128.564C71.4803 127.713 71.7923 126.495 71.7923 124.911C71.7923 123.325 71.4696 122.108 70.8256 121.256C70.1829 120.405 69.3856 119.979 68.4349 119.979ZM68.4203 135.635C65.6376 135.635 63.3696 134.724 61.6176 132.901C59.8643 131.08 58.9883 128.42 58.9883 124.925C58.9883 121.429 59.8736 118.781 61.6469 116.979C63.4189 115.176 65.7069 114.275 68.5096 114.275C71.3109 114.275 73.5736 115.161 75.2976 116.933C77.0203 118.707 77.8816 121.389 77.8816 124.984C77.8816 128.579 77.0003 131.252 75.2376 133.005C73.4749 134.757 71.2029 135.635 68.4203 135.635Z" fill="black"/>
<path d="M88.6717 118.285V123.276H93.6917C94.049 123.276 94.305 123.564 94.4637 124.137C94.5437 124.435 94.5837 124.721 94.5837 124.999C94.5837 125.276 94.5437 125.564 94.4637 125.86C94.305 126.435 94.049 126.721 93.6917 126.721H88.6717V131.801C88.6717 132.159 88.385 132.416 87.8104 132.575C87.533 132.653 87.245 132.693 86.949 132.693L86.0864 132.575C85.5117 132.416 85.225 132.159 85.225 131.801V126.721H80.1757C79.8197 126.721 79.561 126.435 79.4024 125.86C79.3237 125.564 79.2837 125.276 79.2837 124.999C79.2837 124.721 79.3237 124.435 79.4024 124.137C79.561 123.564 79.8197 123.276 80.1757 123.276H85.225V118.285C85.225 117.929 85.5117 117.672 86.0864 117.513C86.3637 117.433 86.6517 117.395 86.949 117.395L87.8104 117.513C88.385 117.672 88.6717 117.929 88.6717 118.285Z" fill="black"/>
<path d="M91.3345 71.8778C91.3345 69.3044 92.6398 68.0231 94.2518 68.0231C95.8625 68.0231 97.1678 69.3044 97.1678 71.8778C97.1678 74.4511 95.8625 75.7324 94.2518 75.7324C92.6398 75.7324 91.3345 74.4511 91.3345 71.8778Z" fill="black"/>
<path d="M54.9771 71.8778C54.9771 69.3044 56.2824 68.0231 57.8944 68.0231C59.5051 68.0231 60.8104 69.3044 60.8104 71.8778C60.8104 74.4511 59.5051 75.7324 57.8944 75.7324C56.2824 75.7324 54.9771 74.4511 54.9771 71.8778Z" fill="black"/>
<path d="M51.5915 80.3854C51.5915 83.2627 49.2595 85.5947 46.3822 85.5947C43.5049 85.5947 41.1729 83.2627 41.1729 80.3854C41.1729 77.5081 43.5049 75.1761 46.3822 75.1761C49.2595 75.1761 51.5915 77.5081 51.5915 80.3854Z" fill="white"/>
<path d="M110.972 80.3854C110.972 83.2627 108.64 85.5947 105.763 85.5947C102.885 85.5947 100.553 83.2627 100.553 80.3854C100.553 77.5081 102.885 75.1761 105.763 75.1761C108.64 75.1761 110.972 77.5081 110.972 80.3854Z" fill="white"/>
<path d="M66.6907 87.2386C64.4667 86.8493 62.0707 86.0133 60.0574 87.036C58.2334 87.9626 57.3867 90.2426 57.6734 92.268C57.9587 94.2933 59.1747 96.0773 60.5934 97.5506C65.8974 103.059 74.5787 104.921 81.7547 102.279C88.9307 99.6346 94.284 92.7253 95.2734 85.1426C95.524 83.228 95.4534 81.0946 94.1974 79.628C92.092 77.1706 88.0267 78.0186 85.3547 79.8426C79.4694 83.8586 74.4574 88.6 66.6907 87.2386Z" fill="#A62D11"/>
<path d="M62.3011 87.1095C61.5997 87.1095 60.9331 87.2255 60.3131 87.5402C58.6371 88.3922 57.9984 90.5228 58.2331 92.1882C58.4637 93.8188 59.3944 95.4895 61.0011 97.1575C66.0904 102.443 74.5437 104.331 81.5584 101.747C88.4557 99.2068 93.7424 92.5042 94.713 85.0695C95.0157 82.7508 94.7064 81.0921 93.7677 79.9961C91.9384 77.8601 88.2317 78.5641 85.673 80.3095C84.8357 80.8815 84.0024 81.4762 83.197 82.0522C78.1997 85.6268 73.481 89.0028 66.5931 87.7962C66.1677 87.7215 65.7317 87.6295 65.3104 87.5415C64.2637 87.3215 63.2504 87.1095 62.3011 87.1095ZM75.0064 104.021C69.4851 104.021 63.9624 101.865 60.1851 97.9428C58.4104 96.1002 57.3771 94.2175 57.1131 92.3468C56.7677 89.9028 57.8731 87.5108 59.8011 86.5308C61.6144 85.6095 63.6117 86.0295 65.5424 86.4335C65.9744 86.5242 66.381 86.6095 66.7877 86.6815C73.2077 87.8055 77.741 84.5642 82.5384 81.1322C83.349 80.5522 84.1877 79.9535 85.0357 79.3748C86.5237 78.3588 88.3117 77.7002 89.9424 77.5655C91.9184 77.4042 93.5384 77.9895 94.6277 79.2602C95.7864 80.6135 96.181 82.5615 95.8344 85.2162C94.8117 93.0562 89.2317 100.127 81.9504 102.809C79.7277 103.628 77.3664 104.021 75.0064 104.021Z" fill="black"/>
<path d="M81.785 94.5854C79.925 93.7867 77.7424 93.9414 75.8784 94.7307C74.0157 95.52 72.4477 96.8974 71.1677 98.4654C70.1664 99.6907 69.3264 101.045 68.665 102.484C72.897 103.827 77.5797 103.816 81.7544 102.279C83.537 101.621 85.2077 100.7 86.7277 99.572C85.4157 97.5814 83.9677 95.5227 81.785 94.5854Z" fill="#EB5050"/>
<path d="M69.4623 102.131C73.5023 103.273 77.773 103.141 81.5583 101.746C83.0956 101.181 84.573 100.402 85.9543 99.4313C84.709 97.5753 83.4023 95.8953 81.561 95.1046C79.9463 94.4113 77.9556 94.4646 76.0996 95.2513C74.4996 95.9286 72.9876 97.1313 71.6063 98.8219C70.7783 99.8366 70.0583 100.947 69.4623 102.131ZM74.9796 104.031C72.809 104.031 70.6156 103.695 68.4943 103.022C68.3396 102.974 68.213 102.861 68.1476 102.711C68.0823 102.563 68.0836 102.394 68.1516 102.246C68.837 100.754 69.705 99.3606 70.729 98.1059C72.229 96.2713 73.8863 94.9593 75.6583 94.2086C77.797 93.3033 80.1116 93.2499 82.0076 94.0646C84.285 95.0419 85.7623 97.0806 87.1996 99.2606C87.365 99.5113 87.305 99.8473 87.065 100.026C85.4716 101.209 83.7516 102.145 81.9503 102.809C79.7396 103.623 77.373 104.031 74.9796 104.031Z" fill="black"/>
<path d="M56.6479 174.856C54.6333 175.067 52.4866 175.328 51.1106 177.004C50.4213 177.843 50.1666 178.988 50.5973 179.987C51.2639 181.536 53.0039 181.739 54.5226 181.77C56.8226 181.816 58.9546 181.81 61.2026 181.319C62.5826 181.018 63.3866 180.21 63.5306 177.031C63.5839 175.887 62.6879 174.919 61.5439 174.875C59.8813 174.811 57.6333 174.754 56.6479 174.856Z" fill="#3D67FF"/>
<path d="M58.3036 175.366C57.5876 175.366 57.0449 175.384 56.7063 175.42C54.8796 175.612 52.8089 175.828 51.5476 177.364C50.9543 178.085 50.7889 179.005 51.1156 179.764C51.6396 180.981 53.0676 181.176 54.5329 181.205C56.7236 181.249 58.8716 181.249 61.0809 180.766C62.0623 180.553 62.8236 180.141 62.9663 177.006C62.9836 176.606 62.8436 176.222 62.5716 175.926C62.2983 175.629 61.9249 175.456 61.5223 175.441C60.2396 175.392 59.1503 175.366 58.3036 175.366ZM56.0623 182.354C55.5449 182.354 55.0289 182.346 54.5103 182.336C52.7556 182.301 50.8556 182.021 50.0769 180.212C49.5823 179.062 49.8103 177.696 50.6729 176.645C52.2289 174.752 54.6463 174.498 56.5889 174.294C57.6023 174.188 59.8543 174.244 61.5649 174.31C62.2716 174.337 62.9249 174.638 63.4049 175.16C63.8823 175.68 64.1289 176.354 64.0956 177.058C63.9543 180.158 63.2036 181.462 61.3223 181.873C59.5263 182.265 57.7956 182.354 56.0623 182.354Z" fill="black"/>
<path d="M110.297 165.789C111.948 164.616 113.73 163.392 115.87 163.738C116.944 163.912 117.892 164.604 118.229 165.636C118.753 167.238 117.582 168.542 116.464 169.569C114.769 171.126 113.165 172.53 111.154 173.649C109.92 174.336 108.782 174.261 106.572 171.973C105.776 171.149 105.806 169.83 106.637 169.04C107.841 167.893 109.489 166.364 110.297 165.789Z" fill="#3D67FF"/>
<path d="M110.625 166.25C110.019 166.681 108.742 167.817 107.026 169.45C106.734 169.728 106.569 170.104 106.559 170.509C106.551 170.91 106.701 171.292 106.979 171.58C109.158 173.836 110.002 173.642 110.879 173.154C112.857 172.054 114.467 170.634 116.081 169.153C117.161 168.162 118.103 167.072 117.691 165.813C117.434 165.028 116.702 164.446 115.779 164.297C113.818 163.98 112.122 165.186 110.625 166.25ZM109.87 174.596C108.765 174.596 107.634 173.888 106.165 172.365C105.675 171.858 105.414 171.19 105.429 170.485C105.443 169.777 105.734 169.118 106.246 168.63C107.486 167.449 109.138 165.918 109.969 165.328C111.561 164.196 113.542 162.786 115.961 163.18C117.303 163.398 118.378 164.272 118.766 165.461C119.379 167.333 118.139 168.8 116.846 169.986C115.181 171.516 113.514 172.982 111.429 174.144C110.894 174.441 110.385 174.596 109.87 174.596Z" fill="black"/>
<path d="M36.3262 63.1016C35.9516 63.1016 35.5716 63.0082 35.2209 62.8122C34.1316 62.2002 33.7422 60.8216 34.3542 59.7309C41.1182 47.6629 49.5169 36.5922 59.3169 26.8282C60.2022 25.9456 61.6356 25.9482 62.5182 26.8336C63.3996 27.7189 63.3969 29.1522 62.5116 30.0349C53.0089 39.5042 44.8636 50.2402 38.3022 61.9442C37.8876 62.6856 37.1182 63.1016 36.3262 63.1016Z" fill="white"/>
<path d="M67.2111 25.1191C66.5618 25.1191 65.9178 24.8418 65.4698 24.3031C64.6711 23.3431 64.8018 21.9151 65.7618 21.1165L68.1378 19.1391C69.0991 18.3391 70.5258 18.4698 71.3258 19.4298C72.1258 20.3911 71.9951 21.8178 71.0338 22.6178L68.6578 24.5951C68.2351 24.9471 67.7218 25.1191 67.2111 25.1191Z" fill="white"/>
</svg>
