<svg width="181" height="182" viewBox="0 0 181 182" fill="none" xmlns="http://www.w3.org/2000/svg">
<path d="M113.508 165.088C113.061 165.088 112.643 165.008 112.257 164.833C110.045 163.831 109.889 162.571 109.516 156.783C109.348 154.172 109.269 150.837 109.2 147.895C109.157 146.052 109.116 144.311 109.059 142.912C109.045 142.599 109.288 142.336 109.6 142.323C109.915 142.309 110.176 142.552 110.189 142.864C110.248 144.275 110.288 146.02 110.332 147.868C110.401 150.8 110.479 154.123 110.645 156.709C111.031 162.692 111.243 163.131 112.724 163.803C115.107 164.883 120.343 160.281 123.157 157.811C123.553 157.463 123.921 157.14 124.251 156.857C124.487 156.653 124.844 156.681 125.048 156.919C125.252 157.156 125.224 157.513 124.987 157.716C124.66 157.996 124.297 158.316 123.904 158.661C120.912 161.288 116.584 165.088 113.508 165.088Z" fill="black"/>
<path d="M130.7 161.536C130.49 163.551 130.23 165.697 128.555 167.073C127.715 167.764 126.57 168.019 125.571 167.589C124.023 166.923 123.819 165.183 123.787 163.664C123.74 161.364 123.747 159.232 124.236 156.984C124.536 155.604 125.344 154.799 128.523 154.653C129.667 154.601 130.636 155.496 130.68 156.64C130.744 158.303 130.803 160.551 130.7 161.536Z" fill="#3D67FF"/>
<path d="M128.619 155.217C128.595 155.217 128.572 155.217 128.548 155.219C125.415 155.363 125.003 156.124 124.788 157.104C124.307 159.315 124.308 161.463 124.354 163.652C124.383 165.117 124.579 166.545 125.795 167.069C126.555 167.395 127.474 167.231 128.195 166.637C129.731 165.376 129.947 163.304 130.138 161.477C130.215 160.737 130.207 159.028 130.115 156.663C130.099 156.259 129.927 155.887 129.63 155.612C129.35 155.356 128.994 155.217 128.619 155.217ZM126.608 168.365C126.178 168.365 125.75 168.281 125.348 168.109C123.538 167.331 123.258 165.431 123.222 163.676C123.175 161.416 123.175 159.195 123.683 156.864C124.092 154.983 125.398 154.231 128.498 154.088C129.202 154.055 129.875 154.301 130.395 154.779C130.916 155.259 131.219 155.912 131.246 156.619C131.312 158.329 131.37 160.581 131.263 161.595C131.06 163.537 130.807 165.955 128.914 167.511C128.231 168.073 127.414 168.365 126.608 168.365Z" fill="black"/>
<path d="M41.9705 104.004C41.8118 104.004 41.6545 103.939 41.5425 103.809C32.9371 93.8772 22.8571 85.4186 11.5811 78.6692C11.3131 78.5092 11.2251 78.1612 11.3865 77.8932C11.5465 77.6252 11.8931 77.5372 12.1625 77.6986C23.5411 84.5092 33.7145 93.0452 42.3971 103.068C42.6025 103.304 42.5771 103.661 42.3411 103.865C42.2331 103.959 42.1011 104.004 41.9705 104.004Z" fill="black"/>
<path d="M10.166 67.9781C7.80597 67.4195 5.01797 68.6288 4.20863 70.9141C4.07663 71.2888 3.99663 71.6981 4.1033 72.0808C4.30597 72.8075 5.1393 73.2088 5.89263 73.1715C6.6473 73.1341 7.3393 72.7648 8.00197 72.4035C6.38597 73.4835 4.75263 74.5781 3.43397 76.0061C2.1153 77.4355 1.12063 79.2528 1.0473 81.1955C0.987301 82.8341 1.73263 84.6168 3.23263 85.2821C4.34063 85.7728 5.65663 85.5715 6.7433 85.0328C7.82863 84.4955 8.72997 83.6541 9.6153 82.8261C10.81 81.7061 12.0046 80.5875 13.1993 79.4688C14.1086 78.6155 15.0353 77.7408 15.61 76.6341C17.31 73.3581 13.33 68.7275 10.166 67.9781Z" fill="#3D67FF"/>
<path d="M8.00141 71.8373C8.19341 71.8373 8.38007 71.9346 8.48541 72.1106C8.64274 72.3693 8.56807 72.7053 8.31607 72.8733C6.74941 73.9199 5.13074 75.0039 3.84941 76.3906C2.46807 77.8879 1.67341 79.6013 1.61341 81.2159C1.56541 82.5093 2.12274 84.1706 3.46141 84.7653C4.31607 85.1439 5.42141 85.0573 6.49207 84.5266C7.51074 84.0213 8.38407 83.2039 9.22807 82.4133L12.8121 79.0559C13.6774 78.2453 14.5721 77.4066 15.1081 76.3733C15.7414 75.1519 15.3801 73.8186 14.9654 72.9133C14.0374 70.8893 11.8721 68.9639 10.0347 68.5293C7.84407 68.0093 5.41874 69.1893 4.74141 71.1026C4.62007 71.4479 4.58941 71.7173 4.64807 71.9293C4.77474 72.3853 5.36141 72.6319 5.86541 72.6066C6.50407 72.5746 7.15607 72.2199 7.73074 71.9066C7.81741 71.8599 7.90941 71.8373 8.00141 71.8373ZM4.62007 86.1279C4.04807 86.1279 3.49874 86.0186 3.00274 85.7986C1.17341 84.9879 0.418741 82.8919 0.482741 81.1746C0.552075 79.2893 1.45341 77.3173 3.01741 75.6226C3.68674 74.8986 4.42807 74.2613 5.20007 73.6719C4.46674 73.5039 3.77874 73.0239 3.55741 72.2319C3.43474 71.7893 3.47341 71.2973 3.67474 70.7253C4.55207 68.2506 7.52141 66.7706 10.2961 67.4279C12.4694 67.9413 14.9187 70.0973 15.9947 72.4426C16.7401 74.0679 16.7801 75.6079 16.1121 76.8946C15.4867 78.0999 14.4774 79.0466 13.5854 79.8813L10.0014 83.2386C9.09741 84.0853 8.16274 84.9613 6.99474 85.5399C6.20674 85.9306 5.39207 86.1279 4.62007 86.1279Z" fill="black"/>
<path d="M57.543 44.2684C46.7123 59.615 38.155 77.3203 37.9403 96.1017C37.7256 114.884 45.631 130.055 61.259 140.475C75.1936 149.767 88.1616 150.528 97.6256 150.867C109.246 151.283 122.19 148.243 133.003 140.487C142.503 133.672 152.606 121.09 153.624 103.391C154.424 89.4923 150.203 72.8657 140.128 59.7204C132.164 49.327 118.979 37.639 111.007 29.6324C100.139 18.7177 97.3563 1.25103 97.3563 1.25103C97.3563 1.25103 68.579 28.631 57.543 44.2684Z" fill="#FF5233"/>
<path d="M96.9949 2.38235C92.3855 6.81435 67.8882 30.5903 58.0055 44.5943C52.1002 52.9623 47.4842 61.2104 44.2855 69.1104C40.5495 78.3344 38.6055 87.4183 38.5055 96.109C38.4002 105.377 40.3029 113.806 44.1602 121.162C48.0295 128.541 53.8882 134.881 61.5735 140.005C75.8455 149.521 89.4922 150.01 97.6455 150.302C110.36 150.757 122.8 147.109 132.674 140.028C138.404 135.916 151.864 124.113 153.059 103.358C153.926 88.3117 148.923 72.1277 139.679 60.0637C133.834 52.4357 125.308 44.2477 117.787 37.0223C115.174 34.5117 112.706 32.1397 110.607 30.033C101.264 20.6504 97.8015 6.33569 96.9949 2.38235ZM99.7682 151.472C99.0482 151.472 98.3282 151.458 97.6055 151.433C89.3322 151.137 75.4842 150.641 60.9455 140.946C53.1015 135.716 47.1162 129.237 43.1575 121.688C39.2122 114.164 37.2669 105.553 37.3749 96.0957C37.4749 87.2637 39.4482 78.041 43.2362 68.685C46.4682 60.7064 51.1255 52.381 57.0802 43.9423C68.0215 28.4383 96.6789 1.11569 96.9669 0.842355C97.1189 0.697022 97.3389 0.64902 97.5375 0.715687C97.7362 0.783687 97.8829 0.955686 97.9149 1.16235C97.9429 1.33569 100.799 18.5797 111.408 29.2344C113.498 31.333 115.963 33.6997 118.572 36.2063C126.122 43.4583 134.679 51.6797 140.578 59.3757C149.982 71.6477 155.07 88.1143 154.19 103.424C152.966 124.665 139.196 136.741 133.332 140.946C123.819 147.77 111.974 151.472 99.7682 151.472Z" fill="black"/>
<path d="M54.9612 66.7725C54.6266 66.7725 54.2866 66.6978 53.9652 66.5405C52.8439 65.9898 52.3799 64.6338 52.9306 63.5111C58.5292 52.1045 65.3972 42.4351 75.1959 32.1591C76.0586 31.2538 77.4919 31.2205 78.3959 32.0831C79.2999 32.9458 79.3346 34.3778 78.4719 35.2831C69.0052 45.2098 62.3812 54.5311 56.9946 65.5058C56.6012 66.3071 55.7972 66.7725 54.9612 66.7725Z" fill="white"/>
<path d="M81.5058 30.5654C80.9112 30.5654 80.3178 30.3321 79.8725 29.8694C79.0072 28.9681 79.0365 27.5348 79.9378 26.6694L80.6432 25.9921C81.5445 25.1268 82.9778 25.1548 83.8445 26.0561C84.7098 26.9588 84.6805 28.3908 83.7792 29.2574L83.0738 29.9348C82.6352 30.3561 82.0698 30.5654 81.5058 30.5654Z" fill="white"/>
<path d="M97.0972 145.171C84.4919 145.171 54.9625 142.887 42.0479 118.016C45.8532 126.927 52.2785 134.487 61.2585 140.475C75.1932 149.767 88.1612 150.528 97.6252 150.867C109.245 151.283 122.189 148.242 133.003 140.486C140.715 134.955 148.821 125.623 152.147 112.839C140.564 140.37 109.699 145.171 97.0972 145.171Z" fill="black"/>
<path d="M49.6217 129.351C52.9044 133.325 56.8977 136.887 61.5724 140.005C75.8457 149.521 89.4924 150.009 97.6457 150.301C110.36 150.757 122.8 147.108 132.672 140.027C137.104 136.848 144.37 130.444 148.968 120.188C143.579 128.761 135.623 135.356 125.228 139.849C112.587 145.313 100.5 145.737 97.0977 145.737C84.4671 145.737 63.5831 143.344 49.6217 129.351ZM99.7671 151.471C99.0471 151.471 98.3284 151.459 97.6057 151.433C89.3311 151.136 75.4844 150.641 60.9457 140.947C51.9271 134.933 45.3937 127.293 41.5284 118.24C41.4084 117.96 41.5311 117.636 41.8057 117.505C42.0804 117.376 42.4097 117.487 42.5497 117.756C54.6817 141.117 81.9324 144.605 97.0977 144.605C100.446 144.605 112.338 144.188 124.779 138.811C137.615 133.263 146.648 124.451 151.624 112.62C151.74 112.347 152.046 112.209 152.328 112.303C152.608 112.399 152.768 112.695 152.694 112.981C148.778 128.039 138.882 136.965 133.332 140.947C123.819 147.771 111.974 151.471 99.7671 151.471Z" fill="black"/>
<path d="M88.08 114.351C87.1293 114.351 86.332 114.787 85.6893 115.658C85.0453 116.53 84.7226 117.752 84.7226 119.327C84.7226 120.902 85.0306 122.11 85.644 122.951C86.2573 123.794 87.0653 124.214 88.0653 124.214C89.0653 124.214 89.8773 123.788 90.5013 122.936C91.1253 122.086 91.4373 120.867 91.4373 119.283C91.4373 117.698 91.1146 116.48 90.4706 115.628C89.828 114.778 89.0306 114.351 88.08 114.351ZM88.0653 130.007C85.2826 130.007 83.0146 129.096 81.2626 127.274C79.5093 125.452 78.6333 122.794 78.6333 119.298C78.6333 115.802 79.52 113.154 81.292 111.351C83.064 109.548 85.352 108.647 88.1546 108.647C90.956 108.647 93.2186 109.534 94.9426 111.307C96.6653 113.079 97.5266 115.763 97.5266 119.356C97.5266 122.951 96.6453 125.624 94.8826 127.378C93.12 129.131 90.848 130.007 88.0653 130.007Z" fill="black"/>
<path d="M112.131 124.065H100.396C100.04 124.065 99.7827 123.779 99.624 123.204C99.5454 122.907 99.5054 122.62 99.5054 122.343C99.5054 122.065 99.5454 121.777 99.624 121.481C99.7827 120.907 100.04 120.62 100.396 120.62H112.131C112.487 120.62 112.744 120.907 112.903 121.481C112.981 121.777 113.023 122.065 113.023 122.343C113.023 122.62 112.981 122.907 112.903 123.204C112.744 123.779 112.487 124.065 112.131 124.065Z" fill="black"/>
<path d="M147.911 92.7324C147.842 92.7324 147.771 92.7191 147.703 92.6924C147.412 92.5778 147.27 92.2484 147.386 91.9578C152.087 80.0938 158.583 69.0804 166.692 59.2258C166.891 58.9844 167.247 58.9498 167.488 59.1484C167.73 59.3471 167.764 59.7044 167.566 59.9458C159.531 69.7084 153.095 80.6191 148.438 92.3751C148.35 92.5964 148.136 92.7324 147.911 92.7324Z" fill="black"/>
<path d="M170.509 50.2588C172.869 49.7001 175.657 50.9095 176.466 53.1948C176.598 53.5695 176.678 53.9788 176.572 54.3615C176.369 55.0881 175.536 55.4908 174.782 55.4521C174.028 55.4148 173.336 55.0455 172.673 54.6841C174.289 55.7641 175.922 56.8588 177.241 58.2868C178.56 59.7161 179.554 61.5335 179.628 63.4761C179.688 65.1148 178.942 66.8975 177.444 67.5628C176.334 68.0548 175.018 67.8521 173.932 67.3135C172.846 66.7761 171.945 65.9348 171.06 65.1068C169.865 63.9868 168.67 62.8681 167.477 61.7495C166.566 60.8961 165.64 60.0215 165.065 58.9148C163.365 55.6388 167.345 51.0081 170.509 50.2588Z" fill="#3D67FF"/>
<path d="M170.639 50.8102C168.803 51.2448 166.637 53.1702 165.709 55.1955C165.295 56.0995 164.933 57.4342 165.567 58.6542C166.103 59.6875 166.997 60.5262 167.863 61.3368L171.447 64.6942C172.289 65.4835 173.161 66.3008 174.183 66.8075C175.253 67.3382 176.359 67.4248 177.213 67.0462C178.551 66.4528 179.109 64.7902 179.061 63.4968C179.001 61.8822 178.207 60.1688 176.825 58.6715C175.545 57.2848 173.925 56.2022 172.359 55.1555C172.107 54.9875 172.032 54.6502 172.188 54.3915C172.345 54.1328 172.677 54.0422 172.943 54.1875C173.519 54.5008 174.169 54.8568 174.809 54.8888C175.307 54.9142 175.899 54.6662 176.025 54.2102C176.085 53.9995 176.055 53.7288 175.932 53.3848C175.255 51.4702 172.829 50.2915 170.639 50.8102ZM176.053 68.4102C175.283 68.4102 174.468 68.2115 173.68 67.8208C172.509 67.2408 171.576 66.3662 170.673 65.5195L167.089 62.1622C166.197 61.3275 165.188 60.3808 164.563 59.1755C163.895 57.8888 163.935 56.3488 164.68 54.7235C165.755 52.3795 168.204 50.2235 170.377 49.7088C173.152 49.0515 176.123 50.5315 176.999 53.0062C177.201 53.5782 177.24 54.0715 177.116 54.5142C176.896 55.3048 176.208 55.7848 175.473 55.9528C176.247 56.5422 176.988 57.1795 177.656 57.9048C179.221 59.5995 180.121 61.5702 180.192 63.4555C180.256 65.1728 179.501 67.2688 177.672 68.0808C177.176 68.3008 176.627 68.4102 176.053 68.4102Z" fill="black"/>
<path d="M71.2359 176.282C71.1452 176.282 71.0519 176.26 70.9665 176.214C70.6919 176.065 70.5892 175.721 70.7385 175.446C76.0372 165.686 80.6239 155.436 84.3692 144.98C84.4745 144.686 84.7972 144.533 85.0932 144.638C85.3879 144.744 85.5399 145.068 85.4345 145.362C81.6692 155.872 77.0599 166.176 71.7332 175.986C71.6305 176.176 71.4372 176.282 71.2359 176.282Z" fill="black"/>
<path d="M68.1229 172.536C66.3163 171.62 64.3723 170.674 62.3069 171.336C61.2709 171.666 60.4363 172.49 60.2563 173.562C59.9749 175.225 61.3269 176.341 62.5856 177.189C64.4936 178.477 66.2869 179.628 68.4416 180.436C69.7643 180.932 70.8776 180.689 72.7243 178.097C73.3896 177.165 73.1629 175.865 72.2256 175.208C70.8629 174.252 69.0069 172.984 68.1229 172.536Z" fill="#3D67FF"/>
<path d="M63.7331 171.682C63.3184 171.682 62.8997 171.741 62.4797 171.875C61.5891 172.159 60.9517 172.842 60.8144 173.657C60.5944 174.962 61.6877 175.902 62.9024 176.722C64.7184 177.947 66.5237 179.113 68.6411 179.906C69.5797 180.258 70.4437 180.326 72.2637 177.77C72.4971 177.443 72.5864 177.046 72.5184 176.649C72.4504 176.25 72.2317 175.903 71.9011 175.671C69.9624 174.311 68.5304 173.377 67.8677 173.041C66.5931 172.395 65.1864 171.682 63.7331 171.682ZM69.4637 181.21C69.0744 181.21 68.6717 181.127 68.2437 180.966C66.0104 180.129 64.1437 178.925 62.2691 177.659C60.8144 176.677 59.3704 175.411 59.6984 173.469C59.9064 172.235 60.8397 171.211 62.1344 170.797C64.4691 170.05 66.6371 171.149 68.3784 172.031C69.2877 172.493 71.1491 173.761 72.5504 174.745C73.1291 175.151 73.5144 175.759 73.6344 176.458C73.7531 177.154 73.5944 177.853 73.1851 178.426C71.8131 180.353 70.7091 181.21 69.4637 181.21Z" fill="black"/>
<path d="M125.897 86.8639C125.897 89.7412 123.565 92.0732 120.687 92.0732C117.81 92.0732 115.478 89.7412 115.478 86.8639C115.478 83.9866 117.81 81.6546 120.687 81.6546C123.565 81.6546 125.897 83.9866 125.897 86.8639Z" fill="white"/>
<path d="M61.5407 86.8639C61.5407 89.7412 59.2087 92.0732 56.3314 92.0732C53.4541 92.0732 51.1221 89.7412 51.1221 86.8639C51.1221 83.9866 53.4541 81.6546 56.3314 81.6546C59.2087 81.6546 61.5407 83.9866 61.5407 86.8639Z" fill="white"/>
<path d="M64.5648 80.5107C64.5355 80.5107 64.5075 80.5081 64.4782 80.5041C64.1688 80.4561 63.9568 80.1681 64.0048 79.8587C64.2635 78.1801 64.7502 76.5454 65.4528 75.0001C66.5475 72.5934 68.7035 70.1121 71.4848 70.3641C73.0822 70.5094 74.6008 71.6027 75.5488 73.2881C76.3635 74.7361 76.6848 76.4147 76.9688 77.8961C77.0275 78.2027 76.8275 78.4987 76.5195 78.5587C76.2155 78.6174 75.9168 78.4161 75.8582 78.1094C75.5768 76.6441 75.2862 75.1307 74.5622 73.8427C73.7968 72.4827 72.6088 71.6027 71.3822 71.4907C69.1942 71.2881 67.4168 73.4147 66.4835 75.4681C65.8235 76.9201 65.3662 78.4547 65.1235 80.0307C65.0795 80.3107 64.8395 80.5107 64.5648 80.5107Z" fill="black"/>
<path d="M113.129 80.5107C112.854 80.5107 112.613 80.3107 112.57 80.0307C112.328 78.4547 111.87 76.9201 111.21 75.4681C110.277 73.4147 108.498 71.2894 106.312 71.4907C105.085 71.6027 103.897 72.4827 103.132 73.8427C102.408 75.1307 102.117 76.6441 101.836 78.1094C101.777 78.4161 101.48 78.6174 101.173 78.5587C100.866 78.4987 100.666 78.2027 100.725 77.8961C101.009 76.4147 101.33 74.7361 102.145 73.2881C103.093 71.6027 104.612 70.5094 106.209 70.3641C108.986 70.1134 111.148 72.5921 112.241 75.0001C112.944 76.5454 113.43 78.1801 113.689 79.8587C113.737 80.1681 113.525 80.4561 113.216 80.5041C113.186 80.5081 113.158 80.5107 113.129 80.5107Z" fill="black"/>
<path d="M79.8746 85.357C78.8213 85.3264 77.7453 85.269 76.7346 85.5664C75.7226 85.8637 74.7679 86.5984 74.5293 87.625C74.1986 89.0477 75.2919 90.385 76.3853 91.353C80.6466 95.1237 86.8013 97.5504 92.1159 95.5157C97.9946 93.265 101.325 89.481 102.481 87.4864C103.128 86.369 103.461 84.4477 102.428 83.6717C101.816 83.2117 100.973 83.2717 100.212 83.3517C93.4279 84.0677 86.7226 85.5477 79.8746 85.357Z" fill="#A62D11"/>
<path d="M78.7197 85.8968C78.0837 85.8968 77.4744 85.9394 76.893 86.1101C75.961 86.3834 75.249 87.0288 75.081 87.7528C74.8637 88.6821 75.429 89.7501 76.7597 90.9288C82.493 96.0034 88.3464 96.3528 91.913 94.9874C97.1957 92.9648 100.644 89.5288 101.992 87.2021C102.522 86.2848 102.816 84.6701 102.089 84.1248C101.656 83.7994 100.981 83.8394 100.27 83.9141C98.149 84.1381 95.9944 84.4434 93.9117 84.7381C89.3344 85.3848 84.6037 86.0541 79.8584 85.9221L79.6397 85.9154C79.3277 85.9061 79.0197 85.8968 78.7197 85.8968ZM88.013 96.8154C86.613 96.8154 85.161 96.5954 83.6917 96.1528C80.9784 95.3354 78.3224 93.8221 76.0104 91.7754C74.3437 90.3008 73.6597 88.8608 73.9784 87.4954C74.293 86.1434 75.5264 85.3328 76.5744 85.0234C77.6024 84.7208 78.6557 84.7541 79.673 84.7848L79.8904 84.7914C84.5424 84.9221 89.2237 84.2581 93.753 83.6168C95.8464 83.3208 98.0104 83.0154 100.152 82.7888C101.057 82.6928 102.006 82.6474 102.768 83.2194C104.132 84.2434 103.708 86.4968 102.972 87.7688C101.53 90.2568 97.8757 93.9154 92.317 96.0448C90.9744 96.5581 89.5237 96.8154 88.013 96.8154Z" fill="black"/>
</svg>
