<svg width="146" height="31" viewBox="0 0 146 31" fill="none" xmlns="http://www.w3.org/2000/svg">
<path d="M11.7366 6.71484C11.7366 6.71484 5.94678 15.3992 5.94678 18.5909C5.94678 21.7826 8.5448 24.3805 11.7366 24.3805C14.9285 24.3805 17.5265 21.7826 17.5265 18.5909C17.5265 15.3992 11.7366 6.71484 11.7366 6.71484ZM15.6337 18.628C15.2625 20.4836 13.6295 21.8197 11.7366 21.8197C9.84381 21.8197 8.21077 20.4836 7.83962 18.628C7.80251 18.4424 7.91385 18.2569 8.13654 18.2198C8.32211 18.1827 8.50768 18.294 8.5448 18.5167C8.84171 20.0383 10.215 21.1145 11.7366 21.1145C13.2955 21.1145 14.6316 20.0012 14.9285 18.5167C14.9656 18.3311 15.1512 18.1827 15.3368 18.2198C15.5595 18.2569 15.6708 18.4424 15.6337 18.628Z" fill="#BB0A08"/>
<path d="M27.5753 13.9459C26.4637 13.9459 25.5004 14.4291 25.0188 15.5814V11.6412C25.0188 11.4553 24.8706 11.3066 24.6853 11.3066H21.7954C21.6101 11.3066 21.4619 11.4553 21.4619 11.6412V21.752H25.0188V19.5217C25.0188 17.5144 25.3152 16.3249 26.0191 16.3249C26.4267 16.3249 26.5008 16.8081 26.5008 17.6259V21.752H29.9836V16.8824C29.9465 15.061 29.3537 13.9459 27.5753 13.9459Z" fill="#BB0A08"/>
<path d="M34.3177 19.0379C36.4296 18.8892 38.3562 18.0342 38.3562 16.25C38.3562 14.7259 36.9112 13.9453 35.0957 13.9453C32.4651 13.9453 30.5015 15.5065 30.5015 18.2944C30.5015 21.231 32.7245 22.086 34.9475 22.086C36.1702 22.086 37.1335 21.8258 37.8745 21.3425C37.9486 21.3054 38.0227 21.1939 38.0227 21.0823L38.0968 19.5211C38.0968 19.2981 37.8745 19.1122 37.6522 19.2237C37.0594 19.5211 36.3184 19.6326 35.7256 19.6326C35.0216 19.6326 34.577 19.4468 34.3177 19.0379ZM34.9475 15.8783C35.1698 15.8783 35.4292 15.9526 35.4292 16.3615C35.4292 16.9562 34.8364 17.2908 34.0213 17.4395C34.0954 16.3987 34.3918 15.8783 34.9475 15.8783Z" fill="#BB0A08"/>
<path d="M49.471 13.9453C48.3225 13.9453 47.4703 14.4657 47.0257 15.8411C46.8775 14.6516 46.1365 13.9453 44.8027 13.9453C43.617 13.9453 42.7649 14.5029 42.3203 15.9526L42.135 14.5029C42.098 14.3542 41.9868 14.2055 41.8386 14.2055H39.2451C39.0598 14.2055 38.9116 14.3542 38.9116 14.5401V21.7514H42.3944V19.5211C42.3944 17.5138 42.3944 16.3243 43.0983 16.3243C43.4688 16.3243 43.58 16.8076 43.58 17.6253V21.7514H47.0628V19.5211C47.0628 17.5138 47.0628 16.3243 47.7667 16.3243C48.1743 16.3243 48.2484 16.8076 48.2484 17.6253V21.7514H51.7311V16.8819C51.7682 15.0605 51.1383 13.9453 49.471 13.9453Z" fill="#BB0A08"/>
<path d="M56.6595 13.9453C54.0289 13.9453 52.2505 15.4694 52.2505 18.1086C52.2505 20.7478 54.0289 22.086 56.5854 22.086C59.1789 22.086 60.9203 20.7478 60.9203 18.0714C60.9944 15.5437 59.3642 13.9453 56.6595 13.9453ZM56.6225 20.153C56.0667 20.153 55.8073 19.6698 55.8073 17.9971C55.8073 16.473 55.9926 15.8783 56.6225 15.8783C57.2523 15.8783 57.4005 16.473 57.4005 17.9971C57.4376 19.6326 57.2523 20.153 56.6225 20.153Z" fill="#BB0A08"/>
<path d="M65.699 20.675C64.1429 20.675 63.4019 19.7085 63.4019 18.1844C63.4019 16.4002 64.4023 15.5081 65.8472 15.5081C66.2178 15.5081 66.5883 15.5824 66.9217 15.6939C67.107 15.7683 67.3293 15.6196 67.3293 15.3965L67.3663 14.8018C67.3663 14.6531 67.2922 14.5416 67.1811 14.5044C66.6624 14.2814 66.0325 14.207 65.4767 14.207C63.2167 14.207 61.5864 15.5824 61.5864 18.1473C61.5864 20.5263 62.9202 21.976 65.2915 21.976C65.9213 21.976 66.7735 21.8273 67.3293 21.4556C67.4034 21.3812 67.4775 21.3069 67.4775 21.1954V20.675C67.4775 20.4519 67.2552 20.3032 67.0329 20.3776C66.6624 20.6006 66.2178 20.675 65.699 20.675Z" fill="#262626"/>
<path d="M69.0336 11.1531C68.2185 11.0044 67.5145 11.785 67.7739 12.6028C67.885 12.9002 68.1444 13.1604 68.4408 13.2719C69.2559 13.5693 70.034 12.863 69.8858 12.008C69.8117 11.5992 69.4412 11.2274 69.0336 11.1531ZM67.9592 14.7216V21.7843H69.6635V14.7216C69.6635 14.5357 69.5153 14.3871 69.33 14.3871H68.2556C68.0703 14.4242 67.9592 14.5729 67.9592 14.7216Z" fill="#262626"/>
<path d="M73.8506 14.207C71.6276 14.207 70.1826 15.6939 70.1826 18.1101C70.1826 20.5263 71.5905 21.976 73.8136 21.976C76.0366 21.976 77.4816 20.5263 77.4816 18.1101C77.4816 15.7311 76.1478 14.207 73.8506 14.207ZM73.8506 20.9352C72.628 20.9352 71.961 20.0059 71.961 18.1101C71.961 16.2515 72.628 15.3222 73.8506 15.3222C75.0733 15.3222 75.7402 16.2887 75.7402 18.1101C75.7402 19.9687 75.0733 20.9352 73.8506 20.9352Z" fill="#262626"/>
<path d="M82.5202 14.207C81.2605 14.207 80.2972 14.9133 79.7414 16.1028L79.6303 14.7274C79.6303 14.5788 79.4821 14.4301 79.3339 14.4301H78.3706C78.1853 14.4301 78.0371 14.5788 78.0371 14.7646V21.8273H79.7414V18.519C79.7414 16.9206 80.6306 15.4709 81.8533 15.4709C82.7425 15.4709 82.9278 16.2515 82.9278 17.5897V21.753H84.6321V16.9949C84.6321 15.0248 83.9282 14.207 82.5202 14.207Z" fill="#262626"/>
<path d="M86.8926 18.6657C89.338 18.7028 91.561 17.885 91.561 16.1008C91.561 14.8369 90.4495 14.2422 89.0416 14.2422C86.7444 14.2422 85.0771 15.8406 85.0771 18.3683C85.0771 20.8216 86.7074 22.0111 88.7822 22.0111C89.7085 22.0111 90.6347 21.7881 91.3387 21.3049C91.4128 21.2305 91.4499 21.1562 91.4499 21.0447V20.5614C91.4499 20.3012 91.1905 20.1525 90.9682 20.2641C90.3754 20.5986 89.6714 20.7101 89.0786 20.7101C87.7448 20.7101 87.0408 19.9667 86.8926 18.6657ZM88.9675 15.283C89.4491 15.283 90.079 15.4317 90.079 16.138C90.079 17.2903 88.4858 17.6992 86.8926 17.7364C86.9667 16.138 87.8559 15.283 88.9675 15.283Z" fill="#262626"/>
<rect x="96.2148" y="11.7988" width="43.8384" height="11.9192" rx="5.9596" fill="#BB0A08"/>
<path d="M103.493 17.2107C103.613 17.2107 103.718 17.1951 103.808 17.1641C103.9 17.133 103.976 17.0893 104.037 17.0331C104.099 16.9754 104.145 16.9073 104.176 16.8289C104.207 16.749 104.223 16.6609 104.223 16.5647C104.223 16.3709 104.162 16.2185 104.041 16.1075C103.921 15.9965 103.738 15.941 103.493 15.941H103V17.2107H103.493ZM103.493 15.5703C103.697 15.5703 103.875 15.594 104.025 15.6414C104.176 15.6887 104.301 15.756 104.401 15.8433C104.5 15.9292 104.573 16.0335 104.62 16.1563C104.669 16.2791 104.694 16.4153 104.694 16.5647C104.694 16.7142 104.668 16.8518 104.616 16.9776C104.564 17.1019 104.488 17.2092 104.387 17.2995C104.287 17.3897 104.161 17.46 104.01 17.5103C103.86 17.5592 103.688 17.5836 103.493 17.5836H103V18.7578H102.527V15.5703H103.493ZM107.548 18.3738L107.546 18.7578H105.57V15.5703H107.546V15.9543H106.045V16.9643H107.253V17.335H106.045V18.3738H107.548ZM111.269 17.1641C111.269 17.4023 111.23 17.6191 111.153 17.8144C111.078 18.0098 110.971 18.1777 110.832 18.3183C110.692 18.4574 110.526 18.5654 110.332 18.6424C110.138 18.7193 109.923 18.7578 109.686 18.7578H108.488V15.5703H109.686C109.923 15.5703 110.138 15.6088 110.332 15.6857C110.526 15.7627 110.692 15.8715 110.832 16.012C110.971 16.1511 111.078 16.3191 111.153 16.5159C111.23 16.7112 111.269 16.9273 111.269 17.1641ZM110.785 17.1641C110.785 16.9747 110.759 16.8052 110.707 16.6558C110.655 16.5048 110.582 16.3776 110.485 16.274C110.391 16.1689 110.275 16.089 110.139 16.0342C110.004 15.9795 109.853 15.9521 109.686 15.9521H108.963V18.376H109.686C109.853 18.376 110.004 18.3486 110.139 18.2939C110.275 18.2391 110.391 18.16 110.485 18.0564C110.582 17.9513 110.655 17.8241 110.707 17.6746C110.759 17.5251 110.785 17.355 110.785 17.1641ZM112.695 18.7578H112.22V15.5703H112.695V18.7578ZM114.74 17.1064C114.861 17.1064 114.968 17.0916 115.06 17.062C115.153 17.0324 115.231 16.9909 115.293 16.9377C115.355 16.8829 115.402 16.8185 115.433 16.7445C115.464 16.6691 115.479 16.5862 115.479 16.4959C115.479 16.3124 115.419 16.1741 115.297 16.0809C115.177 15.9876 114.997 15.941 114.756 15.941H114.31V17.1064H114.74ZM116.227 18.7578H115.806C115.721 18.7578 115.66 18.7245 115.621 18.6579L114.833 17.5525C114.808 17.5155 114.781 17.4896 114.751 17.4748C114.722 17.4585 114.677 17.4504 114.618 17.4504H114.31V18.7578H113.837V15.5703H114.756C114.961 15.5703 115.138 15.5918 115.286 15.6347C115.436 15.6761 115.558 15.7361 115.655 15.8145C115.752 15.8914 115.824 15.9847 115.87 16.0942C115.917 16.2037 115.941 16.3265 115.941 16.4626C115.941 16.5736 115.924 16.678 115.89 16.7756C115.856 16.8733 115.806 16.9613 115.739 17.0398C115.674 17.1167 115.594 17.1833 115.499 17.2395C115.405 17.2958 115.297 17.3387 115.177 17.3683C115.237 17.4038 115.288 17.4534 115.331 17.517L116.227 18.7578ZM120.017 17.5703L119.544 16.3339C119.51 16.2495 119.476 16.143 119.442 16.0143C119.426 16.0779 119.409 16.1371 119.391 16.1918C119.375 16.2466 119.358 16.2954 119.342 16.3383L118.871 17.5703H120.017ZM120.951 18.7578H120.587C120.546 18.7578 120.512 18.7475 120.485 18.7267C120.458 18.706 120.439 18.6794 120.427 18.6468L120.145 17.9077H118.74L118.459 18.6468C118.448 18.6749 118.429 18.7008 118.401 18.7245C118.373 18.7467 118.339 18.7578 118.299 18.7578H117.935L119.204 15.5703H119.682L120.951 18.7578ZM122.834 17.648C122.834 17.8255 122.812 17.9854 122.768 18.1274C122.723 18.2695 122.658 18.3901 122.572 18.4892C122.488 18.5869 122.382 18.6624 122.255 18.7156C122.129 18.7674 121.984 18.7933 121.82 18.7933C121.672 18.7933 121.519 18.7726 121.363 18.7312L121.389 18.4515C121.392 18.4249 121.402 18.4034 121.418 18.3871C121.436 18.3694 121.462 18.3605 121.496 18.3605C121.521 18.3605 121.555 18.3671 121.598 18.3805C121.642 18.3923 121.7 18.3982 121.771 18.3982C121.866 18.3982 121.949 18.3842 122.022 18.356C122.096 18.3279 122.158 18.2843 122.208 18.2251C122.259 18.1644 122.296 18.0875 122.321 17.9942C122.348 17.901 122.361 17.7893 122.361 17.6591V15.5703H122.834V17.648ZM125.188 18.3782C125.316 18.3782 125.43 18.3568 125.53 18.3139C125.631 18.271 125.716 18.211 125.786 18.1341C125.855 18.0556 125.908 17.9632 125.945 17.8566C125.982 17.7486 126.001 17.6295 126.001 17.4992V15.5703H126.471V17.4992C126.471 17.6857 126.442 17.8581 126.383 18.0164C126.323 18.1748 126.238 18.3117 126.127 18.4271C126.016 18.5425 125.882 18.6328 125.723 18.6979C125.565 18.763 125.387 18.7955 125.188 18.7955C124.99 18.7955 124.812 18.763 124.653 18.6979C124.495 18.6328 124.36 18.5425 124.249 18.4271C124.138 18.3117 124.053 18.1748 123.994 18.0164C123.935 17.8581 123.905 17.6857 123.905 17.4992V15.5703H124.378V17.497C124.378 17.6272 124.396 17.7464 124.431 17.8544C124.468 17.9624 124.522 18.0556 124.591 18.1341C124.661 18.211 124.746 18.271 124.847 18.3139C124.947 18.3568 125.061 18.3782 125.188 18.3782ZM130.355 17.1641C130.355 17.4023 130.317 17.6191 130.24 17.8144C130.164 18.0098 130.057 18.1777 129.918 18.3183C129.779 18.4574 129.612 18.5654 129.418 18.6424C129.224 18.7193 129.009 18.7578 128.772 18.7578H127.574V15.5703H128.772C129.009 15.5703 129.224 15.6088 129.418 15.6857C129.612 15.7627 129.779 15.8715 129.918 16.012C130.057 16.1511 130.164 16.3191 130.24 16.5159C130.317 16.7112 130.355 16.9273 130.355 17.1641ZM129.871 17.1641C129.871 16.9747 129.845 16.8052 129.793 16.6558C129.742 16.5048 129.668 16.3776 129.571 16.274C129.477 16.1689 129.361 16.089 129.225 16.0342C129.091 15.9795 128.94 15.9521 128.772 15.9521H128.049V18.376H128.772C128.94 18.376 129.091 18.3486 129.225 18.2939C129.361 18.2391 129.477 18.16 129.571 18.0564C129.668 17.9513 129.742 17.8241 129.793 17.6746C129.845 17.5251 129.871 17.355 129.871 17.1641ZM132.913 17.5703L132.44 16.3339C132.406 16.2495 132.372 16.143 132.338 16.0143C132.322 16.0779 132.305 16.1371 132.287 16.1918C132.271 16.2466 132.255 16.2954 132.238 16.3383L131.768 17.5703H132.913ZM133.848 18.7578H133.484C133.442 18.7578 133.408 18.7475 133.381 18.7267C133.355 18.706 133.336 18.6794 133.324 18.6468L133.042 17.9077H131.637L131.355 18.6468C131.344 18.6749 131.325 18.7008 131.297 18.7245C131.269 18.7467 131.235 18.7578 131.195 18.7578H130.831L132.101 15.5703H132.578L133.848 18.7578Z" fill="white"/>
</svg>
