<svg width="110" height="24" viewBox="0 0 110 24" fill="none" xmlns="http://www.w3.org/2000/svg">
<path d="M9.78961 4.875C9.78961 4.875 5.15771 11.8225 5.15771 14.3758C5.15771 16.9292 7.23613 19.0075 9.78961 19.0075C12.3431 19.0075 14.4215 16.9292 14.4215 14.3758C14.4215 11.8225 9.78961 4.875 9.78961 4.875ZM12.9072 14.4055C12.6103 15.89 11.3039 16.9589 9.78961 16.9589C8.27534 16.9589 6.96891 15.89 6.67199 14.4055C6.6423 14.2571 6.73137 14.1086 6.90952 14.0789C7.05798 14.0492 7.20644 14.1383 7.23613 14.3165C7.47366 15.5338 8.57226 16.3948 9.78961 16.3948C11.0367 16.3948 12.1056 15.5041 12.3431 14.3165C12.3728 14.168 12.5212 14.0492 12.6697 14.0789C12.8479 14.1086 12.9369 14.2571 12.9072 14.4055Z" fill="#BB0A08"/>
<path d="M22.4605 10.6582C21.5713 10.6582 20.8006 11.0448 20.4153 11.9667V8.81451C20.4153 8.66583 20.2967 8.54688 20.1485 8.54688H17.8366C17.6884 8.54688 17.5698 8.66583 17.5698 8.81451V16.9031H20.4153V15.1189C20.4153 13.5131 20.6524 12.5615 21.2156 12.5615C21.5416 12.5615 21.6009 12.948 21.6009 13.6023V16.9031H24.3871V13.0075C24.3575 11.5504 23.8832 10.6582 22.4605 10.6582Z" fill="#BB0A08"/>
<path d="M27.8542 14.7303C29.5437 14.6114 31.0851 13.9274 31.0851 12.5C31.0851 11.2807 29.9291 10.6562 28.4767 10.6562C26.3722 10.6562 24.8013 11.9052 24.8013 14.1356C24.8013 16.4848 26.5797 17.1688 28.3581 17.1688C29.3363 17.1688 30.1069 16.9606 30.6997 16.574C30.759 16.5443 30.8183 16.4551 30.8183 16.3659L30.8776 15.1169C30.8776 14.9385 30.6997 14.7898 30.5219 14.879C30.0476 15.1169 29.4548 15.2061 28.9806 15.2061C28.4174 15.2061 28.0617 15.0574 27.8542 14.7303ZM28.3581 12.2026C28.536 12.2026 28.7435 12.2621 28.7435 12.5892C28.7435 13.065 28.2692 13.3326 27.6171 13.4516C27.6764 12.6189 27.9135 12.2026 28.3581 12.2026Z" fill="#BB0A08"/>
<path d="M39.9773 10.6562C39.0585 10.6562 38.3767 11.0726 38.021 12.1729C37.9025 11.2213 37.3097 10.6562 36.2426 10.6562C35.2941 10.6562 34.6124 11.1023 34.2567 12.2621L34.1085 11.1023C34.0789 10.9834 33.9899 10.8644 33.8714 10.8644H31.7965C31.6483 10.8644 31.5298 10.9834 31.5298 11.1321V16.9012H34.316V15.1169C34.316 13.5111 34.316 12.5595 34.8792 12.5595C35.1756 12.5595 35.2645 12.946 35.2645 13.6003V16.9012H38.0507V15.1169C38.0507 13.5111 38.0507 12.5595 38.6139 12.5595C38.9399 12.5595 38.9992 12.946 38.9992 13.6003V16.9012H41.7854V13.0055C41.815 11.5484 41.3111 10.6562 39.9773 10.6562Z" fill="#BB0A08"/>
<path d="M45.7279 10.6562C43.6234 10.6562 42.2007 11.8755 42.2007 13.9869C42.2007 16.0982 43.6234 17.1688 45.6686 17.1688C47.7435 17.1688 49.1366 16.0982 49.1366 13.9571C49.1958 11.935 47.8917 10.6562 45.7279 10.6562ZM45.6983 15.6224C45.2537 15.6224 45.0462 15.2358 45.0462 13.8977C45.0462 12.6784 45.1944 12.2026 45.6983 12.2026C46.2021 12.2026 46.3207 12.6784 46.3207 13.8977C46.3503 15.2061 46.2021 15.6224 45.6983 15.6224Z" fill="#BB0A08"/>
<path d="M52.9595 16.0396C51.7146 16.0396 51.1218 15.2664 51.1218 14.0472C51.1218 12.6198 51.9221 11.9061 53.0781 11.9061C53.3745 11.9061 53.6709 11.9655 53.9377 12.0547C54.0859 12.1142 54.2637 11.9953 54.2637 11.8168L54.2933 11.341C54.2933 11.2221 54.2341 11.1329 54.1451 11.1031C53.7302 10.9247 53.2263 10.8652 52.7817 10.8652C50.9736 10.8652 49.6694 11.9655 49.6694 14.0174C49.6694 15.9206 50.7365 17.0804 52.6335 17.0804C53.1374 17.0804 53.8191 16.9614 54.2637 16.6641C54.323 16.6046 54.3823 16.5451 54.3823 16.4559V16.0396C54.3823 15.8612 54.2044 15.7422 54.0266 15.8017C53.7302 15.9801 53.3745 16.0396 52.9595 16.0396Z" fill="#262626"/>
<path d="M55.6272 8.42287C54.9751 8.30391 54.4119 8.9284 54.6194 9.58263C54.7083 9.82053 54.9158 10.0287 55.1529 10.1179C55.805 10.3558 56.4275 9.7908 56.3089 9.10683C56.2496 8.77972 55.9532 8.48234 55.6272 8.42287ZM54.7676 11.2777V16.9278H56.1311V11.2777C56.1311 11.129 56.0125 11.01 55.8643 11.01H55.0047C54.8565 11.0398 54.7676 11.1587 54.7676 11.2777Z" fill="#262626"/>
<path d="M59.4808 10.8652C57.7024 10.8652 56.5464 12.0547 56.5464 13.9877C56.5464 15.9206 57.6727 17.0804 59.4512 17.0804C61.2296 17.0804 62.3856 15.9206 62.3856 13.9877C62.3856 12.0845 61.3185 10.8652 59.4808 10.8652ZM59.4808 16.2477C58.5027 16.2477 57.9691 15.5043 57.9691 13.9877C57.9691 12.5008 58.5027 11.7574 59.4808 11.7574C60.4589 11.7574 60.9925 12.5305 60.9925 13.9877C60.9925 15.4746 60.4589 16.2477 59.4808 16.2477Z" fill="#262626"/>
<path d="M66.4166 10.8652C65.4088 10.8652 64.6381 11.4302 64.1935 12.3819L64.1046 11.2816C64.1046 11.1626 63.9861 11.0437 63.8675 11.0437H63.0968C62.9486 11.0437 62.8301 11.1626 62.8301 11.3113V16.9614H64.1935V14.3148C64.1935 13.0361 64.9049 11.8763 65.883 11.8763C66.5944 11.8763 66.7426 12.5008 66.7426 13.5714V16.902H68.1061V13.0956C68.1061 11.5195 67.5429 10.8652 66.4166 10.8652Z" fill="#262626"/>
<path d="M69.9143 14.4353C71.8706 14.465 73.649 13.8108 73.649 12.3834C73.649 11.3723 72.7598 10.8965 71.6334 10.8965C69.7957 10.8965 68.4619 12.1752 68.4619 14.1974C68.4619 16.16 69.7661 17.1116 71.426 17.1116C72.167 17.1116 72.908 16.9332 73.4712 16.5466C73.5304 16.4872 73.5601 16.4277 73.5601 16.3385V15.9519C73.5601 15.7437 73.3526 15.6248 73.1747 15.714C72.7005 15.9816 72.1373 16.0708 71.6631 16.0708C70.596 16.0708 70.0329 15.4761 69.9143 14.4353ZM71.5742 11.7291C71.9595 11.7291 72.4634 11.8481 72.4634 12.4131C72.4634 13.335 71.1888 13.6621 69.9143 13.6918C69.9736 12.4131 70.6849 11.7291 71.5742 11.7291Z" fill="#262626"/>
<rect x="77.3721" y="8.93945" width="27.4707" height="9.73536" rx="4.86768" fill="#BB0A08"/>
<path d="M83.7766 13.3566L83.3984 12.3675C83.3712 12.3 83.3439 12.2148 83.3167 12.1118C83.3037 12.1627 83.2901 12.2101 83.2759 12.2539C83.2629 12.2977 83.2498 12.3367 83.2368 12.3711L82.8603 13.3566H83.7766ZM84.5242 14.3066H84.233C84.1999 14.3066 84.1726 14.2984 84.1513 14.2818C84.13 14.2652 84.1146 14.2439 84.1052 14.2179L83.8796 13.6265H82.7556L82.5301 14.2179C82.5218 14.2403 82.5064 14.2611 82.4839 14.28C82.4614 14.2978 82.4342 14.3066 82.4022 14.3066H82.111L83.1267 11.7566H83.5085L84.5242 14.3066ZM86.0306 13.4188C86.0306 13.5608 86.0128 13.6887 85.9773 13.8023C85.9418 13.916 85.8897 14.0125 85.821 14.0918C85.7536 14.1699 85.6689 14.2303 85.5671 14.2729C85.4665 14.3143 85.3505 14.3351 85.2191 14.3351C85.1007 14.3351 84.9787 14.3185 84.8532 14.2853L84.8746 14.0616C84.8769 14.0403 84.8846 14.0231 84.8976 14.0101C84.9118 13.9959 84.9326 13.9888 84.9598 13.9888C84.9799 13.9888 85.0071 13.9941 85.0415 14.0048C85.077 14.0142 85.1232 14.019 85.18 14.019C85.2558 14.019 85.3226 14.0077 85.3806 13.9852C85.4398 13.9627 85.4896 13.9278 85.5298 13.8805C85.5701 13.8319 85.6003 13.7704 85.6204 13.6958C85.6417 13.6212 85.6523 13.5318 85.6523 13.4276V11.7566H86.0306V13.4188ZM87.914 14.003C88.0158 14.003 88.1069 13.9858 88.1874 13.9515C88.2679 13.9172 88.336 13.8692 88.3916 13.8077C88.4473 13.7449 88.4899 13.6709 88.5195 13.5857C88.5491 13.4993 88.5639 13.404 88.5639 13.2998V11.7566H88.9404V13.2998C88.9404 13.4489 88.9167 13.5869 88.8693 13.7135C88.822 13.8402 88.7539 13.9497 88.6651 14.0421C88.5763 14.1344 88.4686 14.2066 88.3419 14.2587C88.2153 14.3108 88.0726 14.3368 87.914 14.3368C87.7553 14.3368 87.6127 14.3108 87.486 14.2587C87.3593 14.2066 87.2516 14.1344 87.1628 14.0421C87.074 13.9497 87.006 13.8402 86.9586 13.7135C86.9113 13.5869 86.8876 13.4489 86.8876 13.2998V11.7566H87.2658V13.298C87.2658 13.4022 87.28 13.4975 87.3084 13.5839C87.338 13.6703 87.3806 13.7449 87.4363 13.8077C87.4919 13.8692 87.56 13.9172 87.6405 13.9515C87.721 13.9858 87.8122 14.003 87.914 14.003ZM92.0472 13.0316C92.0472 13.2222 92.0165 13.3957 91.9549 13.5519C91.8945 13.7082 91.8087 13.8426 91.6974 13.955C91.5861 14.0663 91.453 14.1527 91.2979 14.2143C91.1428 14.2759 90.9705 14.3066 90.7811 14.3066H89.8222V11.7566H90.7811C90.9705 11.7566 91.1428 11.7874 91.2979 11.849C91.453 11.9105 91.5861 11.9976 91.6974 12.11C91.8087 12.2213 91.8945 12.3557 91.9549 12.5131C92.0165 12.6694 92.0472 12.8422 92.0472 13.0316ZM91.6601 13.0316C91.6601 12.8801 91.6394 12.7446 91.598 12.625C91.5565 12.5042 91.4974 12.4024 91.4204 12.3196C91.3446 12.2355 91.2523 12.1716 91.1434 12.1278C91.0357 12.084 90.9149 12.0621 90.7811 12.0621H90.2022V14.0012H90.7811C90.9149 14.0012 91.0357 13.9793 91.1434 13.9355C91.2523 13.8917 91.3446 13.8284 91.4204 13.7455C91.4974 13.6614 91.5565 13.5596 91.598 13.4401C91.6394 13.3205 91.6601 13.1844 91.6601 13.0316ZM94.0937 13.3566L93.7154 12.3675C93.6882 12.3 93.661 12.2148 93.6337 12.1118C93.6207 12.1627 93.6071 12.2101 93.5929 12.2539C93.5799 12.2977 93.5669 12.3367 93.5538 12.3711L93.1774 13.3566H94.0937ZM94.8413 14.3066H94.55C94.5169 14.3066 94.4897 14.2984 94.4684 14.2818C94.447 14.2652 94.4317 14.2439 94.4222 14.2179L94.1967 13.6265H93.0726L92.8471 14.2179C92.8388 14.2403 92.8234 14.2611 92.8009 14.28C92.7784 14.2978 92.7512 14.3066 92.7192 14.3066H92.428L93.4437 11.7566H93.8255L94.8413 14.3066ZM97.7452 13.3566L97.367 12.3675C97.3398 12.3 97.3125 12.2148 97.2853 12.1118C97.2723 12.1627 97.2587 12.2101 97.2445 12.2539C97.2314 12.2977 97.2184 12.3367 97.2054 12.3711L96.8289 13.3566H97.7452ZM98.4928 14.3066H98.2016C98.1684 14.3066 98.1412 14.2984 98.1199 14.2818C98.0986 14.2652 98.0832 14.2439 98.0737 14.2179L97.8482 13.6265H96.7242L96.4986 14.2179C96.4903 14.2403 96.475 14.2611 96.4525 14.28C96.43 14.2978 96.4027 14.3066 96.3708 14.3066H96.0796L97.0953 11.7566H97.4771L98.4928 14.3066ZM99.4753 14.3066H99.0953V11.7566H99.4753V14.3066ZM99.9814 11.0144L99.4025 11.5222C99.3824 11.5388 99.364 11.5495 99.3475 11.5542C99.3309 11.5589 99.309 11.5613 99.2817 11.5613H99.0314L99.4327 11.0748C99.4433 11.0605 99.4534 11.0499 99.4629 11.0428C99.4735 11.0345 99.4848 11.0286 99.4966 11.025C99.5085 11.0203 99.5221 11.0173 99.5375 11.0162C99.5528 11.015 99.5706 11.0144 99.5907 11.0144H99.9814Z" fill="white"/>
</svg>
