<svg width="42" height="42" viewBox="0 0 42 42" fill="none" xmlns="http://www.w3.org/2000/svg">
<path d="M31.5 14C31.5 14.9283 31.1313 15.8185 30.4749 16.4749C29.8185 17.1313 28.9283 17.5 28 17.5C27.0717 17.5 26.1815 17.1313 25.5251 16.4749C24.8687 15.8185 24.5 14.9283 24.5 14C24.5 13.0717 24.8687 12.1815 25.5251 11.5251C26.1815 10.8687 27.0717 10.5 28 10.5C28.9283 10.5 29.8185 10.8687 30.4749 11.5251C31.1313 12.1815 31.5 13.0717 31.5 14Z" fill="white"/>
<path fill-rule="evenodd" clip-rule="evenodd" d="M20.9002 2.1873H21.0998C25.1405 2.1873 28.3062 2.1873 30.7773 2.5198C33.3043 2.8593 35.2993 3.5698 36.8655 5.1343C38.4318 6.70055 39.1405 8.69555 39.48 11.2243C39.8125 13.6935 39.8125 16.8593 39.8125 20.9V21.054C39.8125 24.3948 39.8125 27.1283 39.6305 29.3543C39.4485 31.5943 39.0757 33.4615 38.2393 35.0155C37.8729 35.6992 37.415 36.3158 36.8655 36.8653C35.2993 38.4315 33.3043 39.1403 30.7755 39.4798C28.3063 39.8123 25.1405 39.8123 21.0998 39.8123H20.9002C16.8595 39.8123 13.6938 39.8123 11.2227 39.4798C8.69575 39.1403 6.70075 38.4298 5.1345 36.8653C3.74675 35.4775 3.02925 33.7503 2.6495 31.6048C2.27325 29.4995 2.205 26.8798 2.191 23.6283C2.18867 22.8 2.1875 21.9238 2.1875 20.9998V20.8983C2.1875 16.8575 2.1875 13.6918 2.52 11.2208C2.8595 8.6938 3.57 6.6988 5.1345 5.13255C6.70075 3.5663 8.69575 2.85755 11.2245 2.51805C13.6938 2.18555 16.8595 2.18555 20.9002 2.18555M11.5728 5.11855C9.33625 5.41955 7.987 5.99355 6.99125 6.9893C5.99375 7.9868 5.4215 9.3343 5.1205 11.5725C4.816 13.8475 4.8125 16.8365 4.8125 20.998V22.475L6.56425 20.942C7.33263 20.2694 8.32794 19.914 9.34856 19.9478C10.3692 19.9816 11.3388 20.4021 12.061 21.124L19.5685 28.6315C20.1511 29.214 20.9205 29.5723 21.7412 29.6434C22.562 29.7144 23.3815 29.4937 24.0555 29.02L24.577 28.6525C25.5494 27.9692 26.725 27.6361 27.9113 27.7076C29.0977 27.7791 30.2247 28.2511 31.108 29.0463L36.0605 33.5035C36.561 32.457 36.8567 31.0815 37.0142 29.1408C37.1857 27.032 37.1875 24.4035 37.1875 20.998C37.1875 16.8365 37.184 13.8475 36.8795 11.5725C36.5785 9.3343 36.0045 7.98505 35.0087 6.98755C34.0112 5.9918 32.6637 5.41955 30.4255 5.11855C28.1505 4.81405 25.1615 4.81055 21 4.81055C16.8385 4.81055 13.8477 4.81405 11.5728 5.11855Z" fill="white"/>
</svg>
