<svg width="24" height="24" viewBox="0 0 24 24" fill="none" xmlns="http://www.w3.org/2000/svg">
<g clip-path="url(#clip0_3575_1483)">
<path d="M17.17 24.0002C17.0384 24.0009 16.9079 23.9757 16.7861 23.9259C16.6642 23.8762 16.5534 23.8028 16.46 23.7102L8.28998 15.5402C7.82435 15.0757 7.45492 14.524 7.20286 13.9165C6.95079 13.3091 6.82104 12.6578 6.82104 12.0002C6.82104 11.3425 6.95079 10.6913 7.20286 10.0838C7.45492 9.47639 7.82435 8.92463 8.28998 8.46017L16.46 0.290185C16.5532 0.196947 16.6639 0.122986 16.7857 0.0725256C16.9076 0.0220653 17.0381 -0.00390625 17.17 -0.00390625C17.3018 -0.00390625 17.4324 0.0220653 17.5542 0.0725256C17.6761 0.122986 17.7867 0.196947 17.88 0.290185C17.9732 0.383423 18.0472 0.494114 18.0976 0.615935C18.1481 0.737757 18.1741 0.868325 18.1741 1.00018C18.1741 1.13204 18.1481 1.26261 18.0976 1.38443C18.0472 1.50625 17.9732 1.61694 17.88 1.71018L9.70998 9.88017C9.14818 10.4427 8.83262 11.2052 8.83262 12.0002C8.83262 12.7952 9.14818 13.5577 9.70998 14.1202L17.88 22.2902C17.9737 22.3831 18.0481 22.4937 18.0989 22.6156C18.1496 22.7374 18.1758 22.8681 18.1758 23.0002C18.1758 23.1322 18.1496 23.2629 18.0989 23.3847C18.0481 23.5066 17.9737 23.6172 17.88 23.7102C17.7865 23.8028 17.6757 23.8762 17.5539 23.9259C17.4321 23.9757 17.3016 24.0009 17.17 24.0002Z" fill="#374957"/>
</g>
<defs>
<clipPath id="clip0_3575_1483">
<rect width="24" height="24" fill="white"/>
</clipPath>
</defs>
</svg>
