<svg width="12" height="18" viewBox="0 0 12 18" fill="none" xmlns="http://www.w3.org/2000/svg">
<path d="M6 0C6 0 0 8.84874 0 12.1008C0 15.3529 2.69231 18 6 18C9.30769 18 12 15.3529 12 12.1008C12 8.84874 6 0 6 0ZM10.0385 12.1387C9.65385 14.0294 7.96154 15.3908 6 15.3908C4.03846 15.3908 2.34615 14.0294 1.96154 12.1387C1.92308 11.9496 2.03846 11.7605 2.26923 11.7227C2.46154 11.6849 2.65385 11.7983 2.69231 12.0252C3 13.5756 4.42308 14.6723 6 14.6723C7.61538 14.6723 9 13.5378 9.30769 12.0252C9.34615 11.8361 9.53846 11.6849 9.73077 11.7227C9.96154 11.7605 10.0769 11.9496 10.0385 12.1387Z" fill="#F2F2F2"/>
</svg>
