<svg width="23" height="15" viewBox="0 0 23 15" fill="none" xmlns="http://www.w3.org/2000/svg">
<path d="M21.8813 6.45149L0.881417 6.51309C0.431419 6.51441 0.0200209 6.89062 0.0214509 7.37812C0.0227709 7.82812 0.398979 8.23952 0.886477 8.23809L21.8864 8.17649C22.3364 8.17517 22.7478 7.79896 22.7464 7.31146C22.7449 6.82396 22.3313 6.45017 21.8813 6.45149Z" fill="#F3F2F1"/>
<path d="M21.9001 12.8265L0.900216 12.8881C0.450218 12.8894 0.0388197 13.2656 0.0402497 13.7531C0.0416797 14.2406 0.417778 14.6145 0.905276 14.6131L21.9052 14.5515C22.3552 14.5502 22.7666 14.174 22.7652 13.6865C22.7637 13.199 22.3501 12.8252 21.9001 12.8265Z" fill="#F3F2F1"/>
<path d="M0.867678 1.78887L21.8676 1.72727C22.3176 1.72595 22.729 1.34974 22.7276 0.862242C22.7261 0.374744 22.35 0.000845899 21.8625 0.00227591L0.862618 0.0638762C0.41262 0.0651962 0.00122208 0.441404 0.00265208 0.928902C0.00408209 1.4164 0.41768 1.79019 0.867678 1.78887Z" fill="#F3F2F1"/>
</svg>
