<svg width="98" height="20" viewBox="0 0 98 20" fill="none" xmlns="http://www.w3.org/2000/svg">
<path d="M6.55462 0C6.55462 0 0 9.83193 0 13.4454C0 17.0588 2.94118 20 6.55462 20C10.1681 20 13.1092 17.0588 13.1092 13.4454C13.1092 9.83193 6.55462 0 6.55462 0ZM10.9664 13.4874C10.5462 15.5882 8.69748 17.1008 6.55462 17.1008C4.41176 17.1008 2.56302 15.5882 2.14286 13.4874C2.10084 13.2773 2.22689 13.0672 2.47899 13.0252C2.68908 12.9832 2.89916 13.1092 2.94118 13.3613C3.27731 15.084 4.83193 16.3025 6.55462 16.3025C8.31933 16.3025 9.83193 15.042 10.1681 13.3613C10.2101 13.1513 10.4202 12.9832 10.6303 13.0252C10.8824 13.0672 11.0084 13.2773 10.9664 13.4874Z" fill="#BB0A08"/>
<path d="M24.6639 8.19413C23.4033 8.19413 22.3109 8.74035 21.7647 10.0429V5.58909C21.7647 5.379 21.5966 5.21094 21.3865 5.21094H18.1092C17.8991 5.21094 17.7311 5.379 17.7311 5.58909V17.0177H21.7647V14.4967C21.7647 12.2277 22.1008 10.8832 22.8991 10.8832C23.3613 10.8832 23.4454 11.4294 23.4454 12.3538V17.0177H27.3949V11.5135C27.3529 9.45463 26.6807 8.19413 24.6639 8.19413Z" fill="#BB0A08"/>
<path d="M32.3109 13.9497C34.7059 13.7816 36.8907 12.8152 36.8907 10.7984C36.8907 9.07571 35.2521 8.19336 33.1933 8.19336C30.2101 8.19336 27.9832 9.95807 27.9832 13.1093C27.9832 16.4287 30.5042 17.395 33.0252 17.395C34.4118 17.395 35.5042 17.1009 36.3445 16.5547C36.4286 16.5127 36.5126 16.3866 36.5126 16.2606L36.5966 14.4959C36.5966 14.2438 36.3445 14.0337 36.0924 14.1597C35.4202 14.4959 34.5798 14.6219 33.9076 14.6219C33.1092 14.6219 32.605 14.4118 32.3109 13.9497ZM33.0252 10.3782C33.2773 10.3782 33.5714 10.4623 33.5714 10.9245C33.5714 11.5967 32.8992 11.9749 31.9748 12.1429C32.0588 10.9665 32.3949 10.3782 33.0252 10.3782Z" fill="#BB0A08"/>
<path d="M49.4958 8.19336C48.1933 8.19336 47.2269 8.78159 46.7227 10.3362C46.5546 8.99168 45.7143 8.19336 44.2017 8.19336C42.8571 8.19336 41.8907 8.82361 41.3865 10.4623L41.1765 8.82361C41.1344 8.65554 41.0084 8.48748 40.8403 8.48748H37.8991C37.6891 8.48748 37.521 8.65554 37.521 8.86563V17.0169H41.4706V14.4959C41.4706 12.227 41.4706 10.8824 42.2689 10.8824C42.6891 10.8824 42.8151 11.4287 42.8151 12.353V17.0169H46.7647V14.4959C46.7647 12.227 46.7647 10.8824 47.563 10.8824C48.0252 10.8824 48.1092 11.4287 48.1092 12.353V17.0169H52.0588V11.5127C52.1008 9.45386 51.3865 8.19336 49.4958 8.19336Z" fill="#BB0A08"/>
<path d="M57.647 8.19336C54.6638 8.19336 52.647 9.91605 52.647 12.8992C52.647 15.8824 54.6638 17.395 57.563 17.395C60.5042 17.395 62.479 15.8824 62.479 12.8572C62.563 10.0001 60.7143 8.19336 57.647 8.19336ZM57.605 15.2102C56.9748 15.2102 56.6806 14.6639 56.6806 12.7732C56.6806 11.0505 56.8907 10.3782 57.605 10.3782C58.3193 10.3782 58.4874 11.0505 58.4874 12.7732C58.5294 14.6219 58.3193 15.2102 57.605 15.2102Z" fill="#BB0A08"/>
<path d="M67.8992 15.7992C66.1345 15.7992 65.2941 14.7068 65.2941 12.9841C65.2941 10.9673 66.4286 9.95887 68.0672 9.95887C68.4874 9.95887 68.9076 10.0429 69.2857 10.169C69.4958 10.253 69.7479 10.0849 69.7479 9.83282L69.7899 9.16055C69.7899 8.99248 69.7059 8.86643 69.5798 8.82442C68.9916 8.57231 68.2773 8.48828 67.6471 8.48828C65.084 8.48828 63.2353 10.0429 63.2353 12.9421C63.2353 15.6311 64.7479 17.2698 67.437 17.2698C68.1513 17.2698 69.1176 17.1017 69.7479 16.6816C69.8319 16.5975 69.916 16.5135 69.916 16.3874V15.7992C69.916 15.5471 69.6639 15.379 69.4118 15.4631C68.9916 15.7152 68.4874 15.7992 67.8992 15.7992Z" fill="#262626"/>
<path d="M71.6807 5.0422C70.7563 4.87413 69.958 5.75649 70.2521 6.68086C70.3781 7.01699 70.6722 7.31111 71.0084 7.43716C71.9328 7.77329 72.8151 6.97497 72.647 6.00859C72.563 5.5464 72.1428 5.12623 71.6807 5.0422ZM70.4622 9.07581V17.059H72.3949V9.07581C72.3949 8.86573 72.2269 8.69766 72.0168 8.69766H70.7983C70.5882 8.73968 70.4622 8.90775 70.4622 9.07581Z" fill="#262626"/>
<path d="M77.1429 8.48828C74.6218 8.48828 72.9832 10.169 72.9832 12.9C72.9832 15.6311 74.5798 17.2698 77.1008 17.2698C79.6218 17.2698 81.2605 15.6311 81.2605 12.9C81.2605 10.211 79.7479 8.48828 77.1429 8.48828ZM77.1429 16.0933C75.7563 16.0933 75 15.0429 75 12.9C75 10.7992 75.7563 9.74879 77.1429 9.74879C78.5294 9.74879 79.2857 10.8412 79.2857 12.9C79.2857 15.0009 78.5294 16.0933 77.1429 16.0933Z" fill="#262626"/>
<path d="M86.9748 8.48828C85.5462 8.48828 84.4538 9.2866 83.8235 10.6311L83.6975 9.07652C83.6975 8.90845 83.5294 8.74038 83.3613 8.74038H82.2689C82.0588 8.74038 81.8907 8.90845 81.8907 9.11853V17.1017H83.8235V13.3622C83.8235 11.5555 84.8319 9.91685 86.2185 9.91685C87.2269 9.91685 87.437 10.7992 87.437 12.3118V17.0177H89.3697V11.6395C89.3697 9.41265 88.5714 8.48828 86.9748 8.48828Z" fill="#262626"/>
<path d="M91.9328 13.5293C94.7059 13.5713 97.2269 12.6469 97.2269 10.6301C97.2269 9.20157 95.9664 8.5293 94.3697 8.5293C91.7647 8.5293 89.8739 10.336 89.8739 13.1932C89.8739 15.9663 91.7227 17.3108 94.0756 17.3108C95.126 17.3108 96.1765 17.0587 96.9748 16.5125C97.0588 16.4285 97.1008 16.3444 97.1008 16.2184V15.6722C97.1008 15.378 96.8067 15.21 96.5546 15.336C95.8823 15.7142 95.084 15.8402 94.4117 15.8402C92.8991 15.8402 92.1008 14.9999 91.9328 13.5293ZM94.2857 9.70577C94.8319 9.70577 95.5462 9.87383 95.5462 10.6722C95.5462 11.9747 93.7395 12.4369 91.9328 12.4789C92.0168 10.6722 93.0252 9.70577 94.2857 9.70577Z" fill="#262626"/>
</svg>
