<svg width="20" height="20" viewBox="0 0 20 20" fill="none" xmlns="http://www.w3.org/2000/svg">
<path d="M5.92437 0.207765C4.90293 0.255957 4.2054 0.418965 3.5956 0.658581C2.9645 0.904533 2.42959 1.23458 1.89736 1.76873C1.36514 2.30287 1.0374 2.83817 0.793173 3.47023C0.556821 4.08137 0.396693 4.77948 0.351573 5.80149C0.306453 6.82351 0.296469 7.15202 0.301461 9.759C0.306453 12.366 0.317973 12.6928 0.367509 13.7169C0.416277 14.7381 0.578709 15.4355 0.818325 16.0455C1.06466 16.6766 1.39432 17.2113 1.92866 17.7437C2.463 18.2761 2.99791 18.6031 3.63151 18.8477C4.24207 19.0837 4.94037 19.2446 5.9622 19.2893C6.98402 19.334 7.31292 19.3444 9.91912 19.3394C12.5253 19.3344 12.8535 19.3229 13.8774 19.2743C14.9013 19.2257 15.595 19.0622 16.2052 18.8237C16.8363 18.5768 17.3714 18.2477 17.9034 17.7132C18.4355 17.1786 18.763 16.643 19.0071 16.0105C19.2436 15.4 19.4043 14.7017 19.4487 13.6806C19.4934 12.6559 19.504 12.3287 19.499 9.72213C19.494 7.11554 19.4823 6.78876 19.4337 5.76501C19.3851 4.74127 19.2225 4.04604 18.9831 3.43567C18.7363 2.80457 18.4071 2.27023 17.8729 1.73743C17.3388 1.20463 16.8027 0.877269 16.1705 0.633813C15.5595 0.397461 14.8616 0.236373 13.8398 0.192213C12.8179 0.148053 12.489 0.136725 9.88188 0.141717C7.27471 0.146709 6.94831 0.157845 5.92437 0.207765ZM6.0365 17.5623C5.1005 17.5216 4.59228 17.366 4.25359 17.2359C3.80508 17.0631 3.48559 16.8542 3.14805 16.5199C2.81052 16.1856 2.60316 15.865 2.42805 15.4174C2.29653 15.0787 2.13813 14.5711 2.09436 13.6351C2.04674 12.6234 2.03676 12.3197 2.03119 9.75669C2.02562 7.19368 2.03541 6.89032 2.07976 5.87829C2.1197 4.94306 2.27618 4.43426 2.40616 4.09577C2.57896 3.64668 2.78709 3.32777 3.12213 2.99042C3.45717 2.65308 3.77685 2.44533 4.22479 2.27023C4.56309 2.13813 5.07074 1.98108 6.00636 1.93653C7.01877 1.88853 7.32213 1.87893 9.88476 1.87337C12.4474 1.8678 12.7515 1.8774 13.7643 1.92194C14.6995 1.96264 15.2085 2.11759 15.5466 2.24834C15.9953 2.42114 16.3146 2.62869 16.652 2.96431C16.9893 3.29993 17.1973 3.61845 17.3724 4.06735C17.5047 4.40469 17.6617 4.91215 17.7059 5.84834C17.7541 6.86076 17.765 7.16431 17.7696 9.72674C17.7742 12.2892 17.7652 12.5935 17.7209 13.6051C17.68 14.5411 17.5248 15.0496 17.3945 15.3886C17.2217 15.8369 17.0133 16.1566 16.6781 16.4938C16.3429 16.8309 16.0236 17.0387 15.5754 17.2138C15.2375 17.3457 14.7293 17.5031 13.7945 17.5477C12.782 17.5953 12.4787 17.6053 9.91509 17.6108C7.35151 17.6164 7.04892 17.606 6.0365 17.5623ZM13.8626 4.60975C13.863 4.83761 13.9309 5.06024 14.0579 5.24948C14.1848 5.43872 14.365 5.58608 14.5756 5.67291C14.7863 5.75974 15.018 5.78214 15.2414 5.73729C15.4648 5.69243 15.6699 5.58234 15.8307 5.42092C15.9915 5.2595 16.1009 5.05402 16.1449 4.83045C16.1889 4.60689 16.1657 4.37528 16.0781 4.16494C15.9905 3.95459 15.8425 3.77494 15.6528 3.64872C15.463 3.5225 15.2402 3.45537 15.0123 3.45583C14.7068 3.45644 14.4141 3.57834 14.1985 3.79473C13.9829 4.01113 13.8621 4.30429 13.8626 4.60975ZM4.97109 9.75016C4.97647 12.4727 7.18754 14.6748 9.90952 14.6696C12.6315 14.6644 14.8351 12.4535 14.8299 9.73096C14.8247 7.0084 12.6131 4.80578 9.89071 4.81116C7.16834 4.81653 4.96591 7.02799 4.97109 9.75016ZM6.70024 9.74671C6.69899 9.1138 6.88545 8.49473 7.23603 7.96779C7.58662 7.44084 8.08559 7.0297 8.66984 6.78633C9.2541 6.54297 9.89739 6.47833 10.5184 6.60057C11.1394 6.72282 11.7102 7.02647 12.1586 7.47312C12.607 7.91977 12.9129 8.48936 13.0376 9.10986C13.1623 9.73037 13.1002 10.3739 12.8592 10.9591C12.6181 11.5443 12.209 12.0449 11.6834 12.3976C11.1579 12.7503 10.5396 12.9392 9.90664 12.9404C9.48639 12.9413 9.07008 12.8594 8.68149 12.6994C8.2929 12.5393 7.93964 12.3043 7.64189 12.0078C7.34414 11.7112 7.10772 11.3589 6.94616 10.9709C6.78459 10.5829 6.70103 10.167 6.70024 9.74671Z" fill="#BB0A08"/>
</svg>
