<svg  viewBox="0 0 9 14" fill="none" xmlns="http://www.w3.org/2000/svg">
<path d="M4.375 6.6875C3.9606 6.6875 3.56317 6.52288 3.27015 6.22985C2.97712 5.93683 2.8125 5.5394 2.8125 5.125C2.8125 4.7106 2.97712 4.31317 3.27015 4.02015C3.56317 3.72712 3.9606 3.5625 4.375 3.5625C4.7894 3.5625 5.18683 3.72712 5.47985 4.02015C5.77288 4.31317 5.9375 4.7106 5.9375 5.125C5.9375 5.33019 5.89708 5.53337 5.81856 5.72294C5.74004 5.91251 5.62495 6.08476 5.47985 6.22985C5.33476 6.37495 5.16251 6.49004 4.97294 6.56856C4.78337 6.64708 4.58019 6.6875 4.375 6.6875ZM4.375 0.75C3.21468 0.75 2.10188 1.21094 1.28141 2.03141C0.460936 2.85188 0 3.96468 0 5.125C0 8.40625 4.375 13.25 4.375 13.25C4.375 13.25 8.75 8.40625 8.75 5.125C8.75 3.96468 8.28906 2.85188 7.46859 2.03141C6.64812 1.21094 5.53532 0.75 4.375 0.75Z" fill="#CD6D71"/>
</svg>
