<svg width="10" height="14" viewBox="0 0 10 14" fill="none" xmlns="http://www.w3.org/2000/svg">
<path d="M4.875 6.6875C4.4606 6.6875 4.06317 6.52288 3.77015 6.22985C3.47712 5.93683 3.3125 5.5394 3.3125 5.125C3.3125 4.7106 3.47712 4.31317 3.77015 4.02015C4.06317 3.72712 4.4606 3.5625 4.875 3.5625C5.2894 3.5625 5.68683 3.72712 5.97985 4.02015C6.27288 4.31317 6.4375 4.7106 6.4375 5.125C6.4375 5.33019 6.39708 5.53337 6.31856 5.72294C6.24004 5.91251 6.12495 6.08476 5.97985 6.22985C5.83476 6.37495 5.66251 6.49004 5.47294 6.56856C5.28337 6.64708 5.08019 6.6875 4.875 6.6875ZM4.875 0.75C3.71468 0.75 2.60188 1.21094 1.78141 2.03141C0.960936 2.85188 0.5 3.96468 0.5 5.125C0.5 8.40625 4.875 13.25 4.875 13.25C4.875 13.25 9.25 8.40625 9.25 5.125C9.25 3.96468 8.78906 2.85188 7.96859 2.03141C7.14812 1.21094 6.03532 0.75 4.875 0.75Z" fill="#BB0A08"/>
</svg>
