<svg width="16" height="16" viewBox="0 0 16 16" fill="none" xmlns="http://www.w3.org/2000/svg">
<g clip-path="url(#clip0_3826_1667)">
<path d="M8 16C7.29276 16 6.61448 15.719 6.11438 15.219C5.61428 14.7189 5.33333 14.0406 5.33333 13.3333V10.6667H2.66667C1.95942 10.6667 1.28115 10.3857 0.781049 9.88562C0.280952 9.38552 0 8.70724 0 8C0 7.29276 0.280952 6.61448 0.781049 6.11438C1.28115 5.61428 1.95942 5.33333 2.66667 5.33333H5.33333V2.66667C5.33333 1.95942 5.61428 1.28115 6.11438 0.781049C6.61448 0.280952 7.29276 0 8 0C8.70724 0 9.38552 0.280952 9.88562 0.781049C10.3857 1.28115 10.6667 1.95942 10.6667 2.66667V5.33333H13.3333C14.0406 5.33333 14.7189 5.61428 15.219 6.11438C15.719 6.61448 16 7.29276 16 8C16 8.70724 15.719 9.38552 15.219 9.88562C14.7189 10.3857 14.0406 10.6667 13.3333 10.6667H10.6667V13.3333C10.6667 14.0406 10.3857 14.7189 9.88562 15.219C9.38552 15.719 8.70724 16 8 16ZM2.66667 6.66667C2.31304 6.66667 1.97391 6.80714 1.72386 7.05719C1.47381 7.30724 1.33333 7.64638 1.33333 8C1.33333 8.35362 1.47381 8.69276 1.72386 8.94281C1.97391 9.19286 2.31304 9.33333 2.66667 9.33333H6C6.17681 9.33333 6.34638 9.40357 6.4714 9.5286C6.59643 9.65362 6.66667 9.82319 6.66667 10V13.3333C6.66667 13.687 6.80714 14.0261 7.05719 14.2761C7.30724 14.5262 7.64638 14.6667 8 14.6667C8.35362 14.6667 8.69276 14.5262 8.94281 14.2761C9.19286 14.0261 9.33333 13.687 9.33333 13.3333V10C9.33333 9.82319 9.40357 9.65362 9.5286 9.5286C9.65362 9.40357 9.82319 9.33333 10 9.33333H13.3333C13.687 9.33333 14.0261 9.19286 14.2761 8.94281C14.5262 8.69276 14.6667 8.35362 14.6667 8C14.6667 7.64638 14.5262 7.30724 14.2761 7.05719C14.0261 6.80714 13.687 6.66667 13.3333 6.66667H10C9.82319 6.66667 9.65362 6.59643 9.5286 6.4714C9.40357 6.34638 9.33333 6.17681 9.33333 6V2.66667C9.33333 2.31304 9.19286 1.97391 8.94281 1.72386C8.69276 1.47381 8.35362 1.33333 8 1.33333C7.64638 1.33333 7.30724 1.47381 7.05719 1.72386C6.80714 1.97391 6.66667 2.31304 6.66667 2.66667V6C6.66667 6.17681 6.59643 6.34638 6.4714 6.4714C6.34638 6.59643 6.17681 6.66667 6 6.66667H2.66667Z" fill="#52575C"/>
</g>
<defs>
<clipPath id="clip0_3826_1667">
<rect width="16" height="16" fill="white"/>
</clipPath>
</defs>
</svg>
