<svg width="17" height="17" viewBox="0 0 17 17" fill="none" xmlns="http://www.w3.org/2000/svg">
<path d="M8.5 16.5C7.79276 16.5 7.11448 16.219 6.61438 15.719C6.11428 15.2189 5.83333 14.5406 5.83333 13.8333V11.1667H3.16667C2.45942 11.1667 1.78115 10.8857 1.28105 10.3856C0.780952 9.88552 0.5 9.20724 0.5 8.5C0.5 7.79276 0.780952 7.11448 1.28105 6.61438C1.78115 6.11428 2.45942 5.83333 3.16667 5.83333H5.83333V3.16667C5.83333 2.45942 6.11428 1.78115 6.61438 1.28105C7.11448 0.780952 7.79276 0.5 8.5 0.5C9.20724 0.5 9.88552 0.780952 10.3856 1.28105C10.8857 1.78115 11.1667 2.45942 11.1667 3.16667V5.83333H13.8333C14.5406 5.83333 15.2189 6.11428 15.719 6.61438C16.219 7.11448 16.5 7.79276 16.5 8.5C16.5 9.20724 16.219 9.88552 15.719 10.3856C15.2189 10.8857 14.5406 11.1667 13.8333 11.1667H11.1667V13.8333C11.1667 14.5406 10.8857 15.2189 10.3856 15.719C9.88552 16.219 9.20724 16.5 8.5 16.5ZM3.16667 7.16667C2.81304 7.16667 2.47391 7.30714 2.22386 7.55719C1.97381 7.80724 1.83333 8.14638 1.83333 8.5C1.83333 8.85362 1.97381 9.19276 2.22386 9.44281C2.47391 9.69286 2.81304 9.83333 3.16667 9.83333H6.5C6.67681 9.83333 6.84638 9.90357 6.9714 10.0286C7.09643 10.1536 7.16667 10.3232 7.16667 10.5V13.8333C7.16667 14.187 7.30714 14.5261 7.55719 14.7761C7.80724 15.0262 8.14638 15.1667 8.5 15.1667C8.85362 15.1667 9.19276 15.0262 9.44281 14.7761C9.69286 14.5261 9.83333 14.187 9.83333 13.8333V10.5C9.83333 10.3232 9.90357 10.1536 10.0286 10.0286C10.1536 9.90357 10.3232 9.83333 10.5 9.83333H13.8333C14.187 9.83333 14.5261 9.69286 14.7761 9.44281C15.0262 9.19276 15.1667 8.85362 15.1667 8.5C15.1667 8.14638 15.0262 7.80724 14.7761 7.55719C14.5261 7.30714 14.187 7.16667 13.8333 7.16667H10.5C10.3232 7.16667 10.1536 7.09643 10.0286 6.9714C9.90357 6.84638 9.83333 6.67681 9.83333 6.5V3.16667C9.83333 2.81304 9.69286 2.47391 9.44281 2.22386C9.19276 1.97381 8.85362 1.83333 8.5 1.83333C8.14638 1.83333 7.80724 1.97381 7.55719 2.22386C7.30714 2.47391 7.16667 2.81304 7.16667 3.16667V6.5C7.16667 6.67681 7.09643 6.84638 6.9714 6.9714C6.84638 7.09643 6.67681 7.16667 6.5 7.16667H3.16667Z" fill="#F9F9FA"/>
</svg>
