<svg width="283" height="327" viewBox="0 0 283 327" fill="none" xmlns="http://www.w3.org/2000/svg">
<g clip-path="url(#clip0_3325_3297)">
<path d="M233.587 36.7331L232.115 34.3321C219.769 14.0164 197.43 1.7992 173.887 3.28595C170.857 3.46895 167.844 3.87951 164.876 4.51413C143.509 9.08517 124.838 25.227 117.113 45.9029C112.575 58.0554 111.306 72.0548 102.684 81.7048C91.4681 94.2728 72.4263 94.633 55.6906 94.1436C38.9548 93.6541 19.8945 94.0697 8.73424 106.675C1.74173 114.57 -0.481046 125.799 0.0839119 136.382C1.57503 164.381 21.1448 189.415 46.0307 201.863C70.9166 214.311 100.22 215.419 127.459 209.943C165.607 202.279 201.894 181.215 223.705 148.691C245.516 116.168 251.036 71.8424 233.587 36.7331Z" fill="#CD6D71"/>
<path d="M98.4164 138.984L99.7781 144.504L116.858 147.774V155.059C116.858 155.059 94.2462 157.079 92.0466 155.922C89.8469 154.764 86.4623 142.15 86.4623 142.15L98.4164 138.984Z" fill="#FFBE9D"/>
<path d="M99.4377 144.785C99.49 144.877 98.4819 145.439 97.5522 146.479C96.6226 147.519 96.1316 148.552 96.0334 148.513C96.2743 147.671 96.707 146.897 97.2976 146.25C97.8882 145.603 98.6207 145.102 99.4377 144.785Z" fill="#EB996E"/>
<path d="M98.4164 138.984L99.7781 144.504L116.858 147.774V155.059C116.858 155.059 94.2462 157.079 92.0466 155.922C89.8469 154.764 86.4623 142.15 86.4623 142.15L98.4164 138.984Z" fill="#FFBE9D"/>
<path d="M74.0696 103.141L69.2971 102.107L52.2563 103.507L48.6229 105.07L64.1776 123.256L74.0696 103.141Z" fill="#FFBE9D"/>
<path d="M80.3478 84.0967C79.7979 80.2427 79.2501 76.3909 78.7046 72.5412L66.3839 70.4551L63.5557 101.675L81.153 102.983C81.7789 102.011 82.0877 100.868 82.0368 99.7132C81.8273 95.3252 80.5835 85.7643 80.3478 84.0967Z" fill="#263238"/>
<path d="M46.2072 76.0736C46.4611 73.509 47.2247 71.0208 48.4534 68.7548C49.6821 66.4887 51.3511 64.4903 53.3626 62.8767C56.996 60.0778 61.1138 59.3192 65.6964 59.5481C67.9485 59.6658 70.4885 60.7252 72.446 61.85C75.1301 63.3999 76.243 66.4996 77.5196 69.3182C80.0793 74.9619 79.6866 82.574 77.9059 84.6732L45.7489 103.638C41.5984 101.434 42.1417 94.0771 43.5623 89.604C44.8436 85.1811 45.7287 80.6531 46.2072 76.0736Z" fill="#263238"/>
<path d="M53.9453 67.1465L68.793 62.9023C73.5655 62.2484 76.937 68.0424 77.3887 72.836C77.8928 78.1592 78.2921 84.6857 77.788 88.6814C76.7668 96.7316 70.6522 97.9415 70.6522 97.9415C70.6522 97.9415 70.6522 98.0592 70.6522 100.44L70.7635 103.899C68.9501 110.439 56.2563 109.366 54.9077 104.743L51.5034 70.0828C51.466 69.3763 51.6966 68.6816 52.1492 68.1374C52.6018 67.5931 53.2431 67.2393 53.9453 67.1465Z" fill="#FFBE9D"/>
<path d="M75.5295 80.5972C75.5403 80.8652 75.4456 81.1269 75.2658 81.3261C75.0859 81.5253 74.8351 81.6463 74.5671 81.6632C74.4369 81.6785 74.3049 81.6675 74.179 81.6307C74.0531 81.594 73.9359 81.5323 73.8345 81.4492C73.733 81.3662 73.6494 81.2636 73.5885 81.1475C73.5277 81.0315 73.4909 80.9044 73.4804 80.7738C73.4694 80.5061 73.563 80.2447 73.7413 80.0446C73.9196 79.8445 74.1688 79.7214 74.4362 79.7013C74.5671 79.6868 74.6997 79.6987 74.8259 79.7361C74.9522 79.7736 75.0698 79.8359 75.1716 79.9193C75.2735 80.0028 75.3576 80.1058 75.4191 80.2222C75.4805 80.3386 75.5181 80.4661 75.5295 80.5972Z" fill="#263238"/>
<path d="M75.9812 77.4783C75.8568 77.6156 75.0647 77.0663 73.9583 77.099C72.8519 77.1317 72.0597 77.7137 71.9354 77.5829C71.811 77.4521 71.9943 77.2821 72.3413 77.014C72.8075 76.6665 73.3702 76.4723 73.9517 76.4581C74.5288 76.4421 75.0965 76.6068 75.5753 76.9289C75.9223 77.1644 76.0466 77.4129 75.9812 77.4783Z" fill="#263238"/>
<path d="M65.1989 80.4891C65.2099 80.7568 65.1163 81.0183 64.938 81.2183C64.7597 81.4184 64.5105 81.5415 64.2431 81.5616C64.1125 81.5761 63.9804 81.5642 63.8545 81.5266C63.7285 81.4891 63.6115 81.4267 63.5101 81.3432C63.4088 81.2597 63.3253 81.1566 63.2645 81.0403C63.2037 80.9239 63.167 80.7965 63.1564 80.6657C63.1438 80.3983 63.237 80.1367 63.4158 79.9372C63.5946 79.7378 63.8447 79.6166 64.1122 79.5998C64.2423 79.5853 64.3739 79.597 64.4994 79.6341C64.6249 79.6712 64.7418 79.733 64.843 79.8159C64.9443 79.8988 65.0279 80.001 65.089 80.1166C65.1502 80.2322 65.1875 80.3589 65.1989 80.4891Z" fill="#263238"/>
<path d="M65.1793 77.5174C65.0549 77.6547 64.2562 77.1054 63.1498 77.1381C62.0435 77.1708 61.2513 77.792 61.1269 77.622C61.0026 77.452 61.1859 77.3212 61.5328 77.0531C62.0011 76.7048 62.5662 76.5105 63.1498 76.4972C63.7249 76.4809 64.2906 76.6456 64.7669 76.968C65.1138 77.2166 65.2382 77.452 65.1793 77.5174Z" fill="#263238"/>
<path d="M69.3691 85.2632C69.945 85.065 70.543 84.9376 71.1498 84.8839C71.4313 84.8512 71.6997 84.7858 71.739 84.5896C71.7564 84.2978 71.6833 84.0078 71.5295 83.7591L70.626 81.6402C69.3691 78.6124 68.4526 76.1274 68.5704 76.0751C68.6883 76.0227 69.8143 78.4358 71.0647 81.4571C71.3724 82.2027 71.6604 82.9155 71.9354 83.5956C72.1254 83.9307 72.1903 84.3223 72.1187 84.7008C72.0795 84.8006 72.0186 84.8904 71.9405 84.9639C71.8624 85.0374 71.769 85.0927 71.667 85.1259C71.5113 85.1707 71.3509 85.197 71.1891 85.2043C70.5877 85.3046 69.9757 85.3244 69.3691 85.2632Z" fill="#263238"/>
<path d="M70.6522 97.9425C66.8711 98.3657 63.0512 97.6144 59.7129 95.791C59.7129 95.791 62.6654 101.232 70.6653 100.231L70.6522 97.9425Z" fill="#EB996E"/>
<path d="M65.7357 87.4534C65.8623 87.2453 66.0387 87.0718 66.2489 86.9486C66.4591 86.8253 66.6967 86.7561 66.9403 86.7471C67.2817 86.7107 67.6266 86.7668 67.9387 86.9095C68.2509 87.0522 68.5189 87.2762 68.7144 87.558C68.856 87.8203 68.8935 88.1262 68.8192 88.4147C68.7603 88.5586 68.8192 88.4867 68.6948 88.5913C68.3275 88.9935 67.8665 89.299 67.3527 89.4807C67.0747 89.5597 66.7792 89.5533 66.5049 89.4624C66.2305 89.3714 65.9899 89.2 65.8143 88.9706C65.6629 88.7493 65.5755 88.4907 65.5616 88.223C65.5478 87.9554 65.608 87.6891 65.7357 87.4534Z" fill="#EB996E"/>
<path d="M65.9387 86.1778C66.1155 86.1778 66.1613 87.3615 67.248 88.1724C68.3348 88.9833 69.5786 88.8264 69.5983 88.9768C69.5983 89.0487 69.3168 89.2187 68.7799 89.2514C68.0746 89.2893 67.3787 89.0761 66.8159 88.6498C66.2711 88.2451 65.905 87.6449 65.7947 86.9757C65.7292 86.4721 65.8536 86.1713 65.9387 86.1778Z" fill="#263238"/>
<path d="M65.5721 74.0264C65.487 74.3337 64.3741 74.2945 63.0975 74.5626C61.8209 74.8308 60.7996 75.282 60.6032 75.0269C60.5181 74.9027 60.6752 74.6084 61.068 74.2814C61.5968 73.8695 62.2162 73.5893 62.8749 73.464C63.5243 73.3244 64.1978 73.3424 64.8389 73.5163C65.3364 73.6667 65.6048 73.8956 65.5721 74.0264Z" fill="#263238"/>
<path d="M75.9288 75.0537C75.6735 75.2695 74.8748 74.8836 73.8601 74.7136C72.8454 74.5436 71.9681 74.5959 71.811 74.3081C71.7455 74.1643 71.9157 73.9419 72.3282 73.7588C72.8849 73.5543 73.4862 73.5023 74.0698 73.6081C74.6534 73.7139 75.1981 73.9736 75.6473 74.3605C75.9616 74.6744 76.0401 74.949 75.9288 75.0537Z" fill="#263238"/>
<path d="M68.8061 62.3455C69.2552 65.5856 68.8022 68.8868 67.4968 71.8867C67.1648 72.7362 66.6586 73.5069 66.0107 74.1494C65.6827 74.4663 65.2854 74.7027 64.8503 74.84C64.4152 74.9773 63.9541 75.0118 63.5034 74.9407C64.8764 73.1548 65.6569 70.9851 65.7357 68.7346C64.7734 71.0039 63.7718 73.3124 62.1613 75.1761C60.5508 77.0399 58.1482 78.4002 55.6867 78.1647L55.8635 76.5233C55.5588 77.7276 54.8693 78.7998 53.8995 79.5773C53.4066 79.9515 52.8074 80.1594 52.1884 80.1712C51.5694 80.1829 50.9627 79.9979 50.456 79.6427C51.3005 75.6404 48.8586 71.2785 50.4167 67.4921C51.4903 64.8763 54.2268 63.3068 56.9633 62.4566C60.7993 61.2722 64.8808 61.1233 68.793 62.025" fill="#263238"/>
<path d="M68.4788 62.4121C68.4788 62.4711 68.4788 62.5302 68.5116 62.5892L68.4788 62.4121Z" fill="#263238"/>
<path d="M68.5115 62.5905L69.0025 62.3878C70.5148 61.6161 71.5099 60.7332 73.8535 62.8194C75.212 64.1227 76.3037 65.6775 77.0679 67.3971C77.8797 68.9356 78.4724 70.5799 78.8289 72.2822C79.1751 74.3133 79.2258 76.3838 78.9795 78.4294C77.6178 77.5269 76.9304 75.9116 76.4984 74.3421C76.0663 72.7726 75.8437 71.1247 75.0254 69.699C75.3263 71.0285 75.4038 72.3987 75.2545 73.7536C75.2251 74.1282 75.068 74.4813 74.8093 74.7541C74.6769 74.8851 74.4981 74.9586 74.3118 74.9586C74.1255 74.9586 73.9467 74.8851 73.8143 74.7541C74.2691 73.1797 74.2691 71.5089 73.8143 69.9345C73.3676 68.3695 72.7645 66.8534 72.0139 65.4091C72.3683 68.1221 72.2554 70.8758 71.6801 73.5509C71.6323 73.9426 71.4733 74.3125 71.2218 74.6168C70.9888 74.796 70.7176 74.9193 70.4293 74.9771C70.1409 75.035 69.8432 75.0258 69.559 74.9503C68.9912 74.7977 68.3968 74.7709 67.8176 74.8718C69.1602 70.9168 69.4001 66.6713 68.5115 62.5905Z" fill="#263238"/>
<path d="M58.0238 93.9774C56.7865 89.3146 57.5918 77.3537 56.0206 72.7891L49.834 73.6L45.7489 103.61L60.0664 104.16L58.0238 93.9774Z" fill="#263238"/>
<path d="M78.266 289.428L77.6113 301.474C77.6113 301.474 89.6571 305.293 89.7553 307.53L66.325 308.007L66.5475 289.199L78.266 289.428Z" fill="#455A64"/>
<g opacity="0.6">
<path d="M70.4035 300.335C70.1803 300.405 69.9905 300.554 69.8698 300.754C69.7492 300.954 69.7061 301.191 69.7488 301.421C69.8119 301.644 69.9567 301.835 70.1544 301.956C70.3522 302.078 70.5883 302.12 70.8159 302.075C71.0546 302.005 71.2592 301.85 71.3908 301.639C71.5224 301.428 71.5717 301.176 71.5295 300.931C71.4475 300.698 71.2779 300.506 71.0566 300.396C70.8353 300.286 70.5799 300.267 70.3446 300.342" fill="white"/>
</g>
<g opacity="0.6">
<path d="M66.3446 308.013V306.123L88.9827 306.444C89.2236 306.564 89.4306 306.742 89.5849 306.963C89.7393 307.183 89.8361 307.438 89.8665 307.706L66.3446 308.013Z" fill="white"/>
</g>
<path d="M78.0106 301.364C78.0106 301.482 77.4345 301.521 76.865 301.881C76.2954 302.24 75.9877 302.711 75.883 302.665C75.7782 302.62 75.9615 301.959 76.6555 301.541C77.3494 301.122 78.0368 301.259 78.0106 301.364Z" fill="#263238"/>
<path d="M80.4525 302.421C80.4525 302.532 79.9746 302.716 79.5818 303.193C79.189 303.67 79.0646 304.18 78.9272 304.174C78.7897 304.167 78.7504 303.52 79.261 302.938C79.7717 302.356 80.4525 302.31 80.4525 302.421Z" fill="#263238"/>
<path d="M81.7946 305.399C81.6898 305.399 81.5458 304.843 81.8469 304.221C82.1481 303.6 82.6914 303.365 82.7373 303.463C82.7831 303.561 82.4492 303.888 82.207 304.398C81.9648 304.908 81.9124 305.399 81.7946 305.399Z" fill="#263238"/>
<path d="M77.8535 298.604C77.8011 298.708 77.2774 298.538 76.6359 298.571C75.9943 298.604 75.4771 298.8 75.4182 298.702C75.3593 298.604 75.8568 298.205 76.6162 298.172C77.3756 298.139 77.9124 298.512 77.8535 298.604Z" fill="#263238"/>
<path d="M77.9386 296.171C77.553 296.277 77.1459 296.277 76.7602 296.171C76.0898 296.035 75.4504 295.776 74.8748 295.406C74.7451 295.331 74.628 295.236 74.5278 295.125C74.4526 295.044 74.4071 294.939 74.3988 294.829C74.3905 294.718 74.4198 294.608 74.482 294.517C74.5416 294.439 74.6179 294.376 74.7051 294.332C74.7923 294.288 74.8883 294.264 74.9861 294.262C75.1346 294.263 75.2822 294.285 75.4247 294.327C75.6742 294.396 75.9173 294.485 76.1514 294.595C76.5456 294.779 76.9081 295.024 77.225 295.321C77.7553 295.831 77.9386 296.263 77.8797 296.282C77.8208 296.302 77.5655 295.955 77.0221 295.53C76.7018 295.287 76.352 295.085 75.9812 294.929C75.7695 294.837 75.5505 294.762 75.3265 294.706C75.0778 294.641 74.8683 294.634 74.8028 294.739C74.7373 294.844 74.8028 294.798 74.8028 294.876C74.8791 294.954 74.9649 295.022 75.0581 295.079C75.2559 295.213 75.4614 295.335 75.6735 295.445C76.0332 295.632 76.4103 295.783 76.7995 295.897C77.1861 295.957 77.567 296.049 77.9386 296.171Z" fill="#263238"/>
<path d="M77.7749 296.332C77.5649 295.991 77.4644 295.594 77.4869 295.194C77.4712 294.751 77.5333 294.308 77.6702 293.886C77.7505 293.641 77.8535 293.405 77.9779 293.18C78.0442 293.026 78.1489 292.892 78.2818 292.79C78.4147 292.688 78.5715 292.622 78.7373 292.598C78.8421 292.602 78.9434 292.637 79.0292 292.697C79.1151 292.757 79.1819 292.841 79.2217 292.938C79.2827 293.075 79.3225 293.22 79.3396 293.369C79.3757 293.63 79.3757 293.894 79.3396 294.154C79.2659 294.592 79.0861 295.005 78.8158 295.357C78.3445 295.959 77.8666 296.083 77.86 296.044C77.8535 296.005 78.2266 295.776 78.5867 295.2C78.7931 294.866 78.9249 294.492 78.973 294.102C79.0003 293.885 79.0003 293.665 78.973 293.448C78.9402 293.193 78.8486 292.99 78.7569 293.016C78.6653 293.042 78.4361 293.199 78.3379 293.395C78.2177 293.604 78.1169 293.823 78.0368 294.049C77.8995 294.424 77.8157 294.816 77.788 295.213C77.7291 295.881 77.847 296.312 77.7749 296.332Z" fill="#263238"/>
<path d="M53.7816 288.119L53.3299 303.677L49.402 315.873C49.3344 316.081 49.3105 316.3 49.3316 316.518C49.3528 316.735 49.4185 316.946 49.5248 317.137C49.6311 317.327 49.7756 317.494 49.9493 317.627C50.123 317.759 50.3223 317.855 50.5345 317.907C50.7818 317.969 51.0403 317.971 51.2885 317.913C51.5367 317.855 51.7675 317.738 51.9617 317.573C54.4494 315.415 63.5754 307.457 63.5492 306.319C63.5099 305.011 65.1073 289.97 65.1073 289.97L53.7816 288.119Z" fill="#455A64"/>
<g opacity="0.6">
<path d="M50.5607 317.907L63.6539 305.266L63.6212 305.92C63.5906 306.489 63.3586 307.029 62.9665 307.443C61.9191 308.555 58.96 311.55 52.0599 317.567C51.8607 317.739 51.622 317.859 51.3651 317.917C51.1082 317.976 50.841 317.97 50.5869 317.9L50.5607 317.907Z" fill="white"/>
</g>
<g opacity="0.6">
<path d="M60.6949 300.094C60.4953 300.223 60.3512 300.422 60.2907 300.652C60.2302 300.882 60.2576 301.126 60.3675 301.337C60.4903 301.54 60.6868 301.688 60.916 301.75C61.1452 301.812 61.3896 301.783 61.5983 301.67C61.8061 301.532 61.9557 301.322 62.0185 301.081C62.0813 300.84 62.0529 300.584 61.9387 300.362C61.789 300.166 61.5696 300.035 61.3259 299.996C61.0822 299.958 60.8329 300.014 60.6294 300.153" fill="white"/>
</g>
<path d="M54.469 311.283C54.3839 311.323 54.0697 310.492 53.1597 310.008C52.6038 309.751 52.0039 309.602 51.3921 309.57C51.3921 309.531 51.582 309.42 51.9486 309.387C52.4302 309.359 52.9097 309.471 53.3299 309.707C53.7532 309.938 54.0992 310.289 54.325 310.714C54.4952 311.061 54.5083 311.283 54.469 311.283Z" fill="#263238"/>
<path d="M53.2579 313.33C52.441 312.693 51.4396 312.337 50.4036 312.316C50.6503 312.178 50.9265 312.102 51.209 312.093C51.4915 312.084 51.7721 312.142 52.0272 312.264C52.9306 312.591 53.3365 313.291 53.2579 313.33Z" fill="#263238"/>
<path d="M56.6687 308.746C56.0498 308.259 55.3931 307.821 54.7047 307.438C53.9599 307.165 53.1963 306.947 52.4199 306.784C53.243 306.61 54.1011 306.733 54.8422 307.131C55.6257 307.432 56.2742 308.005 56.6687 308.746Z" fill="#263238"/>
<path d="M57.2055 304.025C57.1597 304.116 56.3152 303.717 55.2022 303.619C54.0893 303.521 53.1859 303.744 53.1532 303.619C53.7818 303.255 54.5195 303.125 55.235 303.253C55.9621 303.272 56.6595 303.545 57.2055 304.025Z" fill="#263238"/>
<path d="M57.4805 299.466C56.8169 299.209 56.1205 299.046 55.4117 298.982C54.6977 299.022 53.9926 299.16 53.3168 299.394C53.3168 299.355 53.474 299.172 53.8471 298.982C54.3357 298.744 54.8748 298.627 55.4183 298.642C55.9593 298.648 56.4912 298.782 56.9698 299.034C57.3037 299.237 57.4805 299.433 57.4805 299.466Z" fill="#263238"/>
<path d="M55.451 298.111C55.4062 297.917 55.4062 297.716 55.451 297.523C55.5291 296.987 55.7162 296.473 56.0009 296.012C56.1747 295.653 56.4623 295.361 56.8193 295.181C56.9429 295.137 57.077 295.13 57.2043 295.163C57.3315 295.196 57.446 295.266 57.5328 295.364C57.6929 295.566 57.768 295.822 57.7423 296.077C57.6767 296.595 57.4333 297.073 57.0535 297.431C56.6738 297.789 56.1814 298.004 55.6605 298.039C55.1431 298.064 54.6299 297.935 54.1859 297.668C53.742 297.402 53.3871 297.01 53.1663 296.542C53.1111 296.423 53.0826 296.293 53.0826 296.162C53.0826 296.031 53.1111 295.902 53.1663 295.783C53.2348 295.676 53.3333 295.591 53.4496 295.538C53.5659 295.486 53.695 295.469 53.8209 295.489C54.1979 295.592 54.541 295.793 54.816 296.071C55.221 296.43 55.56 296.857 55.8176 297.333C55.9261 297.499 55.9976 297.686 56.0271 297.882C55.6525 297.276 55.1916 296.727 54.6589 296.254C54.4099 296.021 54.1058 295.854 53.7751 295.77C53.7052 295.753 53.6318 295.759 53.5657 295.788C53.4997 295.816 53.4445 295.865 53.4085 295.927C53.3789 296.007 53.3666 296.093 53.3722 296.179C53.3778 296.264 53.4013 296.348 53.4412 296.424C53.6434 296.823 53.9566 297.156 54.3432 297.382C54.7299 297.608 55.1736 297.718 55.6212 297.699C56.0621 297.665 56.4784 297.482 56.8027 297.182C57.1271 296.882 57.3405 296.481 57.4085 296.045C57.4291 295.865 57.385 295.684 57.2841 295.535C57.2368 295.48 57.174 295.44 57.1039 295.422C57.0338 295.403 56.9597 295.406 56.8913 295.43C56.5961 295.573 56.3501 295.801 56.1842 296.084C55.8193 296.71 55.5708 297.397 55.451 298.111Z" fill="#263238"/>
<path d="M70.6195 189.21L67.5622 297.303L50.9339 298.643L37.0681 186.725L70.6195 189.21Z" fill="#BB0A08"/>
<path d="M93.0416 187.836C93.0416 187.836 90.7896 222.143 88.6423 234.999C86.495 247.856 81.2643 294.314 78.8224 295.386C76.3805 296.459 62.1089 295 62.1089 295L57.0157 188.922L93.0416 187.836Z" fill="#BB0A08"/>
<g opacity="0.3">
<path d="M92.5768 194.559L92.4328 196.494L65.9583 199.83L58.3184 195.487L42.9863 194.696L92.5768 194.559Z" fill="black"/>
</g>
<path d="M68.1318 296.242C68.2234 296.242 67.811 274.112 67.2087 246.829C66.6064 219.545 66.05 197.415 65.9583 197.422C65.8667 197.428 66.2856 219.539 66.8879 246.835C67.4902 274.131 68.0467 296.242 68.1318 296.242Z" fill="#263238"/>
<path d="M87.4378 142.863L100.688 138.187C100.688 138.187 92.2495 109.211 90.7634 108.87C89.2773 108.53 73.0352 101.422 73.0352 101.422L63.2677 121.113L48.3545 104.07C48.3545 104.07 34.4429 114.495 33.6115 116.81C32.7801 119.125 44.217 152.385 44.217 152.385C44.217 152.385 39.0779 160.331 38.0894 169.264C37.1009 178.197 39.078 195.075 39.078 195.075L95.5294 194.559C95.5294 194.559 96.1316 169.63 91.8371 156.629C90.1284 151.476 88.2888 145.603 87.4378 142.863Z" fill="#BB0A08"/>
<path d="M59.3397 129.196C59.2448 129.151 59.1463 129.114 59.0451 129.085C58.7485 128.982 58.4409 128.914 58.1286 128.882C56.9454 128.779 55.7533 128.908 54.6196 129.262C53.1466 129.654 51.4052 130.288 49.3823 130.968C48.3807 131.309 47.3136 131.622 46.1679 131.943C44.9866 132.282 43.7691 132.48 42.5411 132.531H42.4233V132.695C43.2809 137.423 44.2825 142.969 45.3431 148.867C45.402 149.175 45.4544 149.469 45.5067 149.763L45.546 149.973L45.7359 149.888C47.0888 149.268 48.4353 148.691 49.7751 148.155C51.0508 147.609 52.3634 147.155 53.7031 146.794C56.2081 146.286 58.7456 145.954 61.2971 145.8H61.4477V145.656C60.8323 140.719 60.3152 136.599 59.9551 133.689C59.7652 132.276 59.6212 131.158 59.5165 130.367C59.4641 130.001 59.4248 129.713 59.3986 129.497C59.3892 129.399 59.3694 129.303 59.3397 129.209V129.523C59.3397 129.746 59.3921 130.04 59.4314 130.413C59.5165 131.217 59.6409 132.374 59.7914 133.774C60.1253 136.671 60.5901 140.771 61.1531 145.689L61.2775 145.532C58.716 145.672 56.1675 145.991 53.6507 146.487C52.2854 146.85 50.9467 147.307 49.6442 147.854C48.3087 148.39 46.9579 148.97 45.5918 149.593L45.821 149.711C45.7686 149.417 45.7162 149.116 45.6573 148.815L42.6982 132.643L42.5477 132.813C43.8053 132.759 45.0518 132.552 46.2596 132.198C47.4118 131.891 48.4854 131.544 49.4805 131.191C51.4772 130.491 53.2056 129.837 54.6654 129.425C56.1591 128.852 57.7971 128.772 59.3397 129.196Z" fill="#263238"/>
<path d="M33.6115 116.809L25.0027 149.245L42.4429 155.549L44.217 152.384L33.6115 116.809Z" fill="#BB0A08"/>
<path d="M95.5294 188.293H95.3853L94.9729 188.365L93.369 188.634C91.9811 188.856 89.9647 189.163 87.477 189.34C86.113 189.445 84.7429 189.445 83.3788 189.34C83.0072 189.31 82.6377 189.258 82.2725 189.183C82.0892 189.144 81.8993 189.117 81.716 189.065L81.1726 188.889C80.4394 188.686 80.0401 187.914 79.7062 187.195C79.3874 186.414 79.1398 185.607 78.9664 184.782C78.7766 183.932 78.626 183.062 78.5016 182.166C78.2463 180.381 78.0826 178.517 77.9648 176.601C77.716 172.422 77.6833 168.439 77.7422 164.921L77.5982 165.065L89.2446 164.816L92.5572 164.725L93.4345 164.686C93.5345 164.697 93.6355 164.697 93.7356 164.686H93.4345H89.2446L77.5916 164.816H77.4476V164.96C77.3691 168.485 77.3887 172.474 77.644 176.666C77.7619 178.589 77.9255 180.459 78.1874 182.257C78.3118 183.16 78.4689 184.036 78.6653 184.873C78.8461 185.716 79.1025 186.541 79.4312 187.339C79.6063 187.729 79.826 188.098 80.0859 188.437C80.219 188.604 80.3681 188.757 80.5311 188.895C80.706 189.018 80.8979 189.115 81.1006 189.183L81.6702 189.366C81.8666 189.418 82.0564 189.444 82.2463 189.484C82.62 189.559 82.9984 189.609 83.3788 189.634C84.7569 189.73 86.1404 189.717 87.5163 189.595C89.5044 189.432 91.4822 189.161 93.441 188.784C94.1349 188.653 94.6652 188.535 95.0318 188.457L95.4377 188.352C95.4835 188.339 95.5359 188.3 95.5294 188.293Z" fill="#263238"/>
<path d="M77.7357 169.001C77.7357 169.093 81.4542 169.165 86.0368 169.165C90.6194 169.165 94.3379 169.093 94.3379 169.001C94.3379 168.91 90.6194 168.838 86.0368 168.838C81.4542 168.838 77.7357 168.916 77.7357 169.001Z" fill="#263238"/>
<path d="M70.2333 132.805C70.1612 132.857 74.4231 138.606 79.7586 145.636C85.0941 152.666 89.4672 158.329 89.5588 158.257C89.6505 158.185 85.369 152.457 80.0335 145.42C74.698 138.383 70.3053 132.753 70.2333 132.805Z" fill="#263238"/>
<path d="M88.2495 136.499C88.341 136.176 88.4023 135.846 88.4328 135.511C88.531 134.857 88.6489 133.948 88.7733 132.797C89.105 129.805 89.2819 126.797 89.3035 123.786C89.3259 120.771 89.1707 117.758 88.8387 114.761C88.7078 113.617 88.5769 112.688 88.4721 112.047C88.4339 111.716 88.3682 111.387 88.2757 111.066C88.2744 111.401 88.2985 111.736 88.3477 112.067C88.4132 112.721 88.5048 113.636 88.6096 114.787C88.8125 117.083 89.0024 120.261 88.9828 123.779C88.9631 127.298 88.7405 130.476 88.5507 132.778C88.4525 133.883 88.3674 134.799 88.3085 135.498C88.2623 135.83 88.2426 136.164 88.2495 136.499Z" fill="#263238"/>
<path d="M75.667 126.094C75.7378 126.394 75.8365 126.688 75.9616 126.97C76.1711 127.526 76.4918 128.317 76.8977 129.298C77.7161 131.26 78.8617 133.935 80.302 136.851C81.7422 139.768 83.0777 142.358 84.1056 144.215C84.6162 145.144 85.0417 145.889 85.3494 146.393C85.4904 146.667 85.657 146.928 85.8469 147.171C85.7451 146.88 85.6157 146.6 85.4607 146.334C85.1595 145.758 84.7733 145.026 84.3085 144.104C83.333 142.227 82.0041 139.618 80.5966 136.708C79.189 133.797 77.9779 131.142 77.1072 129.207L76.0794 126.918C75.9642 126.632 75.8263 126.357 75.667 126.094Z" fill="#263238"/>
<path d="M44.217 107.249C44.2983 107.4 44.3948 107.542 44.5051 107.674C44.7146 107.968 45.0092 108.367 45.3758 108.864L48.6491 113.239L59.8111 127.907L59.8569 127.966H67.0582L67.104 127.875C70.3053 121.106 73.1465 115.096 75.2087 110.747C76.2103 108.596 77.0156 106.824 77.5917 105.627L78.2463 104.24C78.3118 104.097 78.3576 103.972 78.4034 103.874C78.4209 103.834 78.4362 103.792 78.4493 103.75C78.4493 103.75 78.4493 103.783 78.3773 103.861L78.194 104.214L77.5066 105.581L75.0385 110.649C72.9567 114.992 70.0762 120.988 66.8356 127.731L66.9861 127.639H59.9485L60.0795 127.705L48.8324 113.134L45.4674 108.818L44.5509 107.667C44.4505 107.519 44.3388 107.38 44.217 107.249Z" fill="#263238"/>
<path d="M45.474 166.508C45.6466 166.354 45.7985 166.178 45.9257 165.985C46.2007 165.639 46.5803 165.122 47.019 164.462C49.3028 161.005 50.9336 157.159 51.8307 153.115C52.0009 152.337 52.1122 151.709 52.1712 151.271C52.2147 151.056 52.2345 150.837 52.2301 150.617C52.1777 150.617 52.001 151.565 51.5754 153.096C50.5619 157.074 48.9482 160.876 46.7899 164.37C45.9977 165.678 45.4347 166.476 45.474 166.508Z" fill="#263238"/>
<path d="M49.8209 157.23C49.8733 157.145 48.3741 156.105 46.6655 154.614C44.9568 153.123 43.6867 151.841 43.6213 151.907C44.4232 153.02 45.3774 154.015 46.456 154.863C47.4661 155.799 48.5979 156.595 49.8209 157.23Z" fill="#263238"/>
<path d="M41.8406 156.794C41.8971 156.726 41.9454 156.651 41.9846 156.572L42.3513 155.918C42.6852 155.303 43.1369 154.466 43.7064 153.426V153.393V153.354C42.7964 149.862 41.258 144.133 39.5035 137.659C38.0305 132.329 36.695 127.51 35.7196 123.972L34.5412 119.832C34.4037 119.374 34.2924 119.002 34.2007 118.714C34.1713 118.58 34.1251 118.45 34.0633 118.328C34.0805 118.463 34.1068 118.596 34.1418 118.727L34.4168 119.865C34.6852 120.885 35.0714 122.298 35.497 124.031C36.4528 127.575 37.7555 132.401 39.1892 137.764C40.9503 144.218 42.5346 149.934 43.5231 153.407V153.335L42.2465 155.872L41.9257 156.526C41.8843 156.611 41.8556 156.701 41.8406 156.794Z" fill="#263238"/>
<g opacity="0.3">
<path d="M73.775 133.648C79.3941 140.934 84.2446 148.779 88.2495 157.06L87.8175 156.851L83.7127 151.142L73.6375 137.154C73.1741 136.612 72.8564 135.962 72.7144 135.264C72.656 134.911 72.7326 134.549 72.9291 134.249C73.1256 133.95 73.4275 133.736 73.775 133.648Z" fill="black"/>
</g>
<g opacity="0.3">
<path d="M88.2495 136.499C89.7558 133.617 90.6019 130.435 90.7264 127.186C90.851 123.937 90.2509 120.7 88.9696 117.711C88.9696 117.711 88.9042 133.445 88.2495 136.499Z" fill="black"/>
</g>
<path d="M43.3922 136.161C43.612 136.167 43.8317 136.147 44.0468 136.102C44.4724 136.043 45.0812 135.945 45.8341 135.814C47.3398 135.546 49.4085 135.121 51.6736 134.565C53.9388 134.009 55.9617 133.421 57.4216 132.956C58.1482 132.721 58.7309 132.525 59.1368 132.381C59.3535 132.324 59.5608 132.236 59.7522 132.119C59.5295 132.141 59.31 132.187 59.0975 132.256L57.3561 132.734C55.8831 133.139 53.8537 133.695 51.5951 134.251C49.3365 134.807 47.2809 135.265 45.7882 135.592L44.0272 135.977C43.8081 136.009 43.5944 136.071 43.3922 136.161Z" fill="#263238"/>
<g opacity="0.3">
<path d="M61.3102 145.655C61.3102 145.655 50.2792 151.018 45.6966 149.756C45.6966 149.756 53.5525 145.335 61.3102 145.655Z" fill="black"/>
</g>
<g opacity="0.3">
<path d="M43.1172 151.94C43.1172 151.94 34.6066 146.616 36.2367 125.781L43.1172 151.94Z" fill="black"/>
</g>
<path d="M30.5412 151.266C30.5412 151.266 29.33 171.493 29.8145 174.605C30.2989 177.718 32.0927 191.981 32.0927 191.981L39.2547 190.49L41.2187 155.098L30.5412 151.266Z" fill="#FFBE9D"/>
<path d="M42.4626 204.132C41.9716 202.418 42.3774 199.155 42.1352 198.011C42.0174 197.474 40.3218 191.746 39.8701 191.066L40.3022 181.76L28.898 182.237L31.3268 191.432C30.7376 192.74 28.898 198.665 28.898 198.933C28.898 199.201 29.3104 203.968 29.3104 203.968L31.5821 206.46C31.6491 206.527 31.7299 206.579 31.8189 206.612C31.908 206.645 32.0032 206.658 32.0978 206.651C32.1925 206.643 32.2844 206.615 32.3672 206.569C32.45 206.522 32.5216 206.458 32.5772 206.381L32.8194 206.009C32.9039 206.311 33.0713 206.584 33.3026 206.796C33.5339 207.009 33.82 207.153 34.1287 207.212C35.438 207.441 35.438 207.068 35.438 207.068L35.7392 205.924C35.7392 205.924 37.6377 207.415 38.1287 207.487C38.6197 207.558 38.947 205.355 38.947 205.355L37.3169 201.764L37.8014 198.174C37.8014 198.174 40.42 205.924 41.1205 205.924C41.821 205.924 42.947 205.845 42.4626 204.132Z" fill="#455A64"/>
<path d="M95.5359 194.557C95.5359 194.655 83.3919 194.819 68.4133 194.93C53.4347 195.041 41.2972 195.054 41.2907 194.93C41.2841 194.806 53.4347 194.675 68.4133 194.564C83.3919 194.453 95.5294 194.466 95.5359 194.557Z" fill="#263238"/>
<path d="M33.5657 198.486C33.6185 198.877 33.6185 199.273 33.5657 199.663C33.5142 200.592 33.5914 201.523 33.7948 202.43C34.058 203.314 34.4892 204.14 35.0649 204.862C35.3248 205.157 35.5449 205.485 35.7196 205.837C35.6868 205.87 35.3529 205.562 34.8685 205.013C34.213 204.298 33.7294 203.444 33.4544 202.515C33.2401 201.575 33.1936 200.606 33.3169 199.65C33.3415 199.252 33.4254 198.86 33.5657 198.486Z" fill="#263238"/>
<path d="M30.6394 199.051C30.8303 199.38 30.9234 199.756 30.9078 200.136C30.9798 200.83 30.8423 201.784 30.9994 202.752C31.1947 203.597 31.5723 204.39 32.1058 205.074C32.3478 205.354 32.5525 205.663 32.7147 205.996C32.6819 206.029 32.3677 205.741 31.916 205.218C31.2947 204.539 30.8634 203.709 30.6656 202.811C30.586 201.917 30.586 201.017 30.6656 200.123C30.6787 199.456 30.5805 199.064 30.6394 199.051Z" fill="#263238"/>
<path d="M99.4377 144.785C99.49 144.877 98.4819 145.439 97.5522 146.479C96.6226 147.519 96.1316 148.552 96.0334 148.513C96.2743 147.671 96.707 146.897 97.2976 146.25C97.8882 145.603 98.6207 145.102 99.4377 144.785Z" fill="#EB996E"/>
<path d="M131.418 141.417C132.142 141.096 132.807 140.654 133.382 140.109C133.585 139.837 133.713 139.515 133.751 139.177C133.789 138.839 133.736 138.497 133.598 138.186L131.817 138.84C132.419 138.644 132.934 138.247 133.277 137.716C133.377 137.6 133.453 137.466 133.499 137.32C133.546 137.175 133.562 137.021 133.546 136.869C133.531 136.717 133.485 136.57 133.41 136.437C133.336 136.303 133.235 136.187 133.113 136.094C133.113 136.094 130.023 137.33 128.812 137.722C128.642 137.84 122.351 140.246 122.017 140.6L116.125 146.878L107.483 144.916L106.704 156.733C106.704 156.733 117.611 155.614 119.444 155.078C121.277 154.542 126.037 150.003 126.037 150.003L128.19 147.152L132.014 145.033C132.668 144.576 133.362 143.725 132.766 142.915C133.978 142.136 133.349 140.613 133.349 140.613L131.418 141.417Z" fill="#455A64"/>
<path d="M123.143 151.535C123.66 151.201 124.154 150.834 124.622 150.436C125.13 149.961 125.528 149.38 125.788 148.736C126.126 147.908 126.23 147.003 126.089 146.12V145.983L126.213 145.943L128.616 145.178C129.044 145.057 129.462 144.904 129.866 144.72C130.269 144.533 130.619 144.25 130.888 143.896C131.152 143.515 131.264 143.048 131.202 142.588L131.372 142.719L125.48 142.857H125.559L122.829 144.819L122.069 145.342C121.985 145.409 121.892 145.466 121.794 145.512C122.076 145.205 122.392 144.933 122.737 144.701C123.392 144.204 124.276 143.511 125.402 142.66H125.434H125.474L131.333 142.451H131.457V142.588C131.506 142.868 131.499 143.154 131.436 143.43C131.373 143.706 131.256 143.967 131.091 144.197C130.46 144.932 129.595 145.429 128.642 145.603L126.239 146.349L126.338 146.172C126.479 147.105 126.355 148.06 125.978 148.925C125.689 149.592 125.252 150.185 124.701 150.658L124.374 150.933L124.066 151.142C123.902 151.255 123.729 151.354 123.549 151.437C123.418 151.486 123.282 151.519 123.143 151.535Z" fill="#263238"/>
<path d="M126.58 142.319C126.207 142.13 125.859 141.895 125.546 141.619L125.408 141.514L125.565 141.429C126.344 140.991 127.529 140.396 128.911 139.807C130.174 139.258 131.339 138.826 132.184 138.545C132.638 138.366 133.113 138.245 133.598 138.186C133.182 138.424 132.743 138.621 132.289 138.774C131.457 139.108 130.325 139.578 129.061 140.082C127.699 140.671 126.488 141.226 125.676 141.599V141.41C126.016 141.672 126.32 141.977 126.58 142.319Z" fill="#263238"/>
<path d="M129.231 142.32C129.846 141.878 130.527 141.536 131.248 141.306C131.934 140.966 132.666 140.728 133.421 140.6C132.802 141.034 132.123 141.376 131.405 141.613C130.719 141.953 129.986 142.191 129.231 142.32Z" fill="#263238"/>
<path d="M165.1 39.0352H159.974V297.722H165.1V39.0352Z" fill="#E0E0E0"/>
<path d="M135.712 49.5698C132.714 49.5698 131.235 44.5277 131.077 43.9326L132.969 43.416C133.474 45.2406 134.73 47.6995 135.791 47.6014C136.803 47.3932 137.71 46.8351 138.351 46.0253C138.798 45.518 139.349 45.1125 139.967 44.8361C140.585 44.5597 141.255 44.4189 141.932 44.4231H181.395C182.776 44.4274 184.104 44.9583 185.107 45.9076C186.233 46.9605 187.332 47.536 188.197 47.536C189.506 47.536 190.416 46.0188 190.724 44.9921L192.602 45.5675C192.007 47.5294 190.416 49.4913 188.197 49.4913C186.449 49.4913 184.825 48.3142 183.765 47.3332C183.126 46.7237 182.278 46.382 181.395 46.3785H141.932C141.538 46.3801 141.149 46.4648 140.79 46.6271C140.431 46.7894 140.111 47.0256 139.85 47.3202C138.899 48.5101 137.538 49.303 136.033 49.5436L135.712 49.5698Z" fill="#E0E0E0"/>
<path d="M161.637 45.8888C161.637 45.9869 157.1 46.0588 151.516 46.0588C145.932 46.0588 141.395 45.9869 141.395 45.8888C141.395 45.7907 145.925 45.7188 151.516 45.7188C157.107 45.7188 161.637 45.7776 161.637 45.8888Z" fill="#263238"/>
<path d="M161.572 45.8419C161.513 45.7765 161.572 45.5738 161.572 45.358C161.572 45.1422 161.401 44.9721 161.441 44.8871C161.48 44.8021 161.833 44.8871 161.905 45.3057C161.977 45.7242 161.572 45.9269 161.572 45.8419Z" fill="#263238"/>
<path d="M165.139 59.2428C165.048 59.2428 164.969 54.7697 164.969 49.2503C164.969 43.7309 165.048 39.2578 165.139 39.2578C165.231 39.2578 165.31 43.7309 165.31 49.2503C165.31 54.7697 165.238 59.2428 165.139 59.2428Z" fill="#263238"/>
<path d="M156.367 114.575H136.282V103.844C136.282 102.072 136.986 100.373 138.239 99.12C139.493 97.8668 141.193 97.1619 142.966 97.1602H149.683C151.456 97.1619 153.156 97.8668 154.41 99.12C155.663 100.373 156.367 102.072 156.367 103.844V114.575ZM138.901 111.959H153.748V103.844C153.748 102.766 153.32 101.732 152.558 100.97C151.796 100.207 150.762 99.7777 149.683 99.776H142.966C141.887 99.7777 140.853 100.207 140.091 100.97C139.329 101.732 138.901 102.766 138.901 103.844V111.959Z" fill="#E0E0E0"/>
<path d="M162.514 110.887H129.663V151.524H162.514V110.887Z" fill="#E0E0E0"/>
<path d="M152.871 110.887H129.663V151.158H152.871V110.887Z" fill="#F5F5F5"/>
<path d="M149.932 114.816H132.596V132.133H149.932V114.816Z" fill="white"/>
<path d="M149.925 132.101C149.925 132.101 149.925 131.983 149.925 131.767C149.925 131.552 149.925 131.218 149.925 130.826C149.925 129.982 149.925 128.792 149.886 127.294C149.886 124.247 149.84 119.944 149.814 114.791L149.958 114.934H132.629C132.59 114.934 132.95 114.614 132.799 114.764V117.106C132.799 117.884 132.799 118.655 132.799 119.421V123.894C132.799 126.804 132.799 129.544 132.799 132.062L132.655 131.918L145.172 131.99L148.707 132.029H149.65H149.984C149.884 132.038 149.783 132.038 149.683 132.029H148.773L145.264 132.068L132.655 132.147H132.505V132.101C132.505 129.583 132.505 126.869 132.505 123.933V114.777L132.675 114.607H150.004H150.154V114.758C150.121 119.95 150.095 124.286 150.076 127.353C150.076 128.844 150.076 130.021 150.036 130.858C150.036 131.238 150.036 131.512 150.036 131.767C150.011 131.882 149.974 131.994 149.925 132.101Z" fill="#263238"/>
<path d="M161.951 110.885C161.951 110.976 154.75 111.055 145.853 111.055C136.956 111.055 129.755 110.976 129.755 110.885C129.755 110.793 136.956 110.715 145.853 110.715C154.75 110.715 161.951 110.793 161.951 110.885Z" fill="#263238"/>
<path d="M162.521 151.523C162.423 151.523 162.351 142.492 162.351 131.355C162.351 120.218 162.423 111.193 162.521 111.193C162.619 111.193 162.691 120.218 162.691 131.355C162.691 142.492 162.612 151.523 162.521 151.523Z" fill="#263238"/>
<path d="M152.878 151.523C152.779 151.523 152.701 142.492 152.701 131.355C152.701 120.218 152.779 111.193 152.878 111.193C152.976 111.193 153.048 120.218 153.048 131.355C153.048 142.492 152.969 151.523 152.878 151.523Z" fill="#263238"/>
<path d="M135.254 135.496H132.596V138.151H135.254V135.496Z" fill="#455A64"/>
<path d="M138.92 135.496H136.262V138.151H138.92V135.496Z" fill="#455A64"/>
<path d="M142.586 135.496H139.928V138.151H142.586V135.496Z" fill="#455A64"/>
<path d="M146.259 135.496H143.601V138.151H146.259V135.496Z" fill="#455A64"/>
<path d="M149.925 135.496H147.267V138.151H149.925V135.496Z" fill="#455A64"/>
<path d="M135.254 139.02H132.596V141.675H135.254V139.02Z" fill="#455A64"/>
<path d="M138.92 139.02H136.262V141.675H138.92V139.02Z" fill="#455A64"/>
<path d="M142.586 139.02H139.928V141.675H142.586V139.02Z" fill="#455A64"/>
<path d="M146.259 139.02H143.601V141.675H146.259V139.02Z" fill="#455A64"/>
<path d="M149.925 139.02H147.267V141.675H149.925V139.02Z" fill="#455A64"/>
<path d="M135.254 142.537H132.596V145.192H135.254V142.537Z" fill="#455A64"/>
<path d="M138.92 142.537H136.262V145.192H138.92V142.537Z" fill="#455A64"/>
<path d="M142.586 142.537H139.928V145.192H142.586V142.537Z" fill="#455A64"/>
<path d="M149.932 142.537H143.601V145.192H149.932V142.537Z" fill="#BB0A08"/>
<path d="M149.054 123.757C149.054 123.757 148.655 123.718 147.928 123.659C147.491 123.621 147.051 123.641 146.619 123.718C146.06 123.814 145.548 124.09 145.159 124.502C144.956 124.775 144.81 125.086 144.729 125.416C144.648 125.746 144.634 126.089 144.688 126.425C144.724 126.83 144.724 127.237 144.688 127.641C144.622 128.088 144.432 128.508 144.138 128.851C143.974 129.048 143.751 129.186 143.502 129.246C143.254 129.306 142.992 129.285 142.757 129.185C142.311 128.946 141.97 128.549 141.801 128.073C141.444 127.153 141.211 126.19 141.107 125.209C140.969 124.208 141.107 123.207 141.002 122.311C140.966 121.878 140.822 121.459 140.583 121.095C140.361 120.754 140.024 120.504 139.634 120.389C139.451 120.349 139.261 120.351 139.079 120.397C138.898 120.442 138.729 120.529 138.586 120.65C138.304 120.894 138.08 121.198 137.932 121.54C137.624 122.194 137.5 122.939 137.166 123.502C136.867 124.043 136.394 124.467 135.824 124.705C135.412 124.884 134.963 124.965 134.514 124.94C134.229 124.93 133.947 124.868 133.683 124.757C133.59 124.726 133.503 124.677 133.428 124.613C133.781 124.73 134.149 124.796 134.521 124.81C134.953 124.809 135.38 124.713 135.771 124.528C136.286 124.292 136.707 123.892 136.969 123.391C137.271 122.835 137.382 122.122 137.696 121.396C137.859 121.008 138.11 120.663 138.429 120.389C138.608 120.238 138.819 120.13 139.046 120.073C139.273 120.016 139.51 120.012 139.739 120.062C140.199 120.218 140.601 120.511 140.891 120.901C141.181 121.291 141.346 121.76 141.362 122.246C141.467 123.22 141.362 124.169 141.48 125.143C141.577 126.09 141.797 127.02 142.135 127.909C142.274 128.309 142.553 128.646 142.92 128.858C143.094 128.934 143.288 128.951 143.473 128.906C143.658 128.861 143.822 128.757 143.942 128.609C144.197 128.313 144.363 127.95 144.419 127.563C144.452 127.18 144.452 126.795 144.419 126.412C144.399 126.031 144.426 125.649 144.498 125.274C144.572 124.917 144.742 124.587 144.989 124.319C145.42 123.879 145.983 123.592 146.593 123.502C147.04 123.435 147.494 123.435 147.941 123.502C148.308 123.547 148.596 123.606 148.773 123.646C148.95 123.685 149.061 123.744 149.054 123.757Z" fill="#BB0A08"/>
<path d="M183.175 300.821H143.444C143.446 299.994 143.775 299.201 144.361 298.617C144.946 298.032 145.739 297.703 146.567 297.701H180.033C180.444 297.699 180.852 297.779 181.233 297.935C181.614 298.091 181.96 298.32 182.252 298.61C182.544 298.9 182.776 299.244 182.934 299.623C183.092 300.003 183.174 300.41 183.175 300.821Z" fill="#E0E0E0"/>
<path d="M150.305 303.711C150.305 304.588 150.044 305.445 149.557 306.174C149.069 306.904 148.376 307.472 147.565 307.808C146.754 308.143 145.861 308.231 145 308.06C144.139 307.889 143.348 307.466 142.728 306.846C142.107 306.226 141.684 305.436 141.513 304.576C141.342 303.716 141.43 302.825 141.765 302.014C142.101 301.204 142.67 300.512 143.4 300.025C144.13 299.537 144.988 299.277 145.866 299.277C147.043 299.277 148.172 299.744 149.005 300.576C149.837 301.407 150.305 302.535 150.305 303.711Z" fill="#263238"/>
<path d="M187.247 303.711C187.247 304.588 186.987 305.445 186.499 306.174C186.012 306.904 185.318 307.472 184.507 307.808C183.696 308.143 182.804 308.231 181.943 308.06C181.082 307.889 180.291 307.466 179.67 306.846C179.049 306.226 178.627 305.436 178.455 304.576C178.284 303.716 178.372 302.825 178.708 302.014C179.044 301.204 179.613 300.512 180.343 300.025C181.073 299.537 181.931 299.277 182.809 299.277C183.985 299.279 185.113 299.747 185.945 300.578C186.777 301.409 187.246 302.536 187.247 303.711Z" fill="#263238"/>
<path d="M163.3 308.172C165.751 308.172 167.738 306.187 167.738 303.739C167.738 301.29 165.751 299.305 163.3 299.305C160.848 299.305 158.861 301.29 158.861 303.739C158.861 306.187 160.848 308.172 163.3 308.172Z" fill="#263238"/>
<path d="M224.982 205.475C224.264 203.158 222.829 201.129 220.884 199.678C218.938 198.228 216.581 197.432 214.154 197.405L204.812 197.255C191.483 197.019 174.887 196.731 167.247 197.176C159.863 197.608 155.503 201.1 153.153 203.964C151.596 205.807 150.441 207.954 149.761 210.268V210.373C144.269 236.773 124.832 306.583 124.446 308.173L129.906 308.094C130.344 306.342 152.956 219.679 154.665 211.465C154.874 210.713 157.382 202.781 167.568 202.185C175.018 201.754 191.503 202.042 204.753 202.27C208.183 202.329 211.424 202.388 214.115 202.421C215.485 202.439 216.815 202.893 217.91 203.716C219.006 204.539 219.811 205.688 220.21 206.999L252.288 308.362L257.578 308.186L224.982 205.475Z" fill="#455A64"/>
<path d="M224.982 205.474C224.982 205.474 225.192 206.089 225.578 207.299C225.964 208.508 226.54 210.3 227.293 212.648C228.799 217.35 231.005 224.275 233.84 233.163C239.476 250.957 247.646 276.625 257.663 308.133L257.715 308.303H257.538L252.249 308.479H252.15L252.118 308.381C244.792 285.25 236.452 258.902 227.404 230.318C225.139 223.168 222.835 215.885 220.491 208.469C220.249 207.537 219.911 206.632 219.483 205.768C219.009 204.933 218.349 204.217 217.555 203.676C216.76 203.136 215.852 202.784 214.9 202.649C214.418 202.589 213.933 202.563 213.447 202.57H211.967L200.013 202.374C191.981 202.25 183.837 202.106 175.594 202.165C173.539 202.165 171.47 202.211 169.401 202.289C167.336 202.284 165.28 202.579 163.3 203.166C161.331 203.789 159.537 204.867 158.063 206.311C156.565 207.766 155.442 209.561 154.789 211.543C153.82 215.839 152.727 220.044 151.673 224.282C150.619 228.52 149.539 232.685 148.478 236.844C146.34 245.154 144.23 253.35 142.148 261.433C137.958 277.58 133.906 293.209 130.023 308.165L129.991 308.283H129.866L124.406 308.355H124.197L124.249 308.152C131.451 281.909 138.05 257.575 143.575 235.752C144.943 230.292 146.266 224.995 147.503 219.855L148.393 216.029C148.673 214.765 148.948 213.509 149.218 212.262L149.631 210.405C149.782 209.787 149.986 209.183 150.239 208.6C150.723 207.453 151.322 206.357 152.027 205.33C153.387 203.317 155.136 201.596 157.172 200.268C159.129 199.005 161.298 198.106 163.575 197.613C165.753 197.185 167.967 196.966 170.187 196.959C172.347 196.894 174.455 196.874 176.511 196.861C184.727 196.861 192.092 196.966 198.514 197.077C204.936 197.188 210.422 197.26 214.881 197.398C216.864 197.546 218.775 198.206 220.426 199.314C221.626 200.113 222.661 201.134 223.476 202.322C223.973 203.044 224.386 203.821 224.707 204.637C224.903 205.199 224.995 205.481 224.995 205.481C224.995 205.481 224.884 205.199 224.681 204.65C224.352 203.838 223.933 203.066 223.43 202.348C222.453 200.954 221.176 199.795 219.694 198.955C218.212 198.116 216.561 197.617 214.861 197.496C210.409 197.378 204.917 197.332 198.494 197.221C192.072 197.11 184.707 197.012 176.491 197.051C174.436 197.051 172.328 197.09 170.174 197.156C167.976 197.166 165.784 197.385 163.627 197.81C161.376 198.291 159.231 199.177 157.297 200.425C155.288 201.74 153.561 203.441 152.216 205.428C151.523 206.456 150.935 207.552 150.462 208.698C150.216 209.27 150.015 209.861 149.86 210.464C149.729 211.078 149.591 211.7 149.46 212.321C149.185 213.572 148.91 214.83 148.635 216.094L147.745 219.92C146.547 225.06 145.231 230.383 143.87 235.824C138.364 257.653 131.778 282 124.59 308.237L124.433 308.041L129.899 307.963L129.742 308.08C133.618 293.124 137.67 277.495 141.86 261.348C143.933 253.27 146.041 245.071 148.184 236.753C149.236 232.594 150.3 228.408 151.378 224.197C152.426 219.979 153.519 215.741 154.488 211.464C155.151 209.431 156.296 207.589 157.827 206.095C159.345 204.611 161.194 203.506 163.221 202.871C165.232 202.275 167.318 201.974 169.414 201.975C171.49 201.897 173.558 201.871 175.621 201.851C183.869 201.799 191.987 201.936 200.046 202.067L211.994 202.263H213.48C213.979 202.256 214.477 202.284 214.972 202.348C215.971 202.488 216.925 202.856 217.759 203.423C218.594 203.99 219.286 204.741 219.784 205.618C220.223 206.502 220.57 207.429 220.818 208.384L227.692 230.226C236.72 258.824 245.047 285.159 252.353 308.309L252.222 308.211L257.512 308.041L257.388 308.211L233.696 233.208C230.894 224.308 228.707 217.376 227.221 212.668L225.545 207.305C225.165 206.102 224.982 205.474 224.982 205.474Z" fill="#263238"/>
<path d="M81.2315 254.777L75.536 269.256C75.536 269.256 59.0909 268.066 57.7751 270.642L85.2708 282.95L95.0907 260.755L81.2315 254.777Z" fill="#455A64"/>
<path d="M84.4132 271.753C84.6471 271.951 84.7994 272.228 84.8405 272.531C84.8816 272.834 84.8087 273.142 84.6358 273.394C84.4469 273.634 84.1731 273.792 83.871 273.836C83.5689 273.88 83.2615 273.806 83.0122 273.63C82.765 273.42 82.6047 273.126 82.5623 272.804C82.52 272.483 82.5987 272.157 82.7831 271.89C83.0061 271.659 83.3106 271.523 83.632 271.512C83.9534 271.501 84.2665 271.616 84.5048 271.832" fill="#E0E0E0"/>
<path d="M85.2773 282.949L86.063 281.184L59.1237 269.766C58.8135 269.813 58.5161 269.922 58.2494 270.088C57.9828 270.253 57.7524 270.47 57.5721 270.727L85.2773 282.949Z" fill="#263238"/>
<path d="M75.2414 269.235C75.189 269.372 75.8437 269.732 76.3216 270.458C76.7995 271.184 76.9108 271.916 77.0548 271.916C77.1988 271.916 77.3494 271.047 76.7471 270.17C76.1448 269.294 75.2676 269.098 75.2414 269.235Z" fill="#263238"/>
<path d="M71.7913 269.169C71.6997 269.294 72.1907 269.777 72.4002 270.556C72.6097 271.334 72.4787 272.001 72.6228 272.053C72.7668 272.106 73.1792 271.399 72.8977 270.412C72.6162 269.424 71.883 269.045 71.7913 269.169Z" fill="#263238"/>
<path d="M68.6097 271.948C68.721 272.033 69.2054 271.432 69.1792 270.536C69.153 269.64 68.649 269.064 68.5246 269.156C68.4002 269.248 68.6424 269.81 68.649 270.549C68.6555 271.288 68.4722 271.877 68.6097 271.948Z" fill="#263238"/>
<path d="M76.9173 266.058C76.9173 266.208 77.6309 266.293 78.3772 266.712C79.1235 267.13 79.6211 267.601 79.7389 267.516C79.8568 267.431 79.4967 266.692 78.6129 266.248C77.7291 265.803 76.8977 265.921 76.9173 266.058Z" fill="#263238"/>
<path d="M77.7749 262.774C78.1802 263.094 78.664 263.299 79.1759 263.369C79.7181 263.5 80.2744 263.564 80.8322 263.559C81.1632 263.557 81.4937 263.531 81.8207 263.48C82.0151 263.464 82.2055 263.415 82.3838 263.336C82.5141 263.278 82.6217 263.179 82.6903 263.053C82.7588 262.928 82.7845 262.784 82.7634 262.643C82.7372 262.517 82.6814 262.399 82.6005 262.299C82.5197 262.199 82.4162 262.12 82.2986 262.068C82.1223 261.993 81.9377 261.941 81.7487 261.911C81.4177 261.856 81.0826 261.83 80.7471 261.832C80.1834 261.841 79.6245 261.938 79.0908 262.12C78.1808 262.434 77.7422 262.846 77.7815 262.892C77.8208 262.937 78.3249 262.676 79.1956 262.466C79.7067 262.352 80.2298 262.299 80.7536 262.31C81.0595 262.317 81.3641 262.352 81.6636 262.414C81.991 262.46 82.2397 262.571 82.2594 262.735C82.2594 262.793 82.2594 262.82 82.1612 262.878C82.0296 262.933 81.8906 262.969 81.7487 262.983C80.9199 263.11 80.0767 263.11 79.2479 262.983C78.7632 262.875 78.2707 262.805 77.7749 262.774Z" fill="#263238"/>
<g opacity="0.3">
<path d="M81.2315 254.777L75.536 269.256C75.536 269.256 59.0909 268.066 57.7751 270.642L85.2708 282.95L95.0907 260.755L81.2315 254.777Z" fill="black"/>
</g>
<path d="M74.5802 255.855L64.0271 267.293C64.0271 267.293 49.127 260.237 46.9731 262.166L68.1514 283.583L85.3297 266.443L74.5802 255.855Z" fill="#455A64"/>
<path d="M71.3985 272.833C71.5425 273.103 71.5819 273.416 71.5095 273.713C71.437 274.009 71.2577 274.269 71.0057 274.442C70.7431 274.597 70.4311 274.645 70.134 274.577C69.8369 274.509 69.5772 274.329 69.4084 274.076C69.2535 273.79 69.2107 273.457 69.2881 273.142C69.3655 272.826 69.5578 272.551 69.8273 272.369C70.1192 272.237 70.451 272.222 70.7535 272.328C71.056 272.434 71.3058 272.652 71.4509 272.938" fill="#E0E0E0"/>
<path d="M68.1449 283.583L69.5131 282.216L48.564 261.839C48.258 261.769 47.941 261.763 47.6325 261.82C47.324 261.877 47.0306 261.997 46.7702 262.172L68.1449 283.583Z" fill="#263238"/>
<path d="M63.7586 267.169C63.6539 267.28 64.1318 267.823 64.3151 268.706C64.4984 269.589 64.3151 270.275 64.4788 270.328C64.6424 270.38 65.0614 269.615 64.8192 268.588C64.577 267.561 63.8307 267.051 63.7586 267.169Z" fill="#263238"/>
<path d="M60.5574 265.861C60.433 265.94 60.7145 266.574 60.6294 267.372C60.5443 268.17 60.1776 268.752 60.2889 268.85C60.4002 268.948 61.0614 268.418 61.1465 267.424C61.2317 266.43 60.6621 265.763 60.5574 265.861Z" fill="#263238"/>
<path d="M56.5836 267.301C56.6556 267.419 57.3233 267.039 57.6245 266.189C57.9256 265.339 57.6637 264.626 57.5328 264.672C57.4019 264.718 57.4019 265.326 57.14 266.019C56.8782 266.712 56.4854 267.19 56.5836 267.301Z" fill="#263238"/>
<path d="M66.4689 264.815C66.4166 264.952 67.045 265.293 67.6015 265.92C68.158 266.548 68.4395 267.228 68.5835 267.163C68.7275 267.097 68.6555 266.306 67.9877 265.574C67.32 264.841 66.5017 264.684 66.4689 264.815Z" fill="#263238"/>
<path d="M68.446 262.055C68.4002 262.095 68.7537 262.578 69.5327 263.121C69.9936 263.436 70.4903 263.695 71.0123 263.893C71.3219 264.01 71.639 264.106 71.9615 264.181C72.1492 264.232 72.3432 264.256 72.5376 264.253C72.682 264.246 72.82 264.191 72.9301 264.098C73.0402 264.004 73.1163 263.877 73.1465 263.736C73.1663 263.61 73.1558 263.48 73.116 263.359C73.0762 263.237 73.0081 263.127 72.9173 263.036C72.7815 262.9 72.6273 262.783 72.4591 262.69C72.1713 262.519 71.8689 262.375 71.5556 262.258C71.0287 262.062 70.4742 261.949 69.9124 261.924C69.3948 261.85 68.8666 261.937 68.4002 262.173C68.4002 262.251 68.9894 262.173 69.8797 262.284C70.3943 262.36 70.8977 262.499 71.3789 262.696C71.6605 262.816 71.932 262.958 72.1907 263.121C72.4787 263.291 72.6751 263.481 72.6358 263.638C72.5966 263.795 72.6358 263.716 72.4918 263.736C72.3482 263.738 72.205 263.721 72.0663 263.684C71.7626 263.624 71.463 263.546 71.1694 263.448C70.6708 263.273 70.1888 263.055 69.7291 262.794C69.3196 262.518 68.8908 262.271 68.446 262.055Z" fill="#263238"/>
<path d="M67.5557 259.111C67.5557 260.112 108.145 214.361 121.958 212.68C133.742 211.261 169.316 211.954 169.316 211.954L146.318 224.255L107.732 228.925L67.5557 259.111Z" fill="#263238"/>
<path d="M176.871 211.967L118.456 215.806C113.615 216.25 109.003 218.065 105.159 221.037L64.5115 262.237L78.7373 276.238C78.7373 276.238 117.807 244.58 123.025 240.656L183.909 243.272C183.909 243.272 201.918 243.023 207.057 231.782L176.871 211.967Z" fill="#263238"/>
<path d="M157.604 213.223L157.316 213.262L156.472 213.334L153.198 213.582L141.277 214.432L123.601 215.649L118.488 215.995C116.711 216.065 114.951 216.364 113.251 216.885C109.672 217.972 106.424 219.939 103.804 222.607L76.0728 250.649C72.5246 254.219 69.644 257.11 67.6408 259.15L65.3364 261.413L64.7276 262.002C64.6631 262.073 64.5906 262.136 64.5115 262.191C64.571 262.116 64.6343 262.044 64.7014 261.975L65.284 261.361L67.5426 259.026C69.5066 256.999 72.3805 254.082 75.9026 250.479L103.575 222.358C106.235 219.652 109.533 217.657 113.166 216.558C114.887 216.038 116.666 215.737 118.462 215.662L123.575 215.328L141.277 214.191L153.212 213.452L156.485 213.268L157.336 213.229L157.604 213.223Z" fill="#455A64"/>
<path d="M214.599 133.01C214.059 131.971 213.825 130.801 213.926 129.635C214.027 128.468 214.458 127.355 215.169 126.424C215.355 126.237 215.475 125.993 215.509 125.731C215.473 125.509 215.373 125.302 215.221 125.136C214.854 124.639 214.592 124.072 214.45 123.471C214.309 122.87 214.29 122.246 214.396 121.638C214.514 121.029 214.79 120.462 215.195 119.993C215.6 119.523 216.122 119.168 216.707 118.963C215.398 117.609 215.751 115.098 217.257 113.927C218.044 113.384 218.976 113.09 219.932 113.083C220.888 113.076 221.824 113.357 222.619 113.888C222.582 113.306 222.735 112.728 223.053 112.239C223.371 111.75 223.839 111.377 224.386 111.174C225.497 110.801 226.699 110.801 227.81 111.174C229.309 111.593 230.894 112.554 231.123 114.104C231.614 113.28 232.753 113.116 233.689 113.313C234.938 113.623 236.029 114.382 236.753 115.445C237.478 116.507 237.785 117.799 237.617 119.074C238.579 118.839 239.59 118.907 240.511 119.27C240.958 119.469 241.328 119.809 241.565 120.237C241.801 120.666 241.891 121.16 241.82 121.644C242.573 121.036 243.686 121.167 244.589 121.507C245.259 121.719 245.848 122.129 246.278 122.684C246.488 122.965 246.606 123.305 246.617 123.656C246.627 124.006 246.53 124.352 246.337 124.646C247.02 124.704 247.657 125.016 248.121 125.52C248.585 126.025 248.842 126.685 248.842 127.369C248.842 128.054 248.585 128.714 248.121 129.219C247.657 129.723 247.02 130.035 246.337 130.093C246.675 130.582 246.883 131.149 246.941 131.74C246.998 132.331 246.904 132.927 246.667 133.472C246.43 134.017 246.057 134.492 245.585 134.853C245.112 135.214 244.556 135.448 243.967 135.534C244.079 135.626 244.169 135.742 244.229 135.873C244.289 136.005 244.318 136.148 244.315 136.293C244.311 136.437 244.274 136.579 244.207 136.707C244.14 136.835 244.044 136.946 243.928 137.032C243.679 137.189 243.396 137.286 243.102 137.313C242.809 137.34 242.513 137.298 242.239 137.189C241.584 139.105 240.93 141.027 240.223 142.944C239.855 144.206 239.289 145.403 238.547 146.488C238.173 147.028 237.677 147.473 237.099 147.786C236.521 148.1 235.878 148.273 235.221 148.293" fill="#263238"/>
<path d="M216.563 127.483C218.429 122.906 225.008 119.963 229.466 122.01L243.496 129.929L242.599 132.421L228.242 165.524L210.632 168.238L215.64 154.034C215.64 154.034 210.016 151.065 211.43 142.871C212.131 138.81 214.468 132.545 216.563 127.483Z" fill="#FFBE9D"/>
<path d="M216.354 134.9C216.268 135.155 216.284 135.433 216.399 135.677C216.513 135.921 216.718 136.111 216.969 136.208C217.216 136.307 217.492 136.305 217.737 136.203C217.982 136.1 218.177 135.904 218.278 135.659C218.364 135.403 218.347 135.125 218.233 134.881C218.118 134.638 217.914 134.448 217.663 134.351C217.416 134.251 217.14 134.253 216.895 134.356C216.65 134.459 216.455 134.654 216.354 134.9Z" fill="#263238"/>
<path d="M216.799 131.237C216.877 131.407 217.82 131.1 218.887 131.466C219.954 131.832 220.557 132.623 220.714 132.532C220.871 132.44 220.714 132.218 220.491 131.878C220.135 131.403 219.641 131.05 219.077 130.864C218.52 130.681 217.919 130.681 217.362 130.864C216.949 130.962 216.759 131.159 216.799 131.237Z" fill="#263238"/>
<path d="M225.617 138.529C225.532 138.784 225.548 139.062 225.662 139.306C225.777 139.55 225.981 139.74 226.232 139.837C226.479 139.936 226.755 139.934 227 139.831C227.246 139.729 227.44 139.533 227.542 139.287C227.626 139.032 227.609 138.755 227.494 138.511C227.38 138.268 227.177 138.078 226.926 137.98C226.68 137.88 226.404 137.882 226.158 137.985C225.913 138.088 225.719 138.283 225.617 138.529Z" fill="#263238"/>
<path d="M227.123 135.192C227.201 135.362 228.144 135.061 229.211 135.421C230.278 135.781 230.874 136.585 231.038 136.493C231.201 136.402 231.038 136.179 230.809 135.839C230.457 135.361 229.965 135.005 229.401 134.819C228.844 134.638 228.243 134.638 227.686 134.819C227.273 134.917 227.083 135.114 227.123 135.192Z" fill="#263238"/>
<path d="M220.661 141.609C220.158 141.243 219.61 140.942 219.031 140.713C218.769 140.589 218.527 140.451 218.547 140.248C218.566 140.046 218.763 139.771 219.005 139.496L220.517 137.685C222.638 135.102 224.281 132.937 224.177 132.852C224.072 132.767 222.265 134.814 220.138 137.384L218.651 139.215C218.37 139.489 218.192 139.852 218.147 140.242C218.155 140.351 218.187 140.457 218.241 140.553C218.296 140.648 218.371 140.729 218.462 140.791C218.598 140.883 218.745 140.958 218.9 141.014C219.459 141.286 220.051 141.486 220.661 141.609Z" fill="#263238"/>
<path d="M215.627 154.033C219.253 155.318 223.166 155.567 226.926 154.753C226.926 154.753 222.304 159.683 214.809 156.348L215.627 154.033Z" fill="#EB996E"/>
<path d="M220.236 144.341C220.525 144.155 220.857 144.045 221.2 144.021C221.543 143.997 221.887 144.06 222.2 144.204C222.428 144.305 222.634 144.452 222.803 144.636C222.973 144.819 223.104 145.035 223.188 145.27C223.273 145.497 223.285 145.745 223.223 145.979C223.161 146.213 223.028 146.422 222.841 146.578C222.605 146.712 222.335 146.773 222.064 146.752C221.793 146.731 221.535 146.63 221.322 146.46C220.878 146.112 220.508 145.679 220.236 145.185C220.143 145.06 220.076 144.918 220.039 144.766C220.019 144.694 220.02 144.618 220.043 144.547C220.067 144.476 220.111 144.413 220.17 144.367" fill="#EB996E"/>
<path d="M223.555 143.407C223.385 143.342 222.985 144.499 221.715 144.99C220.445 145.48 219.254 144.937 219.188 145.101C219.149 145.166 219.385 145.415 219.902 145.604C220.576 145.851 221.316 145.851 221.99 145.604C222.635 145.358 223.16 144.873 223.457 144.251C223.666 143.76 223.633 143.427 223.555 143.407Z" fill="#263238"/>
<path d="M228.098 131.258C228.098 131.585 229.218 131.807 230.416 132.383C231.614 132.958 232.517 133.639 232.772 133.436C232.89 133.338 232.772 133.004 232.491 132.579C232.062 132.051 231.519 131.628 230.902 131.341C230.284 131.054 229.61 130.912 228.93 130.925C228.406 130.957 228.098 131.108 228.098 131.258Z" fill="#263238"/>
<path d="M218.246 128.267C218.35 128.574 219.169 128.568 220.059 128.856C220.949 129.143 221.637 129.568 221.899 129.372C222.01 129.274 221.977 128.993 221.728 128.653C221.395 128.226 220.938 127.913 220.419 127.757C219.897 127.591 219.337 127.591 218.815 127.757C218.39 127.907 218.2 128.123 218.246 128.267Z" fill="#263238"/>
<path d="M222.769 119.616C222.275 120.239 221.979 120.996 221.921 121.789C221.862 122.581 222.044 123.373 222.442 124.062C222.841 124.75 223.437 125.303 224.153 125.648C224.87 125.994 225.674 126.116 226.462 125.999C226.133 126.191 225.889 126.499 225.776 126.862C225.664 127.225 225.691 127.617 225.853 127.961C226.188 128.638 226.779 129.156 227.496 129.399C228.231 129.692 229.021 129.824 229.811 129.786C230.602 129.747 231.375 129.54 232.079 129.177C231.951 129.798 231.973 130.44 232.142 131.051C232.311 131.661 232.623 132.223 233.052 132.691C233.48 133.158 234.014 133.517 234.608 133.738C235.203 133.959 235.841 134.037 236.471 133.964C235.949 134.202 235.489 134.56 235.129 135.007C234.769 135.454 234.519 135.98 234.399 136.541C234.278 137.102 234.291 137.684 234.435 138.239C234.58 138.795 234.852 139.309 235.231 139.74C235.61 140.172 236.084 140.509 236.617 140.725C237.149 140.94 237.725 141.029 238.297 140.983C238.87 140.937 239.424 140.758 239.915 140.46C240.406 140.162 240.821 139.754 241.126 139.268C241.759 139.218 242.373 139.023 242.919 138.698C243.465 138.374 243.929 137.928 244.275 137.396C244.621 136.864 244.84 136.259 244.915 135.629C244.99 134.999 244.919 134.36 244.707 133.761C245.14 133.746 245.562 133.618 245.93 133.388C246.298 133.158 246.598 132.836 246.802 132.453C247.206 131.684 247.404 130.824 247.378 129.955C247.419 128.898 247.248 127.843 246.873 126.854C246.499 125.864 245.929 124.959 245.198 124.194C244.446 123.448 243.488 122.945 242.446 122.75C241.405 122.555 240.329 122.678 239.358 123.102C239.165 123.231 238.937 123.3 238.704 123.298C238.383 123.246 238.2 122.912 238.049 122.644C237.447 121.336 236.831 119.923 235.633 119.119C234.896 118.647 234.02 118.439 233.148 118.528C232.277 118.617 231.461 118.998 230.835 119.61C230.662 118.657 230.186 117.786 229.479 117.125C228.771 116.464 227.869 116.049 226.907 115.941C224.943 115.849 223.064 117.661 223.339 119.583" fill="#263238"/>
<path d="M236.786 139.457C236.333 141.061 236.113 142.721 236.131 144.388C236.131 145.094 236.249 145.912 236.851 146.278C237.139 146.42 237.466 146.466 237.783 146.407C238.099 146.348 238.388 146.188 238.605 145.951C239.03 145.468 239.329 144.889 239.476 144.264C240.13 142.072 240.637 139.839 240.995 137.58" fill="#263238"/>
<path d="M238.056 141.256C238.173 141.256 242.429 141.21 241.146 145.18C239.862 149.149 236.151 147.063 236.177 146.952C236.203 146.841 238.056 141.256 238.056 141.256Z" fill="#FFBE9D"/>
<path d="M237.872 145.834C237.872 145.834 237.931 145.906 238.029 145.997C238.172 146.116 238.354 146.179 238.54 146.174C239.011 146.174 239.581 145.598 239.849 144.866C239.966 144.528 240.008 144.169 239.974 143.813C239.977 143.677 239.947 143.542 239.887 143.42C239.827 143.298 239.737 143.193 239.627 143.113C239.554 143.065 239.467 143.045 239.38 143.056C239.294 143.067 239.214 143.108 239.155 143.172C239.064 143.264 239.064 143.355 239.044 143.355C239.025 143.355 238.979 143.257 239.044 143.107C239.097 143.014 239.18 142.942 239.28 142.904C239.412 142.852 239.56 142.852 239.692 142.904C239.845 142.989 239.974 143.112 240.065 143.261C240.157 143.409 240.209 143.579 240.216 143.754C240.275 144.152 240.237 144.558 240.105 144.938C240.011 145.299 239.812 145.624 239.534 145.873C239.255 146.122 238.91 146.284 238.54 146.337C238.424 146.334 238.31 146.305 238.207 146.252C238.104 146.199 238.014 146.123 237.944 146.03C237.853 145.938 237.859 145.834 237.872 145.834Z" fill="#EB996E"/>
<path d="M232.537 128.446H232.406L232.02 128.381C231.537 128.28 231.068 128.12 230.625 127.903C230.306 127.746 230.009 127.549 229.741 127.315C229.418 127.04 229.155 126.702 228.969 126.321C228.765 125.881 228.671 125.399 228.694 124.915C228.72 124.362 228.954 123.839 229.349 123.45L229.44 123.6C228.3 123.94 227.081 123.903 225.964 123.496C225.353 123.274 224.788 122.944 224.295 122.521C224.04 122.302 223.819 122.046 223.64 121.763C223.452 121.46 223.35 121.112 223.345 120.755C223.351 120.344 223.452 119.939 223.64 119.572C223.813 119.223 224.01 118.886 224.229 118.565C224.435 118.241 224.689 117.95 224.982 117.701C225.125 117.571 225.296 117.474 225.482 117.417C225.668 117.361 225.864 117.346 226.056 117.374V117.571C225.321 117.548 224.615 117.278 224.052 116.806C223.536 116.384 223.149 115.827 222.933 115.197C222.74 114.633 222.722 114.025 222.881 113.451C223.044 112.864 223.359 112.33 223.793 111.902C224.227 111.474 224.766 111.167 225.355 111.011C225.6 110.945 225.855 110.921 226.108 110.94C225.861 110.97 225.616 111.016 225.375 111.077C224.708 111.274 224.117 111.668 223.679 112.208C223.365 112.589 223.141 113.036 223.025 113.516C222.88 114.06 222.903 114.634 223.09 115.164C223.303 115.76 223.677 116.285 224.17 116.681C224.704 117.123 225.37 117.374 226.062 117.394V117.597C225.898 117.573 225.73 117.587 225.571 117.637C225.413 117.687 225.267 117.771 225.146 117.885C224.872 118.124 224.633 118.401 224.439 118.709C223.969 119.307 223.676 120.025 223.594 120.782C223.618 121.098 223.71 121.405 223.863 121.683C224.017 121.961 224.229 122.202 224.484 122.39C225.157 122.964 225.963 123.362 226.828 123.548C227.693 123.734 228.59 123.703 229.44 123.456L229.8 123.345L229.532 123.607C229.176 123.965 228.966 124.443 228.943 124.947C228.917 125.379 228.992 125.81 229.16 126.208C229.328 126.606 229.585 126.96 229.912 127.243C230.166 127.476 230.45 127.673 230.756 127.831C231.188 128.057 231.645 128.23 232.118 128.348C232.259 128.373 232.399 128.406 232.537 128.446Z" fill="white"/>
<path d="M220.93 122.591C220.832 122.629 220.726 122.642 220.622 122.63C220.338 122.62 220.059 122.558 219.797 122.447C219.396 122.283 219.056 122 218.822 121.636C218.676 121.405 218.626 121.125 218.684 120.858C218.716 120.71 218.789 120.573 218.896 120.466C219.003 120.358 219.138 120.283 219.286 120.25V120.459H219.214C218.734 120.435 218.265 120.305 217.841 120.079C217.417 119.853 217.047 119.536 216.759 119.151C216.586 118.922 216.447 118.669 216.347 118.399C216.306 118.302 216.284 118.197 216.282 118.092C216.449 118.432 216.649 118.756 216.877 119.06C217.164 119.409 217.521 119.695 217.924 119.9C218.328 120.105 218.769 120.224 219.221 120.25H219.293L220.321 120.309L219.306 120.459C219.197 120.484 219.098 120.54 219.021 120.62C218.943 120.7 218.89 120.801 218.867 120.91C218.818 121.135 218.858 121.369 218.979 121.564C219.189 121.883 219.487 122.135 219.836 122.29C220.182 122.45 220.551 122.552 220.93 122.591Z" fill="white"/>
<path d="M205.309 164.666L174.737 184.239L141.401 189.189L141.84 196.945C141.84 196.945 170.076 196.802 174.737 196.945C179.398 197.089 186.887 189.196 186.887 189.196L205.309 164.666Z" fill="#FFBE9D"/>
<path d="M179.575 184.875L178.265 182.619C180.177 181.507 180.504 178.643 180.229 176.53C180.098 175.582 179.869 174.64 179.634 173.646C179.12 171.842 178.858 169.976 178.855 168.101C179.071 162.745 182.874 158.945 186.553 155.27C188.001 153.879 189.369 152.407 190.652 150.862C193.414 147.377 194.58 142.158 191.83 139.47C190.75 138.431 189.1 137.764 187.509 137.116C184.891 136.063 181.964 134.866 181.139 131.767C180.223 128.307 182.841 125.227 185.362 123.612C186.259 123.049 187.201 122.572 188.111 122.114C189.577 121.465 190.94 120.606 192.157 119.564C195.247 116.614 195.431 112.959 195.431 108.486C195.372 102.168 194.121 99.4611 192.812 96.5968C191.221 93.17 189.584 89.6255 189.846 80.457L192.465 80.5355C192.216 89.0828 193.663 92.2021 195.188 95.4981C196.57 98.4932 198.003 101.586 198.069 108.46C198.121 113.22 197.846 117.792 194.01 121.454C192.608 122.68 191.031 123.69 189.329 124.449C188.439 124.9 187.594 125.325 186.802 125.822C184.891 127.039 183.188 129.138 183.712 131.093C184.197 132.937 186.206 133.748 188.53 134.69C190.357 135.429 192.249 136.194 193.689 137.593C197.676 141.452 196.177 148.148 192.74 152.484C191.4 154.112 189.966 155.66 188.445 157.121C184.969 160.593 181.689 163.87 181.513 168.238C181.527 169.871 181.765 171.495 182.22 173.064C182.462 174.071 182.711 175.118 182.874 176.184C183.221 179.218 182.612 183.109 179.575 184.875Z" fill="#E0E0E0"/>
<path d="M179.084 184.031L178.756 183.462C181.087 182.108 181.526 178.923 181.166 176.393C181.022 175.399 180.779 174.392 180.55 173.417C180.059 171.701 179.806 169.925 179.797 168.14C180 163.17 183.666 159.507 187.208 155.963C188.683 154.546 190.075 153.046 191.378 151.47C194.37 147.697 195.771 141.955 192.472 138.764C191.26 137.593 189.519 136.887 187.837 136.207C185.336 135.193 182.75 134.14 182.049 131.511C181.264 128.569 183.607 125.861 185.846 124.442C186.704 123.899 187.627 123.435 188.511 122.984C190.067 122.298 191.512 121.386 192.799 120.276C196.164 117.059 196.4 113.03 196.354 108.505C196.295 101.965 194.999 99.1731 193.624 96.2106C192.085 92.882 190.494 89.4487 190.75 80.5156H191.404C191.156 89.2918 192.714 92.6596 194.219 95.9164C195.529 98.8134 196.943 101.802 197.008 108.479C197.061 113.181 196.805 117.353 193.251 120.754C191.917 121.906 190.421 122.858 188.812 123.579C187.915 124.009 187.041 124.485 186.193 125.004C183.974 126.404 182.03 128.928 182.678 131.354C183.293 133.669 185.617 134.624 188.079 135.605C189.814 136.311 191.614 137.037 192.923 138.299C196.498 141.765 195.057 147.88 191.889 151.882C190.571 153.488 189.161 155.016 187.666 156.46C184.053 160.07 180.635 163.483 180.465 168.199C180.482 169.925 180.733 171.641 181.211 173.299C181.447 174.287 181.689 175.307 181.866 176.327C182.206 179.041 181.696 182.507 179.084 184.031Z" fill="#BB0A08"/>
<path d="M201.165 56.3256C201.008 53.2716 201.165 50.5969 200.02 47.7326C198.71 44.502 193.663 42.8541 187.653 43.75C186.398 43.9381 185.197 44.3912 184.13 45.079C183.063 45.7668 182.155 46.6736 181.467 47.7391C180.157 49.6487 179.732 51.9506 179.463 54.1937C178.513 61.712 178.359 69.3095 179.005 76.86C179.299 78.0024 179.865 79.057 180.655 79.9336C181.493 80.8033 182.94 80.823 184.21 80.7772L197.021 80.3063C198.331 80.254 199.778 80.1363 200.589 79.2142C201.082 78.5278 201.333 77.6975 201.303 76.8534C201.677 70.0144 201.631 63.159 201.165 56.3256ZM192.373 47.5299C192.117 47.7923 191.788 47.9718 191.428 48.0452C191.069 48.1187 190.696 48.0827 190.357 47.9419C190.036 47.806 189.771 47.5646 189.607 47.2576C189.443 46.9506 189.389 46.5967 189.454 46.2547C189.558 45.9174 189.767 45.6221 190.051 45.4116C190.334 45.2011 190.678 45.0864 191.031 45.0841C191.288 45.0515 191.548 45.0862 191.787 45.1848C192.026 45.2834 192.235 45.4426 192.393 45.6465C192.588 45.9226 192.691 46.2533 192.688 46.5913C192.684 46.9294 192.574 47.2578 192.373 47.5299Z" fill="#F5F5F5"/>
<path d="M192.373 47.5318C192.518 47.2458 192.594 46.9302 192.596 46.6097C192.567 46.2614 192.444 45.9273 192.242 45.6419C192.094 45.4931 191.914 45.3798 191.716 45.3107C191.517 45.2416 191.305 45.2184 191.097 45.2429H191.031C190.818 45.2492 190.608 45.2975 190.414 45.385C190.22 45.4725 190.045 45.5976 189.899 45.753C189.7 45.9615 189.582 46.2336 189.565 46.521C189.548 46.8084 189.634 47.0924 189.807 47.3225C189.945 47.5222 190.128 47.6858 190.343 47.7996C190.557 47.9134 190.795 47.9741 191.038 47.9765C191.508 47.9695 191.965 47.8189 192.347 47.5449C192.347 47.5449 192.288 47.6887 192.085 47.8522C191.783 48.0803 191.417 48.2083 191.038 48.2185C190.751 48.2322 190.465 48.175 190.206 48.0517C189.947 47.9285 189.722 47.7432 189.552 47.5122C189.34 47.2337 189.225 46.8939 189.224 46.5443C189.234 46.1651 189.386 45.8032 189.65 45.5307C189.827 45.3421 190.041 45.1919 190.279 45.0896C190.516 44.9872 190.772 44.9348 191.031 44.9356C191.311 44.8985 191.596 44.9369 191.856 45.0468C192.097 45.1307 192.311 45.2802 192.472 45.4784C192.7 45.8134 192.819 46.2109 192.812 46.6163C192.773 47.3029 192.373 47.5645 192.373 47.5318Z" fill="#263238"/>
<path d="M201.165 56.3253C201.176 56.4144 201.176 56.5043 201.165 56.5934C201.165 56.7961 201.198 57.0577 201.224 57.4043C201.264 58.1302 201.323 59.17 201.401 60.5041C201.532 63.1984 201.702 67.1025 201.617 71.9288C201.591 73.1408 201.543 74.4051 201.473 75.7217C201.427 76.3757 201.421 77.0297 201.316 77.7425C201.237 78.4781 200.87 79.1527 200.295 79.6193C199.67 80.035 198.948 80.2828 198.2 80.3387C197.453 80.4237 196.707 80.4302 195.954 80.4629L191.293 80.646L186.396 80.8292L183.863 80.9272C182.972 80.9961 182.078 80.8665 181.244 80.548C180.825 80.3512 180.464 80.0493 180.197 79.6716C179.921 79.3167 179.673 78.9406 179.457 78.5468C179.228 78.1533 179.042 77.7369 178.9 77.3043C178.797 76.8579 178.74 76.4021 178.73 75.9441C178.586 74.1522 178.49 72.3364 178.442 70.4966C178.346 66.9085 178.435 63.3178 178.711 59.739C178.841 58.006 179.012 56.3057 179.202 54.6446C179.337 53.0044 179.669 51.3863 180.19 49.8249C180.729 48.334 181.61 46.99 182.763 45.9012C183.879 44.8948 185.229 44.1823 186.691 43.8281C187.038 43.7366 187.385 43.6516 187.732 43.5927L188.773 43.4685L189.794 43.3965H190.796C192.071 43.3941 193.343 43.5367 194.586 43.8216C195.723 44.076 196.809 44.518 197.8 45.1295C198.692 45.6764 199.422 46.4506 199.915 47.3726C200.581 48.8878 200.961 50.513 201.034 52.1661C201.12 53.5133 201.12 54.5596 201.133 55.2724C201.133 55.6125 201.133 55.8806 201.133 56.0768C201.139 56.1704 201.139 56.2644 201.133 56.358C201.126 56.2666 201.126 56.1748 201.133 56.0833C201.133 55.8806 201.1 55.619 201.08 55.2724C201.041 54.5661 201.021 53.5133 200.91 52.1726C200.817 50.546 200.427 48.9501 199.758 47.4641C199.277 46.5749 198.564 45.8316 197.696 45.3126C196.72 44.7253 195.654 44.3033 194.54 44.0636C193.315 43.793 192.063 43.6614 190.809 43.6712H189.82L188.812 43.7497L187.791 43.8739C187.448 43.9337 187.11 44.0123 186.776 44.1093C185.368 44.4573 184.069 45.152 182.999 46.1301C181.9 47.1897 181.064 48.4906 180.557 49.9296C180.05 51.4707 179.729 53.0667 179.601 54.6839C179.411 56.3384 179.241 58.0387 179.116 59.7651C178.847 63.3311 178.759 66.9086 178.855 70.4835C178.9 72.3211 178.999 74.1326 179.136 75.9179C179.148 76.3578 179.2 76.7957 179.293 77.2258C179.429 77.6353 179.607 78.0297 179.823 78.403C180.03 78.7809 180.266 79.1418 180.531 79.482C180.765 79.8212 181.086 80.092 181.46 80.2668C182.245 80.5632 183.086 80.6816 183.922 80.6133L186.449 80.5283L191.345 80.3518L196.007 80.1883C196.766 80.1883 197.512 80.149 198.226 80.0706C198.926 80.0229 199.602 79.7978 200.19 79.4166C200.709 78.9936 201.039 78.382 201.106 77.7163C201.211 77.0623 201.224 76.4084 201.277 75.7544C201.355 74.4465 201.408 73.1844 201.44 71.9811C201.558 67.1614 201.44 63.2573 201.336 60.563C201.283 59.255 201.244 58.1825 201.218 57.4566C201.218 57.1166 201.218 56.8485 201.218 56.6523C201.188 56.5456 201.17 56.4359 201.165 56.3253Z" fill="#263238"/>
<path d="M197.63 77.7282L184.164 78.0683C182.953 78.101 181.912 77.5582 181.84 76.8519L181.427 65.9766H199.758V76.4399C199.771 77.1266 198.828 77.7021 197.63 77.7282Z" fill="#BB0A08"/>
<path d="M184.426 47.3911C183.742 48.4515 183.19 49.5913 182.783 50.7851C182.389 52.0968 182.126 53.4439 181.997 54.807C181.84 56.3438 181.774 58.0768 181.696 59.849C181.558 63.4327 181.565 66.6829 181.604 69.0044C181.604 70.1358 181.643 71.0709 181.657 71.7903C181.687 72.1297 181.687 72.4711 181.657 72.8105C181.585 72.4772 181.545 72.1377 181.539 71.7968C181.486 71.1429 181.427 70.1881 181.375 69.011C181.277 66.6567 181.231 63.4 181.375 59.8098C181.454 58.0114 181.526 56.3045 181.709 54.7481C181.847 53.3669 182.137 52.0051 182.573 50.687C182.876 49.7982 183.291 48.952 183.81 48.1693C183.947 47.9548 184.098 47.7494 184.262 47.5546C184.354 47.4499 184.419 47.3845 184.426 47.3911Z" fill="#263238"/>
<path d="M199.313 64.5068C199.256 63.854 199.256 63.1976 199.313 62.5449C199.352 61.3612 199.398 59.7198 199.391 57.9149C199.385 56.1099 199.319 54.462 199.267 53.2783C199.2 52.6264 199.19 51.9701 199.234 51.3164C199.387 51.9427 199.479 52.5821 199.509 53.226C199.627 54.4162 199.725 56.0576 199.732 57.8756C199.738 59.6936 199.653 61.3416 199.548 62.5318C199.537 63.1964 199.458 63.8581 199.313 64.5068Z" fill="#263238"/>
<path d="M197.185 77.7691C196.428 77.9005 195.662 77.9705 194.894 77.9784C193.473 78.07 191.516 78.1615 189.349 78.2465L186.292 78.3512C185.449 78.4117 184.603 78.3522 183.778 78.1746C183.213 78.0379 182.694 77.7561 182.272 77.3572C182.107 77.2193 181.985 77.038 181.918 76.834C181.918 76.834 182.062 77.0106 182.364 77.2591C182.795 77.5884 183.297 77.8124 183.83 77.913C184.638 78.0524 185.461 78.0853 186.278 78.0111L189.336 77.8803C191.503 77.7953 193.46 77.7364 194.887 77.7168C195.653 77.6782 196.421 77.6957 197.185 77.7691Z" fill="#263238"/>
<path d="M188.413 79.4954C188.314 79.4954 188.255 79.1881 188.275 78.8415C188.295 78.4949 188.38 78.1875 188.478 78.1875C188.576 78.1875 188.629 78.4883 188.616 78.8415C188.602 79.1946 188.485 79.4954 188.413 79.4954Z" fill="#263238"/>
<path d="M189.067 79.1291C188.969 79.1291 188.897 78.8609 188.897 78.5274C188.897 78.1939 188.969 77.9258 189.067 77.9258C189.165 77.9258 189.238 78.1939 189.238 78.5274C189.238 78.8609 189.133 79.1291 189.067 79.1291Z" fill="#263238"/>
<path d="M196.544 79.3122C196.452 79.3122 196.328 79.0113 196.275 78.6124C196.223 78.2135 196.275 77.8865 196.347 77.8734C196.419 77.8604 196.557 78.1743 196.616 78.5666C196.674 78.959 196.635 79.2991 196.544 79.3122Z" fill="#263238"/>
<path d="M197.264 79.4303C197.172 79.4303 197.021 79.1164 196.936 78.6848C196.851 78.2532 196.845 77.8935 196.936 77.8739C197.028 77.8543 197.179 78.1878 197.264 78.6194C197.349 79.051 197.355 79.4107 197.264 79.4303Z" fill="#263238"/>
<path d="M196.812 67.9082H185.342V71.7339H196.812V67.9082Z" fill="white"/>
<path d="M194.913 69.7775C192.433 70.0042 189.937 70.0042 187.457 69.7775C189.937 69.5507 192.433 69.5507 194.913 69.7775Z" fill="#263238"/>
<path d="M197.447 63.0488C196.821 63.5466 196.165 64.0053 195.483 64.4221C194.272 65.2461 192.602 66.384 190.796 67.6919C188.989 68.9999 187.391 70.2685 186.246 71.1841C185.646 71.7053 185.014 72.1881 184.354 72.6293C184.481 72.4576 184.628 72.3017 184.792 72.165C185.093 71.8773 185.532 71.5111 186.102 71.001C187.215 70.0331 188.792 68.7514 190.606 67.4173C192.419 66.0832 194.115 64.9649 195.365 64.1933C196.02 63.8074 196.504 63.5001 196.864 63.3039C197.045 63.1915 197.242 63.1056 197.447 63.0488Z" fill="white"/>
<path d="M192.452 63.748C191.594 64.5267 190.665 65.223 189.676 65.8276C188.749 66.5233 187.756 67.1257 186.711 67.626C187.566 66.845 188.496 66.1486 189.486 65.5464C190.413 64.8508 191.406 64.2484 192.452 63.748Z" fill="white"/>
<path d="M132.446 190.825C132.446 190.825 135.248 190.067 136.786 189.583C137.755 189.276 140.917 188.478 142.233 189.027C143.549 189.576 144.904 191.61 144.904 191.61L143.85 196.62L136.694 203.709C136.694 203.709 135.28 204.631 134.239 204.016C133.199 203.401 132.642 204.506 131.837 203.525C131.287 202.871 129.29 199.752 128.112 197.914C127.835 197.48 127.657 196.99 127.59 196.479C127.523 195.969 127.569 195.449 127.726 194.959L128.524 192.454C128.783 191.615 129.242 190.851 129.861 190.228C130.48 189.605 131.241 189.141 132.079 188.877C132.448 188.71 132.867 188.689 133.251 188.818C134.076 189.334 132.446 190.825 132.446 190.825Z" fill="#FFBE9D"/>
<path d="M138.213 193.101C137.463 192.643 136.574 192.467 135.706 192.604C134.899 192.695 134.149 193.059 133.579 193.636C133.009 194.214 132.656 194.969 132.577 195.776C132.577 195.854 132.577 195.933 132.577 196.011C132.574 196.969 132.913 197.896 133.532 198.627C134 199.209 134.676 199.587 135.418 199.68C136.129 199.699 136.829 199.498 137.421 199.104C138.177 198.681 138.8 198.056 139.221 197.299C139.593 196.597 139.695 195.783 139.51 195.01C139.324 194.238 138.863 193.559 138.213 193.101Z" fill="#E0E0E0"/>
<path d="M133.074 198.012C132.935 197.714 132.828 197.403 132.753 197.083C132.636 196.709 132.562 196.323 132.531 195.932C132.483 195.401 132.597 194.867 132.858 194.402C133.178 193.842 133.627 193.367 134.167 193.015C134.775 192.626 135.437 192.328 136.131 192.133C136.296 192.096 136.45 192.023 136.584 191.921C136.717 191.818 136.827 191.687 136.904 191.537C136.945 191.376 136.937 191.206 136.881 191.048C136.825 190.891 136.724 190.754 136.59 190.655C136.28 190.43 135.916 190.29 135.536 190.249C135.126 190.249 134.719 190.304 134.325 190.413C133.517 190.523 132.762 190.879 132.164 191.433C131.633 191.992 131.191 192.629 130.855 193.323C130.56 193.948 130.34 194.607 130.2 195.285C130.116 195.88 130.15 196.487 130.298 197.07C130.47 197.94 130.749 198.786 131.13 199.588C131.275 199.878 131.449 200.154 131.647 200.412C131.647 200.412 131.568 200.366 131.444 200.248C131.278 200.065 131.133 199.863 131.012 199.647C130.577 198.854 130.258 198.004 130.063 197.122C129.885 196.509 129.839 195.865 129.925 195.232C130.055 194.523 130.275 193.833 130.58 193.179C130.91 192.46 131.352 191.798 131.889 191.217C132.034 191.053 132.199 190.908 132.38 190.785C132.564 190.664 132.759 190.561 132.963 190.478C133.37 190.32 133.788 190.191 134.213 190.092C134.64 189.975 135.081 189.92 135.523 189.929C135.971 189.977 136.398 190.144 136.76 190.413C136.946 190.555 137.085 190.751 137.157 190.974C137.23 191.197 137.233 191.437 137.166 191.662C137.072 191.856 136.935 192.027 136.766 192.161C136.598 192.296 136.401 192.391 136.19 192.44C135.514 192.62 134.868 192.898 134.272 193.264C133.765 193.585 133.339 194.019 133.028 194.533C132.776 194.957 132.655 195.446 132.681 195.939C132.696 196.318 132.748 196.695 132.838 197.063C132.945 197.372 133.024 197.689 133.074 198.012Z" fill="#EB996E"/>
<path d="M136.622 200.629C136.102 200.416 135.593 200.176 135.097 199.91C134.557 199.75 134.026 199.56 133.506 199.341C134.092 199.227 134.7 199.317 135.228 199.596C135.797 199.772 136.289 200.136 136.622 200.629Z" fill="#EB996E"/>
<path d="M139.712 197.207C139.267 197.871 138.706 198.449 138.056 198.914C137.061 199.751 136.426 200.581 136.347 200.529C136.665 199.783 137.178 199.137 137.834 198.659C138.405 198.108 139.035 197.622 139.712 197.207Z" fill="#EB996E"/>
<path d="M140.996 192.016C140.545 192.828 140.181 193.685 139.909 194.573C139.751 195.488 139.694 196.418 139.739 197.345C139.413 196.43 139.358 195.441 139.581 194.495C139.804 193.55 140.295 192.689 140.996 192.016Z" fill="#EB996E"/>
<path d="M172.445 184.58C172.288 184.58 172.17 187.706 172.118 189.635C172.112 189.832 172.146 190.029 172.217 190.212C172.288 190.396 172.396 190.564 172.533 190.705C172.67 190.847 172.835 190.959 173.017 191.036C173.198 191.113 173.394 191.152 173.591 191.152H177.421L180.694 188.465C180.957 188.25 181.138 187.951 181.205 187.618C181.272 187.285 181.221 186.94 181.061 186.64L178.508 181.801L174.737 184.214L172.445 184.58Z" fill="#F5F5F5"/>
<path d="M172.445 184.58C172.638 184.519 172.835 184.474 173.035 184.443L174.724 184.149H174.691L178.436 181.696L178.56 181.611L178.639 181.749C179.182 182.775 179.784 183.894 180.419 185.09C180.583 185.385 180.74 185.692 180.904 185.999L181.152 186.464C181.247 186.634 181.318 186.817 181.362 187.006C181.435 187.408 181.359 187.822 181.146 188.171C181.043 188.345 180.908 188.499 180.747 188.622L180.314 188.975L177.526 191.264L177.48 191.303H173.971C173.788 191.303 173.63 191.303 173.427 191.303C173.239 191.281 173.055 191.228 172.884 191.146C172.558 190.983 172.295 190.716 172.138 190.387C172.005 190.083 171.957 189.749 172 189.42C172 188.825 172.053 188.275 172.072 187.772C172.184 185.771 172.321 184.554 172.445 184.593C172.389 184.869 172.363 185.149 172.367 185.43C172.367 185.98 172.315 186.778 172.288 187.778C172.288 188.282 172.288 188.838 172.249 189.426C172.219 189.714 172.264 190.005 172.38 190.27C172.522 190.545 172.753 190.763 173.035 190.891C173.34 191.012 173.671 191.055 173.997 191.015H177.447L177.342 191.048L180.125 188.753C180.412 188.552 180.668 188.31 180.884 188.033C181.053 187.757 181.114 187.429 181.054 187.111C180.956 186.789 180.815 186.481 180.635 186.196C180.478 185.882 180.314 185.581 180.157 185.28C179.503 184.077 178.946 182.952 178.409 181.919L178.612 181.971L174.815 184.345L173.113 184.554C172.893 184.595 172.668 184.604 172.445 184.58Z" fill="#263238"/>
<path d="M206.854 159.318L185.827 172.855L189.251 178.918L206.854 159.318Z" fill="#BB0A08"/>
<path d="M230.311 161.261C230.311 161.261 225.362 161.915 220.589 162.483C217.617 162.85 215.182 161.293 213.853 158.605H213.414L206.835 159.318C203.175 162.156 188.288 175.517 187.005 179.146C185.578 183.194 185.807 192.016 185.807 192.016L174.403 206.652C174.403 206.652 171.293 209.045 175.712 215.48C180.131 221.915 193.702 232.156 193.702 232.156C193.702 232.156 203.273 235.727 205.755 233.464C208.236 231.202 224.851 200.838 224.851 200.838C224.851 200.838 232.498 186.974 234.2 183.018C237.709 174.817 236.858 166.139 230.311 161.261Z" fill="#BB0A08"/>
<path d="M204.052 163.549C203.838 163.786 203.603 164.005 203.352 164.203L201.388 165.838C199.699 167.204 197.349 169.107 194.743 171.135C193.434 172.168 192.177 173.097 191.097 174.058C190.136 174.874 189.259 175.783 188.478 176.772C187.776 177.702 187.195 178.717 186.75 179.793C186.75 179.793 186.75 179.708 186.796 179.551C186.857 179.329 186.931 179.111 187.018 178.897C187.338 178.092 187.765 177.333 188.288 176.641C189.059 175.616 189.937 174.676 190.907 173.836C191.987 172.874 193.244 171.913 194.54 170.88C197.159 168.826 199.522 166.956 201.251 165.648L203.306 164.098C203.537 163.892 203.787 163.708 204.052 163.549Z" fill="#263238"/>
<path d="M212.229 180.016C211.725 180.67 199.228 201.452 199.228 201.452L162.567 208.862L165.087 215.768C165.087 215.768 202.206 216.977 205.401 215.467C208.596 213.956 210.566 210.889 216.059 202.185C221.761 193.147 224.57 189.191 224.57 189.191L212.229 180.016Z" fill="#FFBE9D"/>
<path d="M200.727 198.959C203.201 200.803 209.525 205.25 212.229 207.186C213.021 207.755 214.468 206.852 214.998 206.029L222.704 193.806C223.188 193.06 222.743 191.91 222.049 191.367L210.612 182.591C209.781 181.937 207.994 183.245 207.496 184.147L200.197 196.513C200.003 196.922 199.95 197.384 200.046 197.826C200.142 198.269 200.381 198.667 200.727 198.959Z" fill="#263238"/>
<path d="M217.401 187.688C217.301 187.904 217.176 188.108 217.028 188.296C216.714 188.727 216.34 189.257 215.902 189.885C214.946 191.193 213.63 193.07 212.203 195.116C210.776 197.163 209.506 199.04 208.583 200.42L207.489 202.075C207.364 202.279 207.217 202.47 207.051 202.644C207.132 202.413 207.242 202.193 207.378 201.99C207.607 201.591 207.948 201.022 208.386 200.322C209.25 198.923 210.488 197.019 211.921 194.96C213.355 192.9 214.704 191.068 215.705 189.767C216.21 189.113 216.622 188.597 216.917 188.237C217.211 187.877 217.381 187.688 217.401 187.688Z" fill="#455A64"/>
<path d="M209.447 180.887L225.074 191.154C225.074 191.154 233.584 179.382 234.003 173.974C234.422 168.566 233.041 165.571 228.111 164.4C223.182 163.23 217.899 168.697 215.941 171.371C213.683 174.465 209.447 180.887 209.447 180.887Z" fill="#BB0A08"/>
<path d="M209.447 180.887C209.473 180.831 209.506 180.778 209.545 180.73C209.624 180.606 209.728 180.449 209.853 180.246L211.09 178.389L215.712 171.502C216.83 169.948 218.136 168.538 219.601 167.304C220.41 166.603 221.287 165.986 222.219 165.46C223.203 164.88 224.272 164.461 225.388 164.217L226.272 164.1H227.175C227.476 164.1 227.777 164.185 228.079 164.23C228.38 164.276 228.668 164.381 228.962 164.459C230.181 164.791 231.303 165.408 232.236 166.258C233.163 167.192 233.782 168.388 234.01 169.684C234.245 170.994 234.306 172.328 234.193 173.654C234.002 175.458 233.485 177.213 232.668 178.833C231.934 180.436 231.116 181.946 230.285 183.411C228.596 186.295 226.861 188.924 225.191 191.259L225.106 191.37L224.989 191.298L213.656 183.764L210.521 181.658L209.709 181.103C209.615 181.046 209.528 180.98 209.447 180.906L209.755 181.089L210.612 181.632L213.813 183.692L225.139 191.049L224.943 191.089C226.592 188.754 228.314 186.125 229.984 183.241C230.808 181.802 231.62 180.292 232.347 178.703C233.146 177.119 233.652 175.404 233.84 173.641C233.948 172.348 233.891 171.047 233.669 169.769C233.456 168.533 232.869 167.392 231.987 166.5C231.097 165.679 230.021 165.087 228.851 164.773C228.563 164.695 228.281 164.603 227.993 164.544C227.705 164.485 227.424 164.446 227.136 164.414H226.278L225.434 164.525C224.352 164.758 223.314 165.159 222.357 165.715C221.443 166.235 220.579 166.839 219.777 167.52C218.325 168.731 217.026 170.114 215.908 171.64L211.221 178.389C210.665 179.173 210.232 179.795 209.912 180.239L209.565 180.723C209.53 180.781 209.49 180.835 209.447 180.887Z" fill="#263238"/>
<path d="M162.56 208.861L159.483 210.032C159.064 210.385 149.087 220.024 149.087 220.024L147.588 226.858C147.835 227.033 148.134 227.121 148.436 227.107C148.739 227.092 149.028 226.977 149.257 226.78C149.899 226.306 150.333 225.603 150.468 224.818L151.405 221.81L154.023 219.011L151.869 223.307L150.822 228.539C150.961 228.751 151.159 228.919 151.391 229.021C151.624 229.123 151.881 229.156 152.131 229.114C152.878 228.925 153.107 227.722 153.107 227.722C153.107 227.722 153.82 228.696 154.573 228.375C155.326 228.055 157.788 224.301 157.788 224.301C157.788 224.301 159.221 221.13 159.208 221.326C159.195 221.522 158.318 224.334 158.318 224.334C158.318 224.334 156.354 227.473 156.753 227.937C156.87 228.09 157.02 228.214 157.191 228.302C157.361 228.391 157.55 228.44 157.742 228.447C157.938 228.447 160.491 224.733 160.969 224.131C161.447 223.53 165.126 217.225 165.126 217.225L166.311 213.478L162.56 208.861Z" fill="#FFBE9D"/>
<path d="M157.061 220.182C156.923 220.589 156.714 220.97 156.446 221.306C155.875 222.15 155.351 223.023 154.874 223.922C154.377 224.988 154.056 226.028 153.735 226.754C153.603 227.163 153.391 227.543 153.113 227.872C153.218 227.462 153.352 227.06 153.513 226.669C153.807 225.684 154.159 224.716 154.567 223.772C155.046 222.85 155.61 221.975 156.249 221.156C156.489 220.807 156.761 220.481 157.061 220.182Z" fill="#EB996E"/>
<path d="M134.148 250.892L99.837 270.687C99.2108 271.048 98.5194 271.283 97.8024 271.377C97.0854 271.471 96.3568 271.424 95.6583 271.237C94.9598 271.05 94.305 270.727 93.7313 270.287C93.1577 269.847 92.6764 269.299 92.315 268.673C91.9525 268.048 91.717 267.357 91.6222 266.64C91.5274 265.924 91.5749 265.196 91.7623 264.498C91.9496 263.8 92.2729 263.146 92.7138 262.573C93.1546 262 93.7043 261.519 94.3313 261.159L128.642 241.364C129.907 240.636 131.41 240.439 132.82 240.817C134.23 241.194 135.433 242.115 136.164 243.378C136.527 244.003 136.762 244.694 136.857 245.41C136.952 246.127 136.904 246.855 136.717 247.553C136.53 248.251 136.206 248.905 135.765 249.478C135.325 250.051 134.775 250.531 134.148 250.892Z" fill="#455A64"/>
<path d="M134.148 250.891C134.148 250.891 134.495 250.688 135.058 250.191C135.871 249.442 136.441 248.467 136.694 247.392C136.866 246.621 136.866 245.822 136.694 245.051C136.492 244.064 136.016 243.153 135.322 242.421C134.628 241.69 133.743 241.167 132.766 240.912C131.595 240.614 130.358 240.715 129.251 241.199L94.4165 261.302C93.5986 261.776 92.9208 262.458 92.4517 263.278C91.9827 264.098 91.739 265.027 91.7454 265.971C91.7563 266.889 92.0029 267.788 92.4614 268.582C92.9199 269.377 93.5751 270.041 94.3641 270.51C95.1263 270.959 95.9884 271.213 96.8728 271.247C97.7573 271.281 98.6364 271.095 99.4311 270.706C100.976 269.862 102.488 268.96 103.968 268.123L119.68 259.118L130.246 253.082L133.133 251.453L133.886 251.035L134.148 250.904L133.906 251.068L133.166 251.512L130.312 253.2L119.771 259.334L104.125 268.404C102.639 269.254 101.159 270.144 99.5752 271.02C98.731 271.433 97.7974 271.63 96.8581 271.593C95.9188 271.557 95.0033 271.288 94.1939 270.811C93.3605 270.314 92.6667 269.614 92.1775 268.777C91.6887 267.924 91.4251 266.961 91.4115 265.978C91.4038 264.974 91.662 263.987 92.1598 263.115C92.6577 262.243 93.3775 261.518 94.2462 261.014L113.434 249.962L121.821 245.143L125.618 242.965L127.411 241.938C128.001 241.611 128.55 241.284 129.153 240.984C129.919 240.651 130.751 240.495 131.586 240.525C132.421 240.556 133.239 240.773 133.979 241.161C134.72 241.548 135.364 242.096 135.864 242.765C136.364 243.434 136.709 244.206 136.871 245.025C137.061 245.975 136.998 246.959 136.687 247.877C136.377 248.795 135.831 249.616 135.104 250.257C134.886 250.448 134.652 250.619 134.403 250.767C134.321 250.814 134.236 250.856 134.148 250.891Z" fill="#263238"/>
<path d="M242.959 134.951C239.208 138.875 237.479 144.29 236.511 149.626C236.137 151.693 235.856 153.864 236.511 155.858C237.165 157.853 239.005 159.606 241.093 159.501C243.182 159.396 244.858 157.48 246.095 155.695C251.391 148.024 254.769 140.588 257.61 131.714L257.735 131.472C252.903 129.046 246.677 131.027 242.959 134.951Z" fill="#455A64"/>
<path d="M265.008 121.35C264.601 121.153 264.158 121.039 263.706 121.015C263.254 120.99 262.802 121.056 262.376 121.207C261.95 121.359 261.558 121.593 261.223 121.897C260.888 122.201 260.617 122.569 260.425 122.978L207.85 235.891C207.317 236.998 206.48 237.931 205.437 238.581C204.394 239.232 203.187 239.573 201.958 239.566C188.583 239.507 146.652 239.317 138.253 239.2C137.525 239.192 136.808 239.365 136.164 239.703C134.846 240.539 133.887 241.835 133.473 243.339C133.067 244.833 132.848 246.37 132.819 247.917C132.622 251.455 132.426 255.143 132.23 258.799C132.186 259.667 132.32 260.535 132.624 261.35C132.928 262.165 133.395 262.909 133.997 263.537C134.599 264.165 135.323 264.664 136.124 265.003C136.926 265.342 137.788 265.514 138.658 265.509H159.693C157.997 265.509 199.228 266.287 216.439 266.607C218.616 266.649 220.756 266.036 222.582 264.85C224.407 263.663 225.834 261.956 226.678 259.95L283.011 133.867C283.37 133.06 283.402 132.146 283.102 131.316C282.802 130.486 282.192 129.804 281.401 129.413L265.008 121.35Z" fill="#455A64"/>
<path d="M265.008 121.348L266.075 121.858L269.198 123.375L281.224 129.261C281.929 129.559 282.521 130.075 282.913 130.732C283.323 131.43 283.478 132.248 283.352 133.047C283.277 133.456 283.145 133.853 282.959 134.224L282.448 135.369C282.101 136.14 281.754 136.932 281.394 137.743L276.707 148.265L265.231 173.952C256.72 193.009 246.586 215.74 235.286 241.062L226.586 260.53C225.775 262.212 224.551 263.661 223.027 264.742C221.503 265.823 219.729 266.5 217.872 266.71C216.938 266.785 216 266.798 215.064 266.749L212.255 266.697L206.599 266.592L183.437 266.161L171.588 265.932L165.604 265.814L162.593 265.755L161.087 265.722H160.328H159.673C159.608 265.794 159.634 265.069 159.673 265.376L159.725 265.716H138.658C137.589 265.708 136.536 265.445 135.588 264.951C134.646 264.453 133.84 263.733 133.24 262.853C132.64 261.973 132.264 260.96 132.144 259.902C132.094 258.869 132.116 257.833 132.21 256.802C132.262 255.776 132.321 254.756 132.374 253.735C132.483 251.695 132.594 249.663 132.708 247.641C132.819 245.633 132.989 243.514 134.017 241.709C134.524 240.799 135.274 240.047 136.184 239.538C136.651 239.303 137.156 239.152 137.676 239.093C138.2 239.034 138.691 239.093 139.195 239.093L145.159 239.133L190.815 239.407L201.591 239.473C202.453 239.52 203.316 239.393 204.128 239.1C204.94 238.807 205.685 238.353 206.318 237.766C207.627 236.615 208.105 234.875 208.884 233.345L217.349 215.152L232.543 182.552C241.839 162.6 249.362 146.486 254.533 135.33C255.843 132.55 256.988 130.098 257.997 127.927L259.384 124.964L259.987 123.656C260.157 123.263 260.352 122.881 260.569 122.512C260.97 121.911 261.553 121.452 262.232 121.204C262.718 121.018 263.24 120.949 263.758 121.001C264.072 121.028 264.381 121.101 264.674 121.217L264.962 121.348C264.581 121.177 264.174 121.071 263.758 121.034C263.244 120.99 262.726 121.064 262.245 121.25C261.581 121.503 261.015 121.961 260.628 122.558C260.414 122.926 260.223 123.309 260.059 123.702L259.456 125.01L258.088 127.986C257.093 130.131 255.941 132.609 254.651 135.401L232.733 182.643C228.098 192.61 223.025 203.531 217.578 215.256C214.854 221.125 212.039 227.182 209.133 233.43C208.773 234.208 208.406 234.993 208.046 235.778C207.68 236.591 207.157 237.324 206.507 237.936C205.848 238.551 205.071 239.028 204.223 239.337C203.374 239.646 202.473 239.781 201.571 239.734L190.796 239.675L145.133 239.42H139.169C138.671 239.42 138.161 239.388 137.689 239.42C137.211 239.479 136.746 239.618 136.315 239.832C135.464 240.312 134.764 241.019 134.292 241.873C133.29 243.592 133.113 245.646 132.982 247.654C132.852 249.661 132.766 251.708 132.655 253.748C132.603 254.769 132.544 255.789 132.491 256.809C132.403 257.822 132.378 258.84 132.419 259.856C132.535 260.86 132.893 261.82 133.464 262.654C134.034 263.488 134.799 264.171 135.693 264.643C136.592 265.115 137.591 265.364 138.606 265.369H159.64V265.709C159.588 265.984 159.594 265.271 159.64 265.376H160.295H161.048L162.554 265.409L165.565 265.467L171.549 265.585L183.398 265.814L206.527 266.259L212.183 266.363L214.992 266.416C215.915 266.465 216.84 266.452 217.761 266.376C219.575 266.181 221.308 265.527 222.798 264.475C224.287 263.424 225.483 262.009 226.272 260.367C229.244 253.731 232.146 247.248 234.979 240.918L265.008 173.835C269.27 164.32 273.119 155.713 276.504 148.167C278.193 144.396 279.764 140.893 281.217 137.658L282.278 135.29C282.448 134.904 282.618 134.519 282.789 134.146C282.971 133.787 283.102 133.404 283.175 133.008C283.3 132.239 283.154 131.451 282.762 130.778C282.385 130.143 281.813 129.646 281.132 129.359L269.139 123.434L266.029 121.884C265.342 121.537 265.008 121.348 265.008 121.348Z" fill="#263238"/>
<path d="M272.916 125.248C272.916 125.248 272.844 125.425 272.694 125.771C272.543 126.118 272.301 126.641 272 127.308C271.384 128.655 270.474 130.637 269.316 133.194L259.378 154.774C250.952 173 239.319 198.171 226.475 225.971L220.19 239.547L214.953 252.744L214.913 252.849H214.802L156.164 252.79L139.11 252.737H134.528H133.349H132.95C132.95 252.737 133.087 252.737 133.349 252.737H134.528H139.11L156.164 252.692L214.802 252.633L214.645 252.737C216.34 248.474 218.102 244.059 219.882 239.527L226.167 225.945L259.162 154.787C263.398 145.691 266.828 138.334 269.198 133.207L271.941 127.354L272.668 125.837C272.825 125.418 272.916 125.248 272.916 125.248Z" fill="#263238"/>
<g opacity="0.3">
<path d="M213.611 223.505C213.611 223.505 227.162 221.661 229.178 224.021C231.195 226.382 236.687 237.532 236.687 237.532L239.961 231.705L235.941 219.012L225.853 217.9H216.216L213.611 223.505Z" fill="black"/>
</g>
<g opacity="0.3">
<path d="M166.305 239.25L159.68 265.513H156.387L162.534 239.25H166.305Z" fill="black"/>
</g>
<path d="M260.923 122.486C261.008 122.526 257.944 129.222 254.088 137.443C250.232 145.663 247.024 152.294 246.939 152.255C246.854 152.216 249.951 145.519 253.774 137.331C257.597 129.144 260.838 122.447 260.923 122.486Z" fill="#263238"/>
<path d="M240.262 223.799C238.677 219.039 234.036 215.795 228.714 215.723C225.853 215.69 222.403 215.631 218.743 215.573C204.524 215.344 186.828 215.056 178.678 215.501C170.822 215.932 166.148 219.424 163.621 222.282C161.973 224.098 160.738 226.249 160 228.586V228.691C154.108 255.098 142.259 306.591 141.847 308.186L147.739 308.265C148.197 306.578 163.411 238.003 165.238 229.79C165.467 229.038 168.138 221.105 178.985 220.51C186.927 220.072 204.517 220.36 218.645 220.588C222.304 220.654 225.761 220.706 228.635 220.745C230.058 220.735 231.449 221.166 232.615 221.981C233.781 222.795 234.664 223.952 235.142 225.29L262.638 308.173H268.53L240.262 223.799Z" fill="#455A64"/>
<path d="M240.262 223.799C240.262 223.799 240.445 224.296 240.779 225.283C241.113 226.271 241.61 227.735 242.265 229.652L247.928 246.445L268.668 308.133L268.72 308.303H262.52V308.212C255.633 287.481 247.712 263.605 239.07 237.584L235.797 227.716L234.959 225.224C234.679 224.415 234.233 223.674 233.65 223.047C232.43 221.785 230.775 221.035 229.021 220.947L207.247 220.607C199.869 220.516 192.38 220.418 184.799 220.529C182.9 220.562 181.002 220.601 179.097 220.705C177.202 220.808 175.332 221.185 173.545 221.824C171.737 222.461 170.085 223.474 168.698 224.796C167.311 226.119 166.221 227.72 165.5 229.495C165.453 229.608 165.414 229.723 165.382 229.841C159.241 257.379 153.329 283.878 147.876 308.316V308.441H147.745L141.853 308.362H141.657L141.703 308.166L157.048 241.076C157.624 238.556 158.194 236.073 158.757 233.628C159.04 232.403 159.317 231.188 159.588 229.985C159.738 229.383 159.83 228.782 160.033 228.187C160.231 227.604 160.465 227.034 160.734 226.48C161.784 224.309 163.242 222.36 165.028 220.738C166.759 219.178 168.754 217.938 170.92 217.076C172.993 216.251 175.173 215.725 177.395 215.513C179.575 215.317 181.702 215.291 183.784 215.238C187.954 215.166 191.935 215.179 195.719 215.199C203.287 215.251 210.075 215.369 216.013 215.474L224.242 215.611L227.856 215.67C228.953 215.652 230.05 215.741 231.129 215.938C232.086 216.119 233.018 216.414 233.905 216.814C234.684 217.163 235.426 217.59 236.118 218.09C237.581 219.146 238.781 220.524 239.627 222.118C239.797 222.484 239.954 222.772 240.052 223.04C240.242 223.557 240.334 223.818 240.334 223.818L240.026 223.053C239.928 222.798 239.764 222.504 239.594 222.138C239.368 221.727 239.119 221.33 238.848 220.947C238.087 219.866 237.149 218.922 236.072 218.155C235.382 217.662 234.642 217.241 233.866 216.899C232.984 216.505 232.059 216.218 231.11 216.043C230.043 215.852 228.959 215.766 227.876 215.788L224.262 215.742L216.033 215.624C210.108 215.539 203.319 215.434 195.738 215.395C191.954 215.395 187.974 215.395 183.81 215.461C181.729 215.506 179.594 215.546 177.441 215.735C175.242 215.953 173.085 216.477 171.031 217.292C168.901 218.151 166.939 219.379 165.238 220.921C163.476 222.521 162.038 224.443 161.002 226.584C160.752 227.132 160.533 227.693 160.347 228.265C160.164 228.828 160.059 229.449 159.915 230.044C159.64 231.247 159.363 232.461 159.084 233.686C158.53 236.132 157.964 238.617 157.388 241.142C152.806 261.329 147.634 283.911 142.082 308.244L141.932 308.042L147.824 308.12L147.667 308.238C153.107 283.806 159.012 257.307 165.146 229.763C165.185 229.645 165.225 229.521 165.27 229.403C165.985 227.589 167.075 225.945 168.468 224.58C169.861 223.214 171.526 222.157 173.355 221.477C175.179 220.83 177.086 220.447 179.018 220.339C180.923 220.235 182.828 220.195 184.727 220.163C192.314 220.058 199.784 220.163 207.188 220.248L228.975 220.594C230.813 220.684 232.546 221.472 233.82 222.798C234.448 223.453 234.929 224.233 235.234 225.087C235.516 225.924 235.797 226.755 236.072 227.585C237.172 230.907 238.263 234.197 239.345 237.453L262.743 308.133L262.618 308.042H268.51L268.393 308.205C259.692 282.184 252.641 261.081 247.758 246.484C245.329 239.186 243.443 233.516 242.16 229.671L240.714 225.29C240.419 224.309 240.262 223.799 240.262 223.799Z" fill="#263238"/>
</g>
<defs>
<clipPath id="clip0_3325_3297">
<rect width="283" height="327" fill="white"/>
</clipPath>
</defs>
</svg>
