<svg width="227" height="263" viewBox="0 0 227 263" fill="none" xmlns="http://www.w3.org/2000/svg">
<g clip-path="url(#clip0_3336_3186)">
<path d="M187.365 29.5439L186.184 27.6128C176.281 11.2732 158.363 1.44719 139.478 2.64295C137.047 2.79014 134.631 3.12034 132.25 3.63075C115.111 7.30716 100.135 20.2897 93.9391 36.9189C90.2989 46.693 89.2812 57.9525 82.3648 65.7138C73.3684 75.822 58.0946 76.1117 44.6705 75.718C31.2465 75.3244 15.9578 75.6586 7.00591 85.7966C1.39708 92.1467 -0.385856 101.178 0.0673074 109.69C1.26336 132.208 16.9607 152.343 36.9222 162.355C56.8837 172.367 80.3887 173.258 102.237 168.854C132.837 162.689 161.943 145.748 179.438 119.59C196.934 93.4316 201.361 57.7816 187.365 29.5439Z" fill="#B2CFD8"/>
<path d="M78.9418 111.783L80.034 116.222L93.7343 118.852V124.711C93.7343 124.711 75.5968 126.337 73.8324 125.406C72.068 124.475 69.3531 114.329 69.3531 114.329L78.9418 111.783Z" fill="#FFBE9D"/>
<path d="M79.7609 116.449C79.803 116.523 78.9943 116.975 78.2486 117.811C77.5029 118.648 77.1091 119.479 77.0303 119.447C77.2235 118.77 77.5706 118.147 78.0443 117.627C78.5181 117.107 79.1056 116.704 79.7609 116.449Z" fill="#EB996E"/>
<path d="M78.9418 111.783L80.034 116.222L93.7343 118.852V124.711C93.7343 124.711 75.5968 126.337 73.8324 125.406C72.068 124.475 69.3531 114.329 69.3531 114.329L78.9418 111.783Z" fill="#FFBE9D"/>
<path d="M59.4127 82.9541L55.5846 82.123L41.9158 83.2486L39.0014 84.5057L51.4782 99.1328L59.4127 82.9541Z" fill="#FFBE9D"/>
<path d="M64.4486 67.6397C64.0075 64.54 63.5681 61.442 63.1305 58.3458L53.2478 56.668L50.9793 81.7777L65.0945 82.8296C65.5965 82.0475 65.8442 81.1287 65.8034 80.1998C65.6353 76.6705 64.6376 68.9809 64.4486 67.6397Z" fill="#263238"/>
<path d="M37.0637 61.1853C37.2674 59.1226 37.8799 57.1214 38.8654 55.2989C39.851 53.4763 41.1897 51.8691 42.8032 50.5713C45.7176 48.3201 49.0206 47.71 52.6964 47.8941C54.5028 47.9887 56.5403 48.8408 58.1104 49.7455C60.2634 50.992 61.1561 53.4851 62.18 55.752C64.2332 60.2911 63.9182 66.4134 62.4899 68.1017L36.6961 83.3548C33.3669 81.5823 33.8027 75.6652 34.9422 72.0675C35.9699 68.5103 36.6799 64.8685 37.0637 61.1853Z" fill="#263238"/>
<path d="M43.2706 54.0051L55.1802 50.5916C59.0083 50.0656 61.7127 54.7257 62.075 58.581C62.4794 62.8624 62.7997 68.1116 62.3953 71.3252C61.5762 77.7999 56.6716 78.7729 56.6716 78.7729C56.6716 78.7729 56.6716 78.8676 56.6716 80.7821L56.7608 83.5645C55.3063 88.8242 45.1243 87.9616 44.0425 84.243L41.3119 56.3667C41.2819 55.7985 41.4668 55.2398 41.8299 54.802C42.1929 54.3643 42.7074 54.0798 43.2706 54.0051Z" fill="#FFBE9D"/>
<path d="M60.5837 64.823C60.5924 65.0386 60.5164 65.249 60.3722 65.4093C60.2279 65.5695 60.0268 65.6668 59.8118 65.6804C59.7073 65.6927 59.6014 65.6839 59.5004 65.6543C59.3995 65.6247 59.3055 65.5751 59.2241 65.5083C59.1427 65.4415 59.0756 65.359 59.0268 65.2656C58.978 65.1723 58.9485 65.0701 58.9401 64.965C58.9313 64.7498 59.0063 64.5395 59.1494 64.3786C59.2924 64.2176 59.4922 64.1186 59.7067 64.1025C59.8118 64.0908 59.9181 64.1004 60.0194 64.1305C60.1207 64.1606 60.215 64.2107 60.2967 64.2778C60.3784 64.345 60.4458 64.4278 60.4951 64.5214C60.5444 64.615 60.5745 64.7176 60.5837 64.823Z" fill="#263238"/>
<path d="M60.946 62.3155C60.8463 62.426 60.2109 61.9841 59.3234 62.0104C58.436 62.0367 57.8006 62.5048 57.7008 62.3997C57.601 62.2945 57.7481 62.1577 58.0264 61.9421C58.4004 61.6626 58.8517 61.5064 59.3182 61.495C59.7811 61.4822 60.2364 61.6146 60.6205 61.8737C60.8988 62.063 60.9985 62.2629 60.946 62.3155Z" fill="#263238"/>
<path d="M52.2974 64.7358C52.3061 64.951 52.2311 65.1613 52.0881 65.3223C51.945 65.4832 51.7452 65.5822 51.5307 65.5984C51.4259 65.61 51.3199 65.6004 51.2189 65.5702C51.1179 65.54 51.024 65.4899 50.9427 65.4227C50.8614 65.3555 50.7944 65.2726 50.7457 65.179C50.697 65.0854 50.6675 64.983 50.659 64.8778C50.6489 64.6627 50.7237 64.4523 50.8671 64.2919C51.0105 64.1315 51.2111 64.034 51.4257 64.0205C51.53 64.0088 51.6356 64.0182 51.7363 64.0481C51.837 64.0779 51.9307 64.1276 52.0119 64.1943C52.0931 64.2609 52.1602 64.3432 52.2092 64.4362C52.2582 64.5291 52.2882 64.631 52.2974 64.7358Z" fill="#263238"/>
<path d="M52.2816 62.3468C52.1818 62.4572 51.5412 62.0154 50.6537 62.0417C49.7663 62.068 49.1309 62.5677 49.0311 62.4309C48.9314 62.2942 49.0784 62.189 49.3567 61.9734C49.7323 61.6932 50.1856 61.537 50.6537 61.5263C51.115 61.5131 51.5688 61.6456 51.9508 61.905C52.2291 62.1048 52.3289 62.2942 52.2816 62.3468Z" fill="#263238"/>
<path d="M55.6423 68.5761C56.1043 68.4167 56.584 68.3142 57.0707 68.271C57.2965 68.2447 57.5118 68.1921 57.5433 68.0343C57.5573 67.7996 57.4986 67.5663 57.3752 67.3663L56.6506 65.6622C55.6423 63.227 54.9072 61.2283 55.0017 61.1862C55.0962 61.1441 55.9994 63.085 57.0024 65.5149C57.2492 66.1145 57.4802 66.6878 57.7008 67.2348C57.8532 67.5044 57.9053 67.8193 57.8478 68.1237C57.8164 68.204 57.7676 68.2762 57.7049 68.3354C57.6423 68.3945 57.5674 68.4389 57.4855 68.4656C57.3606 68.5017 57.232 68.5228 57.1022 68.5287C56.6198 68.6093 56.1289 68.6253 55.6423 68.5761Z" fill="#263238"/>
<path d="M56.6716 78.7734C53.6386 79.1137 50.5747 78.5095 47.8969 77.043C47.8969 77.043 50.2652 81.419 56.6821 80.6143L56.6716 78.7734Z" fill="#EB996E"/>
<path d="M52.7279 70.3385C52.8295 70.1711 52.9709 70.0316 53.1396 69.9324C53.3082 69.8333 53.4987 69.7776 53.6942 69.7704C53.968 69.7411 54.2446 69.7862 54.495 69.901C54.7454 70.0157 54.9603 70.1959 55.1172 70.4226C55.2308 70.6335 55.2608 70.8795 55.2012 71.1116C55.154 71.2273 55.2012 71.1695 55.1015 71.2536C54.8068 71.5771 54.4371 71.8228 54.025 71.969C53.8019 72.0325 53.565 72.0274 53.3449 71.9542C53.1248 71.8811 52.9318 71.7432 52.791 71.5587C52.6695 71.3807 52.5994 71.1727 52.5883 70.9574C52.5771 70.7422 52.6255 70.528 52.7279 70.3385Z" fill="#EB996E"/>
<path d="M52.8907 69.3126C53.0325 69.3126 53.0693 70.2646 53.941 70.9168C54.8127 71.569 55.8104 71.4428 55.8261 71.5637C55.8261 71.6216 55.6003 71.7583 55.1697 71.7846C54.604 71.8151 54.0458 71.6436 53.5944 71.3007C53.1574 70.9753 52.8637 70.4925 52.7752 69.9543C52.7227 69.5493 52.8225 69.3073 52.8907 69.3126Z" fill="#263238"/>
<path d="M52.5967 59.5388C52.5284 59.786 51.6357 59.7544 50.6117 59.97C49.5877 60.1857 48.7686 60.5486 48.611 60.3435C48.5428 60.2436 48.6688 60.0069 48.9839 59.7439C49.408 59.4126 49.9048 59.1872 50.4332 59.0864C50.9541 58.9742 51.4943 58.9886 52.0085 59.1285C52.4076 59.2495 52.6229 59.4336 52.5967 59.5388Z" fill="#263238"/>
<path d="M60.904 60.3658C60.6992 60.5393 60.0586 60.229 59.2446 60.0923C58.4307 59.9555 57.7271 59.9976 57.601 59.7662C57.5485 59.6504 57.6851 59.4716 58.0159 59.3243C58.4624 59.1599 58.9447 59.118 59.4128 59.2031C59.881 59.2882 60.3179 59.4971 60.6782 59.8082C60.9303 60.0607 60.9933 60.2816 60.904 60.3658Z" fill="#263238"/>
<path d="M55.1907 50.1455C55.551 52.7515 55.1876 55.4065 54.1405 57.8193C53.8742 58.5026 53.4682 59.1224 52.9485 59.6392C52.6854 59.894 52.3667 60.0842 52.0177 60.1946C51.6687 60.305 51.2988 60.3328 50.9373 60.2756C52.0387 58.8392 52.6647 57.0942 52.7279 55.2842C51.956 57.1093 51.1526 58.9659 49.8608 60.4649C48.569 61.9639 46.6418 63.058 44.6674 62.8686L44.8092 61.5484C44.5648 62.517 44.0118 63.3794 43.2338 64.0047C42.8385 64.3056 42.3578 64.4729 41.8613 64.4824C41.3649 64.4918 40.8782 64.343 40.4717 64.0573C41.1491 60.8384 39.1904 57.3302 40.4402 54.2848C41.3014 52.181 43.4964 50.9186 45.6914 50.2349C48.7683 49.2822 52.0421 49.1625 55.1802 49.8877" fill="#263238"/>
<path d="M54.9282 50.1973C54.9282 50.2447 54.9282 50.2922 54.9545 50.3397L54.9282 50.1973Z" fill="#263238"/>
<path d="M54.9544 50.341L55.3483 50.178C56.5613 49.5573 57.3595 48.8473 59.2394 50.5251C60.329 51.5733 61.2047 52.8238 61.8177 54.2069C62.4689 55.4443 62.9443 56.7667 63.2303 58.1358C63.5079 59.7695 63.5486 61.4347 63.3511 63.0799C62.2588 62.3541 61.7074 61.055 61.3609 59.7926C61.0143 58.5303 60.8357 57.2049 60.1794 56.0583C60.4208 57.1275 60.4829 58.2296 60.3631 59.3193C60.3396 59.6205 60.2135 59.9046 60.0061 60.124C59.8999 60.2294 59.7564 60.2885 59.607 60.2885C59.4575 60.2885 59.3141 60.2294 59.2079 60.124C59.5727 58.8577 59.5727 57.5139 59.2079 56.2476C58.8497 54.9889 58.3659 53.7696 57.7638 52.6079C58.0481 54.79 57.9575 57.0047 57.496 59.1562C57.4577 59.4713 57.3302 59.7688 57.1284 60.0136C56.9415 60.1577 56.724 60.2568 56.4927 60.3034C56.2615 60.3499 56.0226 60.3425 55.7946 60.2818C55.3392 60.159 54.8625 60.1375 54.3978 60.2187C55.4748 57.0377 55.6672 53.6232 54.9544 50.341Z" fill="#263238"/>
<path d="M46.5421 75.5863C45.5496 71.8361 46.1955 62.2162 44.9352 58.5449L39.9729 59.1971L36.6961 83.3338L48.1805 83.7756L46.5421 75.5863Z" fill="#263238"/>
<path d="M62.7787 232.782L62.2536 242.47C62.2536 242.47 71.9157 245.542 71.9945 247.341L53.2006 247.724L53.3791 232.598L62.7787 232.782Z" fill="#455A64"/>
<g opacity="0.6">
<path d="M56.472 241.555C56.293 241.611 56.1408 241.73 56.044 241.891C55.9472 242.052 55.9127 242.243 55.9469 242.428C55.9975 242.607 56.1137 242.761 56.2723 242.858C56.4309 242.956 56.6203 242.99 56.8029 242.954C56.9943 242.897 57.1585 242.772 57.264 242.602C57.3695 242.433 57.4091 242.23 57.3752 242.033C57.3095 241.846 57.1734 241.692 56.9959 241.603C56.8184 241.515 56.6135 241.499 56.4248 241.56" fill="white"/>
</g>
<g opacity="0.6">
<path d="M53.2163 247.731V246.211L71.3748 246.469C71.568 246.565 71.7341 246.709 71.8579 246.886C71.9817 247.063 72.0593 247.269 72.0838 247.484L53.2163 247.731Z" fill="white"/>
</g>
<path d="M62.5739 242.382C62.5739 242.477 62.1118 242.508 61.6549 242.797C61.1981 243.087 60.9513 243.465 60.8672 243.429C60.7832 243.392 60.9303 242.861 61.4869 242.524C62.0435 242.187 62.5949 242.298 62.5739 242.382Z" fill="#263238"/>
<path d="M64.5326 243.234C64.5326 243.324 64.1492 243.471 63.8342 243.855C63.5191 244.239 63.4193 244.649 63.309 244.644C63.1988 244.638 63.1673 244.118 63.5768 243.65C63.9864 243.182 64.5326 243.145 64.5326 243.234Z" fill="#263238"/>
<path d="M65.6091 245.627C65.525 245.627 65.4095 245.18 65.6511 244.68C65.8926 244.18 66.3285 243.991 66.3652 244.07C66.402 244.149 66.1342 244.412 65.9399 244.822C65.7456 245.232 65.7036 245.627 65.6091 245.627Z" fill="#263238"/>
<path d="M62.4479 240.161C62.4058 240.245 61.9858 240.109 61.4711 240.135C60.9565 240.161 60.5417 240.319 60.4944 240.24C60.4472 240.161 60.8463 239.84 61.4554 239.814C62.0645 239.788 62.4951 240.088 62.4479 240.161Z" fill="#263238"/>
<path d="M62.5161 238.206C62.2068 238.291 61.8803 238.291 61.5709 238.206C61.0331 238.096 60.5203 237.888 60.0586 237.59C59.9545 237.53 59.8606 237.454 59.7803 237.364C59.7199 237.299 59.6834 237.215 59.6768 237.126C59.6701 237.037 59.6936 236.949 59.7435 236.875C59.7913 236.813 59.8525 236.762 59.9225 236.727C59.9924 236.691 60.0694 236.672 60.1479 236.67C60.267 236.671 60.3853 236.689 60.4997 236.723C60.6998 236.778 60.8948 236.85 61.0826 236.938C61.3988 237.086 61.6895 237.283 61.9438 237.522C62.3691 237.932 62.5161 238.279 62.4689 238.295C62.4216 238.311 62.2168 238.032 61.781 237.69C61.524 237.495 61.2435 237.332 60.946 237.206C60.7762 237.132 60.6006 237.073 60.4209 237.028C60.2214 236.975 60.0533 236.97 60.0008 237.054C59.9483 237.138 60.0008 237.101 60.0008 237.164C60.062 237.227 60.1308 237.282 60.2056 237.327C60.3642 237.435 60.5291 237.534 60.6992 237.622C60.9877 237.772 61.2903 237.894 61.6024 237.985C61.9125 238.033 62.2181 238.107 62.5161 238.206Z" fill="#263238"/>
<path d="M62.3848 238.335C62.2164 238.061 62.1358 237.742 62.1538 237.42C62.1412 237.064 62.191 236.708 62.3008 236.368C62.3653 236.172 62.4479 235.981 62.5476 235.8C62.6009 235.677 62.6848 235.569 62.7914 235.487C62.898 235.405 63.0238 235.352 63.1568 235.332C63.2408 235.336 63.3221 235.363 63.3909 235.412C63.4598 235.46 63.5134 235.528 63.5453 235.606C63.5943 235.716 63.6261 235.833 63.6399 235.953C63.6689 236.162 63.6689 236.374 63.6399 236.584C63.5808 236.936 63.4365 237.268 63.2198 237.552C62.8417 238.036 62.4584 238.135 62.4531 238.104C62.4479 238.072 62.7472 237.888 63.036 237.425C63.2016 237.157 63.3072 236.855 63.3458 236.542C63.3678 236.367 63.3678 236.19 63.3458 236.016C63.3195 235.811 63.246 235.648 63.1725 235.669C63.099 235.69 62.9152 235.816 62.8364 235.974C62.74 236.141 62.6591 236.317 62.5949 236.5C62.4847 236.801 62.4175 237.116 62.3953 237.436C62.3481 237.972 62.4426 238.32 62.3848 238.335Z" fill="#263238"/>
<path d="M43.1393 231.73L42.777 244.243L39.6263 254.053C39.5721 254.22 39.5529 254.396 39.5699 254.571C39.5868 254.746 39.6396 254.915 39.7248 255.069C39.8101 255.222 39.926 255.356 40.0653 255.463C40.2047 255.57 40.3645 255.646 40.5347 255.688C40.7331 255.738 40.9404 255.739 41.1395 255.693C41.3386 255.646 41.5237 255.553 41.6795 255.42C43.6749 253.684 50.9951 247.283 50.9741 246.368C50.9425 245.316 52.2238 233.219 52.2238 233.219L43.1393 231.73Z" fill="#455A64"/>
<g opacity="0.6">
<path d="M40.5557 255.688L51.0581 245.521L51.0318 246.047C51.0073 246.505 50.8212 246.94 50.5067 247.273C49.6665 248.167 47.293 250.576 41.7583 255.415C41.5985 255.553 41.4071 255.65 41.201 255.697C40.9949 255.744 40.7805 255.739 40.5767 255.683L40.5557 255.688Z" fill="white"/>
</g>
<g opacity="0.6">
<path d="M48.6846 241.36C48.5245 241.464 48.4089 241.624 48.3604 241.809C48.3118 241.993 48.3338 242.19 48.422 242.359C48.5205 242.522 48.6781 242.641 48.8619 242.691C49.0458 242.741 49.2418 242.718 49.4092 242.627C49.5759 242.516 49.6959 242.348 49.7463 242.154C49.7967 241.96 49.7739 241.754 49.6823 241.575C49.5622 241.418 49.3862 241.313 49.1907 241.281C48.9953 241.25 48.7953 241.295 48.6321 241.407" fill="white"/>
</g>
<path d="M43.6907 250.361C43.6224 250.392 43.3704 249.724 42.6405 249.335C42.1946 249.128 41.7133 249.009 41.2227 248.983C41.2227 248.951 41.3749 248.862 41.669 248.835C42.0553 248.813 42.4399 248.903 42.777 249.093C43.1165 249.279 43.3941 249.561 43.5752 249.903C43.7117 250.182 43.7222 250.361 43.6907 250.361Z" fill="#263238"/>
<path d="M42.7192 252.006C42.064 251.493 41.2608 251.207 40.4297 251.19C40.6276 251.079 40.8491 251.018 41.0757 251.011C41.3023 251.003 41.5274 251.05 41.732 251.148C42.4567 251.411 42.7822 251.974 42.7192 252.006Z" fill="#263238"/>
<path d="M45.4551 248.32C44.9587 247.928 44.4319 247.576 43.8797 247.268C43.2823 247.048 42.6698 246.872 42.0471 246.742C42.7073 246.602 43.3956 246.701 43.99 247.02C44.6185 247.263 45.1387 247.724 45.4551 248.32Z" fill="#263238"/>
<path d="M45.8857 244.521C45.8489 244.594 45.1715 244.273 44.2788 244.194C43.3861 244.116 42.6615 244.294 42.6352 244.194C43.1395 243.901 43.7312 243.797 44.3051 243.9C44.8883 243.915 45.4477 244.135 45.8857 244.521Z" fill="#263238"/>
<path d="M46.1062 240.855C45.5739 240.648 45.0154 240.517 44.4469 240.466C43.8741 240.498 43.3086 240.609 42.7665 240.797C42.7665 240.766 42.8925 240.618 43.1918 240.466C43.5838 240.274 44.0161 240.18 44.4521 240.192C44.8861 240.197 45.3127 240.305 45.6966 240.508C45.9644 240.671 46.1062 240.829 46.1062 240.855Z" fill="#263238"/>
<path d="M44.4784 239.766C44.4425 239.611 44.4425 239.449 44.4784 239.293C44.541 238.862 44.6911 238.449 44.9195 238.078C45.0588 237.789 45.2896 237.554 45.5759 237.41C45.675 237.374 45.7826 237.369 45.8847 237.395C45.9868 237.422 46.0786 237.478 46.1482 237.557C46.2766 237.719 46.3369 237.925 46.3163 238.131C46.2637 238.547 46.0684 238.932 45.7638 239.22C45.4592 239.507 45.0642 239.68 44.6464 239.709C44.2314 239.729 43.8198 239.625 43.4636 239.41C43.1075 239.196 42.8229 238.881 42.6457 238.504C42.6015 238.409 42.5786 238.304 42.5786 238.199C42.5786 238.094 42.6015 237.99 42.6457 237.894C42.7007 237.808 42.7797 237.739 42.873 237.697C42.9663 237.655 43.0698 237.641 43.1708 237.657C43.4732 237.741 43.7485 237.902 43.969 238.125C44.2939 238.414 44.5658 238.758 44.7724 239.141C44.8595 239.274 44.9168 239.425 44.9405 239.582C44.64 239.095 44.2703 238.654 43.843 238.273C43.6432 238.085 43.3994 237.951 43.1341 237.883C43.078 237.87 43.0191 237.875 42.9662 237.898C42.9132 237.921 42.8689 237.96 42.84 238.01C42.8163 238.074 42.8064 238.144 42.8109 238.212C42.8154 238.281 42.8343 238.348 42.8663 238.409C43.0285 238.731 43.2797 238.998 43.5898 239.18C43.8999 239.362 44.2558 239.451 44.6149 239.435C44.9685 239.407 45.3024 239.261 45.5626 239.019C45.8228 238.778 45.994 238.455 46.0485 238.104C46.065 237.96 46.0296 237.815 45.9487 237.694C45.9108 237.65 45.8604 237.618 45.8042 237.603C45.7479 237.588 45.6885 237.591 45.6336 237.61C45.3969 237.725 45.1996 237.908 45.0665 238.136C44.7737 238.639 44.5745 239.192 44.4784 239.766Z" fill="#263238"/>
<path d="M56.6453 152.178L54.193 239.116L40.8551 240.194L29.7331 150.18L56.6453 152.178Z" fill="#BB0A08"/>
<path d="M74.6306 151.072C74.6306 151.072 72.8242 178.665 71.1018 189.005C69.3794 199.346 65.1837 236.71 63.225 237.573C61.2664 238.435 49.8188 237.263 49.8188 237.263L45.7334 151.945L74.6306 151.072Z" fill="#BB0A08"/>
<g opacity="0.3">
<path d="M74.2577 156.48L74.1422 158.037L52.9065 160.72L46.7784 157.227L34.4801 156.591L74.2577 156.48Z" fill="black"/>
</g>
<path d="M54.6499 238.262C54.7234 238.262 54.3926 220.463 53.9094 198.52C53.4263 176.577 52.98 158.778 52.9065 158.783C52.833 158.788 53.169 176.571 53.6521 198.525C54.1353 220.479 54.5816 238.262 54.6499 238.262Z" fill="#263238"/>
<path d="M70.1356 114.903L80.7639 111.142C80.7639 111.142 73.9952 87.8365 72.8032 87.563C71.6111 87.2895 58.583 81.5723 58.583 81.5723L50.7483 97.4091L38.7861 83.7024C38.7861 83.7024 27.6274 92.0864 26.9605 93.9483C26.2936 95.8102 35.4674 122.561 35.4674 122.561C35.4674 122.561 31.3452 128.951 30.5523 136.136C29.7593 143.321 31.3452 156.896 31.3452 156.896L76.626 156.481C76.626 156.481 77.1091 136.431 73.6643 125.974C72.2938 121.83 70.8182 117.107 70.1356 114.903Z" fill="#BB0A08"/>
<path d="M47.5975 103.909C47.5214 103.873 47.4424 103.843 47.3613 103.82C47.1233 103.737 46.8766 103.682 46.6261 103.657C45.677 103.574 44.7208 103.677 43.8115 103.962C42.6299 104.277 41.2331 104.788 39.6105 105.335C38.8071 105.608 37.9512 105.861 37.0322 106.118C36.0847 106.391 35.1081 106.55 34.1231 106.592H34.0285V106.723C34.7164 110.526 35.5199 114.986 36.3706 119.73C36.4178 119.978 36.4598 120.214 36.5018 120.451L36.5333 120.619L36.6856 120.551C37.7709 120.053 38.8509 119.588 39.9256 119.157C40.9488 118.719 42.0017 118.353 43.0763 118.063C45.0856 117.654 47.121 117.387 49.1676 117.264H49.2884V117.148C48.7948 113.177 48.38 109.863 48.0912 107.523C47.9389 106.387 47.8233 105.487 47.7393 104.851C47.6973 104.556 47.6658 104.325 47.6448 104.151C47.6372 104.073 47.6214 103.995 47.5975 103.92V104.172C47.5975 104.351 47.6396 104.588 47.6711 104.888C47.7393 105.535 47.8391 106.465 47.9599 107.591C48.2277 109.921 48.6005 113.219 49.0521 117.174L49.1519 117.048C47.0972 117.16 45.053 117.417 43.0343 117.816C41.9391 118.108 40.8654 118.475 39.8206 118.915C38.7493 119.346 37.6658 119.813 36.5701 120.314L36.7539 120.409C36.7119 120.172 36.6699 119.93 36.6226 119.688L34.2491 106.681L34.1283 106.818C35.1371 106.774 36.1369 106.608 37.1057 106.323C38.0299 106.076 38.8911 105.797 39.6893 105.513C41.2909 104.951 42.6772 104.425 43.8482 104.093C45.0463 103.632 46.3602 103.568 47.5975 103.909Z" fill="#263238"/>
<path d="M26.9605 93.9473L20.0552 120.035L34.0443 125.106L35.4674 122.56L26.9605 93.9473Z" fill="#BB0A08"/>
<path d="M76.626 151.441H76.5105L76.1797 151.498L74.8931 151.714C73.7799 151.893 72.1625 152.14 70.1671 152.282C69.073 152.366 67.974 152.366 66.8799 152.282C66.5817 152.258 66.2854 152.216 65.9924 152.156C65.8454 152.124 65.6931 152.103 65.5461 152.061L65.1102 151.919C64.5221 151.756 64.2018 151.135 63.934 150.557C63.6783 149.929 63.4797 149.28 63.3406 148.616C63.1883 147.932 63.0675 147.233 62.9677 146.512C62.7629 145.076 62.6317 143.577 62.5371 142.036C62.3376 138.675 62.3113 135.472 62.3586 132.642L62.2431 132.758L71.5849 132.558L74.242 132.485L74.9457 132.453C75.0259 132.462 75.1069 132.462 75.1872 132.453H74.9457H71.5849L62.2378 132.558H62.1223V132.674C62.0593 135.509 62.075 138.717 62.2798 142.089C62.3743 143.635 62.5056 145.139 62.7157 146.586C62.8155 147.312 62.9415 148.017 63.099 148.69C63.2441 149.368 63.4497 150.031 63.7134 150.673C63.8538 150.986 64.03 151.283 64.2385 151.556C64.3453 151.69 64.4649 151.814 64.5956 151.924C64.7359 152.023 64.8898 152.101 65.0524 152.156L65.5093 152.303C65.6668 152.345 65.8191 152.366 65.9714 152.398C66.2712 152.458 66.5747 152.499 66.8799 152.519C67.9852 152.596 69.0949 152.586 70.1986 152.487C71.7933 152.356 73.3797 152.138 74.9509 151.835C75.5075 151.73 75.9329 151.635 76.2269 151.572L76.5525 151.488C76.5893 151.477 76.6313 151.446 76.626 151.441Z" fill="#263238"/>
<path d="M62.3533 135.926C62.3533 136 65.336 136.058 69.0118 136.058C72.6876 136.058 75.6703 136 75.6703 135.926C75.6703 135.853 72.6876 135.795 69.0118 135.795C65.336 135.795 62.3533 135.858 62.3533 135.926Z" fill="#263238"/>
<path d="M56.3355 106.813C56.2778 106.855 59.6963 111.478 63.976 117.132C68.2557 122.786 71.7634 127.341 71.837 127.283C71.9105 127.226 68.4762 122.618 64.1965 116.959C59.9168 111.299 56.3933 106.771 56.3355 106.813Z" fill="#263238"/>
<path d="M70.7867 109.785C70.86 109.525 70.9093 109.259 70.9338 108.991C71.0125 108.465 71.107 107.734 71.2068 106.808C71.4729 104.401 71.6148 101.982 71.6321 99.5601C71.6501 97.1355 71.5256 94.7118 71.2593 92.3018C71.1543 91.3814 71.0493 90.6345 70.9653 90.119C70.9346 89.8521 70.8819 89.5883 70.8077 89.3301C70.8067 89.5994 70.826 89.8684 70.8655 90.1348C70.918 90.6608 70.9915 91.3971 71.0755 92.3228C71.2383 94.169 71.3906 96.7252 71.3748 99.5549C71.3591 102.385 71.1806 104.941 71.0283 106.792C70.9495 107.681 70.8812 108.417 70.834 108.98C70.797 109.247 70.7812 109.516 70.7867 109.785Z" fill="#263238"/>
<path d="M60.694 101.416C60.7508 101.658 60.8299 101.894 60.9303 102.121C61.0983 102.568 61.3556 103.204 61.6812 103.993C62.3376 105.571 63.2565 107.722 64.4118 110.068C65.567 112.414 66.6383 114.497 67.4627 115.991C67.8723 116.737 68.2136 117.337 68.4605 117.742C68.5736 117.963 68.7072 118.172 68.8595 118.368C68.7778 118.134 68.6741 117.909 68.5497 117.695C68.3082 117.232 67.9984 116.643 67.6255 115.901C66.8431 114.392 65.7771 112.293 64.6481 109.952C63.5191 107.612 62.5476 105.476 61.8492 103.92L61.0248 102.079C60.9324 101.849 60.8218 101.628 60.694 101.416Z" fill="#263238"/>
<path d="M35.4674 86.2573C35.5325 86.3788 35.61 86.4934 35.6984 86.5992C35.8665 86.8358 36.1028 87.1567 36.3968 87.5564L39.0224 91.0752L47.9756 102.873L48.0124 102.92H53.7887L53.8255 102.846C56.3933 97.4025 58.6723 92.5689 60.3264 89.0712C61.1298 87.3408 61.7757 85.9154 62.2378 84.9529L62.7629 83.8378C62.8154 83.7221 62.8522 83.6222 62.889 83.5433C62.9029 83.5106 62.9152 83.4773 62.9257 83.4434C62.9257 83.4434 62.9257 83.4697 62.868 83.5328L62.7209 83.8168L62.1696 84.9161L60.1899 88.9923C58.52 92.4847 56.2095 97.3079 53.6102 102.731L53.7309 102.657H48.0859L48.1909 102.71L39.1694 90.991L36.4703 87.5196L35.7352 86.5939C35.6546 86.475 35.565 86.3625 35.4674 86.2573Z" fill="#263238"/>
<path d="M36.4756 133.92C36.6141 133.796 36.7359 133.654 36.8379 133.499C37.0585 133.22 37.363 132.805 37.7148 132.273C39.5467 129.493 40.8548 126.4 41.5745 123.148C41.711 122.522 41.8003 122.017 41.8475 121.665C41.8825 121.492 41.8983 121.315 41.8948 121.139C41.8528 121.139 41.711 121.901 41.3697 123.132C40.5567 126.332 39.2624 129.39 37.5311 132.2C36.8957 133.252 36.4441 133.893 36.4756 133.92Z" fill="#263238"/>
<path d="M39.9624 126.459C40.0044 126.391 38.8019 125.554 37.4313 124.355C36.0608 123.156 35.042 122.125 34.9895 122.178C35.6327 123.073 36.3981 123.873 37.2633 124.555C38.0735 125.308 38.9814 125.949 39.9624 126.459Z" fill="#263238"/>
<path d="M33.5612 126.107C33.6065 126.052 33.6452 125.992 33.6767 125.928L33.9708 125.403C34.2386 124.908 34.6009 124.235 35.0578 123.399V123.372V123.341C34.3278 120.532 33.0938 115.925 31.6865 110.718C30.505 106.431 29.4338 102.555 28.6513 99.709L27.7061 96.3796C27.5959 96.0115 27.5066 95.7117 27.4331 95.4802C27.4094 95.3726 27.3724 95.2683 27.3228 95.1699C27.3366 95.2782 27.3577 95.3853 27.3858 95.4908L27.6064 96.4059C27.8216 97.2264 28.1315 98.3625 28.4728 99.7564C29.2395 102.607 30.2845 106.489 31.4345 110.802C32.847 115.993 34.1178 120.59 34.9107 123.383V123.325L33.8868 125.366L33.6294 125.892C33.5962 125.96 33.5732 126.032 33.5612 126.107Z" fill="#263238"/>
<g opacity="0.3">
<path d="M59.1764 107.492C63.6835 113.352 67.5743 119.662 70.7867 126.322L70.4401 126.154L67.1477 121.562L59.0661 110.311C58.6944 109.876 58.4395 109.353 58.3257 108.791C58.2788 108.507 58.3403 108.216 58.4979 107.975C58.6555 107.735 58.8977 107.562 59.1764 107.492Z" fill="black"/>
</g>
<g opacity="0.3">
<path d="M70.7867 109.785C71.995 107.466 72.6736 104.908 72.7735 102.294C72.8734 99.681 72.3921 97.0781 71.3643 94.6738C71.3643 94.6738 71.3118 107.329 70.7867 109.785Z" fill="black"/>
</g>
<path d="M34.8057 109.512C34.982 109.517 35.1583 109.501 35.3308 109.465C35.6722 109.418 36.1605 109.339 36.7644 109.233C37.9722 109.018 39.6315 108.676 41.4484 108.229C43.2654 107.782 44.888 107.308 46.059 106.935C46.6419 106.746 47.1092 106.588 47.4348 106.472C47.6086 106.426 47.7749 106.355 47.9284 106.262C47.7498 106.279 47.5737 106.316 47.4033 106.372L46.0065 106.756C44.8249 107.082 43.1971 107.529 41.3854 107.976C39.5738 108.423 37.9249 108.792 36.7277 109.055L35.3151 109.365C35.1393 109.39 34.9679 109.44 34.8057 109.512Z" fill="#263238"/>
<g opacity="0.3">
<path d="M49.1782 117.148C49.1782 117.148 40.3299 121.461 36.6541 120.446C36.6541 120.446 42.9555 116.89 49.1782 117.148Z" fill="black"/>
</g>
<g opacity="0.3">
<path d="M34.5852 122.203C34.5852 122.203 27.7586 117.921 29.0662 101.164L34.5852 122.203Z" fill="black"/>
</g>
<path d="M24.4977 121.662C24.4977 121.662 23.5262 137.93 23.9148 140.434C24.3034 142.937 25.7422 154.409 25.7422 154.409L31.487 153.21L33.0623 124.744L24.4977 121.662Z" fill="#FFBE9D"/>
<path d="M34.06 164.181C33.6662 162.803 33.9918 160.178 33.7975 159.258C33.703 158.826 32.3429 154.219 31.9806 153.672L32.3272 146.188L23.1796 146.571L25.1278 153.967C24.6552 155.018 23.1796 159.784 23.1796 159.999C23.1796 160.215 23.5105 164.049 23.5105 164.049L25.3326 166.053C25.3863 166.107 25.4511 166.149 25.5226 166.176C25.594 166.202 25.6703 166.213 25.7463 166.207C25.8222 166.201 25.8959 166.178 25.9623 166.141C26.0287 166.103 26.0862 166.052 26.1308 165.99L26.3251 165.69C26.3929 165.934 26.5271 166.153 26.7127 166.324C26.8982 166.495 27.1277 166.611 27.3753 166.658C28.4255 166.842 28.4255 166.542 28.4255 166.542L28.6671 165.622C28.6671 165.622 30.1899 166.821 30.5838 166.879C30.9776 166.937 31.2402 165.164 31.2402 165.164L29.9326 162.277L30.3212 159.389C30.3212 159.389 32.4217 165.622 32.9836 165.622C33.5454 165.622 34.4486 165.559 34.06 164.181Z" fill="#455A64"/>
<path d="M76.6313 156.478C76.6313 156.557 66.8904 156.689 54.8757 156.778C42.861 156.868 33.1253 156.878 33.1201 156.778C33.1148 156.678 42.861 156.573 54.8757 156.484C66.8904 156.394 76.626 156.405 76.6313 156.478Z" fill="#263238"/>
<path d="M26.9237 159.641C26.966 159.955 26.966 160.273 26.9237 160.587C26.8824 161.334 26.9443 162.083 27.1075 162.812C27.3186 163.524 27.6645 164.188 28.1262 164.769C28.3347 165.006 28.5112 165.269 28.6514 165.553C28.6251 165.579 28.3573 165.332 27.9687 164.89C27.4429 164.315 27.055 163.628 26.8344 162.881C26.6626 162.125 26.6252 161.345 26.7242 160.577C26.7439 160.257 26.8111 159.941 26.9237 159.641Z" fill="#263238"/>
<path d="M24.5764 160.094C24.7296 160.358 24.8043 160.661 24.7917 160.967C24.8495 161.524 24.7392 162.292 24.8652 163.071C25.0218 163.75 25.3247 164.388 25.7527 164.938C25.9468 165.163 26.111 165.412 26.2411 165.68C26.2148 165.706 25.9627 165.474 25.6004 165.054C25.1021 164.508 24.7561 163.84 24.5974 163.118C24.5336 162.399 24.5336 161.675 24.5974 160.956C24.6079 160.42 24.5292 160.104 24.5764 160.094Z" fill="#263238"/>
<path d="M79.7609 116.449C79.803 116.523 78.9943 116.975 78.2486 117.811C77.5029 118.648 77.1091 119.479 77.0303 119.447C77.2235 118.77 77.5706 118.147 78.0443 117.627C78.5181 117.107 79.1056 116.704 79.7609 116.449Z" fill="#EB996E"/>
<path d="M105.413 113.74C105.994 113.482 106.527 113.126 106.988 112.688C107.152 112.469 107.254 112.211 107.284 111.939C107.315 111.667 107.272 111.392 107.162 111.142L105.733 111.668C106.216 111.51 106.629 111.191 106.904 110.763C106.985 110.671 107.045 110.563 107.083 110.445C107.12 110.328 107.133 110.205 107.12 110.083C107.108 109.961 107.071 109.842 107.011 109.735C106.951 109.628 106.87 109.534 106.773 109.459C106.773 109.459 104.294 110.453 103.323 110.769C103.186 110.863 98.14 112.799 97.8722 113.083L93.1462 118.132L86.2146 116.554L85.5898 126.059C85.5898 126.059 94.3382 125.159 95.8085 124.728C97.2788 124.297 101.096 120.646 101.096 120.646L102.824 118.353L105.891 116.649C106.416 116.281 106.973 115.597 106.495 114.945C107.466 114.319 106.962 113.093 106.962 113.093L105.413 113.74Z" fill="#455A64"/>
<path d="M98.7754 121.876C99.1898 121.608 99.5862 121.312 99.9622 120.992C100.369 120.61 100.688 120.143 100.897 119.625C101.168 118.959 101.251 118.231 101.138 117.521V117.411L101.238 117.379L103.165 116.764C103.508 116.666 103.844 116.543 104.168 116.395C104.491 116.245 104.772 116.017 104.988 115.733C105.2 115.426 105.29 115.051 105.24 114.681L105.376 114.786L100.65 114.896H100.713L98.5234 116.474L97.9143 116.895C97.8463 116.949 97.7723 116.995 97.6937 117.032C97.9194 116.786 98.1732 116.567 98.4499 116.38C98.975 115.98 99.6839 115.422 100.587 114.739H100.613H100.645L105.345 114.57H105.444V114.681C105.484 114.905 105.478 115.135 105.427 115.357C105.377 115.58 105.283 115.789 105.15 115.975C104.644 116.566 103.951 116.965 103.186 117.105L101.259 117.705L101.338 117.563C101.452 118.314 101.352 119.081 101.049 119.777C100.818 120.314 100.467 120.79 100.025 121.171L99.7627 121.392L99.5159 121.56C99.3847 121.651 99.2459 121.73 99.101 121.797C98.9961 121.837 98.8868 121.863 98.7754 121.876Z" fill="#263238"/>
<path d="M101.532 114.465C101.233 114.313 100.954 114.124 100.703 113.902L100.592 113.818L100.718 113.749C101.343 113.397 102.294 112.918 103.402 112.445C104.415 112.003 105.35 111.656 106.027 111.43C106.392 111.286 106.773 111.189 107.162 111.141C106.828 111.333 106.476 111.491 106.111 111.614C105.444 111.882 104.536 112.261 103.522 112.666C102.43 113.139 101.459 113.586 100.808 113.886V113.734C101.08 113.945 101.324 114.19 101.532 114.465Z" fill="#263238"/>
<path d="M103.659 114.467C104.152 114.113 104.698 113.837 105.276 113.652C105.827 113.379 106.414 113.187 107.02 113.084C106.523 113.434 105.978 113.708 105.402 113.899C104.852 114.173 104.265 114.364 103.659 114.467Z" fill="#263238"/>
<path d="M132.43 31.3945H128.318V239.451H132.43V31.3945Z" fill="#E0E0E0"/>
<path d="M108.858 39.8673C106.453 39.8673 105.266 35.8121 105.14 35.3335L106.657 34.918C107.062 36.3854 108.07 38.3631 108.921 38.2842C109.733 38.1167 110.46 37.6679 110.974 37.0166C111.333 36.6086 111.775 36.2824 112.27 36.0601C112.766 35.8378 113.303 35.7245 113.846 35.728H145.5C146.608 35.7314 147.673 36.1584 148.478 36.9219C149.381 37.7687 150.263 38.2316 150.956 38.2316C152.007 38.2316 152.736 37.0113 152.983 36.1856L154.49 36.6484C154.012 38.2263 152.736 39.8042 150.956 39.8042C149.554 39.8042 148.252 38.8575 147.401 38.0685C146.889 37.5783 146.209 37.3034 145.5 37.3006H113.846C113.53 37.3019 113.218 37.37 112.931 37.5006C112.643 37.6311 112.386 37.8211 112.176 38.058C111.414 39.0151 110.322 39.6527 109.115 39.8463L108.858 39.8673Z" fill="#E0E0E0"/>
<path d="M129.652 36.9063C129.652 36.9852 126.013 37.043 121.534 37.043C117.055 37.043 113.416 36.9852 113.416 36.9063C113.416 36.8274 117.049 36.7695 121.534 36.7695C126.018 36.7695 129.652 36.8169 129.652 36.9063Z" fill="#263238"/>
<path d="M129.6 36.8699C129.553 36.8173 129.6 36.6543 129.6 36.4807C129.6 36.3071 129.463 36.1704 129.495 36.102C129.526 36.0336 129.81 36.102 129.868 36.4386C129.925 36.7752 129.6 36.9383 129.6 36.8699Z" fill="#263238"/>
<path d="M132.462 47.6478C132.388 47.6478 132.325 44.0502 132.325 39.611C132.325 35.1718 132.388 31.5742 132.462 31.5742C132.535 31.5742 132.598 35.1718 132.598 39.611C132.598 44.0502 132.54 47.6478 132.462 47.6478Z" fill="#263238"/>
<path d="M125.425 92.151H109.315V83.5199C109.315 82.0952 109.879 80.7287 110.885 79.7208C111.89 78.7129 113.254 78.1459 114.676 78.1445H120.064C121.486 78.1459 122.85 78.7129 123.855 79.7208C124.86 80.7287 125.425 82.0952 125.425 83.5199V92.151ZM111.415 90.0472H123.325V83.5199C123.325 82.6532 122.981 81.8218 122.37 81.2085C121.758 80.5951 120.929 80.2498 120.064 80.2484H114.676C113.811 80.2498 112.981 80.5951 112.37 81.2085C111.758 81.8218 111.415 82.6532 111.415 83.5199V90.0472Z" fill="#E0E0E0"/>
<path d="M130.356 89.1836H104.006V121.867H130.356V89.1836Z" fill="#E0E0E0"/>
<path d="M122.621 89.1836H104.006V121.573H122.621V89.1836Z" fill="#F5F5F5"/>
<path d="M120.263 92.3438H106.358V106.271H120.263V92.3438Z" fill="white"/>
<path d="M120.258 106.245C120.258 106.245 120.258 106.151 120.258 105.977C120.258 105.804 120.258 105.535 120.258 105.22C120.258 104.541 120.258 103.584 120.226 102.38C120.226 99.9285 120.19 96.4677 120.169 92.3231L120.284 92.4388H106.384C106.353 92.4388 106.642 92.181 106.521 92.302V94.185C106.521 94.8109 106.521 95.4315 106.521 96.0469V99.6445C106.521 101.985 106.521 104.189 106.521 106.214L106.405 106.098L116.446 106.156L119.281 106.188H120.037H120.305C120.225 106.195 120.144 106.195 120.064 106.188H119.334L116.519 106.219L106.405 106.282H106.285V106.245C106.285 104.22 106.285 102.038 106.285 99.6761V92.3125L106.421 92.1758H120.321H120.442V92.2968C120.415 96.4729 120.394 99.9601 120.379 102.427C120.379 103.626 120.379 104.573 120.347 105.246C120.347 105.551 120.347 105.772 120.347 105.977C120.327 106.07 120.297 106.159 120.258 106.245Z" fill="#263238"/>
<path d="M129.904 89.1817C129.904 89.2553 124.128 89.3184 116.992 89.3184C109.855 89.3184 104.079 89.2553 104.079 89.1817C104.079 89.108 109.855 89.0449 116.992 89.0449C124.128 89.0449 129.904 89.108 129.904 89.1817Z" fill="#263238"/>
<path d="M130.361 121.866C130.282 121.866 130.225 114.602 130.225 105.645C130.225 96.688 130.282 89.4297 130.361 89.4297C130.44 89.4297 130.498 96.688 130.498 105.645C130.498 114.602 130.435 121.866 130.361 121.866Z" fill="#263238"/>
<path d="M122.626 121.866C122.547 121.866 122.484 114.602 122.484 105.645C122.484 96.688 122.547 89.4297 122.626 89.4297C122.705 89.4297 122.763 96.688 122.763 105.645C122.763 114.602 122.7 121.866 122.626 121.866Z" fill="#263238"/>
<path d="M108.49 108.975H106.358V111.11H108.49V108.975Z" fill="#455A64"/>
<path d="M111.431 108.975H109.299V111.11H111.431V108.975Z" fill="#455A64"/>
<path d="M114.371 108.975H112.239V111.11H114.371V108.975Z" fill="#455A64"/>
<path d="M117.317 108.975H115.185V111.11H117.317V108.975Z" fill="#455A64"/>
<path d="M120.258 108.975H118.126V111.11H120.258V108.975Z" fill="#455A64"/>
<path d="M108.49 111.811H106.358V113.946H108.49V111.811Z" fill="#455A64"/>
<path d="M111.431 111.811H109.299V113.946H111.431V111.811Z" fill="#455A64"/>
<path d="M114.371 111.811H112.239V113.946H114.371V111.811Z" fill="#455A64"/>
<path d="M117.317 111.811H115.185V113.946H117.317V111.811Z" fill="#455A64"/>
<path d="M120.258 111.811H118.126V113.946H120.258V111.811Z" fill="#455A64"/>
<path d="M108.49 114.639H106.358V116.774H108.49V114.639Z" fill="#455A64"/>
<path d="M111.431 114.639H109.299V116.774H111.431V114.639Z" fill="#455A64"/>
<path d="M114.371 114.639H112.239V116.774H114.371V114.639Z" fill="#455A64"/>
<path d="M120.263 114.639H115.185V116.774H120.263V114.639Z" fill="#BB0A08"/>
<path d="M119.56 99.5346C119.56 99.5346 119.239 99.5031 118.656 99.4557C118.306 99.4254 117.953 99.4413 117.606 99.5031C117.158 99.5809 116.747 99.8024 116.435 100.134C116.272 100.354 116.155 100.603 116.09 100.869C116.025 101.135 116.014 101.411 116.057 101.681C116.086 102.006 116.086 102.333 116.057 102.659C116.004 103.018 115.851 103.356 115.616 103.632C115.485 103.79 115.306 103.901 115.106 103.95C114.907 103.998 114.697 103.981 114.508 103.9C114.15 103.708 113.877 103.389 113.741 103.006C113.455 102.266 113.268 101.491 113.185 100.702C113.074 99.8976 113.185 99.0928 113.101 98.3723C113.072 98.0232 112.956 97.687 112.765 97.394C112.586 97.1198 112.316 96.9183 112.003 96.8259C111.856 96.7935 111.704 96.7956 111.558 96.8321C111.413 96.8686 111.277 96.9385 111.163 97.0363C110.936 97.232 110.757 97.4766 110.638 97.7516C110.391 98.2776 110.291 98.8772 110.023 99.3295C109.784 99.7647 109.405 100.106 108.947 100.297C108.616 100.441 108.257 100.506 107.897 100.487C107.667 100.478 107.441 100.428 107.23 100.339C107.155 100.314 107.086 100.275 107.025 100.224C107.308 100.318 107.604 100.371 107.902 100.381C108.249 100.381 108.591 100.304 108.905 100.155C109.317 99.9651 109.655 99.6432 109.866 99.2401C110.107 98.793 110.197 98.2197 110.449 97.6359C110.58 97.3239 110.781 97.0466 111.037 96.8259C111.18 96.7043 111.349 96.6173 111.531 96.5717C111.714 96.5261 111.904 96.5231 112.087 96.5629C112.457 96.6887 112.779 96.9242 113.012 97.238C113.244 97.5518 113.376 97.929 113.389 98.3197C113.473 99.1033 113.389 99.866 113.484 100.65C113.562 101.411 113.738 102.159 114.009 102.875C114.121 103.196 114.345 103.467 114.639 103.637C114.779 103.699 114.935 103.712 115.083 103.676C115.231 103.64 115.363 103.556 115.458 103.437C115.664 103.199 115.797 102.907 115.842 102.596C115.868 102.288 115.868 101.978 115.842 101.67C115.826 101.364 115.847 101.056 115.905 100.755C115.964 100.468 116.101 100.203 116.299 99.987C116.644 99.6333 117.096 99.4024 117.585 99.3295C117.944 99.2761 118.308 99.2761 118.667 99.3295C118.961 99.3663 119.192 99.4137 119.334 99.4452C119.476 99.4768 119.565 99.5241 119.56 99.5346Z" fill="#BB0A08"/>
<path d="M146.929 241.944H115.059C115.061 241.279 115.325 240.642 115.794 240.172C116.264 239.702 116.9 239.437 117.564 239.436H144.408C144.738 239.434 145.065 239.498 145.371 239.623C145.676 239.749 145.954 239.933 146.188 240.166C146.422 240.399 146.608 240.676 146.735 240.981C146.862 241.287 146.928 241.614 146.929 241.944Z" fill="#E0E0E0"/>
<path d="M120.563 244.269C120.563 244.974 120.354 245.664 119.963 246.25C119.571 246.837 119.015 247.294 118.365 247.564C117.714 247.834 116.998 247.904 116.308 247.767C115.617 247.629 114.983 247.289 114.485 246.791C113.987 246.292 113.648 245.657 113.51 244.965C113.373 244.273 113.443 243.556 113.713 242.905C113.982 242.253 114.439 241.696 115.024 241.304C115.61 240.912 116.298 240.703 117.002 240.703C117.946 240.703 118.852 241.079 119.52 241.748C120.187 242.416 120.563 243.323 120.563 244.269Z" fill="#263238"/>
<path d="M150.195 244.269C150.195 244.974 149.986 245.664 149.595 246.25C149.204 246.837 148.648 247.294 147.997 247.564C147.346 247.834 146.631 247.904 145.94 247.767C145.249 247.629 144.615 247.289 144.117 246.791C143.619 246.292 143.28 245.657 143.143 244.965C143.005 244.273 143.076 243.556 143.345 242.905C143.615 242.253 144.071 241.696 144.657 241.304C145.242 240.912 145.93 240.703 146.635 240.703C147.578 240.705 148.483 241.081 149.151 241.749C149.818 242.418 150.193 243.324 150.195 244.269Z" fill="#263238"/>
<path d="M130.986 247.857C132.952 247.857 134.546 246.26 134.546 244.291C134.546 242.321 132.952 240.725 130.986 240.725C129.02 240.725 127.426 242.321 127.426 244.291C127.426 246.26 129.02 247.857 130.986 247.857Z" fill="#263238"/>
<path d="M180.463 165.258C179.887 163.395 178.736 161.763 177.175 160.596C175.614 159.43 173.724 158.79 171.777 158.768L164.284 158.647C153.592 158.457 140.281 158.226 134.153 158.584C128.229 158.931 124.732 161.739 122.847 164.043C121.598 165.526 120.672 167.252 120.127 169.114V169.198C115.721 190.431 100.13 246.578 99.8204 247.856L104.2 247.793C104.552 246.383 122.689 176.682 124.06 170.076C124.228 169.471 126.239 163.091 134.41 162.613C140.386 162.265 153.608 162.497 164.237 162.681C166.988 162.728 169.587 162.776 171.746 162.802C172.845 162.817 173.911 163.182 174.79 163.843C175.669 164.505 176.315 165.43 176.635 166.484L202.365 248.009L206.608 247.867L180.463 165.258Z" fill="#455A64"/>
<path d="M180.463 165.259C180.463 165.259 180.631 165.753 180.94 166.726C181.25 167.7 181.712 169.141 182.316 171.029C183.524 174.811 185.294 180.381 187.567 187.528C192.089 201.84 198.642 222.484 206.676 247.825L206.718 247.962H206.577L202.334 248.104H202.255L202.229 248.025C196.353 229.422 189.663 208.231 182.406 185.241C180.589 179.49 178.74 173.632 176.86 167.668C176.666 166.918 176.395 166.19 176.052 165.496C175.671 164.824 175.142 164.248 174.505 163.813C173.868 163.378 173.139 163.096 172.376 162.987C171.989 162.939 171.6 162.918 171.21 162.924H170.023L160.435 162.766C153.991 162.666 147.459 162.55 140.848 162.598C139.199 162.598 137.54 162.634 135.88 162.698C134.223 162.693 132.575 162.931 130.986 163.402C129.407 163.904 127.968 164.771 126.785 165.932C125.584 167.102 124.683 168.546 124.16 170.14C123.382 173.596 122.505 176.978 121.66 180.386C120.815 183.794 119.948 187.145 119.097 190.49C117.382 197.173 115.689 203.765 114.02 210.266C110.659 223.252 107.408 235.823 104.294 247.852L104.268 247.946H104.168L99.7889 248.004H99.6209L99.6629 247.841C105.439 226.734 110.732 207.163 115.164 189.611C116.262 185.219 117.323 180.959 118.315 176.825L119.029 173.748C119.253 172.731 119.474 171.721 119.691 170.719L120.022 169.225C120.143 168.728 120.307 168.242 120.51 167.773C120.898 166.85 121.378 165.969 121.944 165.143C123.034 163.524 124.438 162.14 126.071 161.072C127.641 160.056 129.38 159.333 131.207 158.937C132.954 158.593 134.73 158.416 136.51 158.411C138.243 158.358 139.934 158.343 141.583 158.332C148.173 158.332 154.081 158.416 159.232 158.506C164.384 158.595 168.784 158.653 172.36 158.763C173.951 158.882 175.484 159.413 176.808 160.304C177.77 160.947 178.601 161.768 179.255 162.724C179.653 163.305 179.985 163.93 180.242 164.586C180.4 165.038 180.473 165.264 180.473 165.264C180.473 165.264 180.384 165.038 180.221 164.596C179.957 163.943 179.621 163.322 179.218 162.745C178.434 161.624 177.41 160.691 176.221 160.016C175.032 159.341 173.708 158.94 172.344 158.842C168.774 158.748 164.368 158.711 159.216 158.621C154.065 158.532 148.157 158.453 141.567 158.485C139.918 158.485 138.227 158.516 136.5 158.569C134.737 158.577 132.978 158.753 131.249 159.095C129.443 159.482 127.722 160.195 126.171 161.199C124.56 162.256 123.175 163.624 122.096 165.222C121.54 166.049 121.068 166.93 120.689 167.852C120.492 168.312 120.33 168.787 120.205 169.272C120.1 169.767 119.99 170.266 119.885 170.766C119.665 171.772 119.444 172.784 119.223 173.801L118.509 176.878C117.548 181.012 116.493 185.293 115.401 189.669C110.984 207.226 105.702 226.808 99.9359 247.91L99.8099 247.752L104.195 247.689L104.069 247.783C107.177 235.754 110.428 223.184 113.789 210.198C115.451 203.7 117.142 197.106 118.861 190.416C119.705 187.071 120.559 183.705 121.424 180.317C122.264 176.925 123.141 173.517 123.918 170.077C124.449 168.442 125.368 166.96 126.596 165.759C127.814 164.565 129.297 163.676 130.923 163.166C132.536 162.686 134.209 162.444 135.891 162.445C137.555 162.382 139.215 162.361 140.869 162.345C147.485 162.303 153.997 162.414 160.461 162.519L170.044 162.677H171.236C171.636 162.671 172.037 162.694 172.434 162.745C173.235 162.858 174 163.154 174.669 163.61C175.338 164.066 175.894 164.67 176.293 165.375C176.646 166.086 176.924 166.831 177.123 167.6L182.637 185.167C189.878 208.167 196.557 229.348 202.418 247.967L202.313 247.888L206.556 247.752L206.456 247.888L187.452 187.565C185.204 180.407 183.451 174.832 182.259 171.045L180.914 166.732C180.61 165.764 180.463 165.259 180.463 165.259Z" fill="#263238"/>
<path d="M65.1575 204.912L60.5889 216.557C60.5889 216.557 47.398 215.6 46.3425 217.672L68.3974 227.571L76.2742 209.719L65.1575 204.912Z" fill="#455A64"/>
<path d="M67.7095 218.565C67.8972 218.724 68.0193 218.947 68.0523 219.191C68.0852 219.435 68.0267 219.682 67.8881 219.885C67.7365 220.078 67.517 220.205 67.2746 220.24C67.0323 220.276 66.7857 220.216 66.5858 220.075C66.3875 219.906 66.2589 219.669 66.2249 219.411C66.191 219.152 66.2541 218.89 66.402 218.676C66.5809 218.49 66.8252 218.381 67.0829 218.372C67.3407 218.363 67.5918 218.455 67.783 218.628" fill="#E0E0E0"/>
<path d="M68.4027 227.57L69.0328 226.15L47.4243 216.967C47.1755 217.005 46.9369 217.093 46.723 217.226C46.5091 217.359 46.3243 217.534 46.1797 217.74L68.4027 227.57Z" fill="#263238"/>
<path d="M60.3527 216.54C60.3106 216.65 60.8358 216.94 61.2191 217.523C61.6024 218.107 61.6917 218.696 61.8072 218.696C61.9227 218.696 62.0435 217.997 61.5604 217.292C61.0773 216.587 60.3737 216.429 60.3527 216.54Z" fill="#263238"/>
<path d="M57.5853 216.487C57.5118 216.587 57.9056 216.976 58.0736 217.602C58.2417 218.228 58.1367 218.765 58.2522 218.807C58.3677 218.849 58.6985 218.281 58.4727 217.486C58.2469 216.692 57.6588 216.387 57.5853 216.487Z" fill="#263238"/>
<path d="M55.0332 218.722C55.1225 218.791 55.5111 218.307 55.4901 217.586C55.4691 216.866 55.0647 216.403 54.9649 216.476C54.8652 216.55 55.0595 217.002 55.0647 217.597C55.07 218.191 54.9229 218.664 55.0332 218.722Z" fill="#263238"/>
<path d="M61.6969 213.985C61.6969 214.106 62.2693 214.174 62.868 214.511C63.4666 214.847 63.8657 215.226 63.9602 215.158C64.0547 215.089 63.7659 214.495 63.057 214.137C62.3481 213.78 61.6812 213.874 61.6969 213.985Z" fill="#263238"/>
<path d="M62.3848 211.343C62.7099 211.601 63.098 211.766 63.5086 211.822C63.9435 211.927 64.3897 211.979 64.8371 211.975C65.1027 211.974 65.3677 211.953 65.6301 211.911C65.786 211.899 65.9387 211.859 66.0817 211.796C66.1862 211.749 66.2725 211.669 66.3275 211.568C66.3825 211.468 66.4031 211.352 66.3862 211.238C66.3652 211.137 66.3204 211.042 66.2556 210.962C66.1907 210.881 66.1077 210.817 66.0134 210.775C65.872 210.716 65.7239 210.673 65.5723 210.649C65.3068 210.605 65.038 210.584 64.7689 210.586C64.3167 210.593 63.8684 210.671 63.4403 210.817C62.7104 211.07 62.3586 211.401 62.3901 211.438C62.4216 211.475 62.8259 211.265 63.5244 211.096C63.9343 211.004 64.354 210.961 64.7741 210.97C65.0195 210.976 65.2638 211.004 65.504 211.054C65.7666 211.091 65.9661 211.18 65.9819 211.312C65.9819 211.359 65.9819 211.38 65.9031 211.428C65.7976 211.472 65.6861 211.5 65.5723 211.512C64.9075 211.613 64.2311 211.613 63.5664 211.512C63.1776 211.425 62.7825 211.368 62.3848 211.343Z" fill="#263238"/>
<g opacity="0.3">
<path d="M65.1575 204.912L60.5889 216.557C60.5889 216.557 47.398 215.6 46.3425 217.672L68.3974 227.571L76.2742 209.719L65.1575 204.912Z" fill="black"/>
</g>
<path d="M59.8223 205.779L51.3574 214.978C51.3574 214.978 39.4057 209.303 37.6781 210.855L54.6656 228.08L68.4447 214.295L59.8223 205.779Z" fill="#455A64"/>
<path d="M57.2702 219.434C57.3857 219.65 57.4173 219.902 57.3592 220.141C57.3011 220.379 57.1573 220.588 56.9551 220.727C56.7445 220.852 56.4943 220.891 56.2559 220.836C56.0176 220.781 55.8093 220.637 55.6739 220.433C55.5497 220.203 55.5153 219.935 55.5774 219.682C55.6395 219.428 55.7937 219.206 56.0099 219.06C56.244 218.954 56.5102 218.942 56.7528 219.027C56.9954 219.112 57.1958 219.288 57.3122 219.518" fill="#E0E0E0"/>
<path d="M54.6604 228.08L55.7579 226.98L38.9541 210.591C38.7087 210.535 38.4545 210.53 38.207 210.576C37.9595 210.622 37.7242 210.719 37.5153 210.859L54.6604 228.08Z" fill="#263238"/>
<path d="M51.1421 214.879C51.0581 214.968 51.4414 215.405 51.5884 216.115C51.7355 216.825 51.5884 217.377 51.7197 217.419C51.851 217.461 52.1871 216.846 51.9928 216.02C51.7985 215.194 51.1999 214.784 51.1421 214.879Z" fill="#263238"/>
<path d="M48.5743 213.826C48.4745 213.889 48.7003 214.399 48.632 215.041C48.5638 215.683 48.2697 216.151 48.359 216.23C48.4483 216.309 48.9786 215.883 49.0469 215.083C49.1152 214.284 48.6583 213.747 48.5743 213.826Z" fill="#263238"/>
<path d="M45.3868 214.985C45.4446 215.08 45.9802 214.775 46.2218 214.091C46.4633 213.407 46.2533 212.834 46.1482 212.871C46.0432 212.908 46.0432 213.397 45.8332 213.954C45.6231 214.512 45.3081 214.896 45.3868 214.985Z" fill="#263238"/>
<path d="M53.3161 212.985C53.2741 213.095 53.7782 213.369 54.2245 213.874C54.6709 214.379 54.8967 214.926 55.0122 214.873C55.1277 214.82 55.07 214.184 54.5343 213.595C53.9987 213.006 53.3423 212.88 53.3161 212.985Z" fill="#263238"/>
<path d="M54.9019 210.765C54.8652 210.796 55.1487 211.186 55.7736 211.622C56.1433 211.875 56.5417 212.084 56.9604 212.243C57.2087 212.337 57.4631 212.414 57.7218 212.474C57.8723 212.515 58.0279 212.535 58.1839 212.532C58.2997 212.527 58.4104 212.483 58.4987 212.408C58.587 212.332 58.6481 212.23 58.6723 212.117C58.6881 212.015 58.6798 211.911 58.6478 211.813C58.6159 211.715 58.5613 211.626 58.4885 211.554C58.3795 211.444 58.2558 211.35 58.1209 211.275C57.89 211.138 57.6475 211.022 57.3962 210.928C56.9736 210.77 56.5288 210.68 56.0782 210.66C55.663 210.6 55.2393 210.669 54.8652 210.859C54.8652 210.923 55.3378 210.86 56.0519 210.949C56.4647 211.01 56.8685 211.121 57.2545 211.28C57.4804 211.376 57.6981 211.491 57.9056 211.622C58.1367 211.759 58.2942 211.911 58.2627 212.038C58.2312 212.164 58.2627 212.101 58.1472 212.117C58.032 212.118 57.9171 212.104 57.8058 212.074C57.5622 212.027 57.3219 211.964 57.0864 211.885C56.6865 211.745 56.2999 211.569 55.9312 211.359C55.6026 211.137 55.2587 210.938 54.9019 210.765Z" fill="#263238"/>
<path d="M54.1878 208.398C54.1878 209.202 86.745 172.406 97.825 171.054C107.277 169.913 135.812 170.47 135.812 170.47L117.365 180.364L86.4142 184.119L54.1878 208.398Z" fill="#263238"/>
<path d="M141.872 170.48L95.0156 173.568C91.1332 173.925 87.4332 175.385 84.3505 177.776L51.746 210.912L63.1568 222.173C63.1568 222.173 94.4957 196.71 98.6809 193.555L147.517 195.659C147.517 195.659 161.963 195.459 166.085 186.417L141.872 170.48Z" fill="#263238"/>
<path d="M126.418 171.49L126.187 171.522L125.509 171.58L122.884 171.78L113.321 172.463L99.143 173.442L95.0418 173.72C93.6166 173.777 92.2046 174.017 90.8409 174.436C87.9701 175.31 85.3646 176.892 83.2635 179.038L61.0195 201.591C58.1734 204.463 55.8629 206.788 54.256 208.429L52.4076 210.249L51.9193 210.722C51.8676 210.78 51.8094 210.831 51.746 210.875C51.7937 210.814 51.8445 210.756 51.8983 210.701L52.3656 210.207L54.1773 208.329C55.7526 206.698 58.0579 204.353 60.883 201.455L83.0797 178.838C85.2129 176.661 87.8583 175.057 90.7726 174.173C92.1528 173.754 93.5802 173.512 95.0208 173.452L99.122 173.184L113.321 172.269L122.894 171.674L125.52 171.527L126.202 171.495L126.418 171.49Z" fill="#455A64"/>
<path d="M172.134 106.976C171.701 106.141 171.513 105.2 171.594 104.262C171.675 103.324 172.021 102.428 172.591 101.68C172.741 101.529 172.837 101.333 172.864 101.122C172.836 100.944 172.755 100.777 172.633 100.644C172.339 100.244 172.129 99.7882 172.015 99.3046C171.901 98.821 171.887 98.3193 171.971 97.8298C172.066 97.3404 172.287 96.8843 172.612 96.5069C172.937 96.1295 173.356 95.844 173.825 95.6786C172.775 94.5899 173.058 92.5702 174.266 91.6287C174.897 91.1919 175.645 90.9553 176.412 90.9497C177.179 90.944 177.93 91.1696 178.567 91.5971C178.538 91.129 178.66 90.6639 178.915 90.2708C179.171 89.8776 179.546 89.5773 179.985 89.4144C180.876 89.1145 181.84 89.1145 182.731 89.4144C183.934 89.751 185.204 90.5241 185.388 91.7707C185.782 91.108 186.696 90.9765 187.447 91.1343C188.449 91.3839 189.324 91.9943 189.905 92.849C190.486 93.7037 190.732 94.7428 190.597 95.768C191.369 95.5789 192.18 95.634 192.918 95.9258C193.277 96.0858 193.574 96.3589 193.764 96.7036C193.954 97.0483 194.025 97.4457 193.969 97.8351C194.573 97.3459 195.465 97.4511 196.19 97.7246C196.727 97.895 197.2 98.2253 197.545 98.6714C197.713 98.8979 197.808 99.1707 197.816 99.4529C197.825 99.7351 197.746 100.013 197.592 100.249C198.14 100.296 198.651 100.547 199.023 100.953C199.395 101.358 199.601 101.889 199.601 102.44C199.601 102.991 199.395 103.522 199.023 103.927C198.651 104.333 198.14 104.584 197.592 104.631C197.863 105.024 198.03 105.479 198.076 105.955C198.122 106.431 198.047 106.91 197.856 107.348C197.666 107.786 197.367 108.168 196.988 108.459C196.61 108.749 196.163 108.937 195.691 109.007C195.781 109.08 195.853 109.174 195.901 109.279C195.949 109.385 195.973 109.5 195.97 109.617C195.967 109.733 195.937 109.847 195.883 109.95C195.83 110.053 195.753 110.142 195.659 110.211C195.46 110.338 195.233 110.415 194.997 110.437C194.762 110.459 194.524 110.425 194.305 110.337C193.78 111.878 193.254 113.425 192.687 114.966C192.393 115.981 191.939 116.944 191.343 117.817C191.043 118.251 190.645 118.609 190.182 118.861C189.719 119.113 189.203 119.252 188.675 119.268" fill="#263238"/>
<path d="M173.71 102.533C175.206 98.8508 180.484 96.484 184.06 98.1303L195.313 104.5L194.593 106.504L183.078 133.128L168.952 135.311L172.969 123.887C172.969 123.887 168.458 121.499 169.593 114.909C170.155 111.642 172.029 106.604 173.71 102.533Z" fill="#FFBE9D"/>
<path d="M173.542 108.497C173.473 108.702 173.486 108.926 173.578 109.122C173.67 109.318 173.834 109.471 174.035 109.549C174.233 109.629 174.454 109.627 174.651 109.545C174.848 109.462 175.004 109.304 175.085 109.107C175.154 108.902 175.141 108.678 175.049 108.482C174.957 108.286 174.793 108.133 174.592 108.055C174.394 107.975 174.173 107.977 173.976 108.059C173.779 108.142 173.623 108.299 173.542 108.497Z" fill="#263238"/>
<path d="M173.899 105.549C173.962 105.686 174.718 105.439 175.574 105.733C176.43 106.028 176.913 106.664 177.039 106.591C177.165 106.517 177.039 106.338 176.86 106.065C176.574 105.683 176.179 105.398 175.726 105.249C175.279 105.102 174.797 105.102 174.35 105.249C174.019 105.328 173.867 105.486 173.899 105.549Z" fill="#263238"/>
<path d="M180.972 111.415C180.903 111.62 180.916 111.844 181.008 112.04C181.1 112.236 181.264 112.389 181.466 112.467C181.663 112.547 181.885 112.545 182.082 112.462C182.278 112.38 182.434 112.222 182.516 112.025C182.583 111.82 182.569 111.596 182.478 111.401C182.386 111.205 182.223 111.052 182.022 110.973C181.824 110.893 181.603 110.894 181.406 110.977C181.21 111.06 181.053 111.217 180.972 111.415Z" fill="#263238"/>
<path d="M182.18 108.731C182.243 108.868 182.999 108.626 183.855 108.915C184.711 109.205 185.189 109.851 185.32 109.778C185.451 109.704 185.32 109.525 185.136 109.252C184.854 108.867 184.46 108.581 184.007 108.431C183.56 108.286 183.078 108.286 182.631 108.431C182.301 108.51 182.148 108.668 182.18 108.731Z" fill="#263238"/>
<path d="M176.997 113.892C176.593 113.598 176.154 113.356 175.689 113.172C175.479 113.072 175.285 112.961 175.301 112.798C175.316 112.635 175.474 112.414 175.668 112.194L176.881 110.737C178.583 108.659 179.901 106.918 179.817 106.85C179.733 106.781 178.283 108.428 176.577 110.495L175.385 111.967C175.159 112.188 175.016 112.48 174.98 112.793C174.986 112.881 175.012 112.966 175.056 113.043C175.099 113.12 175.16 113.185 175.232 113.235C175.342 113.309 175.46 113.369 175.584 113.414C176.033 113.633 176.507 113.794 176.997 113.892Z" fill="#263238"/>
<path d="M172.959 123.885C175.867 124.918 179.006 125.118 182.022 124.463C182.022 124.463 178.315 128.429 172.302 125.747L172.959 123.885Z" fill="#EB996E"/>
<path d="M176.655 116.09C176.888 115.94 177.154 115.851 177.429 115.832C177.704 115.813 177.98 115.864 178.231 115.98C178.414 116.061 178.579 116.179 178.715 116.327C178.851 116.474 178.956 116.648 179.024 116.837C179.092 117.02 179.102 117.219 179.052 117.407C179.002 117.596 178.895 117.764 178.745 117.889C178.556 117.997 178.339 118.046 178.122 118.029C177.905 118.012 177.697 117.93 177.527 117.794C177.171 117.515 176.874 117.166 176.655 116.769C176.581 116.668 176.527 116.554 176.498 116.432C176.481 116.374 176.482 116.312 176.501 116.255C176.52 116.198 176.555 116.148 176.603 116.111" fill="#EB996E"/>
<path d="M179.318 115.338C179.181 115.285 178.861 116.216 177.842 116.611C176.824 117.005 175.868 116.569 175.815 116.7C175.784 116.753 175.973 116.953 176.388 117.105C176.929 117.304 177.522 117.304 178.063 117.105C178.58 116.907 179.001 116.518 179.239 116.017C179.407 115.622 179.381 115.354 179.318 115.338Z" fill="#263238"/>
<path d="M182.962 105.568C182.962 105.831 183.86 106.01 184.821 106.472C185.782 106.935 186.507 107.482 186.711 107.319C186.806 107.24 186.711 106.972 186.486 106.63C186.142 106.205 185.706 105.865 185.211 105.634C184.716 105.404 184.175 105.289 183.629 105.299C183.209 105.326 182.962 105.447 182.962 105.568Z" fill="#263238"/>
<path d="M175.059 103.162C175.143 103.41 175.8 103.404 176.514 103.636C177.228 103.867 177.779 104.209 177.989 104.051C178.079 103.972 178.052 103.746 177.853 103.473C177.586 103.129 177.219 102.878 176.803 102.752C176.384 102.619 175.935 102.619 175.516 102.752C175.175 102.873 175.022 103.047 175.059 103.162Z" fill="#263238"/>
<path d="M178.688 96.2047C178.291 96.7056 178.054 97.3144 178.007 97.9521C177.96 98.5897 178.106 99.2267 178.426 99.7803C178.745 100.334 179.223 100.778 179.798 101.056C180.373 101.334 181.018 101.432 181.649 101.338C181.386 101.493 181.19 101.74 181.1 102.032C181.009 102.324 181.031 102.639 181.161 102.916C181.43 103.461 181.904 103.877 182.479 104.073C183.069 104.309 183.702 104.415 184.336 104.384C184.971 104.353 185.591 104.186 186.155 103.894C186.053 104.394 186.07 104.91 186.206 105.401C186.342 105.893 186.592 106.345 186.935 106.72C187.279 107.096 187.707 107.385 188.184 107.563C188.661 107.741 189.173 107.803 189.678 107.744C189.259 107.936 188.891 108.223 188.602 108.583C188.313 108.943 188.113 109.366 188.016 109.817C187.919 110.268 187.929 110.736 188.045 111.183C188.161 111.63 188.38 112.043 188.683 112.39C188.987 112.737 189.368 113.008 189.795 113.182C190.222 113.355 190.684 113.427 191.143 113.39C191.602 113.353 192.047 113.209 192.441 112.969C192.835 112.73 193.167 112.401 193.412 112.01C193.92 111.97 194.412 111.813 194.85 111.552C195.288 111.291 195.66 110.933 195.938 110.505C196.215 110.077 196.391 109.59 196.451 109.084C196.511 108.577 196.454 108.063 196.284 107.581C196.632 107.569 196.97 107.466 197.265 107.281C197.56 107.096 197.802 106.837 197.965 106.529C198.289 105.911 198.448 105.219 198.427 104.52C198.46 103.67 198.322 102.822 198.022 102.026C197.722 101.23 197.265 100.502 196.678 99.8865C196.075 99.2865 195.306 98.882 194.471 98.7253C193.636 98.5687 192.773 98.6672 191.994 99.0081C191.839 99.1124 191.656 99.1674 191.469 99.1659C191.212 99.1238 191.065 98.8556 190.944 98.6399C190.461 97.588 189.967 96.4519 189.006 95.805C188.415 95.4253 187.712 95.2577 187.013 95.3293C186.314 95.4009 185.66 95.7077 185.157 96.1994C185.019 95.4337 184.637 94.733 184.07 94.2015C183.502 93.6699 182.779 93.3358 182.006 93.2488C180.431 93.1751 178.924 94.6321 179.145 96.1784" fill="#263238"/>
<path d="M189.93 112.162C189.568 113.452 189.391 114.787 189.405 116.128C189.405 116.696 189.5 117.353 189.983 117.648C190.214 117.762 190.477 117.799 190.73 117.751C190.984 117.704 191.216 117.575 191.39 117.385C191.73 116.996 191.97 116.53 192.089 116.028C192.613 114.265 193.02 112.469 193.307 110.652" fill="#263238"/>
<path d="M190.949 113.609C191.044 113.609 194.457 113.573 193.428 116.765C192.399 119.958 189.421 118.28 189.442 118.191C189.463 118.101 190.949 113.609 190.949 113.609Z" fill="#FFBE9D"/>
<path d="M190.802 117.29C190.802 117.29 190.849 117.348 190.928 117.421C191.043 117.517 191.189 117.567 191.338 117.563C191.716 117.563 192.173 117.1 192.388 116.511C192.481 116.239 192.515 115.951 192.488 115.664C192.491 115.555 192.467 115.447 192.418 115.349C192.37 115.251 192.298 115.166 192.209 115.102C192.151 115.063 192.081 115.047 192.012 115.056C191.942 115.064 191.879 115.097 191.831 115.149C191.758 115.223 191.758 115.296 191.742 115.296C191.726 115.296 191.69 115.217 191.742 115.096C191.785 115.022 191.851 114.964 191.931 114.933C192.038 114.892 192.156 114.892 192.262 114.933C192.385 115.002 192.488 115.101 192.561 115.22C192.635 115.34 192.676 115.477 192.682 115.617C192.73 115.937 192.699 116.264 192.593 116.569C192.517 116.86 192.358 117.121 192.135 117.322C191.912 117.522 191.634 117.652 191.338 117.695C191.245 117.693 191.153 117.669 191.07 117.626C190.988 117.583 190.916 117.522 190.86 117.448C190.786 117.374 190.792 117.29 190.802 117.29Z" fill="#EB996E"/>
<path d="M186.522 103.306H186.417L186.108 103.253C185.72 103.172 185.345 103.043 184.989 102.869C184.733 102.743 184.495 102.584 184.28 102.396C184.021 102.175 183.81 101.903 183.661 101.596C183.497 101.243 183.422 100.855 183.44 100.465C183.461 100.021 183.649 99.5999 183.965 99.2872L184.039 99.4082C183.124 99.6815 182.146 99.652 181.25 99.324C180.76 99.1457 180.307 98.8802 179.911 98.5404C179.707 98.3642 179.53 98.1585 179.386 97.9302C179.235 97.6867 179.154 97.4067 179.15 97.1202C179.155 96.789 179.236 96.4632 179.386 96.1682C179.525 95.8877 179.683 95.617 179.859 95.3582C180.024 95.0976 180.227 94.8635 180.463 94.664C180.578 94.5589 180.715 94.4808 180.864 94.4354C181.013 94.3899 181.17 94.3781 181.324 94.401V94.5588C180.734 94.5402 180.168 94.3234 179.717 93.9434C179.303 93.6044 178.992 93.1562 178.819 92.6495C178.664 92.1963 178.65 91.7069 178.777 91.2452C178.908 90.7732 179.16 90.3437 179.509 89.9996C179.857 89.6554 180.289 89.4085 180.762 89.2833C180.959 89.2303 181.163 89.2107 181.366 89.2255C181.168 89.2501 180.971 89.287 180.778 89.3359C180.243 89.4941 179.768 89.8115 179.418 90.2458C179.166 90.5523 178.986 90.9119 178.892 91.2978C178.777 91.7348 178.795 92.1967 178.945 92.6232C179.116 93.1021 179.416 93.5244 179.811 93.8435C180.239 94.1989 180.773 94.4007 181.329 94.4168V94.5798C181.197 94.5609 181.062 94.5719 180.935 94.612C180.808 94.652 180.691 94.7201 180.594 94.8112C180.374 95.0037 180.183 95.2269 180.027 95.474C179.65 95.9555 179.415 96.5331 179.349 97.1413C179.368 97.3957 179.442 97.643 179.565 97.8664C179.689 98.0897 179.858 98.2837 180.063 98.4352C180.603 98.8966 181.249 99.2165 181.943 99.3662C182.637 99.5158 183.357 99.4905 184.039 99.2925L184.327 99.2031L184.112 99.4135C183.827 99.7019 183.658 100.086 183.64 100.492C183.619 100.838 183.679 101.185 183.813 101.505C183.948 101.826 184.155 102.11 184.417 102.338C184.621 102.525 184.848 102.684 185.094 102.811C185.441 102.992 185.807 103.132 186.186 103.227C186.3 103.247 186.412 103.274 186.522 103.306Z" fill="white"/>
<path d="M177.212 98.5972C177.134 98.6273 177.049 98.6382 176.965 98.6287C176.738 98.6203 176.513 98.5704 176.304 98.4815C175.982 98.3494 175.709 98.1218 175.521 97.8293C175.404 97.6431 175.365 97.4184 175.411 97.2034C175.436 97.084 175.495 96.9745 175.581 96.8878C175.666 96.801 175.775 96.7408 175.894 96.7142V96.8825H175.836C175.451 96.8628 175.075 96.7584 174.735 96.5765C174.394 96.3947 174.098 96.14 173.867 95.8306C173.728 95.6461 173.617 95.4424 173.536 95.2257C173.504 95.1473 173.486 95.0635 173.484 94.9785C173.618 95.2524 173.778 95.5131 173.962 95.7569C174.192 96.038 174.478 96.2682 174.801 96.4329C175.125 96.5977 175.479 96.6935 175.842 96.7142H175.899L176.724 96.7615L175.91 96.8825C175.823 96.9029 175.743 96.9479 175.681 97.0123C175.618 97.0766 175.576 97.1575 175.558 97.2454C175.518 97.4257 175.55 97.6144 175.647 97.7714C175.816 98.0278 176.055 98.2304 176.335 98.3552C176.612 98.4838 176.908 98.5655 177.212 98.5972Z" fill="white"/>
<path d="M164.683 132.438L140.16 148.18L113.421 152.161L113.773 158.399C113.773 158.399 136.421 158.284 140.16 158.399C143.899 158.515 149.906 152.167 149.906 152.167L164.683 132.438Z" fill="#FFBE9D"/>
<path d="M144.04 148.69L142.99 146.876C144.524 145.981 144.786 143.678 144.566 141.979C144.461 141.216 144.277 140.459 144.088 139.659C143.676 138.208 143.466 136.708 143.463 135.199C143.636 130.891 146.687 127.836 149.638 124.88C150.799 123.761 151.897 122.577 152.925 121.335C155.141 118.531 156.076 114.334 153.871 112.172C153.004 111.336 151.681 110.8 150.405 110.279C148.304 109.432 145.957 108.469 145.296 105.976C144.56 103.194 146.661 100.717 148.683 99.4176C149.402 98.9652 150.158 98.5813 150.888 98.2131C152.063 97.6908 153.157 96.9998 154.133 96.1618C156.612 93.7897 156.759 90.8496 156.759 87.2519C156.712 82.1711 155.709 79.9936 154.658 77.6899C153.382 74.9338 152.07 72.083 152.28 64.709L154.38 64.7721C154.181 71.6465 155.341 74.1554 156.565 76.8062C157.673 79.2152 158.823 81.703 158.875 87.2309C158.917 91.06 158.696 94.7365 155.619 97.6819C154.495 98.6683 153.229 99.4803 151.865 100.091C151.151 100.454 150.473 100.796 149.838 101.195C148.304 102.174 146.939 103.862 147.359 105.435C147.748 106.918 149.36 107.57 151.224 108.327C152.689 108.922 154.207 109.537 155.362 110.663C158.56 113.766 157.357 119.152 154.601 122.639C153.526 123.948 152.376 125.193 151.156 126.368C148.367 129.161 145.737 131.796 145.595 135.31C145.606 136.623 145.797 137.929 146.162 139.191C146.356 140.001 146.556 140.843 146.687 141.7C146.965 144.141 146.477 147.27 144.04 148.69Z" fill="#E0E0E0"/>
<path d="M143.647 148.011L143.384 147.554C145.254 146.465 145.605 143.903 145.317 141.868C145.201 141.068 145.007 140.258 144.823 139.475C144.429 138.094 144.226 136.666 144.219 135.23C144.382 131.233 147.322 128.287 150.163 125.437C151.346 124.297 152.463 123.091 153.508 121.823C155.908 118.788 157.032 114.171 154.385 111.604C153.414 110.662 152.017 110.094 150.667 109.547C148.662 108.732 146.587 107.885 146.025 105.771C145.395 103.404 147.275 101.226 149.071 100.085C149.759 99.6485 150.499 99.2751 151.208 98.9122C152.456 98.361 153.615 97.6271 154.648 96.7347C157.347 94.1469 157.536 90.907 157.499 87.2673C157.452 82.0076 156.412 79.7617 155.31 77.3791C154.075 74.7019 152.799 71.9406 153.004 64.7559H153.529C153.33 71.8143 154.58 74.5231 155.787 77.1424C156.838 79.4724 157.972 81.8761 158.024 87.2462C158.066 91.0279 157.862 94.3836 155.01 97.1186C153.94 98.0457 152.741 98.8111 151.45 99.3908C150.73 99.7365 150.029 100.119 149.349 100.537C147.569 101.663 146.01 103.693 146.53 105.645C147.023 107.506 148.887 108.274 150.862 109.063C152.253 109.631 153.697 110.215 154.748 111.23C157.615 114.018 156.46 118.936 153.918 122.155C152.86 123.446 151.73 124.675 150.531 125.836C147.632 128.74 144.891 131.485 144.755 135.278C144.768 136.666 144.969 138.046 145.353 139.38C145.542 140.174 145.737 140.995 145.878 141.815C146.151 143.998 145.742 146.786 143.647 148.011Z" fill="#BB0A08"/>
<path d="M161.359 45.3013C161.233 42.8451 161.359 40.6938 160.44 38.3901C159.39 35.7918 155.341 34.4664 150.52 35.187C149.513 35.3383 148.55 35.7026 147.694 36.2558C146.839 36.809 146.11 37.5384 145.558 38.3954C144.508 39.9312 144.167 41.7826 143.951 43.5867C143.188 49.6335 143.065 55.744 143.584 61.8167C143.819 62.7356 144.273 63.5837 144.907 64.2887C145.579 64.9883 146.74 65.0041 147.758 64.9672L158.035 64.5886C159.085 64.5465 160.246 64.4518 160.897 63.7102C161.292 63.1581 161.493 62.4903 161.469 61.8114C161.769 56.311 161.732 50.7973 161.359 45.3013ZM154.306 38.2271C154.101 38.4381 153.837 38.5825 153.549 38.6416C153.26 38.7006 152.961 38.6717 152.689 38.5584C152.432 38.4492 152.219 38.2549 152.088 38.0081C151.956 37.7612 151.912 37.4765 151.964 37.2014C152.048 36.9302 152.216 36.6927 152.444 36.5234C152.671 36.3541 152.947 36.2618 153.23 36.2599C153.436 36.2337 153.645 36.2616 153.836 36.341C154.028 36.4203 154.195 36.5483 154.322 36.7123C154.479 36.9344 154.562 37.2003 154.559 37.4722C154.556 37.7441 154.468 38.0083 154.306 38.2271Z" fill="#F5F5F5"/>
<path d="M154.307 38.228C154.423 37.998 154.484 37.7441 154.485 37.4864C154.461 37.2063 154.364 36.9375 154.201 36.708C154.083 36.5883 153.938 36.4972 153.779 36.4416C153.62 36.3861 153.45 36.3674 153.283 36.3871H153.23C153.059 36.3922 152.891 36.431 152.735 36.5014C152.579 36.5718 152.439 36.6724 152.322 36.7974C152.162 36.9651 152.067 37.1839 152.054 37.4151C152.04 37.6462 152.109 37.8746 152.248 38.0597C152.358 38.2203 152.506 38.3519 152.678 38.4434C152.849 38.535 153.041 38.5838 153.235 38.5857C153.613 38.58 153.979 38.4589 154.286 38.2385C154.286 38.2385 154.238 38.3543 154.075 38.4857C153.833 38.6691 153.539 38.7721 153.235 38.7803C153.005 38.7914 152.776 38.7453 152.568 38.6462C152.36 38.5471 152.18 38.398 152.043 38.2122C151.874 37.9882 151.781 37.715 151.781 37.4338C151.788 37.1288 151.91 36.8377 152.122 36.6186C152.264 36.4669 152.436 36.3461 152.626 36.2638C152.817 36.1814 153.022 36.1393 153.23 36.1399C153.455 36.1101 153.683 36.141 153.892 36.2293C154.085 36.2969 154.256 36.4171 154.385 36.5765C154.569 36.846 154.664 37.1657 154.658 37.4917C154.627 38.0439 154.307 38.2543 154.307 38.228Z" fill="#263238"/>
<path d="M161.359 45.3007C161.367 45.3724 161.367 45.4448 161.359 45.5164C161.359 45.6794 161.385 45.8898 161.406 46.1686C161.438 46.7524 161.485 47.5887 161.548 48.6617C161.653 50.8287 161.789 53.9687 161.721 57.8503C161.7 58.8251 161.662 59.842 161.606 60.9009C161.569 61.4269 161.564 61.9529 161.48 62.5262C161.416 63.1179 161.122 63.6604 160.66 64.0357C160.159 64.37 159.581 64.5693 158.98 64.6143C158.381 64.6826 157.783 64.6879 157.179 64.7142L153.44 64.8615L149.512 65.0087L147.48 65.0876C146.766 65.143 146.049 65.0388 145.38 64.7826C145.043 64.6244 144.754 64.3815 144.539 64.0778C144.318 63.7923 144.12 63.4898 143.946 63.1731C143.763 62.8566 143.613 62.5217 143.5 62.1738C143.417 61.8148 143.371 61.4482 143.363 61.0798C143.248 59.6386 143.171 58.1782 143.132 56.6985C143.055 53.8126 143.126 50.9247 143.347 48.0463C143.452 46.6525 143.589 45.285 143.741 43.949C143.85 42.6298 144.116 41.3284 144.534 40.0726C144.966 38.8735 145.673 37.7926 146.598 36.9168C147.493 36.1074 148.576 35.5344 149.749 35.2495C150.027 35.1759 150.305 35.1075 150.583 35.0602L151.418 34.9602L152.238 34.9024H153.041C154.064 34.9004 155.084 35.0151 156.081 35.2442C156.993 35.4488 157.865 35.8044 158.66 36.2962C159.375 36.736 159.96 37.3587 160.356 38.1003C160.89 39.3189 161.195 40.626 161.254 41.9556C161.322 43.0391 161.322 43.8806 161.333 44.4539C161.333 44.7274 161.333 44.9431 161.333 45.1009C161.338 45.1762 161.338 45.2518 161.333 45.327C161.327 45.2535 161.327 45.1797 161.333 45.1061C161.333 44.9431 161.306 44.7327 161.291 44.4539C161.259 43.8859 161.243 43.0391 161.154 41.9609C161.08 40.6526 160.766 39.3691 160.23 38.1739C159.844 37.4587 159.272 36.8609 158.576 36.4435C157.793 35.9711 156.938 35.6317 156.045 35.4389C155.062 35.2213 154.058 35.1154 153.051 35.1233H152.259L151.45 35.1864L150.631 35.2863C150.356 35.3344 150.084 35.3976 149.817 35.4757C148.687 35.7555 147.645 36.3143 146.787 37.1009C145.906 37.9531 145.235 38.9995 144.828 40.1568C144.422 41.3963 144.164 42.6799 144.061 43.9806C143.909 45.3113 143.773 46.6788 143.673 48.0673C143.456 50.9354 143.386 53.8127 143.463 56.6879C143.5 58.1659 143.578 59.6228 143.689 61.0587C143.698 61.4125 143.74 61.7647 143.815 62.1107C143.924 62.44 144.066 62.7572 144.24 63.0574C144.406 63.3614 144.595 63.6516 144.807 63.9253C144.996 64.1981 145.253 64.4159 145.553 64.5564C146.182 64.7948 146.857 64.8901 147.527 64.8352L149.554 64.7668L153.482 64.6248L157.221 64.4933C157.83 64.4933 158.429 64.4617 159.001 64.3986C159.562 64.3603 160.104 64.1793 160.576 63.8727C160.993 63.5324 161.257 63.0406 161.312 62.5051C161.396 61.9792 161.406 61.4532 161.448 60.9272C161.511 59.8753 161.553 58.8602 161.579 57.8924C161.674 54.016 161.579 50.876 161.495 48.709C161.453 47.6571 161.422 46.7945 161.401 46.2107C161.401 45.9372 161.401 45.7215 161.401 45.5637C161.377 45.478 161.363 45.3897 161.359 45.3007Z" fill="#263238"/>
<path d="M158.523 62.5141L147.722 62.7876C146.75 62.8139 145.915 62.3774 145.857 61.8093L145.527 53.0625H160.23V61.478C160.24 62.0302 159.484 62.4931 158.523 62.5141Z" fill="#BB0A08"/>
<path d="M147.932 38.1156C147.383 38.9685 146.941 39.8852 146.614 40.8454C146.298 41.9003 146.087 42.9837 145.983 44.0801C145.857 45.3161 145.805 46.7099 145.742 48.1353C145.632 51.0176 145.637 53.6316 145.668 55.4988C145.668 56.4087 145.7 57.1609 145.71 57.7394C145.735 58.0124 145.735 58.287 145.71 58.5599C145.653 58.2919 145.621 58.0189 145.616 57.7447C145.574 57.2187 145.527 56.4508 145.485 55.5041C145.406 53.6106 145.369 50.9913 145.485 48.1037C145.548 46.6573 145.605 45.2845 145.752 44.0327C145.863 42.9218 146.096 41.8265 146.446 40.7665C146.688 40.0516 147.022 39.371 147.438 38.7415C147.548 38.569 147.669 38.4038 147.8 38.2471C147.874 38.1629 147.926 38.1103 147.932 38.1156Z" fill="#263238"/>
<path d="M159.873 51.8802C159.827 51.3553 159.827 50.8273 159.873 50.3023C159.904 49.3503 159.941 48.0302 159.936 46.5785C159.931 45.1268 159.878 43.8014 159.836 42.8494C159.783 42.3251 159.774 41.7972 159.81 41.2715C159.932 41.7752 160.006 42.2895 160.03 42.8073C160.125 43.7646 160.204 45.0847 160.209 46.5469C160.214 48.0091 160.146 49.3346 160.062 50.2918C160.053 50.8263 159.989 51.3586 159.873 51.8802Z" fill="#263238"/>
<path d="M158.166 62.5471C157.559 62.6527 156.944 62.709 156.328 62.7154C155.189 62.789 153.619 62.8626 151.88 62.931L149.428 63.0152C148.753 63.0638 148.074 63.016 147.412 62.8732C146.959 62.7632 146.542 62.5366 146.204 62.2157C146.072 62.1048 145.974 61.959 145.92 61.7949C145.92 61.7949 146.036 61.9369 146.277 62.1368C146.623 62.4017 147.026 62.5818 147.454 62.6628C148.102 62.7748 148.762 62.8014 149.418 62.7417L151.87 62.6365C153.608 62.5681 155.178 62.5208 156.323 62.505C156.938 62.4739 157.554 62.488 158.166 62.5471Z" fill="#263238"/>
<path d="M151.13 63.9367C151.051 63.9367 151.003 63.6895 151.019 63.4107C151.035 63.132 151.103 62.8848 151.182 62.8848C151.261 62.8848 151.303 63.1267 151.292 63.4107C151.282 63.6948 151.187 63.9367 151.13 63.9367Z" fill="#263238"/>
<path d="M151.655 63.6416C151.576 63.6416 151.518 63.426 151.518 63.1577C151.518 62.8895 151.576 62.6738 151.655 62.6738C151.733 62.6738 151.791 62.8895 151.791 63.1577C151.791 63.426 151.707 63.6416 151.655 63.6416Z" fill="#263238"/>
<path d="M157.652 63.7883C157.578 63.7883 157.478 63.5464 157.436 63.2255C157.394 62.9047 157.436 62.6417 157.494 62.6312C157.552 62.6207 157.662 62.8731 157.709 63.1887C157.757 63.5043 157.725 63.7778 157.652 63.7883Z" fill="#263238"/>
<path d="M158.229 63.8833C158.156 63.8833 158.035 63.6309 157.967 63.2837C157.898 62.9366 157.893 62.6473 157.967 62.6315C158.04 62.6157 158.161 62.884 158.229 63.2311C158.297 63.5783 158.303 63.8675 158.229 63.8833Z" fill="#263238"/>
<path d="M157.867 54.6152H148.667V57.6921H157.867V54.6152Z" fill="white"/>
<path d="M156.344 56.1192C154.354 56.3015 152.352 56.3015 150.363 56.1192C152.352 55.9368 154.354 55.9368 156.344 56.1192Z" fill="#263238"/>
<path d="M158.376 50.709C157.874 51.1093 157.348 51.4782 156.801 51.8135C155.829 52.4762 154.49 53.3914 153.041 54.4434C151.592 55.4953 150.31 56.5157 149.391 57.252C148.911 57.6713 148.404 58.0595 147.874 58.4144C147.976 58.2763 148.094 58.1509 148.226 58.041C148.467 57.8095 148.819 57.515 149.276 57.1047C150.169 56.3263 151.434 55.2954 152.889 54.2224C154.343 53.1495 155.703 52.2501 156.706 51.6294C157.231 51.3191 157.62 51.0719 157.909 50.9141C158.054 50.8237 158.211 50.7547 158.376 50.709Z" fill="white"/>
<path d="M154.37 51.2695C153.681 51.8958 152.936 52.4558 152.143 52.9421C151.4 53.5016 150.603 53.9861 149.764 54.3885C150.451 53.7604 151.196 53.2002 151.991 52.7159C152.734 52.1564 153.531 51.6719 154.37 51.2695Z" fill="white"/>
<path d="M106.237 153.477C106.237 153.477 108.485 152.867 109.719 152.477C110.496 152.23 113.032 151.589 114.088 152.03C115.143 152.472 116.23 154.108 116.23 154.108L115.385 158.137L109.645 163.838C109.645 163.838 108.511 164.58 107.676 164.086C106.841 163.591 106.395 164.48 105.749 163.691C105.308 163.165 103.706 160.656 102.761 159.178C102.539 158.829 102.396 158.435 102.342 158.024C102.289 157.613 102.326 157.196 102.451 156.801L103.092 154.786C103.299 154.112 103.667 153.497 104.164 152.996C104.661 152.495 105.271 152.122 105.943 151.909C106.239 151.775 106.575 151.758 106.883 151.862C107.545 152.278 106.237 153.477 106.237 153.477Z" fill="#FFBE9D"/>
<path d="M110.864 155.307C110.262 154.939 109.549 154.797 108.852 154.908C108.206 154.98 107.603 155.274 107.146 155.738C106.69 156.202 106.406 156.81 106.342 157.459C106.342 157.522 106.342 157.585 106.342 157.648C106.34 158.418 106.612 159.164 107.109 159.752C107.484 160.22 108.026 160.524 108.621 160.599C109.192 160.614 109.753 160.452 110.228 160.136C110.834 159.795 111.334 159.293 111.672 158.684C111.97 158.119 112.052 157.464 111.904 156.843C111.755 156.222 111.385 155.676 110.864 155.307Z" fill="#E0E0E0"/>
<path d="M106.741 159.258C106.63 159.018 106.544 158.768 106.484 158.511C106.39 158.21 106.33 157.899 106.306 157.585C106.267 157.158 106.359 156.729 106.568 156.354C106.825 155.904 107.185 155.522 107.618 155.239C108.106 154.926 108.636 154.686 109.194 154.529C109.326 154.5 109.45 154.441 109.557 154.359C109.664 154.276 109.751 154.171 109.813 154.05C109.846 153.92 109.84 153.784 109.795 153.657C109.75 153.531 109.669 153.421 109.561 153.34C109.313 153.16 109.021 153.047 108.716 153.014C108.388 153.014 108.061 153.058 107.744 153.146C107.096 153.235 106.491 153.521 106.012 153.966C105.585 154.416 105.231 154.929 104.961 155.486C104.724 155.99 104.548 156.519 104.436 157.064C104.369 157.543 104.396 158.031 104.515 158.5C104.653 159.2 104.877 159.88 105.182 160.525C105.299 160.759 105.438 160.981 105.597 161.188C105.597 161.188 105.534 161.151 105.434 161.056C105.3 160.909 105.184 160.746 105.087 160.572C104.739 159.935 104.482 159.252 104.326 158.542C104.184 158.049 104.146 157.531 104.216 157.022C104.32 156.452 104.497 155.897 104.741 155.371C105.005 154.792 105.36 154.26 105.791 153.793C105.907 153.661 106.04 153.544 106.185 153.446C106.332 153.348 106.489 153.265 106.652 153.198C106.979 153.071 107.314 152.968 107.655 152.888C107.997 152.794 108.351 152.749 108.705 152.757C109.065 152.796 109.407 152.93 109.698 153.146C109.847 153.261 109.959 153.418 110.017 153.597C110.075 153.777 110.077 153.97 110.023 154.15C109.948 154.307 109.838 154.444 109.703 154.552C109.568 154.661 109.41 154.737 109.241 154.776C108.699 154.921 108.18 155.144 107.702 155.439C107.296 155.697 106.954 156.047 106.705 156.459C106.502 156.8 106.405 157.194 106.426 157.59C106.438 157.895 106.48 158.198 106.552 158.495C106.638 158.743 106.701 158.998 106.741 159.258Z" fill="#EB996E"/>
<path d="M109.588 161.362C109.17 161.19 108.762 160.997 108.364 160.783C107.931 160.654 107.505 160.502 107.088 160.326C107.558 160.234 108.046 160.307 108.469 160.531C108.925 160.672 109.32 160.965 109.588 161.362Z" fill="#EB996E"/>
<path d="M112.066 158.609C111.709 159.143 111.259 159.608 110.738 159.982C109.939 160.655 109.43 161.323 109.367 161.281C109.621 160.681 110.033 160.161 110.559 159.777C111.018 159.334 111.523 158.943 112.066 158.609Z" fill="#EB996E"/>
<path d="M113.095 154.434C112.734 155.087 112.442 155.776 112.224 156.49C112.097 157.226 112.051 157.974 112.087 158.72C111.826 157.984 111.782 157.188 111.961 156.428C112.139 155.668 112.533 154.975 113.095 154.434Z" fill="#EB996E"/>
<path d="M138.322 148.454C138.196 148.454 138.101 150.968 138.059 152.52C138.054 152.678 138.081 152.836 138.139 152.984C138.196 153.132 138.282 153.267 138.392 153.381C138.502 153.494 138.634 153.585 138.78 153.647C138.926 153.708 139.083 153.74 139.241 153.74H142.313L144.938 151.578C145.15 151.406 145.294 151.165 145.348 150.897C145.402 150.63 145.361 150.352 145.233 150.111L143.185 146.219L140.16 148.16L138.322 148.454Z" fill="#F5F5F5"/>
<path d="M138.322 148.454C138.476 148.405 138.634 148.368 138.795 148.344L140.149 148.107H140.123L143.127 146.135L143.227 146.066L143.29 146.177C143.725 147.003 144.209 147.902 144.718 148.865C144.849 149.101 144.975 149.348 145.107 149.596L145.306 149.969C145.382 150.106 145.439 150.253 145.474 150.406C145.533 150.728 145.471 151.062 145.301 151.342C145.219 151.482 145.11 151.606 144.98 151.705L144.634 151.989L142.397 153.83L142.36 153.861H139.546C139.398 153.861 139.272 153.861 139.11 153.861C138.958 153.843 138.811 153.801 138.674 153.735C138.412 153.604 138.202 153.389 138.075 153.125C137.968 152.88 137.93 152.611 137.965 152.346C137.965 151.868 138.007 151.426 138.023 151.021C138.112 149.412 138.222 148.433 138.322 148.465C138.277 148.686 138.256 148.912 138.259 149.138C138.259 149.58 138.217 150.222 138.196 151.026C138.196 151.431 138.196 151.878 138.164 152.352C138.14 152.583 138.176 152.817 138.269 153.03C138.383 153.251 138.568 153.427 138.795 153.53C139.039 153.627 139.305 153.662 139.566 153.63H142.334L142.25 153.656L144.482 151.81C144.712 151.649 144.918 151.454 145.091 151.231C145.226 151.01 145.275 150.745 145.227 150.49C145.149 150.23 145.036 149.983 144.891 149.753C144.765 149.501 144.634 149.259 144.508 149.017C143.983 148.049 143.536 147.145 143.106 146.314L143.269 146.356L140.223 148.265L138.858 148.433C138.681 148.466 138.501 148.473 138.322 148.454Z" fill="#263238"/>
<path d="M165.922 128.135L149.055 139.022L151.802 143.898L165.922 128.135Z" fill="#BB0A08"/>
<path d="M184.737 129.698C184.737 129.698 180.767 130.224 176.939 130.681C174.555 130.976 172.602 129.724 171.536 127.562H171.184L165.906 128.136C162.971 130.419 151.03 141.164 150.001 144.083C148.856 147.339 149.04 154.434 149.04 154.434L139.892 166.205C139.892 166.205 137.398 168.13 140.942 173.306C144.487 178.481 155.373 186.718 155.373 186.718C155.373 186.718 163.05 189.59 165.04 187.77C167.03 185.95 180.358 161.529 180.358 161.529C180.358 161.529 186.491 150.379 187.856 147.197C190.671 140.601 189.988 133.622 184.737 129.698Z" fill="#BB0A08"/>
<path d="M163.675 131.539C163.502 131.73 163.314 131.906 163.113 132.065L161.537 133.38C160.183 134.479 158.297 136.01 156.207 137.64C155.157 138.471 154.149 139.218 153.283 139.991C152.512 140.647 151.808 141.379 151.182 142.174C150.619 142.922 150.153 143.739 149.796 144.604C149.796 144.604 149.796 144.536 149.833 144.409C149.882 144.231 149.941 144.055 150.011 143.884C150.268 143.236 150.61 142.625 151.03 142.069C151.648 141.244 152.352 140.488 153.13 139.813C153.997 139.039 155.005 138.266 156.045 137.435C158.145 135.784 160.041 134.279 161.427 133.227L163.076 131.981C163.261 131.815 163.461 131.667 163.675 131.539Z" fill="#263238"/>
<path d="M170.233 144.781C169.829 145.307 159.805 162.022 159.805 162.022L130.398 167.982L132.42 173.536C132.42 173.536 162.194 174.509 164.756 173.294C167.319 172.079 168.9 169.612 173.305 162.612C177.879 155.343 180.132 152.161 180.132 152.161L170.233 144.781Z" fill="#FFBE9D"/>
<path d="M161.007 160.02C162.992 161.503 168.065 165.08 170.233 166.637C170.869 167.094 172.029 166.368 172.455 165.706L178.635 155.875C179.024 155.276 178.667 154.35 178.11 153.913L168.936 146.855C168.269 146.329 166.836 147.381 166.437 148.107L160.582 158.053C160.426 158.382 160.384 158.753 160.461 159.109C160.538 159.464 160.73 159.785 161.007 160.02Z" fill="#263238"/>
<path d="M174.382 150.953C174.301 151.127 174.201 151.291 174.082 151.442C173.83 151.789 173.531 152.215 173.179 152.72C172.413 153.772 171.357 155.282 170.212 156.928C169.068 158.574 168.049 160.084 167.308 161.194L166.432 162.524C166.331 162.689 166.213 162.842 166.08 162.982C166.145 162.796 166.233 162.62 166.342 162.456C166.526 162.135 166.799 161.678 167.151 161.115C167.844 159.989 168.837 158.459 169.987 156.802C171.137 155.145 172.218 153.672 173.022 152.626C173.426 152.1 173.757 151.684 173.993 151.395C174.229 151.106 174.366 150.953 174.382 150.953Z" fill="#455A64"/>
<path d="M168.002 145.482L180.536 153.739C180.536 153.739 187.363 144.272 187.699 139.922C188.035 135.572 186.927 133.164 182.973 132.222C179.019 131.281 174.781 135.678 173.211 137.829C171.399 140.317 168.002 145.482 168.002 145.482Z" fill="#BB0A08"/>
<path d="M168.002 145.482C168.022 145.437 168.049 145.394 168.08 145.356C168.143 145.256 168.227 145.13 168.327 144.967L169.32 143.473L173.027 137.934C173.924 136.685 174.972 135.55 176.146 134.558C176.795 133.994 177.499 133.497 178.247 133.074C179.035 132.608 179.893 132.271 180.788 132.075L181.497 131.98H182.222C182.463 131.98 182.705 132.049 182.946 132.086C183.188 132.122 183.419 132.207 183.655 132.27C184.633 132.537 185.532 133.032 186.281 133.716C187.025 134.468 187.521 135.43 187.704 136.472C187.892 137.525 187.942 138.599 187.851 139.665C187.698 141.116 187.283 142.527 186.627 143.831C186.039 145.119 185.383 146.334 184.716 147.512C183.361 149.832 181.97 151.946 180.631 153.824L180.562 153.913L180.468 153.855L171.378 147.796L168.863 146.103L168.212 145.656C168.137 145.61 168.066 145.557 168.002 145.498L168.248 145.645L168.936 146.082L171.504 147.738L180.589 153.656L180.431 153.687C181.754 151.809 183.135 149.695 184.474 147.376C185.136 146.218 185.787 145.003 186.37 143.725C187.011 142.452 187.417 141.073 187.567 139.654C187.654 138.615 187.608 137.568 187.431 136.541C187.26 135.546 186.789 134.629 186.081 133.911C185.367 133.251 184.504 132.774 183.566 132.522C183.335 132.459 183.109 132.385 182.878 132.338C182.647 132.291 182.421 132.259 182.19 132.233H181.502L180.825 132.322C179.957 132.51 179.124 132.833 178.357 133.28C177.624 133.698 176.931 134.184 176.288 134.731C175.123 135.705 174.081 136.818 173.184 138.045L169.425 143.473C168.978 144.104 168.632 144.604 168.374 144.961L168.096 145.351C168.068 145.397 168.036 145.441 168.002 145.482Z" fill="#263238"/>
<path d="M130.393 167.982L127.925 168.924C127.589 169.208 119.586 176.961 119.586 176.961L118.383 182.457C118.581 182.598 118.821 182.668 119.064 182.657C119.306 182.645 119.538 182.553 119.722 182.394C120.237 182.013 120.585 181.448 120.694 180.816L121.445 178.397L123.545 176.145L121.818 179.601L120.977 183.809C121.089 183.98 121.247 184.114 121.434 184.197C121.62 184.279 121.827 184.305 122.028 184.272C122.626 184.119 122.81 183.151 122.81 183.151C122.81 183.151 123.382 183.935 123.986 183.677C124.59 183.42 126.565 180.401 126.565 180.401C126.565 180.401 127.715 177.85 127.704 178.007C127.694 178.165 126.99 180.427 126.99 180.427C126.99 180.427 125.415 182.951 125.735 183.325C125.829 183.447 125.949 183.548 126.086 183.619C126.223 183.689 126.374 183.729 126.528 183.735C126.685 183.735 128.733 180.748 129.117 180.264C129.5 179.78 132.451 174.71 132.451 174.71L133.402 171.696L130.393 167.982Z" fill="#FFBE9D"/>
<path d="M125.982 177.086C125.871 177.414 125.704 177.72 125.488 177.991C125.031 178.669 124.61 179.371 124.228 180.094C123.829 180.952 123.571 181.788 123.314 182.372C123.208 182.701 123.038 183.007 122.815 183.271C122.899 182.942 123.006 182.618 123.136 182.304C123.372 181.511 123.654 180.733 123.981 179.973C124.366 179.232 124.818 178.528 125.331 177.87C125.523 177.589 125.741 177.326 125.982 177.086Z" fill="#EB996E"/>
<path d="M107.603 201.787L80.0813 217.708C79.5789 217.999 79.0244 218.188 78.4493 218.263C77.8741 218.339 77.2897 218.301 76.7294 218.15C76.1691 218 75.6439 217.74 75.1838 217.387C74.7236 217.033 74.3376 216.592 74.0477 216.088C73.7569 215.586 73.5681 215.03 73.492 214.454C73.4159 213.878 73.4541 213.292 73.6043 212.731C73.7546 212.169 74.014 211.643 74.3676 211.182C74.7212 210.721 75.1621 210.335 75.6651 210.045L103.186 194.124C104.201 193.539 105.407 193.381 106.538 193.684C107.669 193.988 108.634 194.729 109.22 195.744C109.511 196.247 109.7 196.803 109.776 197.379C109.852 197.955 109.814 198.541 109.663 199.102C109.513 199.663 109.254 200.189 108.9 200.65C108.547 201.111 108.106 201.498 107.603 201.787Z" fill="#455A64"/>
<path d="M107.603 201.787C107.603 201.787 107.881 201.624 108.333 201.225C108.984 200.622 109.442 199.838 109.645 198.973C109.783 198.353 109.783 197.711 109.645 197.09C109.483 196.296 109.101 195.564 108.544 194.975C107.988 194.387 107.278 193.966 106.495 193.761C105.555 193.522 104.563 193.603 103.675 193.992L75.7333 210.161C75.0773 210.542 74.5336 211.09 74.1574 211.75C73.7811 212.409 73.5857 213.157 73.5908 213.916C73.5996 214.654 73.7973 215.377 74.1651 216.016C74.5329 216.655 75.0584 217.189 75.6913 217.566C76.3027 217.928 76.9942 218.132 77.7036 218.159C78.4131 218.187 79.1182 218.037 79.7557 217.724C80.995 217.046 82.208 216.32 83.3948 215.647L95.9976 208.404L104.473 203.549L106.789 202.24L107.393 201.903L107.603 201.798L107.408 201.929L106.815 202.287L104.525 203.644L96.0711 208.578L83.5208 215.873C82.3288 216.556 81.142 217.272 79.8712 217.977C79.1941 218.309 78.4452 218.467 77.6918 218.438C76.9384 218.408 76.2041 218.192 75.5548 217.808C74.8863 217.409 74.3298 216.846 73.9374 216.173C73.5453 215.486 73.3339 214.712 73.323 213.921C73.3168 213.114 73.5239 212.32 73.9232 211.619C74.3226 210.918 74.8999 210.335 75.5968 209.929L90.988 201.04L97.7147 197.164L100.76 195.413L102.199 194.587C102.672 194.324 103.113 194.061 103.596 193.819C104.211 193.552 104.878 193.426 105.548 193.45C106.218 193.475 106.874 193.65 107.468 193.961C108.061 194.273 108.578 194.714 108.979 195.252C109.381 195.79 109.657 196.411 109.787 197.069C109.939 197.834 109.889 198.625 109.64 199.363C109.391 200.102 108.953 200.762 108.369 201.277C108.195 201.431 108.007 201.568 107.807 201.687C107.742 201.726 107.673 201.759 107.603 201.787Z" fill="#263238"/>
<path d="M194.882 108.539C191.873 111.695 190.487 116.05 189.71 120.342C189.411 122.004 189.185 123.75 189.71 125.355C190.235 126.959 191.711 128.368 193.386 128.284C195.061 128.2 196.405 126.659 197.398 125.223C201.646 119.054 204.355 113.073 206.634 105.936L206.734 105.741C202.859 103.79 197.865 105.384 194.882 108.539Z" fill="#455A64"/>
<path d="M212.568 97.5977C212.241 97.4395 211.887 97.3479 211.524 97.3282C211.162 97.3086 210.799 97.3612 210.457 97.483C210.115 97.6048 209.801 97.7935 209.532 98.038C209.264 98.2825 209.046 98.578 208.892 98.9073L166.72 189.721C166.293 190.611 165.622 191.362 164.785 191.885C163.948 192.408 162.981 192.683 161.994 192.677C151.266 192.629 117.632 192.477 110.895 192.382C110.312 192.376 109.736 192.515 109.22 192.787C108.163 193.459 107.393 194.502 107.062 195.712C106.736 196.913 106.56 198.149 106.537 199.393C106.379 202.239 106.222 205.205 106.064 208.146C106.029 208.844 106.137 209.542 106.38 210.197C106.624 210.853 106.999 211.451 107.482 211.956C107.964 212.462 108.545 212.863 109.188 213.135C109.831 213.408 110.523 213.546 111.221 213.542H128.093C126.733 213.542 159.805 214.168 173.61 214.426C175.357 214.459 177.073 213.966 178.537 213.012C180.002 212.057 181.146 210.685 181.823 209.071L227.009 107.665C227.297 107.016 227.323 106.281 227.082 105.614C226.841 104.946 226.352 104.398 225.717 104.083L212.568 97.5977Z" fill="#455A64"/>
<path d="M212.568 97.597L213.424 98.0073L215.929 99.2275L225.575 103.961C226.141 104.201 226.616 104.616 226.93 105.145C227.259 105.706 227.384 106.364 227.282 107.007C227.222 107.336 227.116 107.654 226.967 107.953L226.557 108.874C226.279 109.494 226.001 110.131 225.712 110.783L221.952 119.246L212.747 139.906C205.92 155.233 197.791 173.515 188.728 193.881L181.749 209.539C181.099 210.892 180.117 212.057 178.894 212.926C177.672 213.796 176.249 214.34 174.76 214.509C174.01 214.569 173.258 214.58 172.507 214.541L170.254 214.499L165.717 214.414L147.139 214.067L137.634 213.883L132.834 213.788L130.419 213.741L129.211 213.715H128.602H128.077C128.024 213.773 128.045 213.189 128.077 213.436L128.119 213.71H111.221C110.363 213.703 109.519 213.492 108.758 213.094C108.002 212.694 107.356 212.115 106.874 211.407C106.393 210.699 106.091 209.885 105.996 209.034C105.955 208.202 105.973 207.369 106.048 206.541C106.09 205.715 106.138 204.894 106.18 204.074C106.267 202.433 106.356 200.799 106.447 199.172C106.537 197.557 106.673 195.853 107.498 194.401C107.904 193.669 108.506 193.065 109.236 192.655C109.611 192.466 110.016 192.345 110.433 192.297C110.853 192.25 111.247 192.297 111.651 192.297L116.435 192.329L153.057 192.55L161.7 192.603C162.392 192.641 163.084 192.539 163.735 192.303C164.387 192.067 164.984 191.702 165.491 191.23C166.542 190.304 166.925 188.905 167.55 187.674L174.34 173.042L186.528 146.822C193.984 130.775 200.018 117.815 204.166 108.842C205.217 106.607 206.136 104.634 206.944 102.888L208.057 100.506L208.541 99.4537C208.677 99.1375 208.833 98.8301 209.008 98.5332C209.33 98.0496 209.797 97.6811 210.342 97.4813C210.731 97.3321 211.15 97.2763 211.565 97.3183C211.817 97.3399 212.065 97.3984 212.3 97.4918L212.531 97.597C212.226 97.4596 211.899 97.3742 211.565 97.3446C211.153 97.3094 210.738 97.3688 210.352 97.5181C209.819 97.7221 209.365 98.0905 209.055 98.5701C208.883 98.8666 208.73 99.1741 208.598 99.4905L208.115 100.542L207.018 102.936C206.22 104.661 205.295 106.654 204.261 108.9L186.68 146.896C182.962 154.912 178.892 163.695 174.524 173.126C172.339 177.846 170.081 182.718 167.75 187.743C167.461 188.368 167.167 189 166.878 189.631C166.584 190.285 166.165 190.875 165.644 191.366C165.115 191.861 164.491 192.245 163.811 192.493C163.131 192.742 162.408 192.85 161.684 192.813L153.041 192.766L116.414 192.56H111.63C111.231 192.56 110.822 192.534 110.444 192.56C110.06 192.608 109.687 192.72 109.341 192.892C108.659 193.278 108.097 193.846 107.718 194.533C106.915 195.916 106.773 197.568 106.668 199.182C106.563 200.797 106.495 202.443 106.405 204.084C106.363 204.905 106.316 205.725 106.274 206.546C106.203 207.361 106.183 208.18 106.216 208.997C106.309 209.804 106.596 210.576 107.054 211.247C107.511 211.918 108.125 212.467 108.842 212.847C109.563 213.226 110.364 213.427 111.179 213.431H128.051V213.704C128.009 213.925 128.014 213.352 128.051 213.436H128.576H129.18L130.387 213.462L132.803 213.51L137.603 213.604L147.107 213.788L165.66 214.146L170.197 214.23L172.449 214.272C173.19 214.312 173.932 214.301 174.671 214.241C176.125 214.084 177.516 213.558 178.71 212.712C179.905 211.866 180.864 210.728 181.497 209.407C183.881 204.07 186.209 198.856 188.481 193.765L212.568 139.811C215.987 132.158 219.074 125.237 221.789 119.167C223.144 116.134 224.404 113.316 225.57 110.715L226.421 108.811C226.557 108.5 226.694 108.19 226.83 107.89C226.977 107.602 227.081 107.293 227.14 106.975C227.241 106.357 227.124 105.723 226.809 105.181C226.506 104.671 226.048 104.271 225.502 104.04L215.882 99.2749L213.387 98.0283C212.836 97.7496 212.568 97.597 212.568 97.597Z" fill="#263238"/>
<path d="M218.912 100.734C218.912 100.734 218.854 100.876 218.733 101.155C218.612 101.434 218.418 101.855 218.176 102.391C217.683 103.475 216.953 105.068 216.024 107.125L208.052 124.482C201.294 139.141 191.963 159.385 181.66 181.744L176.619 192.663L172.418 203.277L172.386 203.361H172.297L125.262 203.314L111.583 203.272H107.907H106.962H106.642C106.642 203.272 106.752 203.272 106.962 203.272H107.907H111.583L125.262 203.235L172.297 203.188L172.171 203.272C173.531 199.842 174.944 196.292 176.372 192.647L181.413 181.723L207.879 124.492C211.276 117.176 214.028 111.259 215.929 107.135L218.129 102.428L218.712 101.208C218.838 100.871 218.912 100.734 218.912 100.734Z" fill="#263238"/>
<g opacity="0.3">
<path d="M171.341 179.759C171.341 179.759 182.211 178.276 183.829 180.175C185.446 182.074 189.852 191.041 189.852 191.041L192.477 186.355L189.253 176.146L181.161 175.252H173.431L171.341 179.759Z" fill="black"/>
</g>
<g opacity="0.3">
<path d="M133.396 192.424L128.082 213.547H125.441L130.372 192.424H133.396Z" fill="black"/>
</g>
<path d="M209.291 98.5138C209.36 98.5454 206.902 103.931 203.809 110.543C200.716 117.154 198.143 122.487 198.075 122.456C198.007 122.424 200.491 117.038 203.557 110.453C206.624 103.868 209.223 98.4823 209.291 98.5138Z" fill="#263238"/>
<path d="M192.719 179.997C191.448 176.168 187.725 173.559 183.456 173.501C181.161 173.475 178.394 173.427 175.458 173.38C164.053 173.196 149.859 172.965 143.321 173.322C137.02 173.669 133.27 176.478 131.243 178.777C129.922 180.237 128.931 181.967 128.339 183.847V183.931C123.613 205.17 114.109 246.584 113.778 247.868L118.504 247.931C118.872 246.574 131.075 191.421 132.54 184.815C132.724 184.21 134.867 177.83 143.568 177.351C149.938 176.999 164.047 177.23 175.379 177.414C178.315 177.467 181.087 177.509 183.393 177.54C184.534 177.532 185.65 177.879 186.585 178.534C187.52 179.189 188.229 180.119 188.612 181.196L210.667 247.857H215.393L192.719 179.997Z" fill="#455A64"/>
<path d="M192.719 179.995C192.719 179.995 192.866 180.395 193.134 181.189C193.401 181.983 193.801 183.162 194.326 184.703L198.868 198.21L215.504 247.824L215.546 247.961H210.573V247.887C205.049 231.214 198.695 212.011 191.763 191.083L189.138 183.146L188.465 181.142C188.241 180.491 187.883 179.895 187.415 179.39C186.437 178.376 185.109 177.772 183.703 177.702L166.237 177.429C160.319 177.355 154.312 177.276 148.231 177.365C146.708 177.392 145.185 177.423 143.657 177.507C142.137 177.59 140.637 177.893 139.204 178.407C137.754 178.919 136.428 179.734 135.316 180.798C134.203 181.861 133.329 183.149 132.75 184.576C132.713 184.667 132.682 184.761 132.656 184.855C127.73 207.004 122.989 228.316 118.614 247.971V248.071H118.509L113.783 248.008H113.626L113.662 247.85L125.971 193.891C126.433 191.865 126.89 189.868 127.342 187.901C127.569 186.915 127.792 185.939 128.009 184.971C128.129 184.487 128.203 184.003 128.366 183.525C128.525 183.056 128.712 182.597 128.928 182.152C129.77 180.406 130.94 178.838 132.372 177.534C133.761 176.279 135.361 175.282 137.098 174.588C138.761 173.925 140.51 173.502 142.292 173.331C144.04 173.173 145.747 173.152 147.417 173.11C150.762 173.053 153.955 173.063 156.99 173.079C163.06 173.121 168.506 173.216 173.268 173.3L179.869 173.41L182.768 173.458C183.648 173.443 184.527 173.515 185.393 173.673C186.161 173.819 186.908 174.056 187.62 174.378C188.245 174.658 188.84 175.002 189.395 175.404C190.568 176.253 191.531 177.362 192.209 178.644C192.346 178.938 192.472 179.17 192.551 179.385C192.703 179.801 192.777 180.011 192.777 180.011L192.53 179.396C192.451 179.191 192.32 178.954 192.183 178.659C192.002 178.329 191.802 178.01 191.585 177.702C190.974 176.833 190.222 176.073 189.358 175.456C188.804 175.06 188.211 174.721 187.588 174.446C186.881 174.129 186.139 173.898 185.378 173.757C184.522 173.604 183.653 173.535 182.784 173.552L179.885 173.515L173.284 173.421C168.532 173.352 163.086 173.268 157.006 173.237C153.97 173.237 150.778 173.237 147.438 173.289C145.768 173.326 144.056 173.358 142.329 173.51C140.565 173.685 138.835 174.107 137.188 174.762C135.479 175.453 133.905 176.441 132.54 177.681C131.127 178.968 129.974 180.514 129.143 182.236C128.942 182.676 128.767 183.127 128.618 183.588C128.471 184.04 128.387 184.54 128.271 185.018C128.051 185.986 127.828 186.963 127.604 187.948C127.16 189.915 126.706 191.914 126.244 193.944C122.568 210.181 118.42 228.342 113.967 247.913L113.846 247.75L118.572 247.814L118.446 247.908C122.81 228.258 127.547 206.946 132.467 184.792C132.498 184.697 132.53 184.598 132.567 184.503C133.14 183.044 134.014 181.722 135.131 180.624C136.249 179.525 137.585 178.675 139.052 178.128C140.515 177.608 142.044 177.3 143.594 177.213C145.122 177.129 146.65 177.097 148.173 177.071C154.259 176.987 160.251 177.071 166.19 177.139L183.666 177.418C185.14 177.49 186.53 178.124 187.552 179.191C188.055 179.717 188.442 180.345 188.686 181.031C188.912 181.705 189.137 182.373 189.358 183.041C190.24 185.713 191.115 188.358 191.984 190.978L210.751 247.824L210.652 247.75H215.378L215.283 247.882C208.304 226.954 202.649 209.981 198.731 198.241C196.783 192.371 195.271 187.811 194.242 184.718L193.081 181.195C192.845 180.406 192.719 179.995 192.719 179.995Z" fill="#263238"/>
</g>
<defs>
<clipPath id="clip0_3336_3186">
<rect width="227" height="263" fill="white"/>
</clipPath>
</defs>
</svg>
