<svg width="16" height="17" viewBox="0 0 16 17" fill="none" xmlns="http://www.w3.org/2000/svg">
<g clip-path="url(#clip0_3577_3769)">
<path d="M12.8888 10.2782C12.3847 10.2786 11.8883 10.4016 11.4425 10.6367C10.9966 10.8718 10.6146 11.2118 10.3295 11.6275L5.99012 9.66817C6.29833 8.92392 6.29952 8.08796 5.99345 7.34283L10.3268 5.3735C10.7494 5.98467 11.377 6.42414 12.0958 6.6122C12.8147 6.80025 13.5771 6.72443 14.2449 6.3985C14.9126 6.07256 15.4414 5.5181 15.7353 4.83568C16.0293 4.15325 16.0689 3.38808 15.847 2.67895C15.6251 1.96982 15.1564 1.3637 14.5259 0.970535C13.8954 0.577374 13.1449 0.423213 12.4105 0.536016C11.6761 0.648818 11.0064 1.02111 10.5229 1.58537C10.0395 2.14962 9.7743 2.86846 9.77545 3.6115C9.77828 3.78736 9.79612 3.96267 9.82878 4.1355L5.22212 6.22883C4.77968 5.81431 4.22579 5.53806 3.6285 5.43401C3.03121 5.32996 2.41654 5.40264 1.85999 5.64314C1.30344 5.88363 0.829268 6.28146 0.495715 6.78774C0.162163 7.29402 -0.0162385 7.88671 -0.0175706 8.493C-0.0189027 9.09928 0.156892 9.69275 0.488217 10.2005C0.819542 10.7082 1.29197 11.1081 1.84745 11.3511C2.40293 11.594 3.01728 11.6694 3.61502 11.568C4.21276 11.4666 4.76786 11.1927 5.21212 10.7802L9.83078 12.8655C9.7987 13.0382 9.78109 13.2132 9.77812 13.3888C9.77799 14.0043 9.96037 14.6059 10.3022 15.1176C10.644 15.6294 11.1299 16.0283 11.6985 16.2639C12.267 16.4994 12.8927 16.5611 13.4963 16.4411C14.0999 16.3211 14.6543 16.0247 15.0895 15.5895C15.5247 15.1544 15.821 14.5999 15.941 13.9963C16.0611 13.3927 15.9994 12.7671 15.7638 12.1985C15.5282 11.63 15.1294 11.1441 14.6176 10.8022C14.1058 10.4604 13.5042 10.278 12.8888 10.2782ZM12.8888 1.8335C13.2405 1.83337 13.5843 1.93753 13.8768 2.13282C14.1692 2.32811 14.3972 2.60575 14.5319 2.93063C14.6666 3.2555 14.7019 3.61302 14.6334 3.95796C14.5648 4.3029 14.3956 4.61977 14.1469 4.8685C13.8983 5.11722 13.5815 5.28663 13.2366 5.35529C12.8917 5.42394 12.5341 5.38877 12.2092 5.25422C11.8843 5.11967 11.6065 4.89178 11.4111 4.59937C11.2157 4.30697 11.1115 3.96318 11.1115 3.6115C11.1118 3.14017 11.2992 2.68823 11.6324 2.35489C11.9656 2.02154 12.4175 1.83403 12.8888 1.8335ZM3.11145 10.2782C2.75977 10.2783 2.41594 10.1741 2.12347 9.97884C1.83099 9.78355 1.60299 9.50591 1.46832 9.18104C1.33364 8.85616 1.29834 8.49865 1.36687 8.1537C1.4354 7.80876 1.60468 7.49189 1.85331 7.24317C2.10194 6.99444 2.41875 6.82504 2.76367 6.75638C3.10859 6.68772 3.46612 6.72289 3.79104 6.85744C4.11597 6.992 4.39369 7.21989 4.58909 7.51229C4.78449 7.8047 4.88878 8.14848 4.88878 8.50016C4.88826 8.97144 4.70085 9.42327 4.36767 9.75658C4.03449 10.0899 3.58273 10.2775 3.11145 10.2782ZM12.8888 15.1668C12.5371 15.1668 12.1934 15.0626 11.901 14.8672C11.6086 14.6718 11.3807 14.3941 11.2461 14.0692C11.1116 13.7444 11.0763 13.3869 11.1449 13.042C11.2136 12.6971 11.3829 12.3803 11.6315 12.1316C11.8802 11.8829 12.197 11.7136 12.5419 11.645C12.8868 11.5764 13.2443 11.6116 13.5692 11.7462C13.8941 11.8807 14.1718 12.1086 14.3671 12.401C14.5625 12.6934 14.6668 13.0372 14.6668 13.3888C14.6664 13.8603 14.479 14.3123 14.1456 14.6457C13.8123 14.979 13.3602 15.1665 12.8888 15.1668Z" fill="#52575C"/>
</g>
<defs>
<clipPath id="clip0_3577_3769">
<rect width="16" height="16" fill="white" transform="translate(0 0.5)"/>
</clipPath>
</defs>
</svg>
