<svg width="16" height="16" viewBox="0 0 16 16" fill="none" xmlns="http://www.w3.org/2000/svg">
<path d="M12.8888 9.77816C12.3847 9.77858 11.8883 9.90163 11.4425 10.1367C10.9966 10.3718 10.6146 10.7118 10.3295 11.1275L5.99012 9.16816C6.29833 8.42392 6.29952 7.58796 5.99345 6.84283L10.3268 4.8735C10.7494 5.48467 11.377 5.92414 12.0958 6.1122C12.8147 6.30025 13.5771 6.22443 14.2449 5.8985C14.9126 5.57256 15.4414 5.0181 15.7353 4.33568C16.0293 3.65325 16.0689 2.88808 15.847 2.17895C15.6251 1.46981 15.1564 0.863696 14.5259 0.470535C13.8954 0.0773743 13.1449 -0.0767867 12.4105 0.0360157C11.6761 0.148818 11.0064 0.521112 10.5229 1.08537C10.0395 1.64962 9.7743 2.36846 9.77545 3.1115C9.77828 3.28736 9.79612 3.46267 9.82878 3.6355L5.22212 5.72883C4.77968 5.31431 4.22579 5.03806 3.6285 4.93401C3.03121 4.82996 2.41654 4.90264 1.85999 5.14314C1.30344 5.38363 0.829268 5.78146 0.495715 6.28774C0.162163 6.79402 -0.0162385 7.38671 -0.0175706 7.993C-0.0189027 8.59928 0.156892 9.19275 0.488217 9.70049C0.819542 10.2082 1.29197 10.6081 1.84745 10.8511C2.40293 11.094 3.01728 11.1694 3.61502 11.068C4.21276 10.9666 4.76786 10.6927 5.21212 10.2802L9.83078 12.3655C9.7987 12.5382 9.78109 12.7132 9.77812 12.8888C9.77799 13.5043 9.96037 14.1059 10.3022 14.6176C10.644 15.1294 11.1299 15.5283 11.6985 15.7639C12.267 15.9994 12.8927 16.0611 13.4963 15.9411C14.0999 15.8211 14.6543 15.5247 15.0895 15.0895C15.5247 14.6544 15.821 14.0999 15.941 13.4963C16.0611 12.8927 15.9994 12.2671 15.7638 11.6985C15.5282 11.13 15.1294 10.6441 14.6176 10.3022C14.1058 9.96041 13.5042 9.77803 12.8888 9.77816V9.77816ZM12.8888 1.3335C13.2405 1.33337 13.5843 1.43753 13.8768 1.63282C14.1692 1.82811 14.3972 2.10575 14.5319 2.43063C14.6666 2.7555 14.7019 3.11302 14.6334 3.45796C14.5648 3.8029 14.3956 4.11977 14.1469 4.3685C13.8983 4.61722 13.5815 4.78663 13.2366 4.85529C12.8917 4.92394 12.5341 4.88877 12.2092 4.75422C11.8843 4.61967 11.6065 4.39178 11.4111 4.09937C11.2157 3.80697 11.1115 3.46318 11.1115 3.1115C11.1118 2.64017 11.2992 2.18823 11.6324 1.85489C11.9656 1.52154 12.4175 1.33403 12.8888 1.3335V1.3335ZM3.11145 9.77816C2.75977 9.7783 2.41594 9.67413 2.12347 9.47884C1.83099 9.28355 1.60299 9.00591 1.46832 8.68104C1.33364 8.35616 1.29834 7.99865 1.36687 7.6537C1.4354 7.30876 1.60468 6.99189 1.85331 6.74316C2.10194 6.49444 2.41875 6.32504 2.76367 6.25638C3.10859 6.18772 3.46612 6.22289 3.79104 6.35744C4.11597 6.492 4.39369 6.71989 4.58909 7.01229C4.78449 7.3047 4.88878 7.64848 4.88878 8.00016C4.88826 8.47144 4.70085 8.92328 4.36767 9.25658C4.03449 9.58989 3.58273 9.77746 3.11145 9.77816ZM12.8888 14.6668C12.5371 14.6668 12.1934 14.5626 11.901 14.3672C11.6086 14.1718 11.3807 13.8941 11.2461 13.5692C11.1116 13.2444 11.0763 12.8869 11.1449 12.542C11.2136 12.1971 11.3829 11.8803 11.6315 11.6316C11.8802 11.3829 12.197 11.2136 12.5419 11.145C12.8868 11.0764 13.2443 11.1116 13.5692 11.2462C13.8941 11.3807 14.1718 11.6086 14.3671 11.901C14.5625 12.1934 14.6668 12.5372 14.6668 12.8888C14.6664 13.3603 14.479 13.8123 14.1456 14.1457C13.8123 14.479 13.3602 14.6665 12.8888 14.6668V14.6668Z" fill="white"/>
</svg>
