<svg width="20" height="20" viewBox="0 0 20 20" fill="none" xmlns="http://www.w3.org/2000/svg">
<path d="M19.5347 0.647751C19.2367 0.355554 18.8326 0.191406 18.4112 0.191406C17.9898 0.191406 17.5857 0.355554 17.2877 0.647751L10 7.79561L2.71229 0.647751C2.41429 0.355554 2.01016 0.191406 1.58878 0.191406C1.1674 0.191406 0.763278 0.355554 0.465273 0.647751C0.167359 0.940037 0 1.33641 0 1.7497C0 2.16299 0.167359 2.55936 0.465273 2.85165L7.75298 9.99951L0.465273 17.1474C0.167359 17.4397 0 17.836 0 18.2493C0 18.6626 0.167359 19.059 0.465273 19.3513C0.763278 19.6435 1.1674 19.8076 1.58878 19.8076C2.01016 19.8076 2.41429 19.6435 2.71229 19.3513L10 12.2034L17.2877 19.3513C17.5857 19.6435 17.9898 19.8076 18.4112 19.8076C18.8326 19.8076 19.2367 19.6435 19.5347 19.3513C19.8326 19.059 20 18.6626 20 18.2493C20 17.836 19.8326 17.4397 19.5347 17.1474L12.247 9.99951L19.5347 2.85165C19.8326 2.55936 20 2.16299 20 1.7497C20 1.33641 19.8326 0.940037 19.5347 0.647751Z" fill="#52575C"/>
</svg>
